<svg preserveAspectRatio="xMidYMid meet" data-bbox="0 0 577.999 135.596" viewBox="0 0 577.999 135.596" height="135.588" width="577.999" xmlns="http://www.w3.org/2000/svg" data-type="color" role="img" aria-label="Logo Debunk.org">
    <g>
        <path d="M56.585 28.292v28.292H28.292v24.787c0 29.895 24.062 54.217 53.638 54.217s53.637-24.322 53.637-54.217V28.292Zm50.69 53.38a25.346 25.346 0 1 1-50.69 0V56.59h50.69Z" fill="#d71d24" data-color="1"></path>
        <path fill="#d71d24" d="M28.292 0v28.292H0V0h28.292z" data-color="1"></path>
        <path d="M205.243 32.324a27.696 27.696 0 0 1 10.687 10.687 30.959 30.959 0 0 1 3.857 15.497 30.468 30.468 0 0 1-3.812 15.27 26.927 26.927 0 0 1-10.641 10.506 31.645 31.645 0 0 1-15.543 3.766h-24.278V28.467h24.278a30.868 30.868 0 0 1 15.452 3.857Zm-4.357 38.686q4.606-4.787 4.606-12.502 0-7.987-4.606-12.865t-12.411-4.878h-9.394v35.033h9.394q7.805 0 12.411-4.788Z" fill="#231f20" data-color="2"></path>
        <path d="M260.67 85.214a25.681 25.681 0 0 1-25.504 1.27 19.497 19.497 0 0 1-7.805-7.85 23.956 23.956 0 0 1-2.768-11.685 24.184 24.184 0 0 1 2.768-11.753 19.023 19.023 0 0 1 7.805-7.806 23.471 23.471 0 0 1 11.345-2.722 23.053 23.053 0 0 1 11.05 2.586 18.547 18.547 0 0 1 7.488 7.193 20.565 20.565 0 0 1 2.654 10.46 25.951 25.951 0 0 1-.544 5.672H237.39a8.025 8.025 0 0 0 2.745 5.945 9.783 9.783 0 0 0 6.648 2.223 11.365 11.365 0 0 0 5.31-1.157 6.323 6.323 0 0 0 3.04-3.017h12.661a16.61 16.61 0 0 1-7.125 10.641Zm-6.263-23.075a6.347 6.347 0 0 0-2.428-5.038 10.427 10.427 0 0 0-11.89 0 6.614 6.614 0 0 0-2.518 5.038Z" fill="#231f20" data-color="2"></path>
        <path d="M311.608 47.436a19.142 19.142 0 0 1 7.351 7.896 25.098 25.098 0 0 1 2.655 11.708 24.551 24.551 0 0 1-2.655 11.617 19.43 19.43 0 0 1-7.351 7.828 21.985 21.985 0 0 1-19.037 1.157 13.768 13.768 0 0 1-5.9-4.628l-.771 5.036h-10.755V24.292h12.979v24.913a14.67 14.67 0 0 1 5.4-3.335 21.17 21.17 0 0 1 7.351-1.202 20.736 20.736 0 0 1 10.733 2.768Zm-6.036 27.205a10.788 10.788 0 0 0 2.746-7.692 10.832 10.832 0 0 0-2.7-7.647 9.37 9.37 0 0 0-7.238-2.927 9.815 9.815 0 0 0-7.352 2.882 10.414 10.414 0 0 0-2.813 7.601 10.827 10.827 0 0 0 2.79 7.76 9.679 9.679 0 0 0 7.375 2.95 9.405 9.405 0 0 0 7.192-2.927Z" fill="#231f20" data-color="2"></path>
        <path d="M369.08 46.12v41.93h-10.754l-.862-4.72a13.829 13.829 0 0 1-5.514 4.47 17.72 17.72 0 0 1-7.329 1.475q-7.533 0-11.617-4.47t-4.084-12.184V46.12h13.024v24.55q0 3.902 1.815 5.627a7.357 7.357 0 0 0 5.264 1.724 6.557 6.557 0 0 0 5.196-2.087 8.212 8.212 0 0 0 1.838-5.627V46.12Z" fill="#231f20" data-color="2"></path>
        <path d="M414.982 49.387q4.198 4.72 4.198 12.66V88.05h-13.024V65.088q0-8.622-7.08-8.622a7.077 7.077 0 0 0-5.627 2.178 8.932 8.932 0 0 0-1.906 6.081V88.05h-12.887V46.12h10.755l.862 4.583a13.48 13.48 0 0 1 5.423-4.402 17.52 17.52 0 0 1 7.555-1.633q7.533 0 11.731 4.719Z" fill="#231f20" data-color="2"></path>
        <path d="m456.844 61.64 14.023 26.41h-14.658l-8.667-16.745-5.854 6.035v10.71h-12.979V24.292h12.979v37.166l14.067-15.338h16.065Z" fill="#231f20" data-color="2"></path>
        <path d="M482.194 86.913a4.041 4.041 0 0 1-1.257-2.98 4.09 4.09 0 0 1 1.257-3.043 4.873 4.873 0 0 1 6.506.025 4.071 4.071 0 0 1 1.283 3.018A4.015 4.015 0 0 1 488.7 86.9a4.853 4.853 0 0 1-6.506.013Z" fill="#231f20" data-color="2"></path>
        <path d="M493.91 69.41a11.467 11.467 0 0 1 4.692-4.402 14.853 14.853 0 0 1 6.96-1.572 14.703 14.703 0 0 1 6.933 1.572 11.516 11.516 0 0 1 4.665 4.401 12.39 12.39 0 0 1 1.672 6.426 12.226 12.226 0 0 1-1.672 6.363 11.475 11.475 0 0 1-4.705 4.388 16.044 16.044 0 0 1-13.853 0 11.484 11.484 0 0 1-4.691-4.388 12.226 12.226 0 0 1-1.672-6.363 12.39 12.39 0 0 1 1.672-6.426Zm7.49 10.688a5.979 5.979 0 0 0 8.296 0 5.992 5.992 0 0 0 1.594-4.313 5.928 5.928 0 0 0-1.568-4.263 6.092 6.092 0 0 0-8.333 0 5.9 5.9 0 0 0-1.582 4.263 5.999 5.999 0 0 0 1.593 4.313Z" fill="#231f20" data-color="2"></path>
        <path d="M538.506 64.241v6.238a8.848 8.848 0 0 0-1.115-.051 6.896 6.896 0 0 0-4.911 1.622 5.962 5.962 0 0 0-1.723 4.565v10.864h-7.414V64.241h6.792l.466 3.144a4.524 4.524 0 0 1 2.099-2.502 7.208 7.208 0 0 1 3.577-.843 11.95 11.95 0 0 1 2.23.201Z" fill="#231f20" data-color="2"></path>
        <path d="M567.176 64.241V87.53a10.896 10.896 0 0 1-3.526 8.525q-3.526 3.17-9.746 3.169a15.612 15.612 0 0 1-6.389-1.257 10.891 10.891 0 0 1-4.51-3.559 10.397 10.397 0 0 1-1.93-5.344h7.308a3.962 3.962 0 0 0 1.828 2.867 6.79 6.79 0 0 0 3.693.956 6.286 6.286 0 0 0 4.302-1.37 4.667 4.667 0 0 0 1.557-3.686v-3.496a7.566 7.566 0 0 1-3.033 2.088 11.412 11.412 0 0 1-4.355.805 11.782 11.782 0 0 1-5.897-1.471 10.473 10.473 0 0 1-4.083-4.15 12.461 12.461 0 0 1-1.476-6.124 12.856 12.856 0 0 1 1.503-6.288 10.752 10.752 0 0 1 4.134-4.25 12.192 12.192 0 0 1 10.33-.666 7.059 7.059 0 0 1 3.083 2.301l.311-2.339Zm-9.24 15.153a5.883 5.883 0 0 0 0-8.162 5.597 5.597 0 0 0-4.032-1.584 5.142 5.142 0 0 0-3.902 1.598 5.696 5.696 0 0 0-1.516 4.086 5.588 5.588 0 0 0 1.543 4.087 5.265 5.265 0 0 0 3.927 1.571 5.507 5.507 0 0 0 3.98-1.596Z" fill="#231f20" data-color="2"></path>
        <path d="M177.92 109.374a9.509 9.509 0 0 1 3.728 3.712 11.777 11.777 0 0 1 .024 10.85 9.296 9.296 0 0 1-3.712 3.656 11.202 11.202 0 0 1-5.485 1.32h-6.962v-20.873h6.963a10.972 10.972 0 0 1 5.444 1.335Zm-1.59 15.953a6.82 6.82 0 0 0 2.703-2.751 8.333 8.333 0 0 0 .962-4.045 8.612 8.612 0 0 0-.962-4.133 6.788 6.788 0 0 0-2.702-2.775 8.134 8.134 0 0 0-4.045-.977h-3.943v15.658h3.943a8.135 8.135 0 0 0 4.045-.977Z" fill="#231f20" data-color="2"></path>
        <path d="M186.513 110.471a1.916 1.916 0 0 1-.572-1.414 1.832 1.832 0 0 1 .572-1.368 2.097 2.097 0 0 1 2.845 0 1.864 1.864 0 0 1 .557 1.368 1.983 1.983 0 0 1-.548 1.398 1.876 1.876 0 0 1-1.44.589 1.921 1.921 0 0 1-1.414-.573Zm.079 4.086h2.702v14.355h-2.702Z" fill="#231f20" data-color="2"></path>
        <path d="M194.485 128.1a4.152 4.152 0 0 1-1.74-3.194h2.639a2.225 2.225 0 0 0 .953 1.717 3.87 3.87 0 0 0 2.274.603 3.699 3.699 0 0 0 2.177-.556 1.822 1.822 0 0 0 .78-1.574 1.635 1.635 0 0 0-.62-1.438 4.279 4.279 0 0 0-1.59-.645l-2.544-.587a5.122 5.122 0 0 1-2.79-1.447 3.615 3.615 0 0 1-.898-2.48 3.855 3.855 0 0 1 1.502-3.18 7.016 7.016 0 0 1 7.87.032 4.14 4.14 0 0 1 1.581 3.243h-2.639a2.183 2.183 0 0 0-.85-1.75 3.315 3.315 0 0 0-2.09-.635 3.078 3.078 0 0 0-1.916.54 1.79 1.79 0 0 0-.709 1.511 1.526 1.526 0 0 0 .565 1.32 3.777 3.777 0 0 0 1.487.603l2.892.652a4.637 4.637 0 0 1 2.671 1.455 4.169 4.169 0 0 1-.69 5.81 7.756 7.756 0 0 1-8.315 0Z" fill="#231f20" data-color="2"></path>
        <path d="M207.91 110.471a1.916 1.916 0 0 1-.572-1.414 1.832 1.832 0 0 1 .573-1.368 2.097 2.097 0 0 1 2.844 0 1.864 1.864 0 0 1 .558 1.368 1.983 1.983 0 0 1-.549 1.398 1.876 1.876 0 0 1-1.44.589 1.921 1.921 0 0 1-1.413-.573Zm.08 4.086h2.701v14.355h-2.702Z" fill="#231f20" data-color="2"></path>
        <path d="M226.413 115.677a6.086 6.086 0 0 1 1.463 4.348v8.886h-2.735v-8.267q0-4.068-3.29-4.069a3.633 3.633 0 0 0-3.878 3.832v8.473h-2.703v-14.323h2.258l.253 2.019a4.658 4.658 0 0 1 1.94-1.78 5.955 5.955 0 0 1 2.781-.668 5.12 5.12 0 0 1 3.911 1.55Z" fill="#231f20" data-color="2"></path>
        <path d="M236.715 109.168a1.825 1.825 0 0 0-.668 1.04 7.3 7.3 0 0 0-.128 1.488v2.86h3.513v2.242h-3.513v12.113h-2.702v-12.113h-2.608v-2.241h2.608v-3.386q0-4.723 4.69-4.721a7.955 7.955 0 0 1 1.525.127v2.242a4.379 4.379 0 0 0-1.048-.097 2.594 2.594 0 0 0-1.669.446Z" fill="#231f20" data-color="2"></path>
        <path d="M241.969 117.871a7.208 7.208 0 0 1 2.734-2.733 7.878 7.878 0 0 1 3.998-1.01 8.01 8.01 0 0 1 4.022 1.01 7.157 7.157 0 0 1 2.758 2.733 7.72 7.72 0 0 1 .977 3.87 7.6 7.6 0 0 1-.993 3.848 7.197 7.197 0 0 1-2.75 2.726 8.009 8.009 0 0 1-4.014.993 7.912 7.912 0 0 1-3.967-.993 7.209 7.209 0 0 1-2.75-2.718 7.58 7.58 0 0 1-.993-3.856 7.706 7.706 0 0 1 .977-3.87Zm3.203 7.559a4.645 4.645 0 0 0 3.53 1.462 4.747 4.747 0 0 0 3.6-1.462 5.14 5.14 0 0 0 1.39-3.689 5.23 5.23 0 0 0-1.383-3.719 4.711 4.711 0 0 0-3.608-1.478 4.62 4.62 0 0 0-3.53 1.478 5.23 5.23 0 0 0-1.383 3.72 5.153 5.153 0 0 0 1.384 3.688Z" fill="#231f20" data-color="2"></path>
        <path d="M267.714 114.557v2.305a6.403 6.403 0 0 0-1.019-.064 3.867 3.867 0 0 0-3.012 1.16 4.595 4.595 0 0 0-1.057 3.211v7.743h-2.702v-14.355h2.384l.318 2.177a3.017 3.017 0 0 1 1.376-1.709 4.52 4.52 0 0 1 2.343-.596 7.168 7.168 0 0 1 1.369.128Z" fill="#231f20" data-color="2"></path>
        <path d="M290.31 115.511a5.223 5.223 0 0 1 1.423 3.925v9.507h-2.671v-8.918a3.743 3.743 0 0 0-.835-2.67 3.02 3.02 0 0 0-2.297-.875 3.158 3.158 0 0 0-2.519 1.074 3.826 3.826 0 0 0-.93 2.598v8.79h-2.67v-8.918a3.767 3.767 0 0 0-.844-2.598 2.989 2.989 0 0 0-2.353-.946 3.092 3.092 0 0 0-2.456 1.073 3.789 3.789 0 0 0-.93 2.568v8.821h-2.701v-14.386h2.416l.191 1.828a4.401 4.401 0 0 1 1.74-1.653 5.086 5.086 0 0 1 2.456-.603 5.223 5.223 0 0 1 2.861.785 4.343 4.343 0 0 1 1.764 2.107 4.556 4.556 0 0 1 1.83-2.13 5.289 5.289 0 0 1 2.83-.762 5.079 5.079 0 0 1 3.695 1.383Z" fill="#231f20" data-color="2"></path>
        <path d="M310.013 114.557v14.355h-2.542v-2.544a5.243 5.243 0 0 1-2.194 2.139 6.9 6.9 0 0 1-3.338.802 6.665 6.665 0 0 1-3.538-.946 6.385 6.385 0 0 1-2.407-2.655 9.432 9.432 0 0 1 .04-7.948 6.545 6.545 0 0 1 2.47-2.686 7.451 7.451 0 0 1 6.852-.215 5.453 5.453 0 0 1 2.177 2.003l.239-2.305Zm-4.069 10.889a5.389 5.389 0 0 0 1.303-3.8 5.198 5.198 0 0 0-1.286-3.687 4.815 4.815 0 0 0-6.788.032 6.087 6.087 0 0 0 0 7.447 4.278 4.278 0 0 0 3.353 1.423 4.426 4.426 0 0 0 3.418-1.415Z" fill="#231f20" data-color="2"></path>
        <path d="M318.471 114.557h8.537v14.355h-2.702v-12.114h-5.834v12.113h-2.735v-12.113h-2.798v-2.241h2.798v-3.816h2.734Zm8.632-6.94a1.854 1.854 0 0 1 .556 1.376 1.949 1.949 0 0 1-.556 1.415 1.91 1.91 0 0 1-1.43.572 1.963 1.963 0 0 1-1.447-.572 1.921 1.921 0 0 1-.572-1.415 1.838 1.838 0 0 1 .572-1.368 1.992 1.992 0 0 1 1.447-.556 1.95 1.95 0 0 1 1.43.549Z" fill="#231f20" data-color="2"></path>
        <path d="M331.626 117.871a7.207 7.207 0 0 1 2.735-2.733 7.878 7.878 0 0 1 3.997-1.01 8.01 8.01 0 0 1 4.022 1.01 7.159 7.159 0 0 1 2.759 2.733 7.721 7.721 0 0 1 .976 3.87 7.6 7.6 0 0 1-.993 3.848 7.196 7.196 0 0 1-2.75 2.726 8.009 8.009 0 0 1-4.014.993 7.912 7.912 0 0 1-3.967-.993 7.208 7.208 0 0 1-2.75-2.718 7.58 7.58 0 0 1-.993-3.856 7.705 7.705 0 0 1 .978-3.87Zm3.203 7.559a4.645 4.645 0 0 0 3.53 1.462 4.747 4.747 0 0 0 3.6-1.462 5.14 5.14 0 0 0 1.39-3.689 5.23 5.23 0 0 0-1.383-3.719 4.711 4.711 0 0 0-3.608-1.478 4.62 4.62 0 0 0-3.53 1.478 5.23 5.23 0 0 0-1.382 3.72 5.153 5.153 0 0 0 1.383 3.688Z" fill="#231f20" data-color="2"></path>
        <path d="M360.724 115.677a6.086 6.086 0 0 1 1.463 4.348v8.886h-2.735v-8.267q0-4.068-3.29-4.069a3.633 3.633 0 0 0-3.879 3.832v8.473h-2.702v-14.323h2.258l.253 2.019a4.658 4.658 0 0 1 1.94-1.78 5.955 5.955 0 0 1 2.781-.668 5.12 5.12 0 0 1 3.91 1.55Z" fill="#231f20" data-color="2"></path>
        <path d="M388.193 114.557v14.355h-2.544v-2.544a5.235 5.235 0 0 1-2.194 2.139 6.897 6.897 0 0 1-3.338.802 6.66 6.66 0 0 1-3.537-.946 6.399 6.399 0 0 1-2.408-2.655 9.432 9.432 0 0 1 .04-7.948 6.557 6.557 0 0 1 2.472-2.686 7.451 7.451 0 0 1 6.851-.215 5.454 5.454 0 0 1 2.178 2.003l.238-2.305Zm-4.07 10.889a5.39 5.39 0 0 0 1.304-3.8 5.198 5.198 0 0 0-1.287-3.687 4.817 4.817 0 0 0-6.789.032 6.087 6.087 0 0 0 0 7.447 4.281 4.281 0 0 0 3.355 1.423 4.429 4.429 0 0 0 3.418-1.415Z" fill="#231f20" data-color="2"></path>
        <path d="M403.788 115.677a6.086 6.086 0 0 1 1.463 4.348v8.886h-2.734v-8.267q0-4.068-3.291-4.069a3.633 3.633 0 0 0-3.878 3.832v8.473h-2.702v-14.323h2.256l.255 2.019a4.663 4.663 0 0 1 1.939-1.78 5.96 5.96 0 0 1 2.782-.668 5.123 5.123 0 0 1 3.91 1.55Z" fill="#231f20" data-color="2"></path>
        <path d="M423.517 114.557v14.355h-2.544v-2.544a5.235 5.235 0 0 1-2.194 2.139 6.897 6.897 0 0 1-3.338.802 6.66 6.66 0 0 1-3.537-.946 6.399 6.399 0 0 1-2.409-2.655 9.432 9.432 0 0 1 .04-7.948 6.557 6.557 0 0 1 2.473-2.686 7.451 7.451 0 0 1 6.851-.215 5.453 5.453 0 0 1 2.178 2.003l.238-2.305Zm-4.07 10.889a5.39 5.39 0 0 0 1.304-3.8 5.198 5.198 0 0 0-1.287-3.687 4.817 4.817 0 0 0-6.79.032 6.087 6.087 0 0 0 0 7.447 4.281 4.281 0 0 0 3.355 1.423 4.429 4.429 0 0 0 3.419-1.415Z" fill="#231f20" data-color="2"></path>
        <path d="M427.968 106.577h2.702v22.335h-2.702Z" fill="#231f20" data-color="2"></path>
        <path d="m448.045 114.557-6.566 17.152a7.213 7.213 0 0 1-1.955 2.902 4.904 4.904 0 0 1-3.227.977 8.098 8.098 0 0 1-2.241-.334v-2.21c.085.023.3.064.643.128a6.458 6.458 0 0 0 1.168.095 3.155 3.155 0 0 0 2.052-.549 3.99 3.99 0 0 0 1.081-1.693l.525-1.366-6.152-15.102h2.892l4.532 11.716 4.387-11.716Z" fill="#231f20" data-color="2"></path>
        <path d="M451.106 128.1a4.157 4.157 0 0 1-1.742-3.194h2.64a2.22 2.22 0 0 0 .953 1.717 3.87 3.87 0 0 0 2.274.603 3.701 3.701 0 0 0 2.178-.556 1.82 1.82 0 0 0 .778-1.574 1.634 1.634 0 0 0-.62-1.438 4.277 4.277 0 0 0-1.59-.645l-2.543-.587a5.122 5.122 0 0 1-2.79-1.447 3.615 3.615 0 0 1-.898-2.48 3.855 3.855 0 0 1 1.501-3.18 7.016 7.016 0 0 1 7.87.032 4.145 4.145 0 0 1 1.582 3.243h-2.64a2.178 2.178 0 0 0-.85-1.75 3.321 3.321 0 0 0-2.09-.635 3.082 3.082 0 0 0-1.916.54 1.793 1.793 0 0 0-.707 1.511 1.526 1.526 0 0 0 .565 1.32 3.77 3.77 0 0 0 1.485.603l2.893.652a4.637 4.637 0 0 1 2.672 1.454 4.167 4.167 0 0 1-.693 5.811 7.754 7.754 0 0 1-8.313 0Z" fill="#231f20" data-color="2"></path>
        <path d="M464.53 110.471a1.916 1.916 0 0 1-.572-1.414 1.832 1.832 0 0 1 .572-1.368 2.097 2.097 0 0 1 2.845 0 1.858 1.858 0 0 1 .557 1.368 1.983 1.983 0 0 1-.549 1.398 1.874 1.874 0 0 1-1.439.589 1.921 1.921 0 0 1-1.414-.573Zm.079 4.086h2.703v14.355h-2.703Z" fill="#231f20" data-color="2"></path>
        <path d="M472.502 128.1a4.157 4.157 0 0 1-1.742-3.194h2.64a2.221 2.221 0 0 0 .953 1.717 3.87 3.87 0 0 0 2.274.603 3.702 3.702 0 0 0 2.178-.556 1.82 1.82 0 0 0 .778-1.574 1.634 1.634 0 0 0-.62-1.438 4.279 4.279 0 0 0-1.59-.645l-2.543-.587a5.122 5.122 0 0 1-2.79-1.447 3.615 3.615 0 0 1-.898-2.48 3.855 3.855 0 0 1 1.501-3.18 7.016 7.016 0 0 1 7.87.032 4.145 4.145 0 0 1 1.582 3.243h-2.64a2.178 2.178 0 0 0-.85-1.75 3.32 3.32 0 0 0-2.09-.635 3.083 3.083 0 0 0-1.916.54 1.793 1.793 0 0 0-.707 1.511 1.526 1.526 0 0 0 .565 1.32 3.77 3.77 0 0 0 1.485.603l2.893.652a4.637 4.637 0 0 1 2.672 1.454 4.167 4.167 0 0 1-.693 5.811 7.754 7.754 0 0 1-8.313 0Z" fill="#231f20" data-color="2"></path>
        <path d="M493.659 117.744a6.707 6.707 0 0 1 2.624-2.67 7.702 7.702 0 0 1 3.855-.946 7.559 7.559 0 0 1 4.658 1.414 5.708 5.708 0 0 1 2.272 3.832h-2.766a3.394 3.394 0 0 0-1.447-2.1 4.795 4.795 0 0 0-2.75-.763 4.364 4.364 0 0 0-3.369 1.4 5.434 5.434 0 0 0-1.288 3.83 5.525 5.525 0 0 0 1.24 3.76 4.297 4.297 0 0 0 3.417 1.422 4.803 4.803 0 0 0 2.766-.778 3.284 3.284 0 0 0 1.43-2.05h2.766a5.8 5.8 0 0 1-2.296 3.775 7.406 7.406 0 0 1-4.602 1.438 7.875 7.875 0 0 1-3.903-.946 6.558 6.558 0 0 1-2.623-2.67 8.26 8.26 0 0 1-.93-3.982 8.124 8.124 0 0 1 .946-3.966Z" fill="#231f20" data-color="2"></path>
        <path d="M521.33 128.02a7.657 7.657 0 0 1-4.42 1.289 7.518 7.518 0 0 1-3.84-.962 6.61 6.61 0 0 1-2.574-2.686 8.378 8.378 0 0 1-.915-3.982 8.23 8.23 0 0 1 .931-3.967 6.535 6.535 0 0 1 2.575-2.654 7.445 7.445 0 0 1 3.728-.93 7.211 7.211 0 0 1 3.593.866 6.195 6.195 0 0 1 2.408 2.409 7.071 7.071 0 0 1 .867 3.528 7.893 7.893 0 0 1-.128 1.638h-11.303a4.538 4.538 0 0 0 1.352 3.283 4.584 4.584 0 0 0 3.305 1.232 5.002 5.002 0 0 0 2.615-.669 3.512 3.512 0 0 0 1.55-1.796h2.64a5.533 5.533 0 0 1-2.384 3.402Zm-.382-7.407a4.224 4.224 0 0 0-1.176-3.06 4.06 4.06 0 0 0-2.99-1.136 4.545 4.545 0 0 0-3.194 1.137 4.146 4.146 0 0 0-1.305 3.06Z" fill="#231f20" data-color="2"></path>
        <path d="M538.258 115.677a6.086 6.086 0 0 1 1.463 4.348v8.886h-2.735v-8.267q0-4.068-3.29-4.069a3.633 3.633 0 0 0-3.879 3.832v8.473h-2.702v-14.323h2.256l.255 2.019a4.663 4.663 0 0 1 1.94-1.78 5.96 5.96 0 0 1 2.781-.668 5.123 5.123 0 0 1 3.91 1.55Z" fill="#231f20" data-color="2"></path>
        <path d="M550.88 116.798h-2.828v12.113h-2.704v-12.113h-2.797v-2.241h2.797v-3.816h2.704v3.816h2.828Z" fill="#231f20" data-color="2"></path>
        <path d="M564.425 128.02a7.657 7.657 0 0 1-4.42 1.289 7.518 7.518 0 0 1-3.839-.962 6.61 6.61 0 0 1-2.575-2.686 8.38 8.38 0 0 1-.914-3.982 8.23 8.23 0 0 1 .93-3.967 6.536 6.536 0 0 1 2.575-2.654 7.445 7.445 0 0 1 3.729-.93 7.211 7.211 0 0 1 3.593.866 6.194 6.194 0 0 1 2.407 2.409 7.071 7.071 0 0 1 .867 3.528 7.893 7.893 0 0 1-.127 1.638h-11.303a4.538 4.538 0 0 0 1.351 3.283 4.585 4.585 0 0 0 3.306 1.232 5.002 5.002 0 0 0 2.615-.669 3.512 3.512 0 0 0 1.55-1.796h2.638a5.533 5.533 0 0 1-2.383 3.402Zm-.382-7.407a4.224 4.224 0 0 0-1.176-3.06 4.06 4.06 0 0 0-2.99-1.136 4.545 4.545 0 0 0-3.194 1.137 4.145 4.145 0 0 0-1.304 3.06Z" fill="#231f20" data-color="2"></path>
        <path d="M577.999 114.557v2.305a6.369 6.369 0 0 0-1.017-.064 3.867 3.867 0 0 0-3.012 1.16 4.588 4.588 0 0 0-1.057 3.211v7.743h-2.702v-14.355h2.383l.32 2.177a3.02 3.02 0 0 1 1.373-1.709 4.53 4.53 0 0 1 2.345-.596 7.14 7.14 0 0 1 1.367.128Z" fill="#231f20" data-color="2"></path>
    </g>
</svg>