<svg xmlns="http://www.w3.org/2000/svg" viewBox="0 0 200 73.452">
  <path fill="#1D1D1B" class="txt" d="M56.676 42.556c-2.405 0-3.691 2.041-3.691 3.998 0 2.488 1.314 3.998 3.523 3.998 2.405 0 3.691-2.041 3.691-3.998 0-2.461-1.315-3.998-3.523-3.998zm-.14 7.074c-1.23 0-2.237-.979-2.237-3.076s1.23-3.076 2.377-3.076c1.23 0 2.237.979 2.237 3.076s-1.231 3.076-2.377 3.076zm9.478-19.908h-1.202l.084-11.38h1.202l-.084 11.38zm-3.663 9.227h1.202l-.084 11.38h-1.202l.084-11.38zm3.747 0H67.3l-.084 11.38h-1.202l.084-11.38zm-3.439-9.227h-1.202l.084-11.38h1.202l-.084 11.38zm24.409.223c1.118 0 2.097-.587 2.88-1.342l-.587-.643c-.643.587-1.286 1.09-2.153 1.09-1.538 0-2.153-1.426-2.153-2.992v-.28h5.061v-.224c0-2.041-.867-3.579-2.908-3.579s-3.467 1.901-3.467 3.998c.028 2.463 1.23 3.972 3.327 3.972zm.168-7.073c1.23 0 1.678 1.007 1.678 2.097h-3.747c.196-1.035.951-2.097 2.069-2.097zM9.283 66.266h.615l-.028 3.775h-.615l.028-.615h-.028c-.308.475-.839.727-1.258.727-.867 0-1.146-.447-1.146-1.146v-.867l.028-1.873h.615l-.028 1.706v1.035c0 .419.28.587.699.587.391 0 .755-.224 1.118-.699v-2.63zm73.703-44.01l-2.516.056c-.419-.252-.923-.336-1.398-.336-1.426 0-2.712 1.007-2.712 2.488 0 .867.252 1.51.951 2.041-1.314.755-1.761 1.146-1.761 1.594s.475.839 1.817.979v.028c-.811.419-2.041 1.035-2.041 2.097 0 1.734 2.125 2.125 3.495 2.125 1.566 0 3.775-.867 3.775-2.74 0-1.342-1.286-1.845-3.243-2.125-2.153-.308-2.405-.531-2.405-.811 0-.196.14-.363.839-.867.419.196.839.28 1.314.28 1.482 0 2.628-1.062 2.628-2.516 0-.475-.14-.979-.559-1.454l1.789.056v-.895h.027zm-1.705 8.584c0 1.258-1.566 1.734-2.516 1.734-.895 0-2.209-.308-2.209-1.426 0-.699.336-1.174 1.65-1.901 2.431.447 3.075.726 3.075 1.593zm-2.293-4.585c-.923 0-1.398-.783-1.398-1.678 0-1.062.643-1.789 1.454-1.789 1.09 0 1.51.727 1.51 1.734-.028.922-.448 1.733-1.566 1.733zM18.817 66.322l-1.258.028c-.224-.14-.475-.168-.699-.168-.727 0-1.342.503-1.342 1.258 0 .447.14.755.475 1.035-.643.363-.867.559-.867.811 0 .224.252.419.923.475v.028c-.391.224-1.007.503-1.007 1.035 0 .867 1.062 1.062 1.734 1.062.783 0 1.873-.447 1.873-1.37 0-.671-.643-.923-1.622-1.062-1.09-.168-1.202-.252-1.202-.391 0-.084.056-.168.419-.447.224.112.419.14.671.14.727 0 1.314-.531 1.314-1.258 0-.252-.056-.503-.28-.727l.895.028v-.475h-.027zm-.866 4.278c0 .615-.783.867-1.258.867-.447 0-1.118-.14-1.118-.727 0-.363.168-.587.839-.951 1.229.252 1.537.391 1.537.811zm-1.147-2.293c-.447 0-.699-.391-.699-.839 0-.531.308-.895.727-.895.531 0 .755.363.755.867 0 .476-.224.867-.783.867zm-14.539-.979c.587-.196.923-.587.923-1.23 0-.587-.391-1.286-1.538-1.286H.168l-.056 5.257h1.482c1.035 0 1.706-.531 1.706-1.454-.001-.671-.392-1.175-1.035-1.287zM.839 65.259h.531c.839 0 1.174.308 1.174.895 0 .531-.336.895-1.202.895H.839v-1.79zm.727 4.306H.783l.028-1.985h.615c.755 0 1.202.336 1.202.979.028.699-.391 1.006-1.062 1.006zm13.029-3.243l-1.258.028c-.224-.14-.475-.168-.699-.168-.699 0-1.342.503-1.342 1.258 0 .447.14.755.475 1.035-.643.363-.867.559-.867.783 0 .224.252.419.923.475v.028c-.391.224-1.007.503-1.007 1.035 0 .867 1.062 1.062 1.734 1.062.783 0 1.873-.447 1.873-1.37 0-.671-.643-.923-1.622-1.062-1.09-.168-1.202-.252-1.202-.391 0-.084.056-.168.419-.447.224.112.419.14.671.14.727 0 1.314-.531 1.314-1.258 0-.252-.056-.503-.28-.727l.895.028v-.447h-.027zm-.839 4.278c0 .615-.783.867-1.258.867-.447 0-1.118-.14-1.118-.727 0-.363.168-.587.839-.951 1.202.252 1.537.391 1.537.811zm-1.174-2.293c-.447 0-.699-.391-.699-.839 0-.531.308-.895.727-.895.531 0 .755.363.755.867 0 .476-.224.867-.783.867zm-6.571-2.125c.14 0 .252.028.336.056l-.196.559c-.056-.028-.14-.028-.224-.028-.252 0-.643.196-.979.811l-.028 2.488h-.614l.028-3.775h.615v.727l.028.028c.112-.363.475-.866 1.034-.866zm16.385 1.901v-.112c0-1.007-.447-1.789-1.454-1.789s-1.734.951-1.734 1.985c0 1.23.615 1.985 1.65 1.985.559 0 1.062-.28 1.454-.671l-.308-.336c-.336.308-.643.559-1.09.559-.783 0-1.062-.699-1.062-1.51v-.14h2.544v.029zm-1.454-1.454c.615 0 .839.503.839 1.062h-1.873c.112-.53.475-1.062 1.034-1.062zM30.365 0h.419v73.452h-.419V0zm17.811 19.013c1.258 0 2.237.308 3.271.839l-.559 1.035c-.811-.587-1.706-.783-2.712-.783-2.433 0-4.166 1.929-4.166 4.362s1.734 4.362 4.166 4.362c.923 0 1.873-.336 2.712-.811l.503.923c-.951.559-2.097.979-3.215.979-3.104 0-5.564-2.041-5.564-5.452-.001-3.189 2.46-5.454 5.564-5.454zm8.08 2.964c-2.405 0-3.691 2.041-3.691 3.998 0 2.488 1.314 3.998 3.523 3.998 2.405 0 3.691-2.041 3.691-3.998.028-2.488-1.286-3.998-3.523-3.998zm-.14 7.074c-1.23 0-2.237-.979-2.237-3.076s1.23-3.076 2.377-3.076c1.23 0 2.237.979 2.237 3.076 0 2.069-1.23 3.076-2.377 3.076zM44.01 45.1c0 2.433 1.734 4.362 4.166 4.362.923 0 1.873-.363 2.712-.811l.503.923c-.951.559-2.097.979-3.215.979-3.104 0-5.564-2.041-5.564-5.452 0-3.215 2.461-5.452 5.564-5.452 1.258 0 2.237.308 3.271.839l-.559 1.035c-.811-.587-1.706-.783-2.712-.783-2.433-.03-4.166 1.927-4.166 4.36zm69.285 4.138h4.222v1.09h-5.564l.084-10.513h5.396v1.09h-4.11l-.028 3.579h3.998v1.09h-3.998v3.664zM169.272 0h.419v73.452h-.419V0zm-31.4 21.977c-2.405 0-3.691 2.041-3.691 3.998 0 2.488 1.314 3.998 3.523 3.998 2.405 0 3.691-2.041 3.691-3.998.028-2.488-1.286-3.998-3.523-3.998zm-.14 7.074c-1.23 0-2.237-.979-2.237-3.076s1.23-3.076 2.377-3.076c1.23 0 2.237.979 2.237 3.076 0 2.069-1.23 3.076-2.377 3.076zm43.423 35.761h.671l-.056 5.145-.559.224-2.88-4.306h-.028l-.028 4.194h-.671l.056-5.117.559-.224 2.908 4.25h.028v-4.166zM146.82 21.977c-1.062 0-1.957.587-2.349 1.23h-.028v-1.035h-1.202l-.112 11.38h1.202l.028-4.585h.028c.391.531 1.146.979 2.153.979 1.929 0 3.299-2.013 3.299-4.026 0-2.993-1.733-3.943-3.019-3.943zm-.532 6.962c-.727 0-1.37-.391-1.901-1.202l.028-3.355c.363-.643 1.146-1.398 2.125-1.398 1.035 0 2.013.951 2.013 2.992 0 1.481-.923 2.963-2.265 2.963zm.14 13.617c-1.062 0-1.957.587-2.349 1.23h-.028v-1.007h-1.202l-.084 11.38h1.202l.028-4.585h.028c.391.531 1.146.979 2.153.979 1.929 0 3.299-2.013 3.299-4.026.001-2.993-1.733-3.971-3.047-3.971zm-.531 6.99c-.727 0-1.37-.391-1.901-1.202l.028-3.355c.363-.643 1.146-1.398 2.125-1.398 1.035 0 2.013.951 2.013 2.992 0 1.481-.923 2.963-2.265 2.963zm39.871 20.159c-.224 0-.28-.252-.28-.531 0-.671.056-1.342.056-2.041 0-.587-.308-.951-.951-.951-.531 0-.783.14-1.538.643l.252.391c.559-.419.811-.531 1.09-.531.391 0 .587.252.587.559 0 .168 0 .308-.028.475-.839.028-2.209.28-2.209 1.342 0 .643.419 1.09 1.09 1.09.475 0 .839-.28 1.146-.615.028.308.224.615.559.615.252 0 .503-.112.699-.28l-.168-.308a.386.386 0 01-.305.142zm-.839-.559c-.224.28-.531.559-.895.559-.419 0-.671-.224-.671-.643 0-.643.559-.839 1.594-.979l-.028 1.063zm-30.56-39.201c1.118 0 2.097-.587 2.88-1.342l-.587-.643c-.643.587-1.286 1.09-2.153 1.09-1.538 0-2.153-1.426-2.153-2.992v-.28h5.061v-.224c0-2.041-.895-3.579-2.908-3.579-2.041 0-3.467 1.901-3.467 3.998.027 2.463 1.23 3.972 3.327 3.972zm.168-7.073c1.23 0 1.678 1.007 1.678 2.097h-3.747c.195-1.035.922-2.097 2.069-2.097zm0 19.684c-2.041 0-3.467 1.901-3.467 3.998 0 2.461 1.202 3.998 3.299 3.998 1.118 0 2.097-.587 2.88-1.342l-.587-.643c-.643.587-1.286 1.09-2.153 1.09-1.538 0-2.153-1.426-2.153-2.992v-.252h5.061v-.252c.055-2.04-.839-3.605-2.88-3.605zm-2.042 3.019c.196-1.035.923-2.097 2.069-2.097 1.23 0 1.678 1.007 1.678 2.097h-3.747zm42.696 19.237h.643v.671h-.643v-.671zM74.123 25.779v-.224c0-2.041-.867-3.579-2.908-3.579s-3.467 1.901-3.467 3.998c0 2.461 1.202 3.998 3.299 3.998 1.118 0 2.097-.587 2.88-1.342l-.587-.643c-.643.587-1.286 1.09-2.153 1.09-1.538 0-2.153-1.426-2.153-2.992v-.308h5.089zm-2.908-2.907c1.23 0 1.678 1.007 1.678 2.097h-3.747c.196-1.035.923-2.097 2.069-2.097zm124.004 43.394h.615l-.028 3.775h-.615l.028-3.775zm-6.627 3.187l.196.391c-.252.168-.615.336-.951.336-.587 0-.811-.363-.811-.979v-1.09l.028-1.37h-.643v-.475h.643l.028-1.398h.615l-.028 1.398h1.035v.447h-1.035l-.028 1.538v.895c0 .308.084.475.363.475.197.028.448-.084.588-.168zm2.321-3.271c-1.202 0-1.845 1.007-1.845 1.985 0 1.258.671 1.985 1.761 1.985 1.202 0 1.845-1.007 1.845-1.985.028-1.23-.643-1.985-1.761-1.985zm-.056 3.523c-.615 0-1.118-.503-1.118-1.538s.615-1.538 1.174-1.538c.615 0 1.118.503 1.118 1.538 0 1.063-.615 1.538-1.174 1.538zm2.712-5.34h.615l-.056 5.704h-.615l.056-5.704zM200 67.328v.867l-.028 1.873h-.615l.028-1.706v-1.035c0-.419-.28-.587-.699-.587-.391 0-.755.224-1.118.699l-.028 2.628h-.615l.028-3.775h.615l-.028.615h.028c.308-.447.839-.727 1.286-.727.866.002 1.146.449 1.146 1.148zM99.259 21.977c-2.405 0-3.691 2.041-3.691 3.998 0 2.488 1.314 3.998 3.523 3.998 2.405 0 3.691-2.041 3.691-3.998 0-2.488-1.314-3.998-3.523-3.998zm-.14 7.074c-1.23 0-2.237-.979-2.237-3.076s1.23-3.076 2.377-3.076c1.23 0 2.237.979 2.237 3.076 0 2.069-1.23 3.076-2.377 3.076zm37.97 13.505c-2.405 0-3.691 2.041-3.691 3.998 0 2.488 1.314 3.998 3.523 3.998 2.405 0 3.691-2.041 3.691-3.998.028-2.461-1.286-3.998-3.523-3.998zm-.112 7.074c-1.23 0-2.237-.979-2.237-3.076s1.23-3.076 2.377-3.076c1.23 0 2.237.979 2.237 3.076-.028 2.097-1.258 3.076-2.377 3.076zm-33.776-6.068h-.028c-.28-.531-1.035-.979-1.929-.979-1.706 0-3.411 1.734-3.411 4.026 0 2.964 1.734 3.942 3.048 3.942 1.062 0 1.957-.587 2.293-1.23h.028l-.028 1.007h1.23l.112-11.38h-1.258l-.057 4.614zm-.027 4.586c-.28.643-1.062 1.398-2.041 1.398-1.035 0-2.013-.951-2.013-2.992 0-1.51.923-2.992 2.265-2.992.727 0 1.314.308 1.845 1.202l-.056 3.384zm-32.686-8.64h1.65l1.37 2.181h-1.007l-2.013-2.181zm37.942-16.413h-2.013l-.056 6.655h-1.202l.056-6.655h-1.482v-.923h1.482c0-.447 0-.951.056-1.454.168-1.845 1.454-2.488 3.16-2.488v1.007h-.531c-1.007 0-1.454.811-1.482 1.734l-.056 1.202h2.069l-.001.922zM72.809 42.556c-2.041 0-3.467 1.901-3.467 3.998 0 2.461 1.202 3.998 3.299 3.998 1.118 0 2.097-.587 2.88-1.342l-.587-.643c-.643.587-1.286 1.09-2.153 1.09-1.538 0-2.125-1.426-2.125-2.992v-.252h5.061v-.252c.027-2.04-.867-3.605-2.908-3.605zm-2.041 3.019c.196-1.035.923-2.097 2.069-2.097 1.23 0 1.678 1.007 1.678 2.097h-3.747zm10.289-3.019c-1.426 0-2.712 1.007-2.712 2.488 0 .867.252 1.51.951 2.041-1.314.755-1.761 1.146-1.761 1.594 0 .447.475.839 1.817.979v.028c-.811.419-2.041 1.035-2.041 2.097 0 1.734 2.125 2.125 3.495 2.125 1.566 0 3.775-.867 3.775-2.74 0-1.342-1.286-1.845-3.243-2.125-2.153-.308-2.405-.531-2.405-.811 0-.168.14-.363.839-.867.419.196.839.28 1.314.28 1.482 0 2.628-1.062 2.628-2.516 0-.475-.14-.979-.559-1.454l1.789.056v-.867l-2.516.056c-.365-.253-.868-.364-1.371-.364zm2.237 8.891c0 1.23-1.566 1.734-2.516 1.734-.867 0-2.209-.308-2.209-1.426 0-.699.336-1.174 1.65-1.901 2.46.447 3.075.726 3.075 1.593zm-2.293-4.614c-.923 0-1.426-.783-1.426-1.678 0-1.062.643-1.789 1.454-1.789 1.09 0 1.51.727 1.51 1.734 0 .951-.42 1.733-1.538 1.733zm8.64-4.277c-2.041 0-3.467 1.901-3.467 3.998 0 2.461 1.202 3.998 3.299 3.998 1.118 0 2.097-.587 2.88-1.342l-.587-.643c-.643.587-1.286 1.09-2.153 1.09-1.538 0-2.153-1.426-2.153-2.992v-.252h5.061v-.252c.056-2.04-.839-3.605-2.88-3.605zM87.6 45.575c.196-1.035.923-2.097 2.069-2.097 1.23 0 1.678 1.007 1.678 2.097H87.6zm44.484-3.019c.252 0 .475.056.643.112l-.363 1.146c-.112-.028-.308-.084-.475-.084-.503 0-1.314.419-1.957 1.622l-.056 4.977h-1.202l.056-7.549h1.258l-.028 1.482.028.028c.251-.7.978-1.734 2.096-1.734zm-5.759-20.383h1.202l-.056 7.549h-1.202l.056-1.202h-.028c-.643.923-1.678 1.426-2.572 1.426-1.734 0-2.293-.895-2.293-2.293 0-.587.028-1.146.028-1.734l.028-3.747h1.202l-.028 3.411v2.069c0 .811.559 1.202 1.37 1.202.783 0 1.482-.447 2.265-1.398l.028-5.283zm7.213 1.062c-.112-.028-.308-.084-.475-.084-.503 0-1.314.419-1.957 1.622l-.056 4.949h-1.202l.056-7.549h1.258l-.028 1.482.028.028c.252-.671 1.007-1.706 2.097-1.706.252 0 .475.056.643.112l-.364 1.146zm-26.059 16.608h1.65l-1.146 3.635h-.587l.083-3.635zm17.28 2.936h1.202l-.056 7.549h-1.202l.056-1.202h-.056c-.643.923-1.678 1.426-2.572 1.426-1.734 0-2.293-.895-2.293-2.293 0-.587.028-1.146.028-1.734l.028-3.747h1.202l-.028 3.411v2.069c0 .811.559 1.202 1.37 1.202.783 0 1.482-.447 2.265-1.398l.056-5.283zm-9.479-14.148h4.222v1.09h-5.564l.084-10.513h5.396v1.09h-4.11l-.028 3.579h3.998v1.09h-3.998v3.664z"></path>
  <path fill="#B21E35" class="symbol" d="M19.404 5.62c-1.566 0-3.803 3.243-4.446 5.452 0 0-2.572-.391-5.229-.391-2.628 0-5.173.391-5.173.391C3.859 8.891 1.734 5.788 0 5.788v-.615s1.622.112 2.461.112c.783 0 2.069-.112 2.069-.112l2.544 3.495 2.628-2.293 2.656 2.293 2.572-3.691s1.342.112 2.125.112 2.349-.112 2.349-.112v.643zm-4.753-3.411c-1.566 1.734-2.069 3.187-2.461 5.089L9.674 5.229l-2.32 2.069c-.56-1.902-.895-3.3-2.629-5.061l.336-.447c1.677.95 2.796 1.286 4.613 1.286 1.957 0 3.299-.336 4.613-1.23l.364.363zm-6.85 21.194l-3.243.056a79 79 0 00.112 3.831h3.132v-3.887zm0-6.207H4.669s-.112 1.51-.112 3.411c0 0 2.516.056 3.243.056v-3.467zm4.949 38.948c-3.02-2.908-4.949-7.633-4.949-16.441v-9.479h-1.51c-2.013 0-4.502 0-6.011.224.615-.839 1.007-4.194 1.007-6.794v-3.16c0-2.405-.391-5.061-1.007-6.291 1.622.224 4.278.224 6.011.224h1.51v-2.684s1.174-.112 1.901-.112c.783 0 2.013.112 2.013.112v2.684h2.265c1.789 0 3.467 0 4.558-.447l-.363 4.054c-.615-.447-1.007-.839-3.411-.839h-3.076v3.467h2.069c2.628 0 3.691-.336 3.691-.336s-.168 1.007-.168 1.678.168 1.734.168 1.734-1.118-.336-3.691-.336h-2.041v3.914h3.803c1.734 0 2.908-.336 3.411-.839l-.363 3.998c-1.454-.224-2.461-.224-4.222-.224h-2.628v8.136c0 8.472 2.293 11.911 2.964 12.526 1.286-1.342 4.026-4.558 4.026-8.192 0-1.566-1.062-3.663-1.845-4.613-1.118-1.398-2.74-3.467-4.502-2.852.112-.056 0-.503 0-.503.503-.28 3.187-1.23 5.005-2.74.391.839 1.062 1.566 2.572 3.859 1.398 2.125 2.628 3.187 2.628 5.005-.057 5.09-6.851 11.269-9.815 15.267M192.87 34.195v-3.607c1.342.056 3.439.224 3.439.224v-3.327c-1.062.196-2.74.196-3.439.168v-3.132c.615-.028 2.768-.028 4.166.671l.252-3.998s-1.789.559-4.418.559V14.4s.084-1.146.727-2.125h-3.691s.671 1.286.587 2.041 0 12.918 0 12.918l-3.607-14.959h-3.607s.727.923.895 2.461c.084.811.196 3.467.28 6.934-.447 0-4.613 0-6.011-.252 0 0 1.146 3.998 1.146 8.081s-.895 7.857-.895 7.857 3.523-.28 5.984-.196c.028 4.082 0 7.521-.112 9.003 0 0-.503 2.936-.727 3.691h3.914s-.643-2.768-.811-7.689c-.168-4.893-.168-9.562-.168-9.562l3.691 17.252h2.377V37.187a28.493 28.493 0 014.502.336l.336-3.998c-.588.754-3.775.698-4.81.67zm-10.121-9.73h1.817l.056 3.187h-1.873v-3.187zm-.168 9.954v-3.663h2.097c.028 1.23.028 2.461.056 3.691h-2.153v-.028zm1.258 16.776h9.003v4.082h-9.003v-4.082zm.196-40.235h8.948l-.084-1.314s1.761-2.069 1.482-3.691c-.336-1.706-1.566-2.768-4.418-2.293l-.727-.979-.419-.252v-.362h.559V1.65h-.587v-.504h-.587v.504h-.559v.419h.559v.419l-.419.252-.727.951c-2.852-.503-4.082.559-4.418 2.293-.308 1.594 1.454 3.691 1.454 3.691l-.057 1.285zm9.003-5.144c.308 1.202-.503 1.873-.503 1.873s-.895-2.209-1.398-2.88c0 .028 1.565-.224 1.901 1.007zm-4.558-1.119c1.845 0 2.544 1.734 1.622 2.125-.643.28-.28 1.845-.28 1.845l-.252.028c-.252-1.007-.755-1.202-1.035-1.23h-.196c-.28.028-.783.224-1.035 1.23l-.196-.028s.363-1.566-.28-1.845c-.948-.391-.221-2.125 1.652-2.125zm-4.529 1.035c.336-1.23 1.901-.979 1.901-.979-.475.643-1.398 2.852-1.398 2.852s-.839-.671-.503-1.873z"></path>
</svg>