<svg version="1.1" viewBox="0.0 0.0 100.0 100.0" fill="none" stroke="none" stroke-linecap="square" stroke-miterlimit="10" xmlns:xlink="http://www.w3.org/1999/xlink" xmlns="http://www.w3.org/2000/svg"><clipPath id="p.0"><path d="m0 0l100.0 0l0 100.0l-100.0 0l0 -100.0z" clip-rule="nonzero"/></clipPath><g clip-path="url(#p.0)"><path fill="#000000" fill-opacity="0.0" d="m0 0l100.0 0l0 100.0l-100.0 0z" fill-rule="evenodd"/><path fill="#ffffff" d="m50.000164 -1.8372704E-6l-1.6207733 5.0760884l-5.2619896 0l4.2506638 3.0452094l-1.6207733 4.8723364l4.2528725 -3.04521l4.2506638 3.04521l-1.6207733 -4.8723364l4.2528687 -3.0452094l-5.2641945 0l-1.6185646 -5.0760884z" fill-rule="evenodd"/><path fill="#ffffff" d="m50.000164 85.67851l-1.6207733 4.8723297l-5.2619896 0l4.2506638 3.0452118l-1.6207733 5.076088l4.2528725 -3.2489624l4.2506638 3.2489624l-1.6207733 -5.076088l4.2528687 -3.0452118l-5.2641945 0l-1.6185646 -4.8723297z" fill-rule="evenodd"/><path fill="#ffffff" d="m28.54194 5.8887763l-1.6185646 4.872336l-5.2641964 0l4.250662 3.04521l-1.6185646 4.8723354l4.2506638 -3.045209l4.250662 3.045209l0 0l-1.6185627 -4.8723354l4.250662 -3.04521l-5.2619896 0l-1.6207714 -4.872336z" fill-rule="evenodd"/><path fill="#ffffff" d="m12.754094 21.522055l-1.6207724 4.8723354l-5.2619896 0l4.250663 3.04521l-1.6207724 4.8723354l4.2528715 -3.04521l4.250663 3.04521l-1.8217134 -4.8723354l4.250663 -3.04521l-5.0610485 0l-1.6185637 -4.8723354z" fill-rule="evenodd"/><path fill="#ffffff" d="m6.882781 42.838146l-1.6185641 4.87455l-5.2641973 0l4.250663 3.0452118l-1.6185639 5.0738716l0 0l4.250663 -3.246746l4.250663 3.246746l-1.6185637 -5.0738716l4.250663 -3.0452118l-5.2641983 0l-1.6185637 -4.87455z" fill-rule="evenodd"/><path fill="#ffffff" d="m12.550945 64.156456l-1.6207724 5.076088l-5.0588408 0l4.047514 2.8414536l-1.6185637 5.076088l4.250663 -3.0452042l4.250662 3.0452042l-1.6185637 -5.076088l4.250663 -2.8414536l-5.2641973 0l-1.6185637 -5.076088z" fill-rule="evenodd"/><path fill="#ffffff" d="m28.54194 79.99348l-1.6185646 4.8723373l-5.2641964 0l4.250662 3.0452118l-1.6185646 4.8723373l4.2506638 -3.0452118l4.250662 3.0452118l-1.6185627 -4.8723373l4.250662 -3.0452118l-5.2619896 0l-1.6207714 -4.8723373z" fill-rule="evenodd"/><path fill="#ffffff" d="m71.45618 5.8887763l-1.6185608 4.872336l-5.2641983 0l4.2506638 3.04521l-1.6185684 4.8723354l0 0l4.2506638 -3.045209l4.2506638 3.045209l0 0l-1.6185608 -4.8723354l4.250656 -3.04521l-5.261986 0l-1.6207733 -4.872336z" fill-rule="evenodd"/><path fill="#ffffff" d="m87.24623 21.522055l-1.6207733 4.8723354l-5.0588455 0l4.2506638 3.04521l-1.8217087 4.8723354l4.2506638 -3.04521l4.2506638 3.04521l-1.6185684 -4.8723354l4.2506638 -3.04521l-5.2641983 0l-1.6185608 -4.8723354z" fill-rule="evenodd"/><path fill="#ffffff" d="m93.11533 42.838146l-1.6185608 4.87455l-5.2641983 0l4.2528687 3.0452118l-1.6207657 5.0738716l0 0l4.250656 -3.246746l4.2528763 3.246746l-1.6207733 -5.0738716l4.2506638 -3.0452118l-5.2619934 0l-1.6207733 -4.87455z" fill-rule="evenodd"/><path fill="#ffffff" d="m87.44717 64.156456l-1.6185608 5.076088l-5.2619934 0l4.2506638 2.8414536l-1.6207733 5.076088l4.2506638 -3.0452042l4.0497284 3.0452042l-1.6185684 -5.076088l4.2506638 -2.8414536l-5.2641983 0l-1.4176254 -5.076088z" fill-rule="evenodd"/><path fill="#ffffff" d="m71.45618 79.99348l-1.6185608 4.8723373l-5.2641983 0l4.2506638 3.0452118l-1.6185684 4.8723373l0 0l4.2506638 -3.0452118l4.2506638 3.0452118l-1.6185608 -4.8723373l4.250656 -3.0452118l-5.261986 0l-1.6207733 -4.8723373z" fill-rule="evenodd"/><path fill="#000000" fill-opacity="0.0" d="m4.984252 125.93964l391.0551 0l0 37.165344l-391.0551 0z" fill-rule="evenodd"/><path fill="#fdfaf6" d="m13.984252 134.93964l369.66016 0l0 8.800003l-369.66016 0l0 -8.800003z" fill-rule="nonzero"/><path fill="#000000" fill-opacity="0.0" d="m13.984252 136.152l147.02393 0l0 7.9296875l-147.02393 0l0 -7.9296875z" fill-rule="nonzero"/><path fill="#866c5b" d="m15.140502 137.68275l0 1.78125q0.265625 -0.296875 0.515625 -0.421875q0.265625 -0.125 0.57812405 -0.125q0.328125 0 0.5625 0.125q0.234375 0.109375 0.390625 0.359375q0.15625 0.234375 0.15625 0.515625l0 1.78125l0.328125 0q0.09375 0 0.140625 0.046875q0.046875 0.03125 0.046875 0.09375q0 0.0625 -0.046875 0.109375q-0.046875 0.03125 -0.140625 0.03125l-0.9375 0q-0.109375 0 -0.15625 -0.03125q-0.046875 -0.046875 -0.046875 -0.109375q0 -0.0625 0.046875 -0.09375q0.046875 -0.046875 0.15625 -0.046875l0.3125 0l0 -1.765625q0 -0.3125 -0.21875 -0.515625q-0.21875 -0.21875 -0.625 -0.21875q-0.31249905 0 -0.53124905 0.15625q-0.15625 0.109375 -0.53125 0.515625l0 1.828125l0.328125 0q0.09375 0 0.140625 0.046875q0.046875 0.03125 0.046875 0.09375q0 0.0625 -0.046875 0.109375q-0.046875 0.03125 -0.140625 0.03125l-0.9375 0q-0.109375 0 -0.15625 -0.03125q-0.03125 -0.046875 -0.03125 -0.109375q0 -0.0625 0.03125 -0.09375q0.046875 -0.046875 0.15625 -0.046875l0.328125 0l0 -3.71875l-0.390625 0q-0.109375 0 -0.15625 -0.03125q-0.03125 -0.046875 -0.03125 -0.109375q0 -0.0625 0.03125 -0.109375q0.046875 -0.046875 0.15625 -0.046875l0.671875 0zm4.5600576 1.34375l1.546875 0q0.109375 0 0.15625 0.046875q0.046875 0.03125 0.046875 0.09375q0 0.0625 -0.046875 0.109375q-0.046875 0.03125 -0.15625 0.03125l-1.546875 0l0 1.90625q0 0.25 0.1875 0.421875q0.203125 0.171875 0.59375 0.171875q0.296875 0 0.625 -0.078125q0.34375 -0.09375 0.53125 -0.203125q0.0625 -0.046875 0.109375 -0.046875q0.0625 0 0.09375 0.046875q0.046875 0.03125 0.046875 0.09375q0 0.046875 -0.046875 0.09375q-0.109375 0.109375 -0.53125 0.25q-0.421875 0.125 -0.8125 0.125q-0.5 0 -0.796875 -0.234375q-0.296875 -0.234375 -0.296875 -0.640625l0 -1.90625l-0.53125 0q-0.09375 0 -0.140625 -0.03125q-0.046875 -0.046875 -0.046875 -0.109375q0 -0.0625 0.046875 -0.09375q0.046875 -0.046875 0.140625 -0.046875l0.53125 0l0 -0.859375q0 -0.09375 0.03125 -0.140625q0.046875 -0.046875 0.109375 -0.046875q0.0625 0 0.109375 0.046875q0.046875 0.046875 0.046875 0.140625l0 0.859375zm4.2006836 0l1.546875 0q0.109375 0 0.15625 0.046875q0.046875 0.03125 0.046875 0.09375q0 0.0625 -0.046875 0.109375q-0.046875 0.03125 -0.15625 0.03125l-1.546875 0l0 1.90625q0 0.25 0.1875 0.421875q0.203125 0.171875 0.59375 0.171875q0.296875 0 0.625 -0.078125q0.34375 -0.09375 0.53125 -0.203125q0.0625 -0.046875 0.109375 -0.046875q0.0625 0 0.09375 0.046875q0.046875 0.03125 0.046875 0.09375q0 0.046875 -0.046875 0.09375q-0.109375 0.109375 -0.53125 0.25q-0.421875 0.125 -0.8125 0.125q-0.5 0 -0.796875 -0.234375q-0.296875 -0.234375 -0.296875 -0.640625l0 -1.90625l-0.53125 0q-0.09375 0 -0.140625 -0.03125q-0.046875 -0.046875 -0.046875 -0.109375q0 -0.0625 0.046875 -0.09375q0.046875 -0.046875 0.140625 -0.046875l0.53125 0l0 -0.859375q0 -0.09375 0.03125 -0.140625q0.046875 -0.046875 0.109375 -0.046875q0.0625 0 0.109375 0.046875q0.046875 0.046875 0.046875 0.140625l0 0.859375zm3.7006836 0l0 0.515625q0.265625 -0.3125 0.546875 -0.46875q0.296875 -0.15625 0.703125 -0.15625q0.421875 0 0.78125 0.203125q0.359375 0.1875 0.546875 0.546875q0.203125 0.359375 0.203125 0.75q0 0.609375 -0.453125 1.046875q-0.4375 0.4375 -1.078125 0.4375q-0.765625 0 -1.25 -0.625l0 1.734375l0.703125 0q0.09375 0 0.140625 0.03125q0.046875 0.046875 0.046875 0.109375q0 0.0625 -0.046875 0.09375q-0.046875 0.046875 -0.140625 0.046875l-1.375 0q-0.09375 0 -0.140625 -0.046875q-0.046875 -0.03125 -0.046875 -0.09375q0 -0.0625 0.046875 -0.109375q0.046875 -0.03125 0.140625 -0.03125l0.390625 0l0 -3.703125l-0.390625 0q-0.09375 0 -0.140625 -0.03125q-0.046875 -0.046875 -0.046875 -0.109375q0 -0.0625 0.046875 -0.09375q0.046875 -0.046875 0.140625 -0.046875l0.671875 0zm2.484375 1.390625q0 -0.5 -0.359375 -0.84375q-0.359375 -0.359375 -0.875 -0.359375q-0.515625 0 -0.890625 0.359375q-0.359375 0.34375 -0.359375 0.84375q0 0.484375 0.359375 0.84375q0.375 0.359375 0.890625 0.359375q0.515625 0 0.875 -0.34375q0.359375 -0.359375 0.359375 -0.859375zm3.7475605 -1.203125q0 -0.109375 0.03125 -0.140625q0.046875 -0.046875 0.109375 -0.046875q0.0625 0 0.109375 0.046875q0.046875 0.03125 0.046875 0.140625l0 0.5q0 0.09375 -0.046875 0.140625q-0.046875 0.046875 -0.109375 0.046875q-0.046875 0 -0.09375 -0.03125q-0.03125 -0.046875 -0.046875 -0.140625q-0.015625 -0.203125 -0.203125 -0.328125q-0.28125 -0.1875 -0.75 -0.1875q-0.484375 0 -0.75 0.1875q-0.2031269 0.140625 -0.2031269 0.328125q0 0.203125 0.2500019 0.34375q0.15625 0.09375 0.609375 0.140625q0.609375 0.0625 0.84375 0.15625q0.328125 0.109375 0.484375 0.328125q0.171875 0.21875 0.171875 0.453125q0 0.375 -0.359375 0.65625q-0.34375 0.28125 -1.03125 0.28125q-0.6875 0 -1.1093769 -0.34375q0 0.125 -0.015625 0.15625q-0.015625 0.03125 -0.0625 0.0625q-0.03125 0.015625 -0.078125 0.015625q-0.046875 0 -0.09375 -0.046875q-0.046875 -0.046875 -0.046875 -0.140625l0 -0.59375q0 -0.109375 0.03125 -0.140625q0.046875 -0.046875 0.109375 -0.046875q0.0625 0 0.109375 0.046875q0.046875 0.03125 0.046875 0.109375q0 0.15625 0.078125 0.265625q0.125 0.15625 0.3750019 0.265625q0.265625 0.109375 0.640625 0.109375q0.5625 0 0.828125 -0.203125q0.28125 -0.21875 0.28125 -0.453125q0 -0.265625 -0.28125 -0.421875q-0.265625 -0.15625 -0.8125 -0.203125q-0.53125 -0.0625 -0.765625 -0.15625q-0.2343769 -0.09375 -0.3593769 -0.265625q-0.125 -0.171875 -0.125 -0.390625q0 -0.359375 0.3593769 -0.578125q0.359375 -0.21875 0.859375 -0.21875q0.59375 0 0.96875 0.296875zm3.2006836 -0.1875l0.109375 0q0.203125 0 0.328125 0.140625q0.140625 0.125 0.140625 0.3125q0 0.203125 -0.140625 0.34375q-0.125 0.125 -0.328125 0.125l-0.109375 0q-0.203125 0 -0.34375 -0.125q-0.125 -0.140625 -0.125 -0.328125q0 -0.203125 0.140625 -0.328125q0.140625 -0.140625 0.328125 -0.140625zm0 2.125l0.109375 0q0.203125 0 0.328125 0.140625q0.140625 0.140625 0.140625 0.328125q0 0.1875 -0.140625 0.328125q-0.125 0.140625 -0.328125 0.140625l-0.109375 0q-0.203125 0 -0.34375 -0.140625q-0.125 -0.140625 -0.125 -0.328125q0 -0.203125 0.140625 -0.328125q0.140625 -0.140625 0.328125 -0.140625zm5.5444336 -3.671875l-2.3125 4.953125q-0.0625 0.125 -0.140625 0.125q-0.0625 0 -0.109375 -0.046875q-0.046875 -0.03125 -0.046875 -0.09375q0 -0.03125 0.046875 -0.109375l2.296875 -4.953125q0.046875 -0.078125 0.078125 -0.09375q0.03125 -0.03125 0.078125 -0.03125q0.0625 0 0.09375 0.046875q0.046875 0.046875 0.046875 0.09375q0 0.03125 -0.03125 0.109375zm4.2006836 0l-2.3125 4.953125q-0.0625 0.125 -0.140625 0.125q-0.0625 0 -0.109375 -0.046875q-0.046875 -0.03125 -0.046875 -0.09375q0 -0.03125 0.046875 -0.109375l2.296875 -4.953125q0.046875 -0.078125 0.078125 -0.09375q0.03125 -0.03125 0.078125 -0.03125q0.0625 0 0.09375 0.046875q0.046875 0.046875 0.046875 0.09375q0 0.03125 -0.03125 0.109375zm4.3100586 0.203125l0 4.015625l0.390625 0q0.109375 0 0.140625 0.046875q0.046875 0.03125 0.046875 0.09375q0 0.0625 -0.046875 0.109375q-0.03125 0.03125 -0.140625 0.03125l-0.671875 0l0 -0.578125q-0.5 0.6875 -1.265625 0.6875q-0.390625 0 -0.75 -0.203125q-0.359375 -0.203125 -0.5625 -0.578125q-0.203125 -0.390625 -0.203125 -0.796875q0 -0.421875 0.203125 -0.796875q0.203125 -0.375 0.5625 -0.578125q0.359375 -0.21875 0.75 -0.21875q0.75 0 1.265625 0.6875l0 -1.625l-0.390625 0q-0.09375 0 -0.140625 -0.03125q-0.046875 -0.046875 -0.046875 -0.109375q0 -0.0625 0.046875 -0.109375q0.046875 -0.046875 0.140625 -0.046875l0.671875 0zm-0.28125 2.828125q0 -0.546875 -0.375 -0.921875q-0.359375 -0.375 -0.875 -0.375q-0.515625 0 -0.890625 0.375q-0.359375 0.375 -0.359375 0.921875q0 0.53125 0.359375 0.921875q0.375 0.375 0.890625 0.375q0.515625 0 0.875 -0.375q0.375 -0.390625 0.375 -0.921875zm4.6850586 0q0 0.65625 -0.46875 1.125q-0.46875 0.453125 -1.125 0.453125q-0.671875 0 -1.140625 -0.46875q-0.46875 -0.46875 -0.46875 -1.109375q0 -0.65625 0.46875 -1.125q0.46875 -0.46875 1.140625 -0.46875q0.65625 0 1.125 0.46875q0.46875 0.453125 0.46875 1.125zm-0.28125 0q0 -0.546875 -0.390625 -0.921875q-0.390625 -0.375 -0.9375 -0.375q-0.546875 0 -0.9375 0.375q-0.375 0.375 -0.375 0.921875q0 0.53125 0.375 0.921875q0.390625 0.375 0.9375 0.375q0.546875 0 0.9375 -0.375q0.390625 -0.390625 0.390625 -0.921875zm4.0756836 -1.203125l0 -0.09375q0 -0.109375 0.03125 -0.140625q0.046875 -0.046875 0.109375 -0.046875q0.0625 0 0.109375 0.046875q0.046875 0.03125 0.046875 0.140625l0 0.65625q-0.015625 0.09375 -0.0625 0.140625q-0.03125 0.046875 -0.09375 0.046875q-0.046875 0 -0.09375 -0.03125q-0.03125 -0.046875 -0.046875 -0.140625q-0.015625 -0.234375 -0.3125 -0.453125q-0.296875 -0.21875 -0.8125 -0.21875q-0.640625 0 -0.96875 0.40625q-0.328125 0.390625 -0.328125 0.90625q0 0.546875 0.359375 0.921875q0.375 0.359375 0.953125 0.359375q0.328125 0 0.671875 -0.125q0.359375 -0.125 0.640625 -0.390625q0.0625 -0.078125 0.125 -0.078125q0.046875 0 0.078125 0.046875q0.046875 0.03125 0.046875 0.09375q0 0.140625 -0.34375 0.375q-0.546875 0.359375 -1.234375 0.359375q-0.6875 0 -1.140625 -0.4375q-0.453125 -0.4375 -0.453125 -1.125q0 -0.6875 0.453125 -1.140625q0.46875 -0.46875 1.15625 -0.46875q0.65625 0 1.109375 0.390625zm3.9506836 -0.09375q0 -0.109375 0.03125 -0.140625q0.046875 -0.046875 0.109375 -0.046875q0.0625 0 0.109375 0.046875q0.046875 0.03125 0.046875 0.140625l0 0.5q0 0.09375 -0.046875 0.140625q-0.046875 0.046875 -0.109375 0.046875q-0.046875 0 -0.09375 -0.03125q-0.03125 -0.046875 -0.046875 -0.140625q-0.015625 -0.203125 -0.203125 -0.328125q-0.28125 -0.1875 -0.75 -0.1875q-0.484375 0 -0.75 0.1875q-0.203125 0.140625 -0.203125 0.328125q0 0.203125 0.25 0.34375q0.15625 0.09375 0.609375 0.140625q0.609375 0.0625 0.84375 0.15625q0.328125 0.109375 0.484375 0.328125q0.171875 0.21875 0.171875 0.453125q0 0.375 -0.359375 0.65625q-0.34375 0.28125 -1.03125 0.28125q-0.6875 0 -1.109375 -0.34375q0 0.125 -0.015625 0.15625q-0.015625 0.03125 -0.0625 0.0625q-0.03125 0.015625 -0.078125 0.015625q-0.046875 0 -0.09375 -0.046875q-0.046875 -0.046875 -0.046875 -0.140625l0 -0.59375q0 -0.109375 0.03125 -0.140625q0.046875 -0.046875 0.109375 -0.046875q0.0625 0 0.109375 0.046875q0.046875 0.03125 0.046875 0.109375q0 0.15625 0.078125 0.265625q0.125 0.15625 0.375 0.265625q0.265625 0.109375 0.640625 0.109375q0.5625 0 0.828125 -0.203125q0.28125 -0.21875 0.28125 -0.453125q0 -0.265625 -0.28125 -0.421875q-0.265625 -0.15625 -0.8125 -0.203125q-0.53125 -0.0625 -0.765625 -0.15625q-0.234375 -0.09375 -0.359375 -0.265625q-0.125 -0.171875 -0.125 -0.390625q0 -0.359375 0.359375 -0.578125q0.359375 -0.21875 0.859375 -0.21875q0.59375 0 0.96875 0.296875zm3.2006836 1.9375l0.109375 0q0.203125 0 0.328125 0.140625q0.140625 0.140625 0.140625 0.328125q0 0.1875 -0.140625 0.328125q-0.125 0.140625 -0.328125 0.140625l-0.109375 0q-0.203125 0 -0.34375 -0.140625q-0.125 -0.140625 -0.125 -0.328125q0 -0.203125 0.140625 -0.328125q0.140625 -0.140625 0.328125 -0.140625zm5.2163086 -1.609375l0 -0.515625l0.671875 0q0.109375 0 0.15625 0.046875q0.046875 0.03125 0.046875 0.09375q0 0.0625 -0.046875 0.109375q-0.046875 0.03125 -0.15625 0.03125l-0.375 0l0 2.875q0 0.28125 -0.125 0.515625q-0.09375 0.140625 -0.28125 0.296875q-0.1875 0.171875 -0.34375 0.234375q-0.15625 0.0625 -0.421875 0.0625l-0.8125 0q-0.109375 0 -0.15625 -0.046875q-0.03125 -0.03125 -0.03125 -0.09375q0 -0.0625 0.03125 -0.109375q0.046875 -0.03125 0.15625 -0.03125l0.828125 0q0.25 0 0.453125 -0.140625q0.203125 -0.125 0.328125 -0.375q0.078125 -0.140625 0.078125 -0.359375l0 -0.859375q-0.453125 0.625 -1.1875 0.625q-0.59375 0 -1.03125 -0.4375q-0.421875 -0.4375 -0.421875 -1.046875q0 -0.625 0.421875 -1.0625q0.4375 -0.4375 1.03125 -0.4375q0.734375 0 1.1875 0.625zm0 0.875q0 -0.515625 -0.34375 -0.859375q-0.34375 -0.34375 -0.828125 -0.34375q-0.484375 0 -0.828125 0.34375q-0.34375 0.34375 -0.34375 0.859375q0 0.5 0.34375 0.859375q0.34375 0.34375 0.828125 0.34375q0.484375 0 0.828125 -0.34375q0.34375 -0.359375 0.34375 -0.859375zm4.8413086 0.09375q0 0.65625 -0.46875 1.125q-0.46875 0.453125 -1.125 0.453125q-0.671875 0 -1.140625 -0.46875q-0.46875 -0.46875 -0.46875 -1.109375q0 -0.65625 0.46875 -1.125q0.46875 -0.46875 1.140625 -0.46875q0.65625 0 1.125 0.46875q0.46875 0.453125 0.46875 1.125zm-0.28125 0q0 -0.546875 -0.390625 -0.921875q-0.390625 -0.375 -0.9375 -0.375q-0.546875 0 -0.9375 0.375q-0.375 0.375 -0.375 0.921875q0 0.53125 0.375 0.921875q0.390625 0.375 0.9375 0.375q0.546875 0 0.9375 -0.375q0.390625 -0.390625 0.390625 -0.921875zm4.4819336 0q0 0.65625 -0.46875 1.125q-0.46875 0.453125 -1.125 0.453125q-0.671875 0 -1.140625 -0.46875q-0.46875 -0.46875 -0.46875 -1.109375q0 -0.65625 0.46875 -1.125q0.46875 -0.46875 1.140625 -0.46875q0.65625 0 1.125 0.46875q0.46875 0.453125 0.46875 1.125zm-0.28125 0q0 -0.546875 -0.390625 -0.921875q-0.390625 -0.375 -0.9375 -0.375q-0.546875 0 -0.9375 0.375q-0.375 0.375 -0.375 0.921875q0 0.53125 0.375 0.921875q0.390625 0.375 0.9375 0.375q0.546875 0 0.9375 -0.375q0.390625 -0.390625 0.390625 -0.921875zm3.8413086 -0.96875l0 -0.515625l0.671875 0q0.109375 0 0.15625 0.046875q0.046875 0.03125 0.046875 0.09375q0 0.0625 -0.046875 0.109375q-0.046875 0.03125 -0.15625 0.03125l-0.375 0l0 2.875q0 0.28125 -0.125 0.515625q-0.09375 0.140625 -0.28125 0.296875q-0.1875 0.171875 -0.34375 0.234375q-0.15625 0.0625 -0.421875 0.0625l-0.8125 0q-0.109375 0 -0.15625 -0.046875q-0.03125 -0.03125 -0.03125 -0.09375q0 -0.0625 0.03125 -0.109375q0.046875 -0.03125 0.15625 -0.03125l0.828125 0q0.25 0 0.453125 -0.140625q0.203125 -0.125 0.328125 -0.375q0.078125 -0.140625 0.078125 -0.359375l0 -0.859375q-0.453125 0.625 -1.1875 0.625q-0.59375 0 -1.03125 -0.4375q-0.421875 -0.4375 -0.421875 -1.046875q0 -0.625 0.421875 -1.0625q0.4375 -0.4375 1.03125 -0.4375q0.734375 0 1.1875 0.625zm0 0.875q0 -0.515625 -0.34375 -0.859375q-0.34375 -0.34375 -0.828125 -0.34375q-0.484375 0 -0.828125 0.34375q-0.34375 0.34375 -0.34375 0.859375q0 0.5 0.34375 0.859375q0.34375 0.34375 0.828125 0.34375q0.484375 0 0.828125 -0.34375q0.34375 -0.359375 0.34375 -0.859375zm3.3881836 -2.734375l0 4.015625l1.125 0q0.109375 0 0.140625 0.046875q0.046875 0.03125 0.046875 0.09375q0 0.0625 -0.046875 0.109375q-0.03125 0.03125 -0.140625 0.03125l-2.546875 0q-0.09375 0 -0.140625 -0.03125q-0.046875 -0.046875 -0.046875 -0.109375q0 -0.0625 0.046875 -0.09375q0.046875 -0.046875 0.140625 -0.046875l1.125 0l0 -3.71875l-0.828125 0q-0.09375 0 -0.140625 -0.03125q-0.046875 -0.046875 -0.046875 -0.109375q0 -0.0625 0.046875 -0.109375q0.046875 -0.046875 0.140625 -0.046875l1.125 0zm5.6069336 2.890625l-2.921875 0q0.0625 0.546875 0.453125 0.890625q0.40625 0.34375 0.96875 0.34375q0.328125 0 0.671875 -0.109375q0.359375 -0.109375 0.578125 -0.28125q0.0625 -0.046875 0.125 -0.046875q0.046875 0 0.078125 0.046875q0.046875 0.03125 0.046875 0.09375q0 0.0625 -0.046875 0.109375q-0.171875 0.171875 -0.59375 0.328125q-0.40625 0.140625 -0.859375 0.140625q-0.734375 0 -1.234375 -0.484375q-0.484375 -0.484375 -0.484375 -1.171875q0 -0.625 0.453125 -1.0625q0.46875 -0.453125 1.15625 -0.453125q0.703125 0 1.15625 0.46875q0.453125 0.453125 0.453125 1.1875zm-0.296875 -0.296875q-0.078125 -0.46875 -0.453125 -0.765625q-0.359375 -0.296875 -0.859375 -0.296875q-0.5 0 -0.859375 0.296875q-0.359375 0.28125 -0.453125 0.765625l2.625 0zm2.8881836 0.875l0.109375 0q0.203125 0 0.328125 0.140625q0.140625 0.140625 0.140625 0.328125q0 0.1875 -0.140625 0.328125q-0.125 0.140625 -0.328125 0.140625l-0.109375 0q-0.203125 0 -0.34375 -0.140625q-0.125 -0.140625 -0.125 -0.328125q0 -0.203125 0.140625 -0.328125q0.140625 -0.140625 0.328125 -0.140625zm5.4506836 -1.84375l0 -0.09375q0 -0.109375 0.03125 -0.140625q0.046875 -0.046875 0.109375 -0.046875q0.0625 0 0.109375 0.046875q0.046875 0.03125 0.046875 0.140625l0 0.65625q-0.015625 0.09375 -0.0625 0.140625q-0.03125 0.046875 -0.09375 0.046875q-0.046875 0 -0.09375 -0.03125q-0.03125 -0.046875 -0.046875 -0.140625q-0.015625 -0.234375 -0.3125 -0.453125q-0.296875 -0.21875 -0.8125 -0.21875q-0.640625 0 -0.96875 0.40625q-0.328125 0.390625 -0.328125 0.90625q0 0.546875 0.359375 0.921875q0.375 0.359375 0.953125 0.359375q0.328125 0 0.671875 -0.125q0.359375 -0.125 0.640625 -0.390625q0.0625 -0.078125 0.125 -0.078125q0.046875 0 0.078125 0.046875q0.046875 0.03125 0.046875 0.09375q0 0.140625 -0.34375 0.375q-0.546875 0.359375 -1.234375 0.359375q-0.6875 0 -1.140625 -0.4375q-0.453125 -0.4375 -0.453125 -1.125q0 -0.6875 0.453125 -1.140625q0.46875 -0.46875 1.15625 -0.46875q0.65625 0 1.109375 0.390625zm4.6069336 1.203125q0 0.65625 -0.46875 1.125q-0.46875 0.453125 -1.125 0.453125q-0.671875 0 -1.140625 -0.46875q-0.46875 -0.46875 -0.46875 -1.109375q0 -0.65625 0.46875 -1.125q0.46875 -0.46875 1.140625 -0.46875q0.65625 0 1.125 0.46875q0.46875 0.453125 0.46875 1.125zm-0.28125 0q0 -0.546875 -0.390625 -0.921875q-0.390625 -0.375 -0.9375 -0.375q-0.546875 0 -0.9375 0.375q-0.375 0.375 -0.375 0.921875q0 0.53125 0.375 0.921875q0.390625 0.375 0.9375 0.375q0.546875 0 0.9375 -0.375q0.390625 -0.390625 0.390625 -0.921875zm1.5756836 -1.484375l0 0.28125q0.359375 -0.390625 0.734375 -0.390625q0.21875 0 0.375 0.125q0.171875 0.109375 0.296875 0.34375q0.1875 -0.234375 0.375 -0.34375q0.203125 -0.125 0.40625 -0.125q0.3125 0 0.484375 0.203125q0.25 0.265625 0.25 0.5625l0 2.015625l0.25 0q0.09375 0 0.140625 0.046875q0.046875 0.03125 0.046875 0.09375q0 0.0625 -0.046875 0.109375q-0.046875 0.03125 -0.140625 0.03125l-0.53125 0l0 -2.265625q0 -0.21875 -0.140625 -0.359375q-0.125 -0.140625 -0.3125 -0.140625q-0.15625 0 -0.328125 0.125q-0.171875 0.109375 -0.390625 0.453125l0 1.90625l0.234375 0q0.109375 0 0.140625 0.046875q0.046875 0.03125 0.046875 0.09375q0 0.0625 -0.046875 0.109375q-0.03125 0.03125 -0.140625 0.03125l-0.53125 0l0 -2.25q0 -0.21875 -0.140625 -0.359375q-0.125 -0.15625 -0.296875 -0.15625q-0.15625 0 -0.296875 0.09375q-0.21875 0.140625 -0.4375 0.484375l0 1.90625l0.234375 0q0.109375 0 0.15625 0.046875q0.046875 0.03125 0.046875 0.09375q0 0.0625 -0.046875 0.109375q-0.046875 0.03125 -0.15625 0.03125l-0.765625 0q-0.109375 0 -0.15625 -0.03125q-0.03125 -0.046875 -0.03125 -0.109375q0 -0.0625 0.03125 -0.09375q0.046875 -0.046875 0.15625 -0.046875l0.234375 0l0 -2.390625l-0.234375 0q-0.109375 0 -0.15625 -0.03125q-0.03125 -0.046875 -0.03125 -0.109375q0 -0.0625 0.03125 -0.09375q0.046875 -0.046875 0.15625 -0.046875l0.53125 0zm6.7944336 -1.546875l-2.3125 4.953125q-0.0625 0.125 -0.140625 0.125q-0.0625 0 -0.109375 -0.046875q-0.046875 -0.03125 -0.046875 -0.09375q0 -0.03125 0.046875 -0.109375l2.296875 -4.953125q0.046875 -0.078125 0.078125 -0.09375q0.03125 -0.03125 0.078125 -0.03125q0.0625 0 0.09375 0.046875q0.046875 0.046875 0.046875 0.09375q0 0.03125 -0.03125 0.109375zm4.3100586 0.203125l0 4.015625l0.390625 0q0.109375 0 0.140625 0.046875q0.046875 0.03125 0.046875 0.09375q0 0.0625 -0.046875 0.109375q-0.03125 0.03125 -0.140625 0.03125l-0.671875 0l0 -0.578125q-0.5 0.6875 -1.265625 0.6875q-0.390625 0 -0.75 -0.203125q-0.359375 -0.203125 -0.5625 -0.578125q-0.203125 -0.390625 -0.203125 -0.796875q0 -0.421875 0.203125 -0.796875q0.203125 -0.375 0.5625 -0.578125q0.359375 -0.21875 0.75 -0.21875q0.75 0 1.265625 0.6875l0 -1.625l-0.390625 0q-0.09375 0 -0.140625 -0.03125q-0.046875 -0.046875 -0.046875 -0.109375q0 -0.0625 0.046875 -0.109375q0.046875 -0.046875 0.140625 -0.046875l0.671875 0zm-0.28125 2.828125q0 -0.546875 -0.375 -0.921875q-0.359375 -0.375 -0.875 -0.375q-0.515625 0 -0.890625 0.375q-0.359375 0.375 -0.359375 0.921875q0 0.53125 0.359375 0.921875q0.375 0.375 0.890625 0.375q0.515625 0 0.875 -0.375q0.375 -0.390625 0.375 -0.921875zm2.7319336 -1.484375l0 0.71875q0.5625 -0.5 0.84375 -0.640625q0.28125 -0.15625 0.515625 -0.15625q0.25 0 0.46875 0.171875q0.234375 0.171875 0.234375 0.265625q0 0.0625 -0.046875 0.109375q-0.046875 0.03125 -0.109375 0.03125q-0.03125 0 -0.0625 0q-0.015625 -0.015625 -0.078125 -0.078125q-0.125 -0.125 -0.21875 -0.171875q-0.078125 -0.046875 -0.171875 -0.046875q-0.1875 0 -0.453125 0.15625q-0.265625 0.15625 -0.921875 0.734375l0 1.578125l1.28125 0q0.109375 0 0.140625 0.046875q0.046875 0.03125 0.046875 0.09375q0 0.0625 -0.046875 0.109375q-0.03125 0.03125 -0.140625 0.03125l-2.25 0q-0.109375 0 -0.15625 -0.03125q-0.046875 -0.046875 -0.046875 -0.109375q0 -0.0625 0.046875 -0.09375q0.046875 -0.046875 0.15625 -0.046875l0.6875 0l0 -2.390625l-0.53125 0q-0.09375 0 -0.140625 -0.03125q-0.046875 -0.046875 -0.046875 -0.109375q0 -0.0625 0.03125 -0.09375q0.046875 -0.046875 0.15625 -0.046875l0.8125 0zm5.3725586 2.953125l0 -0.40625q-0.625 0.515625 -1.328125 0.515625q-0.515625 0 -0.8125 -0.25q-0.28125 -0.265625 -0.28125 -0.65625q0 -0.40625 0.375 -0.71875q0.390625 -0.3125 1.125 -0.3125q0.1875 0 0.421875 0.03125q0.234375 0.015625 0.5 0.078125l0 -0.46875q0 -0.234375 -0.21875 -0.40625q-0.21875 -0.171875 -0.65625 -0.171875q-0.328125 0 -0.9375 0.1875q-0.109375 0.03125 -0.140625 0.03125q-0.046875 0 -0.09375 -0.03125q-0.03125 -0.046875 -0.03125 -0.109375q0 -0.0625 0.03125 -0.09375q0.046875 -0.046875 0.390625 -0.140625q0.53125 -0.140625 0.796875 -0.140625q0.546875 0 0.84375 0.265625q0.3125 0.265625 0.3125 0.609375l0 1.90625l0.375 0q0.109375 0 0.15625 0.046875q0.046875 0.03125 0.046875 0.09375q0 0.0625 -0.046875 0.109375q-0.046875 0.03125 -0.15625 0.03125l-0.671875 0zm0 -1.421875q-0.203125 -0.0625 -0.4375 -0.09375q-0.21875 -0.03125 -0.453125 -0.03125q-0.640625 0 -0.984375 0.28125q-0.265625 0.203125 -0.265625 0.46875q0 0.265625 0.203125 0.453125q0.203125 0.171875 0.59375 0.171875q0.375 0 0.6875 -0.140625q0.328125 -0.15625 0.65625 -0.484375l0 -0.625zm4.3725586 1.421875l-0.359375 0l-0.625 -1.84375l-0.640625 1.84375l-0.34375 0l-0.609375 -2.671875l-0.125 0q-0.109375 0 -0.15625 -0.03125q-0.046875 -0.046875 -0.046875 -0.109375q0 -0.0625 0.046875 -0.09375q0.046875 -0.046875 0.15625 -0.046875l0.78125 0q0.109375 0 0.140625 0.046875q0.046875 0.03125 0.046875 0.09375q0 0.0625 -0.046875 0.109375q-0.03125 0.03125 -0.140625 0.03125l-0.359375 0l0.5 2.28125l0.609375 -1.828125l0.34375 0l0.640625 1.828125l0.484375 -2.28125l-0.359375 0q-0.109375 0 -0.15625 -0.03125q-0.046875 -0.046875 -0.046875 -0.109375q0 -0.0625 0.046875 -0.09375q0.046875 -0.046875 0.15625 -0.046875l0.78125 0q0.109375 0 0.140625 0.046875q0.046875 0.03125 0.046875 0.09375q0 0.0625 -0.046875 0.109375q-0.03125 0.03125 -0.140625 0.03125l-0.140625 0l-0.578125 2.671875zm3.3569336 -4.4375l0 0.75l-0.4375 0l0 -0.75l0.4375 0zm0 1.484375l0 2.671875l1.125 0q0.109375 0 0.15625 0.046875q0.046875 0.03125 0.046875 0.09375q0 0.0625 -0.046875 0.109375q-0.046875 0.03125 -0.15625 0.03125l-2.53125 0q-0.109375 0 -0.15625 -0.03125q-0.046875 -0.046875 -0.046875 -0.109375q0 -0.0625 0.046875 -0.09375q0.046875 -0.046875 0.15625 -0.046875l1.125 0l0 -2.390625l-0.84375 0q-0.09375 0 -0.140625 -0.03125q-0.046875 -0.046875 -0.046875 -0.109375q0 -0.0625 0.03125 -0.09375q0.046875 -0.046875 0.15625 -0.046875l1.125 0zm3.1225586 0l0 0.421875q0.296875 -0.296875 0.53125 -0.40625q0.25 -0.125 0.5625 -0.125q0.328125 0 0.59375 0.140625q0.1875 0.109375 0.34375 0.34375q0.15625 0.234375 0.15625 0.484375l0 1.8125l0.25 0q0.09375 0 0.140625 0.046875q0.046875 0.03125 0.046875 0.09375q0 0.0625 -0.046875 0.109375q-0.046875 0.03125 -0.140625 0.03125l-0.765625 0q-0.109375 0 -0.15625 -0.03125q-0.046875 -0.046875 -0.046875 -0.109375q0 -0.0625 0.046875 -0.09375q0.046875 -0.046875 0.15625 -0.046875l0.234375 0l0 -1.765625q0 -0.3125 -0.234375 -0.515625q-0.21875 -0.203125 -0.578125 -0.203125q-0.296875 0 -0.5 0.109375q-0.203125 0.109375 -0.59375 0.5625l0 1.8125l0.328125 0q0.09375 0 0.140625 0.046875q0.046875 0.03125 0.046875 0.09375q0 0.0625 -0.046875 0.109375q-0.046875 0.03125 -0.140625 0.03125l-0.9375 0q-0.109375 0 -0.15625 -0.03125q-0.03125 -0.046875 -0.03125 -0.109375q0 -0.0625 0.03125 -0.09375q0.046875 -0.046875 0.15625 -0.046875l0.328125 0l0 -2.390625l-0.25 0q-0.09375 0 -0.140625 -0.03125q-0.046875 -0.046875 -0.046875 -0.109375q0 -0.0625 0.046875 -0.09375q0.046875 -0.046875 0.140625 -0.046875l0.53125 0zm6.0913086 0.515625l0 -0.515625l0.671875 0q0.109375 0 0.15625 0.046875q0.046875 0.03125 0.046875 0.09375q0 0.0625 -0.046875 0.109375q-0.046875 0.03125 -0.15625 0.03125l-0.375 0l0 2.875q0 0.28125 -0.125 0.515625q-0.09375 0.140625 -0.28125 0.296875q-0.1875 0.171875 -0.34375 0.234375q-0.15625 0.0625 -0.421875 0.0625l-0.8125 0q-0.109375 0 -0.15625 -0.046875q-0.03125 -0.03125 -0.03125 -0.09375q0 -0.0625 0.03125 -0.109375q0.046875 -0.03125 0.15625 -0.03125l0.828125 0q0.25 0 0.453125 -0.140625q0.203125 -0.125 0.328125 -0.375q0.078125 -0.140625 0.078125 -0.359375l0 -0.859375q-0.453125 0.625 -1.1875 0.625q-0.59375 0 -1.03125 -0.4375q-0.421875 -0.4375 -0.421875 -1.046875q0 -0.625 0.421875 -1.0625q0.4375 -0.4375 1.03125 -0.4375q0.734375 0 1.1875 0.625zm0 0.875q0 -0.515625 -0.34375 -0.859375q-0.34375 -0.34375 -0.828125 -0.34375q-0.484375 0 -0.828125 0.34375q-0.34375 0.34375 -0.34375 0.859375q0 0.5 0.34375 0.859375q0.34375 0.34375 0.828125 0.34375q0.484375 0 0.828125 -0.34375q0.34375 -0.359375 0.34375 -0.859375zm4.1850586 -1.203125q0 -0.109375 0.03125 -0.140625q0.046875 -0.046875 0.109375 -0.046875q0.0625 0 0.109375 0.046875q0.046875 0.03125 0.046875 0.140625l0 0.5q0 0.09375 -0.046875 0.140625q-0.046875 0.046875 -0.109375 0.046875q-0.046875 0 -0.09375 -0.03125q-0.03125 -0.046875 -0.046875 -0.140625q-0.015625 -0.203125 -0.203125 -0.328125q-0.28125 -0.1875 -0.75 -0.1875q-0.484375 0 -0.75 0.1875q-0.203125 0.140625 -0.203125 0.328125q0 0.203125 0.25 0.34375q0.15625 0.09375 0.609375 0.140625q0.609375 0.0625 0.84375 0.15625q0.328125 0.109375 0.484375 0.328125q0.171875 0.21875 0.171875 0.453125q0 0.375 -0.359375 0.65625q-0.34375 0.28125 -1.03125 0.28125q-0.6875 0 -1.109375 -0.34375q0 0.125 -0.015625 0.15625q-0.015625 0.03125 -0.0625 0.0625q-0.03125 0.015625 -0.078125 0.015625q-0.046875 0 -0.09375 -0.046875q-0.046875 -0.046875 -0.046875 -0.140625l0 -0.59375q0 -0.109375 0.03125 -0.140625q0.046875 -0.046875 0.109375 -0.046875q0.0625 0 0.109375 0.046875q0.046875 0.03125 0.046875 0.109375q0 0.15625 0.078125 0.265625q0.125 0.15625 0.375 0.265625q0.265625 0.109375 0.640625 0.109375q0.5625 0 0.828125 -0.203125q0.28125 -0.21875 0.28125 -0.453125q0 -0.265625 -0.28125 -0.421875q-0.265625 -0.15625 -0.8125 -0.203125q-0.53125 -0.0625 -0.765625 -0.15625q-0.234375 -0.09375 -0.359375 -0.265625q-0.125 -0.171875 -0.125 -0.390625q0 -0.359375 0.359375 -0.578125q0.359375 -0.21875 0.859375 -0.21875q0.59375 0 0.96875 0.296875zm4.5444336 -1.734375l-2.3125 4.953125q-0.0625 0.125 -0.140625 0.125q-0.0625 0 -0.109375 -0.046875q-0.046875 -0.03125 -0.046875 -0.09375q0 -0.03125 0.046875 -0.109375l2.296875 -4.953125q0.046875 -0.078125 0.078125 -0.09375q0.03125 -0.03125 0.078125 -0.03125q0.0625 0 0.09375 0.046875q0.046875 0.046875 0.046875 0.09375q0 0.03125 -0.03125 0.109375zm4.3100586 0.203125l0 4.015625l0.390625 0q0.109375 0 0.140625 0.046875q0.046875 0.03125 0.046875 0.09375q0 0.0625 -0.046875 0.109375q-0.03125 0.03125 -0.140625 0.03125l-0.671875 0l0 -0.578125q-0.5 0.6875 -1.265625 0.6875q-0.390625 0 -0.75 -0.203125q-0.359375 -0.203125 -0.5625 -0.578125q-0.203125 -0.390625 -0.203125 -0.796875q0 -0.421875 0.203125 -0.796875q0.203125 -0.375 0.5625 -0.578125q0.359375 -0.21875 0.75 -0.21875q0.75 0 1.265625 0.6875l0 -1.625l-0.390625 0q-0.09375 0 -0.140625 -0.03125q-0.046875 -0.046875 -0.046875 -0.109375q0 -0.0625 0.046875 -0.109375q0.046875 -0.046875 0.140625 -0.046875l0.671875 0zm-0.28125 2.828125q0 -0.546875 -0.375 -0.921875q-0.359375 -0.375 -0.875 -0.375q-0.515625 0 -0.890625 0.375q-0.359375 0.375 -0.359375 0.921875q0 0.53125 0.359375 0.921875q0.375 0.375 0.890625 0.375q0.515625 0 0.875 -0.375q0.375 -0.390625 0.375 -0.921875zm4.3725586 -3.03125l-2.3125 4.953125q-0.0625 0.125 -0.140625 0.125q-0.0625 0 -0.109375 -0.046875q-0.046875 -0.03125 -0.046875 -0.09375q0 -0.03125 0.046875 -0.109375l2.296875 -4.953125q0.046875 -0.078125 0.078125 -0.09375q0.03125 -0.03125 0.078125 -0.03125q0.0625 0 0.09375 0.046875q0.046875 0.046875 0.046875 0.09375q0 0.03125 -0.03125 0.109375z" fill-rule="nonzero"/><path fill="#010000" fill-opacity="0.0" d="m161.00818 136.152l184.83008 0l0 7.9296875l-184.83008 0l0 -7.9296875z" fill-rule="nonzero"/><path fill="#866c5b" d="m163.25818 137.63588l0 4.0625l0.984375 0q0.09375 0 0.140625 0.046875q0.046875 0.03125 0.046875 0.09375q0 0.0625 -0.046875 0.109375q-0.046875 0.03125 -0.140625 0.03125l-2.265625 0q-0.09375 0 -0.140625 -0.03125q-0.046875 -0.046875 -0.046875 -0.109375q0 -0.0625 0.046875 -0.09375q0.046875 -0.046875 0.140625 -0.046875l0.984375 0l0 -3.671875l-0.9375 0.296875q-0.0625 0.015625 -0.09375 0.015625q-0.046875 0 -0.09375 -0.03125q-0.046875 -0.046875 -0.046875 -0.109375q0 -0.046875 0.03125 -0.09375q0.03125 -0.03125 0.125 -0.0625l1.3125 -0.40625zm5.0756836 0.625l0 -0.09375q0 -0.09375 0.03125 -0.140625q0.046875 -0.046875 0.109375 -0.046875q0.078125 0 0.109375 0.046875q0.046875 0.046875 0.046875 0.140625l0 0.734375q0 0.109375 -0.046875 0.15625q-0.03125 0.03125 -0.109375 0.03125q-0.0625 0 -0.109375 -0.03125q-0.03125 -0.046875 -0.03125 -0.140625q-0.015625 -0.28125 -0.296875 -0.5q-0.28125 -0.234375 -0.71875 -0.234375q-0.484375 0 -0.765625 0.25q-0.28125 0.234375 -0.28125 0.5625q0 0.171875 0.078125 0.3125q0.078125 0.140625 0.203125 0.234375q0.140625 0.078125 0.296875 0.140625q0.171875 0.046875 0.515625 0.109375q0.59375 0.09375 0.8125 0.1875q0.296875 0.140625 0.4375 0.375q0.15625 0.234375 0.15625 0.546875q0 0.5 -0.390625 0.84375q-0.390625 0.34375 -1.0625 0.34375q-0.734375 0 -1.1875 -0.46875l0 0.171875q0 0.09375 -0.046875 0.140625q-0.03125 0.046875 -0.09375 0.046875q-0.0625 0 -0.109375 -0.046875q-0.046875 -0.046875 -0.046875 -0.140625l0 -0.796875q0 -0.109375 0.046875 -0.140625q0.046875 -0.046875 0.109375 -0.046875q0.0625 0 0.09375 0.046875q0.046875 0.03125 0.046875 0.125q0.015625 0.3125 0.328125 0.578125q0.328125 0.25 0.859375 0.25q0.546875 0 0.859375 -0.265625q0.3125 -0.28125 0.3125 -0.640625q0 -0.234375 -0.125 -0.40625q-0.109375 -0.171875 -0.34375 -0.28125q-0.171875 -0.0625 -0.6875 -0.15625q-0.71875 -0.125 -1.03125 -0.375q-0.3125 -0.234375 -0.3125 -0.6875q0 -0.453125 0.359375 -0.78125q0.359375 -0.328125 0.953125 -0.328125q0.59375 0 1.03125 0.375zm3.3256836 0l0 3.4375l0.984375 0q0.09375 0 0.140625 0.046875q0.046875 0.03125 0.046875 0.09375q0 0.0625 -0.046875 0.109375q-0.046875 0.03125 -0.140625 0.03125l-2.265625 0q-0.09375 0 -0.140625 -0.03125q-0.046875 -0.046875 -0.046875 -0.109375q0 -0.0625 0.046875 -0.09375q0.046875 -0.046875 0.140625 -0.046875l0.984375 0l0 -3.4375l-0.984375 0q-0.09375 0 -0.140625 -0.03125q-0.046875 -0.046875 -0.046875 -0.109375q0 -0.0625 0.046875 -0.09375q0.046875 -0.046875 0.140625 -0.046875l2.265625 0q0.09375 0 0.140625 0.046875q0.046875 0.03125 0.046875 0.09375q0 0.0625 -0.046875 0.109375q-0.046875 0.03125 -0.140625 0.03125l-0.984375 0zm4.3100586 3.71875l-0.5 0l-1.171875 -2.671875l-0.296875 0q-0.09375 0 -0.140625 -0.03125q-0.046875 -0.046875 -0.046875 -0.109375q0 -0.0625 0.046875 -0.09375q0.046875 -0.046875 0.140625 -0.046875l1.078125 0q0.109375 0 0.140625 0.046875q0.046875 0.03125 0.046875 0.09375q0 0.0625 -0.046875 0.109375q-0.03125 0.03125 -0.140625 0.03125l-0.46875 0l1.046875 2.390625l0.125 0l1.03125 -2.390625l-0.46875 0q-0.109375 0 -0.15625 -0.03125q-0.046875 -0.046875 -0.046875 -0.109375q0 -0.0625 0.046875 -0.09375q0.046875 -0.046875 0.15625 -0.046875l1.078125 0q0.09375 0 0.140625 0.046875q0.046875 0.03125 0.046875 0.09375q0 0.0625 -0.046875 0.109375q-0.046875 0.03125 -0.140625 0.03125l-0.296875 0l-1.15625 2.671875zm5.5444336 -1.46875q0 0.65625 -0.46875 1.125q-0.46875 0.453125 -1.125 0.453125q-0.671875 0 -1.140625 -0.46875q-0.46875 -0.46875 -0.46875 -1.109375q0 -0.65625 0.46875 -1.125q0.46875 -0.46875 1.140625 -0.46875q0.65625 0 1.125 0.46875q0.46875 0.453125 0.46875 1.125zm-0.28125 0q0 -0.546875 -0.390625 -0.921875q-0.390625 -0.375 -0.9375 -0.375q-0.546875 0 -0.9375 0.375q-0.375 0.375 -0.375 0.921875q0 0.53125 0.375 0.921875q0.390625 0.375 0.9375 0.375q0.546875 0 0.9375 -0.375q0.390625 -0.390625 0.390625 -0.921875zm3.0288086 -0.34375l0 1.53125l0.75 0q0.09375 0 0.140625 0.046875q0.046875 0.03125 0.046875 0.09375q0 0.0625 -0.046875 0.109375q-0.046875 0.03125 -0.140625 0.03125l-1.78125 0q-0.109375 0 -0.15625 -0.03125q-0.03125 -0.046875 -0.03125 -0.109375q0 -0.0625 0.03125 -0.09375q0.046875 -0.046875 0.15625 -0.046875l0.75 0l0 -1.53125l-1.265625 -1.90625l-0.171875 0q-0.109375 0 -0.15625 -0.03125q-0.03125 -0.046875 -0.03125 -0.109375q0 -0.0625 0.03125 -0.09375q0.046875 -0.046875 0.15625 -0.046875l0.78125 0q0.109375 0 0.15625 0.046875q0.046875 0.03125 0.046875 0.09375q0 0.0625 -0.046875 0.109375q-0.046875 0.03125 -0.15625 0.03125l-0.28125 0l1.078125 1.625l1.046875 -1.625l-0.28125 0q-0.109375 0 -0.15625 -0.03125q-0.03125 -0.046875 -0.03125 -0.109375q0 -0.0625 0.03125 -0.09375q0.046875 -0.046875 0.15625 -0.046875l0.796875 0q0.09375 0 0.140625 0.046875q0.046875 0.03125 0.046875 0.09375q0 0.0625 -0.046875 0.109375q-0.046875 0.03125 -0.140625 0.03125l-0.171875 0l-1.25 1.90625zm3.5600586 -1.90625l0 3.4375l1.90625 0l0 -1.140625q0 -0.109375 0.03125 -0.15625q0.046875 -0.046875 0.109375 -0.046875q0.0625 0 0.09375 0.046875q0.046875 0.046875 0.046875 0.15625l0 1.421875l-3.171875 0q-0.09375 0 -0.140625 -0.03125q-0.046875 -0.046875 -0.046875 -0.109375q0 -0.0625 0.046875 -0.09375q0.046875 -0.046875 0.140625 -0.046875l0.6875 0l0 -3.4375l-0.6875 0q-0.09375 0 -0.140625 -0.03125q-0.046875 -0.046875 -0.046875 -0.109375q0 -0.0625 0.046875 -0.09375q0.046875 -0.046875 0.140625 -0.046875l1.65625 0q0.109375 0 0.15625 0.046875q0.046875 0.03125 0.046875 0.09375q0 0.0625 -0.046875 0.109375q-0.046875 0.03125 -0.15625 0.03125l-0.671875 0zm3.7475586 -0.578125l0 1.78125q0.265625 -0.296875 0.515625 -0.421875q0.265625 -0.125 0.578125 -0.125q0.328125 0 0.5625 0.125q0.234375 0.109375 0.390625 0.359375q0.15625 0.234375 0.15625 0.515625l0 1.78125l0.328125 0q0.09375 0 0.140625 0.046875q0.046875 0.03125 0.046875 0.09375q0 0.0625 -0.046875 0.109375q-0.046875 0.03125 -0.140625 0.03125l-0.9375 0q-0.109375 0 -0.15625 -0.03125q-0.046875 -0.046875 -0.046875 -0.109375q0 -0.0625 0.046875 -0.09375q0.046875 -0.046875 0.15625 -0.046875l0.3125 0l0 -1.765625q0 -0.3125 -0.21875 -0.515625q-0.21875 -0.21875 -0.625 -0.21875q-0.3125 0 -0.53125 0.15625q-0.15625 0.109375 -0.53125 0.515625l0 1.828125l0.328125 0q0.09375 0 0.140625 0.046875q0.046875 0.03125 0.046875 0.09375q0 0.0625 -0.046875 0.109375q-0.046875 0.03125 -0.140625 0.03125l-0.9375 0q-0.109375 0 -0.15625 -0.03125q-0.03125 -0.046875 -0.03125 -0.109375q0 -0.0625 0.03125 -0.09375q0.046875 -0.046875 0.15625 -0.046875l0.328125 0l0 -3.71875l-0.390625 0q-0.109375 0 -0.15625 -0.03125q-0.03125 -0.046875 -0.03125 -0.109375q0 -0.0625 0.03125 -0.109375q0.046875 -0.046875 0.15625 -0.046875l0.671875 0zm4.2006836 0l0 1.78125q0.265625 -0.296875 0.515625 -0.421875q0.265625 -0.125 0.578125 -0.125q0.328125 0 0.5625 0.125q0.234375 0.109375 0.390625 0.359375q0.15625 0.234375 0.15625 0.515625l0 1.78125l0.328125 0q0.09375 0 0.140625 0.046875q0.046875 0.03125 0.046875 0.09375q0 0.0625 -0.046875 0.109375q-0.046875 0.03125 -0.140625 0.03125l-0.9375 0q-0.109375 0 -0.15625 -0.03125q-0.046875 -0.046875 -0.046875 -0.109375q0 -0.0625 0.046875 -0.09375q0.046875 -0.046875 0.15625 -0.046875l0.3125 0l0 -1.765625q0 -0.3125 -0.21875 -0.515625q-0.21875 -0.21875 -0.625 -0.21875q-0.3125 0 -0.53125 0.15625q-0.15625 0.109375 -0.53125 0.515625l0 1.828125l0.328125 0q0.09375 0 0.140625 0.046875q0.046875 0.03125 0.046875 0.09375q0 0.0625 -0.046875 0.109375q-0.046875 0.03125 -0.140625 0.03125l-0.9375 0q-0.109375 0 -0.15625 -0.03125q-0.03125 -0.046875 -0.03125 -0.109375q0 -0.0625 0.03125 -0.09375q0.046875 -0.046875 0.15625 -0.046875l0.328125 0l0 -3.71875l-0.390625 0q-0.109375 0 -0.15625 -0.03125q-0.03125 -0.046875 -0.03125 -0.109375q0 -0.0625 0.03125 -0.109375q0.046875 -0.046875 0.15625 -0.046875l0.671875 0zm7.0600586 6.21875l-3.828125 0q-0.09375 0 -0.140625 -0.046875q-0.046875 -0.03125 -0.046875 -0.09375q0 -0.078125 0.046875 -0.125q0.046875 -0.03125 0.140625 -0.03125l3.828125 0q0.09375 0 0.140625 0.03125q0.046875 0.046875 0.046875 0.125q0 0.0625 -0.046875 0.09375q-0.046875 0.046875 -0.140625 0.046875zm3.4038086 -5.640625l0 2.546875q0 0.515625 -0.390625 0.90625q-0.390625 0.375 -0.921875 0.375q-0.328125 0 -0.640625 -0.140625q-0.3125 -0.15625 -0.6875 -0.484375l0 -1.0625q0 -0.109375 0.046875 -0.15625q0.046875 -0.046875 0.109375 -0.046875q0.0625 0 0.09375 0.046875q0.046875 0.046875 0.046875 0.15625l0 0.921875q0.265625 0.234375 0.515625 0.359375q0.265625 0.125 0.515625 0.125q0.28125 0 0.53125 -0.140625q0.1875 -0.09375 0.34375 -0.34375q0.15625 -0.25 0.15625 -0.515625l0 -2.546875l-1.125 0q-0.109375 0 -0.15625 -0.03125q-0.046875 -0.046875 -0.046875 -0.109375q0 -0.0625 0.046875 -0.09375q0.046875 -0.046875 0.15625 -0.046875l2.09375 0q0.109375 0 0.140625 0.046875q0.046875 0.03125 0.046875 0.09375q0 0.0625 -0.046875 0.109375q-0.03125 0.03125 -0.140625 0.03125l-0.6875 0zm2.1538086 1.78125l0 1.65625l2.203125 0l0 -0.859375q0 -0.09375 0.03125 -0.140625q0.046875 -0.046875 0.109375 -0.046875q0.0625 0 0.09375 0.046875q0.046875 0.046875 0.046875 0.140625l0 1.140625l-3.15625 0q-0.109375 0 -0.15625 -0.03125q-0.046875 -0.046875 -0.046875 -0.109375q0 -0.0625 0.046875 -0.09375q0.046875 -0.046875 0.15625 -0.046875l0.375 0l0 -3.4375l-0.375 0q-0.109375 0 -0.15625 -0.03125q-0.046875 -0.046875 -0.046875 -0.109375q0 -0.0625 0.046875 -0.09375q0.046875 -0.046875 0.15625 -0.046875l3.015625 0l0 0.984375q0 0.109375 -0.046875 0.15625q-0.03125 0.046875 -0.109375 0.046875q-0.0625 0 -0.109375 -0.046875q-0.03125 -0.046875 -0.03125 -0.15625l0 -0.703125l-2.046875 0l0 1.5l1.015625 0l0 -0.328125q0 -0.09375 0.046875 -0.140625q0.046875 -0.046875 0.109375 -0.046875q0.0625 0 0.09375 0.046875q0.046875 0.046875 0.046875 0.140625l0 0.9375q0 0.109375 -0.046875 0.15625q-0.03125 0.03125 -0.09375 0.03125q-0.0625 0 -0.109375 -0.03125q-0.046875 -0.046875 -0.046875 -0.15625l0 -0.328125l-1.015625 0zm3.8881836 1.65625l2.203125 0l0 -0.125q0 -0.09375 0.046875 -0.140625q0.046875 -0.046875 0.109375 -0.046875q0.0625 0 0.09375 0.046875q0.046875 0.046875 0.046875 0.140625l0 0.40625l-2.78125 0l0 -0.421875q0.875 -0.78125 1.703125 -1.609375q0.390625 -0.375 0.53125 -0.546875q0.140625 -0.1875 0.1875 -0.3125q0.0625 -0.140625 0.0625 -0.28125q0 -0.359375 -0.296875 -0.640625q-0.296875 -0.296875 -0.71875 -0.296875q-0.375 0 -0.671875 0.21875q-0.28125 0.21875 -0.359375 0.53125q-0.03125 0.09375 -0.0625 0.109375q-0.03125 0.03125 -0.09375 0.03125q-0.0625 0 -0.109375 -0.03125q-0.03125 -0.046875 -0.03125 -0.09375q0 -0.171875 0.171875 -0.453125q0.1875 -0.28125 0.5 -0.4375q0.328125 -0.15625 0.65625 -0.15625q0.53125 0 0.921875 0.375q0.390625 0.375 0.390625 0.84375q0 0.1875 -0.0625 0.359375q-0.0625 0.171875 -0.21875 0.375q-0.15625 0.1875 -0.5625 0.578125q-1.015625 1.0 -1.65625 1.546875l0 0.03125zm5.5913086 -3.4375l0 3.4375l0.984375 0q0.09375 0 0.140625 0.046875q0.046875 0.03125 0.046875 0.09375q0 0.0625 -0.046875 0.109375q-0.046875 0.03125 -0.140625 0.03125l-2.265625 0q-0.09375 0 -0.140625 -0.03125q-0.046875 -0.046875 -0.046875 -0.109375q0 -0.0625 0.046875 -0.09375q0.046875 -0.046875 0.140625 -0.046875l0.984375 0l0 -3.4375l-0.984375 0q-0.09375 0 -0.140625 -0.03125q-0.046875 -0.046875 -0.046875 -0.109375q0 -0.0625 0.046875 -0.09375q0.046875 -0.046875 0.140625 -0.046875l2.265625 0q0.09375 0 0.140625 0.046875q0.046875 0.03125 0.046875 0.09375q0 0.0625 -0.046875 0.109375q-0.046875 0.03125 -0.140625 0.03125l-0.984375 0zm5.9663086 5.640625l-3.828125 0q-0.09375 0 -0.140625 -0.046875q-0.046875 -0.03125 -0.046875 -0.09375q0 -0.078125 0.046875 -0.125q0.046875 -0.03125 0.140625 -0.03125l3.828125 0q0.09375 0 0.140625 0.03125q0.046875 0.046875 0.046875 0.125q0 0.0625 -0.046875 0.09375q-0.046875 0.046875 -0.140625 0.046875zm1.7944336 -5.640625l0 3.4375l1.90625 0l0 -1.140625q0 -0.109375 0.03125 -0.15625q0.046875 -0.046875 0.109375 -0.046875q0.0625 0 0.09375 0.046875q0.046875 0.046875 0.046875 0.15625l0 1.421875l-3.171875 0q-0.09375 0 -0.140625 -0.03125q-0.046875 -0.046875 -0.046875 -0.109375q0 -0.0625 0.046875 -0.09375q0.046875 -0.046875 0.140625 -0.046875l0.6875 0l0 -3.4375l-0.6875 0q-0.09375 0 -0.140625 -0.03125q-0.046875 -0.046875 -0.046875 -0.109375q0 -0.0625 0.046875 -0.09375q0.046875 -0.046875 0.140625 -0.046875l1.65625 0q0.109375 0 0.15625 0.046875q0.046875 0.03125 0.046875 0.09375q0 0.0625 -0.046875 0.109375q-0.046875 0.03125 -0.15625 0.03125l-0.671875 0zm5.7163086 0l0 -0.09375q0 -0.09375 0.03125 -0.140625q0.046875 -0.046875 0.109375 -0.046875q0.078125 0 0.109375 0.046875q0.046875 0.046875 0.046875 0.140625l0 0.734375q0 0.109375 -0.046875 0.15625q-0.03125 0.03125 -0.109375 0.03125q-0.0625 0 -0.109375 -0.03125q-0.03125 -0.046875 -0.03125 -0.140625q-0.015625 -0.28125 -0.296875 -0.5q-0.28125 -0.234375 -0.71875 -0.234375q-0.484375 0 -0.765625 0.25q-0.28125 0.234375 -0.28125 0.5625q0 0.171875 0.078125 0.3125q0.078125 0.140625 0.203125 0.234375q0.140625 0.078125 0.296875 0.140625q0.171875 0.046875 0.515625 0.109375q0.59375 0.09375 0.8125 0.1875q0.296875 0.140625 0.4375 0.375q0.15625 0.234375 0.15625 0.546875q0 0.5 -0.390625 0.84375q-0.390625 0.34375 -1.0625 0.34375q-0.734375 0 -1.1875 -0.46875l0 0.171875q0 0.09375 -0.046875 0.140625q-0.03125 0.046875 -0.09375 0.046875q-0.0625 0 -0.109375 -0.046875q-0.046875 -0.046875 -0.046875 -0.140625l0 -0.796875q0 -0.109375 0.046875 -0.140625q0.046875 -0.046875 0.109375 -0.046875q0.0625 0 0.09375 0.046875q0.046875 0.03125 0.046875 0.125q0.015625 0.3125 0.328125 0.578125q0.328125 0.25 0.859375 0.25q0.546875 0 0.859375 -0.265625q0.3125 -0.28125 0.3125 -0.640625q0 -0.234375 -0.125 -0.40625q-0.109375 -0.171875 -0.34375 -0.28125q-0.171875 -0.0625 -0.6875 -0.15625q-0.71875 -0.125 -1.03125 -0.375q-0.3125 -0.234375 -0.3125 -0.6875q0 -0.453125 0.359375 -0.78125q0.359375 -0.328125 0.953125 -0.328125q0.59375 0 1.03125 0.375zm3.3725586 2.515625l-0.328125 0l-1.109375 -2.515625l-0.0625 0l0 3.4375l0.53125 0q0.109375 0 0.15625 0.046875q0.046875 0.03125 0.046875 0.09375q0 0.0625 -0.046875 0.109375q-0.046875 0.03125 -0.15625 0.03125l-1.046875 0q-0.109375 0 -0.15625 -0.03125q-0.046875 -0.046875 -0.046875 -0.109375q0 -0.0625 0.046875 -0.09375q0.046875 -0.046875 0.15625 -0.046875l0.234375 0l0 -3.4375l-0.1875 0q-0.09375 0 -0.140625 -0.03125q-0.046875 -0.046875 -0.046875 -0.109375q0 -0.0625 0.046875 -0.09375q0.046875 -0.046875 0.140625 -0.046875l0.71875 0l1.078125 2.46875l1.078125 -2.46875l0.703125 0q0.09375 0 0.140625 0.046875q0.046875 0.03125 0.046875 0.09375q0 0.0625 -0.046875 0.109375q-0.046875 0.03125 -0.140625 0.03125l-0.1875 0l0 3.4375l0.25 0q0.09375 0 0.140625 0.046875q0.046875 0.03125 0.046875 0.09375q0 0.0625 -0.046875 0.109375q-0.046875 0.03125 -0.140625 0.03125l-1.0625 0q-0.109375 0 -0.15625 -0.03125q-0.046875 -0.046875 -0.046875 -0.109375q0 -0.0625 0.046875 -0.09375q0.046875 -0.046875 0.15625 -0.046875l0.53125 0l0 -3.4375l-0.0625 0l-1.078125 2.515625zm4.9663086 -1.234375l0 -0.515625l0.671875 0q0.109375 0 0.15625 0.046875q0.046875 0.03125 0.046875 0.09375q0 0.0625 -0.046875 0.109375q-0.046875 0.03125 -0.15625 0.03125l-0.375 0l0 2.875q0 0.28125 -0.125 0.515625q-0.09375 0.140625 -0.28125 0.296875q-0.1875 0.171875 -0.34375 0.234375q-0.15625 0.0625 -0.421875 0.0625l-0.8125 0q-0.109375 0 -0.15625 -0.046875q-0.03125 -0.03125 -0.03125 -0.09375q0 -0.0625 0.03125 -0.109375q0.046875 -0.03125 0.15625 -0.03125l0.828125 0q0.25 0 0.453125 -0.140625q0.203125 -0.125 0.328125 -0.375q0.078125 -0.140625 0.078125 -0.359375l0 -0.859375q-0.453125 0.625 -1.1875 0.625q-0.59375 0 -1.03125 -0.4375q-0.421875 -0.4375 -0.421875 -1.046875q0 -0.625 0.421875 -1.0625q0.4375 -0.4375 1.03125 -0.4375q0.734375 0 1.1875 0.625zm0 0.875q0 -0.515625 -0.34375 -0.859375q-0.34375 -0.34375 -0.828125 -0.34375q-0.484375 0 -0.828125 0.34375q-0.34375 0.34375 -0.34375 0.859375q0 0.5 0.34375 0.859375q0.34375 0.34375 0.828125 0.34375q0.484375 0 0.828125 -0.34375q0.34375 -0.359375 0.34375 -0.859375zm4.2163086 1.5625l0 -0.421875q-0.578125 0.53125 -1.265625 0.53125q-0.421875 0 -0.640625 -0.21875q-0.28125 -0.3125 -0.28125 -0.703125l0 -1.859375l-0.390625 0q-0.09375 0 -0.140625 -0.03125q-0.046875 -0.046875 -0.046875 -0.109375q0 -0.0625 0.046875 -0.09375q0.046875 -0.046875 0.140625 -0.046875l0.671875 0l0 2.140625q0 0.28125 0.171875 0.46875q0.1875 0.171875 0.453125 0.171875q0.703125 0 1.28125 -0.640625l0 -1.859375l-0.53125 0q-0.09375 0 -0.140625 -0.03125q-0.046875 -0.046875 -0.046875 -0.109375q0 -0.0625 0.046875 -0.09375q0.046875 -0.046875 0.140625 -0.046875l0.828125 0l0 2.671875l0.234375 0q0.109375 0 0.140625 0.046875q0.046875 0.03125 0.046875 0.09375q0 0.0625 -0.046875 0.109375q-0.03125 0.03125 -0.140625 0.03125l-0.53125 0zm4.0444336 0l0 -0.40625q-0.625 0.515625 -1.328125 0.515625q-0.515625 0 -0.8125 -0.25q-0.28125 -0.265625 -0.28125 -0.65625q0 -0.40625 0.375 -0.71875q0.390625 -0.3125 1.125 -0.3125q0.1875 0 0.421875 0.03125q0.234375 0.015625 0.5 0.078125l0 -0.46875q0 -0.234375 -0.21875 -0.40625q-0.21875 -0.171875 -0.65625 -0.171875q-0.328125 0 -0.9375 0.1875q-0.109375 0.03125 -0.140625 0.03125q-0.046875 0 -0.09375 -0.03125q-0.03125 -0.046875 -0.03125 -0.109375q0 -0.0625 0.03125 -0.09375q0.046875 -0.046875 0.390625 -0.140625q0.53125 -0.140625 0.796875 -0.140625q0.546875 0 0.84375 0.265625q0.3125 0.265625 0.3125 0.609375l0 1.90625l0.375 0q0.109375 0 0.15625 0.046875q0.046875 0.03125 0.046875 0.09375q0 0.0625 -0.046875 0.109375q-0.046875 0.03125 -0.15625 0.03125l-0.671875 0zm0 -1.421875q-0.203125 -0.0625 -0.4375 -0.09375q-0.21875 -0.03125 -0.453125 -0.03125q-0.640625 0 -0.984375 0.28125q-0.265625 0.203125 -0.265625 0.46875q0 0.265625 0.203125 0.453125q0.203125 0.171875 0.59375 0.171875q0.375 0 0.6875 -0.140625q0.328125 -0.15625 0.65625 -0.484375l0 -0.625zm3.5288086 -3.015625l0 0.75l-0.4375 0l0 -0.75l0.4375 0zm0 1.484375l0 2.671875l1.125 0q0.109375 0 0.15625 0.046875q0.046875 0.03125 0.046875 0.09375q0 0.0625 -0.046875 0.109375q-0.046875 0.03125 -0.15625 0.03125l-2.53125 0q-0.109375 0 -0.15625 -0.03125q-0.046875 -0.046875 -0.046875 -0.109375q0 -0.0625 0.046875 -0.09375q0.046875 -0.046875 0.15625 -0.046875l1.125 0l0 -2.390625l-0.84375 0q-0.09375 0 -0.140625 -0.03125q-0.046875 -0.046875 -0.046875 -0.109375q0 -0.0625 0.03125 -0.09375q0.046875 -0.046875 0.15625 -0.046875l1.125 0zm5.4350586 -0.765625l0 2.40625q0 0.609375 -0.40625 1.015625q-0.390625 0.40625 -0.96875 0.40625q-0.375 0 -0.671875 -0.15625q-0.296875 -0.171875 -0.515625 -0.515625q-0.203125 -0.34375 -0.203125 -0.75l0 -2.40625l-0.25 0q-0.09375 0 -0.140625 -0.03125q-0.046875 -0.046875 -0.046875 -0.109375q0 -0.0625 0.046875 -0.109375q0.046875 -0.03125 0.140625 -0.03125l1.0625 0q0.109375 0 0.140625 0.046875q0.046875 0.03125 0.046875 0.09375q0 0.0625 -0.046875 0.109375q-0.03125 0.03125 -0.140625 0.03125l-0.53125 0l0 2.40625q0 0.46875 0.328125 0.8125q0.328125 0.328125 0.765625 0.328125q0.28125 0 0.515625 -0.125q0.234375 -0.140625 0.40625 -0.40625q0.1875 -0.265625 0.1875 -0.609375l0 -2.40625l-0.53125 0q-0.09375 0 -0.140625 -0.03125q-0.046875 -0.046875 -0.046875 -0.109375q0 -0.0625 0.046875 -0.09375q0.046875 -0.046875 0.140625 -0.046875l1.0625 0q0.09375 0 0.140625 0.046875q0.046875 0.03125 0.046875 0.09375q0 0.0625 -0.046875 0.109375q-0.046875 0.03125 -0.140625 0.03125l-0.25 0zm3.7944336 1.78125l-1.90625 0l0 1.65625l0.390625 0q0.09375 0 0.140625 0.046875q0.046875 0.03125 0.046875 0.09375q0 0.0625 -0.046875 0.109375q-0.046875 0.03125 -0.140625 0.03125l-1.0 0q-0.109375 0 -0.15625 -0.03125q-0.046875 -0.046875 -0.046875 -0.109375q0 -0.0625 0.046875 -0.09375q0.046875 -0.046875 0.15625 -0.046875l0.3125 0l0 -3.4375l-0.171875 0q-0.109375 0 -0.15625 -0.03125q-0.03125 -0.046875 -0.03125 -0.109375q0 -0.0625 0.03125 -0.09375q0.046875 -0.046875 0.15625 -0.046875l0.859375 0q0.09375 0 0.140625 0.046875q0.046875 0.03125 0.046875 0.09375q0 0.0625 -0.046875 0.109375q-0.046875 0.03125 -0.140625 0.03125l-0.390625 0l0 1.5l1.90625 0l0 -1.5l-0.390625 0q-0.09375 0 -0.140625 -0.03125q-0.046875 -0.046875 -0.046875 -0.109375q0 -0.0625 0.03125 -0.09375q0.046875 -0.046875 0.15625 -0.046875l0.859375 0q0.09375 0 0.140625 0.046875q0.046875 0.03125 0.046875 0.09375q0 0.0625 -0.046875 0.109375q-0.046875 0.03125 -0.140625 0.03125l-0.1875 0l0 3.4375l0.328125 0q0.109375 0 0.140625 0.046875q0.046875 0.03125 0.046875 0.09375q0 0.0625 -0.046875 0.109375q-0.03125 0.03125 -0.140625 0.03125l-1.0 0q-0.09375 0 -0.140625 -0.03125q-0.046875 -0.046875 -0.046875 -0.109375q0 -0.0625 0.03125 -0.09375q0.046875 -0.046875 0.15625 -0.046875l0.390625 0l0 -1.65625zm3.4194336 0.390625l1.3125 1.265625q0.140625 0 0.171875 0.015625q0.03125 0 0.046875 0.046875q0.03125 0.03125 0.03125 0.078125q0 0.0625 -0.046875 0.109375q-0.03125 0.03125 -0.140625 0.03125l-0.921875 0q-0.109375 0 -0.15625 -0.03125q-0.046875 -0.046875 -0.046875 -0.109375q0 -0.0625 0.046875 -0.09375q0.046875 -0.046875 0.15625 -0.046875l0.46875 0l-1.109375 -1.078125l-1.125 1.078125l0.484375 0q0.109375 0 0.140625 0.046875q0.046875 0.03125 0.046875 0.09375q0 0.0625 -0.046875 0.109375q-0.03125 0.03125 -0.140625 0.03125l-0.9375 0q-0.09375 0 -0.140625 -0.03125q-0.046875 -0.046875 -0.046875 -0.109375q0 -0.046875 0.015625 -0.078125q0.03125 -0.046875 0.0625 -0.046875q0.046875 -0.015625 0.171875 -0.015625l1.3125 -1.265625l-1.171875 -1.125q-0.125 0 -0.15625 -0.015625q-0.03125 -0.015625 -0.0625 -0.046875q-0.015625 -0.03125 -0.015625 -0.078125q0 -0.0625 0.046875 -0.09375q0.046875 -0.046875 0.140625 -0.046875l0.796875 0q0.09375 0 0.140625 0.046875q0.046875 0.03125 0.046875 0.09375q0 0.0625 -0.046875 0.109375q-0.046875 0.03125 -0.140625 0.03125l-0.34375 0l0.96875 0.9375l0.96875 -0.9375l-0.34375 0q-0.109375 0 -0.15625 -0.03125q-0.03125 -0.046875 -0.03125 -0.109375q0 -0.0625 0.03125 -0.09375q0.046875 -0.046875 0.15625 -0.046875l0.78125 0q0.109375 0 0.140625 0.046875q0.046875 0.03125 0.046875 0.09375q0 0.046875 -0.03125 0.078125q-0.015625 0.03125 -0.046875 0.046875q-0.03125 0.015625 -0.15625 0.015625l-1.171875 1.125zm4.1538086 -2.171875l0 3.4375l0.984375 0q0.09375 0 0.140625 0.046875q0.046875 0.03125 0.046875 0.09375q0 0.0625 -0.046875 0.109375q-0.046875 0.03125 -0.140625 0.03125l-2.265625 0q-0.09375 0 -0.140625 -0.03125q-0.046875 -0.046875 -0.046875 -0.109375q0 -0.0625 0.046875 -0.09375q0.046875 -0.046875 0.140625 -0.046875l0.984375 0l0 -3.4375l-0.984375 0q-0.09375 0 -0.140625 -0.03125q-0.046875 -0.046875 -0.046875 -0.109375q0 -0.0625 0.046875 -0.09375q0.046875 -0.046875 0.140625 -0.046875l2.265625 0q0.09375 0 0.140625 0.046875q0.046875 0.03125 0.046875 0.09375q0 0.0625 -0.046875 0.109375q-0.046875 0.03125 -0.140625 0.03125l-0.984375 0zm3.4663086 2.4375l0 1.28125l-0.671875 0q-0.109375 0 -0.15625 -0.03125q-0.03125 -0.046875 -0.03125 -0.109375q0 -0.0625 0.03125 -0.09375q0.046875 -0.046875 0.15625 -0.046875l0.390625 0l0 -3.71875l-0.390625 0q-0.109375 0 -0.15625 -0.03125q-0.03125 -0.046875 -0.03125 -0.109375q0 -0.0625 0.03125 -0.109375q0.046875 -0.046875 0.15625 -0.046875l0.671875 0l0 2.65625l1.21875 -1.03125l-0.140625 0q-0.109375 0 -0.15625 -0.03125q-0.03125 -0.046875 -0.03125 -0.109375q0 -0.0625 0.03125 -0.09375q0.046875 -0.046875 0.15625 -0.046875l0.921875 0q0.09375 0 0.140625 0.046875q0.046875 0.03125 0.046875 0.09375q0 0.0625 -0.046875 0.109375q-0.046875 0.03125 -0.140625 0.03125l-0.34375 0l-1.109375 0.9375l1.40625 1.453125l0.34375 0q0.09375 0 0.140625 0.046875q0.046875 0.03125 0.046875 0.09375q0 0.0625 -0.046875 0.109375q-0.046875 0.03125 -0.140625 0.03125l-0.9375 0q-0.09375 0 -0.140625 -0.03125q-0.046875 -0.046875 -0.046875 -0.109375q0 -0.0625 0.046875 -0.09375q0.046875 -0.046875 0.140625 -0.046875l0.203125 0l-1.234375 -1.28125l-0.328125 0.28125zm4.9350586 -2.4375l0 3.4375l0.984375 0q0.09375 0 0.140625 0.046875q0.046875 0.03125 0.046875 0.09375q0 0.0625 -0.046875 0.109375q-0.046875 0.03125 -0.140625 0.03125l-2.265625 0q-0.09375 0 -0.140625 -0.03125q-0.046875 -0.046875 -0.046875 -0.109375q0 -0.0625 0.046875 -0.09375q0.046875 -0.046875 0.140625 -0.046875l0.984375 0l0 -3.4375l-0.984375 0q-0.09375 0 -0.140625 -0.03125q-0.046875 -0.046875 -0.046875 -0.109375q0 -0.0625 0.046875 -0.09375q0.046875 -0.046875 0.140625 -0.046875l2.265625 0q0.09375 0 0.140625 0.046875q0.046875 0.03125 0.046875 0.09375q0 0.0625 -0.046875 0.109375q-0.046875 0.03125 -0.140625 0.03125l-0.984375 0zm3.1069336 -0.578125l0 1.78125q0.265625 -0.296875 0.515625 -0.421875q0.265625 -0.125 0.578125 -0.125q0.328125 0 0.5625 0.125q0.234375 0.109375 0.390625 0.359375q0.15625 0.234375 0.15625 0.515625l0 1.78125l0.328125 0q0.09375 0 0.140625 0.046875q0.046875 0.03125 0.046875 0.09375q0 0.0625 -0.046875 0.109375q-0.046875 0.03125 -0.140625 0.03125l-0.9375 0q-0.109375 0 -0.15625 -0.03125q-0.046875 -0.046875 -0.046875 -0.109375q0 -0.0625 0.046875 -0.09375q0.046875 -0.046875 0.15625 -0.046875l0.3125 0l0 -1.765625q0 -0.3125 -0.21875 -0.515625q-0.21875 -0.21875 -0.625 -0.21875q-0.3125 0 -0.53125 0.15625q-0.15625 0.109375 -0.53125 0.515625l0 1.828125l0.328125 0q0.09375 0 0.140625 0.046875q0.046875 0.03125 0.046875 0.09375q0 0.0625 -0.046875 0.109375q-0.046875 0.03125 -0.140625 0.03125l-0.9375 0q-0.109375 0 -0.15625 -0.03125q-0.03125 -0.046875 -0.03125 -0.109375q0 -0.0625 0.03125 -0.09375q0.046875 -0.046875 0.15625 -0.046875l0.328125 0l0 -3.71875l-0.390625 0q-0.109375 0 -0.15625 -0.03125q-0.03125 -0.046875 -0.03125 -0.109375q0 -0.0625 0.03125 -0.109375q0.046875 -0.046875 0.15625 -0.046875l0.671875 0zm6.6069336 2.109375l0 0.40625l-2.921875 0l0 -0.40625l2.921875 0zm2.8881836 -2.15625l0 4.0625l0.984375 0q0.09375 0 0.140625 0.046875q0.046875 0.03125 0.046875 0.09375q0 0.0625 -0.046875 0.109375q-0.046875 0.03125 -0.140625 0.03125l-2.265625 0q-0.09375 0 -0.140625 -0.03125q-0.046875 -0.046875 -0.046875 -0.109375q0 -0.0625 0.046875 -0.09375q0.046875 -0.046875 0.140625 -0.046875l0.984375 0l0 -3.671875l-0.9375 0.296875q-0.0625 0.015625 -0.09375 0.015625q-0.046875 0 -0.09375 -0.03125q-0.046875 -0.046875 -0.046875 -0.109375q0 -0.046875 0.03125 -0.09375q0.03125 -0.03125 0.125 -0.0625l1.3125 -0.40625zm2.9194336 4.0625l0 -3.4375l-0.234375 0q-0.109375 0 -0.15625 -0.03125q-0.03125 -0.046875 -0.03125 -0.109375q0 -0.0625 0.03125 -0.09375q0.046875 -0.046875 0.15625 -0.046875l1.546875 0q0.359375 0 0.65625 0.15625q0.296875 0.140625 0.453125 0.34375q0.28125 0.3125 0.40625 0.6875q0.109375 0.25 0.109375 0.609375l0 0.40625q0 0.4375 -0.203125 0.859375q-0.1875 0.40625 -0.640625 0.71875q-0.34375 0.21875 -0.78125 0.21875l-1.546875 0q-0.109375 0 -0.15625 -0.03125q-0.03125 -0.046875 -0.03125 -0.109375q0 -0.0625 0.03125 -0.09375q0.046875 -0.046875 0.15625 -0.046875l0.234375 0zm0.296875 0l1.03125 0q0.375 0 0.6875 -0.234375q0.3125 -0.25 0.46875 -0.578125q0.15625 -0.328125 0.15625 -0.640625l0 -0.53125q0 -0.265625 -0.078125 -0.46875q-0.125 -0.296875 -0.34375 -0.578125q-0.125 -0.15625 -0.375 -0.28125q-0.234375 -0.125 -0.515625 -0.125l-1.03125 0l0 3.4375zm6.0131836 0.28125l0 -0.421875q-0.578125 0.53125 -1.265625 0.53125q-0.421875 0 -0.640625 -0.21875q-0.28125 -0.3125 -0.28125 -0.703125l0 -1.859375l-0.390625 0q-0.09375 0 -0.140625 -0.03125q-0.046875 -0.046875 -0.046875 -0.109375q0 -0.0625 0.046875 -0.09375q0.046875 -0.046875 0.140625 -0.046875l0.671875 0l0 2.140625q0 0.28125 0.171875 0.46875q0.1875 0.171875 0.453125 0.171875q0.703125 0 1.28125 -0.640625l0 -1.859375l-0.53125 0q-0.09375 0 -0.140625 -0.03125q-0.046875 -0.046875 -0.046875 -0.109375q0 -0.0625 0.046875 -0.09375q0.046875 -0.046875 0.140625 -0.046875l0.828125 0l0 2.671875l0.234375 0q0.109375 0 0.140625 0.046875q0.046875 0.03125 0.046875 0.09375q0 0.0625 -0.046875 0.109375q-0.03125 0.03125 -0.140625 0.03125l-0.53125 0zm4.2006836 0l0 -0.421875q-0.578125 0.53125 -1.265625 0.53125q-0.421875 0 -0.640625 -0.21875q-0.28125 -0.3125 -0.28125 -0.703125l0 -1.859375l-0.390625 0q-0.09375 0 -0.140625 -0.03125q-0.046875 -0.046875 -0.046875 -0.109375q0 -0.0625 0.046875 -0.09375q0.046875 -0.046875 0.140625 -0.046875l0.671875 0l0 2.140625q0 0.28125 0.171875 0.46875q0.1875 0.171875 0.453125 0.171875q0.703125 0 1.28125 -0.640625l0 -1.859375l-0.53125 0q-0.09375 0 -0.140625 -0.03125q-0.046875 -0.046875 -0.046875 -0.109375q0 -0.0625 0.046875 -0.09375q0.046875 -0.046875 0.140625 -0.046875l0.828125 0l0 2.671875l0.234375 0q0.109375 0 0.140625 0.046875q0.046875 0.03125 0.046875 0.09375q0 0.0625 -0.046875 0.109375q-0.03125 0.03125 -0.140625 0.03125l-0.53125 0zm2.4350586 -4.0l0 1.40625q0.25 -0.109375 0.484375 -0.15625q0.234375 -0.0625 0.4375 -0.0625q0.546875 0 0.90625 0.390625q0.359375 0.375 0.359375 1.0q0 0.671875 -0.40625 1.109375q-0.40625 0.421875 -1.03125 0.421875q-0.40625 0 -0.78125 -0.1875q-0.265625 -0.125 -0.484375 -0.3125q-0.125 -0.109375 -0.125 -0.1875q0 -0.0625 0.03125 -0.109375q0.046875 -0.046875 0.109375 -0.046875q0.046875 0 0.125 0.0625q0.515625 0.484375 1.109375 0.484375q0.515625 0 0.84375 -0.34375q0.328125 -0.34375 0.328125 -0.90625q0 -0.484375 -0.296875 -0.78125q-0.28125 -0.296875 -0.71875 -0.296875q-0.4375 0 -0.890625 0.234375q-0.109375 0.046875 -0.15625 0.046875q-0.0625 0 -0.109375 -0.03125q-0.03125 -0.046875 -0.03125 -0.125l0 -1.90625l2.015625 0q0.09375 0 0.140625 0.046875q0.046875 0.046875 0.046875 0.109375q0 0.0625 -0.046875 0.109375q-0.046875 0.03125 -0.140625 0.03125l-1.71875 0zm6.3725586 0.28125l0 2.40625q0 0.609375 -0.40625 1.015625q-0.390625 0.40625 -0.96875 0.40625q-0.375 0 -0.671875 -0.15625q-0.296875 -0.171875 -0.515625 -0.515625q-0.203125 -0.34375 -0.203125 -0.75l0 -2.40625l-0.25 0q-0.09375 0 -0.140625 -0.03125q-0.046875 -0.046875 -0.046875 -0.109375q0 -0.0625 0.046875 -0.109375q0.046875 -0.03125 0.140625 -0.03125l1.0625 0q0.109375 0 0.140625 0.046875q0.046875 0.03125 0.046875 0.09375q0 0.0625 -0.046875 0.109375q-0.03125 0.03125 -0.140625 0.03125l-0.53125 0l0 2.40625q0 0.46875 0.328125 0.8125q0.328125 0.328125 0.765625 0.328125q0.28125 0 0.515625 -0.125q0.234375 -0.140625 0.40625 -0.40625q0.1875 -0.265625 0.1875 -0.609375l0 -2.40625l-0.53125 0q-0.09375 0 -0.140625 -0.03125q-0.046875 -0.046875 -0.046875 -0.109375q0 -0.0625 0.046875 -0.09375q0.046875 -0.046875 0.140625 -0.046875l1.0625 0q0.09375 0 0.140625 0.046875q0.046875 0.03125 0.046875 0.09375q0 0.0625 -0.046875 0.109375q-0.046875 0.03125 -0.140625 0.03125l-0.25 0zm3.0131836 2.171875l1.3125 1.265625q0.140625 0 0.171875 0.015625q0.03125 0 0.046875 0.046875q0.03125 0.03125 0.03125 0.078125q0 0.0625 -0.046875 0.109375q-0.03125 0.03125 -0.140625 0.03125l-0.921875 0q-0.109375 0 -0.15625 -0.03125q-0.046875 -0.046875 -0.046875 -0.109375q0 -0.0625 0.046875 -0.09375q0.046875 -0.046875 0.15625 -0.046875l0.46875 0l-1.109375 -1.078125l-1.125 1.078125l0.484375 0q0.109375 0 0.140625 0.046875q0.046875 0.03125 0.046875 0.09375q0 0.0625 -0.046875 0.109375q-0.03125 0.03125 -0.140625 0.03125l-0.9375 0q-0.09375 0 -0.140625 -0.03125q-0.046875 -0.046875 -0.046875 -0.109375q0 -0.046875 0.015625 -0.078125q0.03125 -0.046875 0.0625 -0.046875q0.046875 -0.015625 0.171875 -0.015625l1.3125 -1.265625l-1.171875 -1.125q-0.125 0 -0.15625 -0.015625q-0.03125 -0.015625 -0.0625 -0.046875q-0.015625 -0.03125 -0.015625 -0.078125q0 -0.0625 0.046875 -0.09375q0.046875 -0.046875 0.140625 -0.046875l0.796875 0q0.09375 0 0.140625 0.046875q0.046875 0.03125 0.046875 0.09375q0 0.0625 -0.046875 0.109375q-0.046875 0.03125 -0.140625 0.03125l-0.34375 0l0.96875 0.9375l0.96875 -0.9375l-0.34375 0q-0.109375 0 -0.15625 -0.03125q-0.03125 -0.046875 -0.03125 -0.109375q0 -0.0625 0.03125 -0.09375q0.046875 -0.046875 0.15625 -0.046875l0.78125 0q0.109375 0 0.140625 0.046875q0.046875 0.03125 0.046875 0.09375q0 0.046875 -0.03125 0.078125q-0.015625 0.03125 -0.046875 0.046875q-0.03125 0.015625 -0.15625 0.015625l-1.171875 1.125zm3.4194336 -1.40625l1.546875 0q0.109375 0 0.15625 0.046875q0.046875 0.03125 0.046875 0.09375q0 0.0625 -0.046875 0.109375q-0.046875 0.03125 -0.15625 0.03125l-1.546875 0l0 1.90625q0 0.25 0.1875 0.421875q0.203125 0.171875 0.59375 0.171875q0.296875 0 0.625 -0.078125q0.34375 -0.09375 0.53125 -0.203125q0.0625 -0.046875 0.109375 -0.046875q0.0625 0 0.09375 0.046875q0.046875 0.03125 0.046875 0.09375q0 0.046875 -0.046875 0.09375q-0.109375 0.109375 -0.53125 0.25q-0.421875 0.125 -0.8125 0.125q-0.5 0 -0.796875 -0.234375q-0.296875 -0.234375 -0.296875 -0.640625l0 -1.90625l-0.53125 0q-0.09375 0 -0.140625 -0.03125q-0.046875 -0.046875 -0.046875 -0.109375q0 -0.0625 0.046875 -0.09375q0.046875 -0.046875 0.140625 -0.046875l0.53125 0l0 -0.859375q0 -0.09375 0.03125 -0.140625q0.046875 -0.046875 0.109375 -0.046875q0.0625 0 0.109375 0.046875q0.046875 0.046875 0.046875 0.140625l0 0.859375zm4.4350586 0l0 0.71875q0.5625 -0.5 0.84375 -0.640625q0.28125 -0.15625 0.515625 -0.15625q0.25 0 0.46875 0.171875q0.234375 0.171875 0.234375 0.265625q0 0.0625 -0.046875 0.109375q-0.046875 0.03125 -0.109375 0.03125q-0.03125 0 -0.0625 0q-0.015625 -0.015625 -0.078125 -0.078125q-0.125 -0.125 -0.21875 -0.171875q-0.078125 -0.046875 -0.171875 -0.046875q-0.1875 0 -0.453125 0.15625q-0.265625 0.15625 -0.921875 0.734375l0 1.578125l1.28125 0q0.109375 0 0.140625 0.046875q0.046875 0.03125 0.046875 0.09375q0 0.0625 -0.046875 0.109375q-0.03125 0.03125 -0.140625 0.03125l-2.25 0q-0.109375 0 -0.15625 -0.03125q-0.046875 -0.046875 -0.046875 -0.109375q0 -0.0625 0.046875 -0.09375q0.046875 -0.046875 0.15625 -0.046875l0.6875 0l0 -2.390625l-0.53125 0q-0.09375 0 -0.140625 -0.03125q-0.046875 -0.046875 -0.046875 -0.109375q0 -0.0625 0.03125 -0.09375q0.046875 -0.046875 0.15625 -0.046875l0.8125 0zm5.5756836 -0.765625l0 -0.09375q0 -0.09375 0.03125 -0.140625q0.046875 -0.046875 0.109375 -0.046875q0.078125 0 0.109375 0.046875q0.046875 0.046875 0.046875 0.140625l0 0.734375q0 0.109375 -0.046875 0.15625q-0.03125 0.03125 -0.109375 0.03125q-0.0625 0 -0.109375 -0.03125q-0.03125 -0.046875 -0.03125 -0.140625q-0.015625 -0.28125 -0.296875 -0.5q-0.28125 -0.234375 -0.71875 -0.234375q-0.484375 0 -0.765625 0.25q-0.28125 0.234375 -0.28125 0.5625q0 0.171875 0.078125 0.3125q0.078125 0.140625 0.203125 0.234375q0.140625 0.078125 0.296875 0.140625q0.171875 0.046875 0.515625 0.109375q0.59375 0.09375 0.8125 0.1875q0.296875 0.140625 0.4375 0.375q0.15625 0.234375 0.15625 0.546875q0 0.5 -0.390625 0.84375q-0.390625 0.34375 -1.0625 0.34375q-0.734375 0 -1.1875 -0.46875l0 0.171875q0 0.09375 -0.046875 0.140625q-0.03125 0.046875 -0.09375 0.046875q-0.0625 0 -0.109375 -0.046875q-0.046875 -0.046875 -0.046875 -0.140625l0 -0.796875q0 -0.109375 0.046875 -0.140625q0.046875 -0.046875 0.109375 -0.046875q0.0625 0 0.09375 0.046875q0.046875 0.03125 0.046875 0.125q0.015625 0.3125 0.328125 0.578125q0.328125 0.25 0.859375 0.25q0.546875 0 0.859375 -0.265625q0.3125 -0.28125 0.3125 -0.640625q0 -0.234375 -0.125 -0.40625q-0.109375 -0.171875 -0.34375 -0.28125q-0.171875 -0.0625 -0.6875 -0.15625q-0.71875 -0.125 -1.03125 -0.375q-0.3125 -0.234375 -0.3125 -0.6875q0 -0.453125 0.359375 -0.78125q0.359375 -0.328125 0.953125 -0.328125q0.59375 0 1.03125 0.375zm2.2475586 2.15625l0 1.28125l0.53125 0q0.109375 0 0.140625 0.046875q0.046875 0.03125 0.046875 0.09375q0 0.0625 -0.046875 0.109375q-0.03125 0.03125 -0.140625 0.03125l-1.203125 0q-0.109375 0 -0.15625 -0.03125q-0.046875 -0.046875 -0.046875 -0.109375q0 -0.0625 0.046875 -0.09375q0.046875 -0.046875 0.15625 -0.046875l0.375 0l0 -3.4375l-0.375 0q-0.109375 0 -0.15625 -0.03125q-0.046875 -0.046875 -0.046875 -0.109375q0 -0.0625 0.046875 -0.09375q0.046875 -0.046875 0.15625 -0.046875l1.203125 0q0.109375 0 0.140625 0.046875q0.046875 0.03125 0.046875 0.09375q0 0.0625 -0.046875 0.109375q-0.03125 0.03125 -0.140625 0.03125l-0.53125 0l0 1.78125l1.984375 -1.78125l-0.3125 0q-0.109375 0 -0.15625 -0.03125q-0.046875 -0.046875 -0.046875 -0.109375q0 -0.0625 0.046875 -0.09375q0.046875 -0.046875 0.15625 -0.046875l0.84375 0q0.09375 0 0.140625 0.046875q0.046875 0.03125 0.046875 0.09375q0 0.0625 -0.046875 0.109375q-0.046875 0.03125 -0.140625 0.03125l-0.125 0l-1.578125 1.421875q0.359375 0.140625 0.578125 0.359375q0.234375 0.21875 0.453125 0.609375q0.125 0.21875 0.453125 1.046875l0.359375 0q0.109375 0 0.140625 0.046875q0.046875 0.03125 0.046875 0.09375q0 0.0625 -0.046875 0.109375q-0.03125 0.03125 -0.140625 0.03125l-0.546875 0q-0.453125 -1.234375 -0.765625 -1.578125q-0.3125 -0.359375 -0.765625 -0.5l-0.578125 0.515625zm4.3413086 -2.4375l0 1.40625q0.25 -0.109375 0.484375 -0.15625q0.234375 -0.0625 0.4375 -0.0625q0.546875 0 0.90625 0.390625q0.359375 0.375 0.359375 1.0q0 0.671875 -0.40625 1.109375q-0.40625 0.421875 -1.03125 0.421875q-0.40625 0 -0.78125 -0.1875q-0.265625 -0.125 -0.484375 -0.3125q-0.125 -0.109375 -0.125 -0.1875q0 -0.0625 0.03125 -0.109375q0.046875 -0.046875 0.109375 -0.046875q0.046875 0 0.125 0.0625q0.515625 0.484375 1.109375 0.484375q0.515625 0 0.84375 -0.34375q0.328125 -0.34375 0.328125 -0.90625q0 -0.484375 -0.296875 -0.78125q-0.28125 -0.296875 -0.71875 -0.296875q-0.4375 0 -0.890625 0.234375q-0.109375 0.046875 -0.15625 0.046875q-0.0625 0 -0.109375 -0.03125q-0.03125 -0.046875 -0.03125 -0.125l0 -1.90625l2.015625 0q0.09375 0 0.140625 0.046875q0.046875 0.046875 0.046875 0.109375q0 0.0625 -0.046875 0.109375q-0.046875 0.03125 -0.140625 0.03125l-1.71875 0zm5.1381836 0.28125l0 3.4375l0.734375 0q0.109375 0 0.140625 0.046875q0.046875 0.03125 0.046875 0.09375q0 0.0625 -0.046875 0.109375q-0.03125 0.03125 -0.140625 0.03125l-1.78125 0q-0.09375 0 -0.140625 -0.03125q-0.046875 -0.046875 -0.046875 -0.109375q0 -0.0625 0.046875 -0.09375q0.046875 -0.046875 0.140625 -0.046875l0.75 0l0 -3.4375l-1.171875 0l0 1.0q0 0.109375 -0.046875 0.15625q-0.03125 0.046875 -0.109375 0.046875q-0.046875 0 -0.09375 -0.046875q-0.046875 -0.046875 -0.046875 -0.15625l0 -1.28125l3.21875 0l0 1.28125q0 0.109375 -0.046875 0.15625q-0.03125 0.046875 -0.09375 0.046875q-0.0625 0 -0.109375 -0.046875q-0.03125 -0.046875 -0.03125 -0.15625l0 -1.0l-1.171875 0zm5.0444336 3.71875l-0.359375 0l-0.625 -1.84375l-0.640625 1.84375l-0.34375 0l-0.609375 -2.671875l-0.125 0q-0.109375 0 -0.15625 -0.03125q-0.046875 -0.046875 -0.046875 -0.109375q0 -0.0625 0.046875 -0.09375q0.046875 -0.046875 0.15625 -0.046875l0.78125 0q0.109375 0 0.140625 0.046875q0.046875 0.03125 0.046875 0.09375q0 0.0625 -0.046875 0.109375q-0.03125 0.03125 -0.140625 0.03125l-0.359375 0l0.5 2.28125l0.609375 -1.828125l0.34375 0l0.640625 1.828125l0.484375 -2.28125l-0.359375 0q-0.109375 0 -0.15625 -0.03125q-0.046875 -0.046875 -0.046875 -0.109375q0 -0.0625 0.046875 -0.09375q0.046875 -0.046875 0.15625 -0.046875l0.78125 0q0.109375 0 0.140625 0.046875q0.046875 0.03125 0.046875 0.09375q0 0.0625 -0.046875 0.109375q-0.03125 0.03125 -0.140625 0.03125l-0.140625 0l-0.578125 2.671875z" fill-rule="nonzero"/><path fill="#000000" fill-opacity="0.0" d="m345.83826 136.152l37.806152 0l0 7.9296875l-37.806152 0l0 -7.9296875z" fill-rule="nonzero"/><path fill="#866c5b" d="m349.22888 137.47963l-2.3125 4.953125q-0.0625 0.125 -0.140625 0.125q-0.0625 0 -0.109375 -0.046875q-0.046875 -0.03125 -0.046875 -0.09375q0 -0.03125 0.046875 -0.109375l2.296875 -4.953125q0.046875 -0.078125 0.078125 -0.09375q0.03125 -0.03125 0.078125 -0.03125q0.0625 0 0.09375 0.046875q0.046875 0.046875 0.046875 0.09375q0 0.03125 -0.03125 0.109375zm4.4663086 3.09375l-2.921875 0q0.0625 0.546875 0.453125 0.890625q0.40625 0.34375 0.96875 0.34375q0.328125 0 0.671875 -0.109375q0.359375 -0.109375 0.578125 -0.28125q0.0625 -0.046875 0.125 -0.046875q0.046875 0 0.078125 0.046875q0.046875 0.03125 0.046875 0.09375q0 0.0625 -0.046875 0.109375q-0.171875 0.171875 -0.59375 0.328125q-0.40625 0.140625 -0.859375 0.140625q-0.734375 0 -1.234375 -0.484375q-0.484375 -0.484375 -0.484375 -1.171875q0 -0.625 0.453125 -1.0625q0.46875 -0.453125 1.15625 -0.453125q0.703125 0 1.15625 0.46875q0.453125 0.453125 0.453125 1.1875zm-0.296875 -0.296875q-0.078125 -0.46875 -0.453125 -0.765625q-0.359375 -0.296875 -0.859375 -0.296875q-0.5 0 -0.859375 0.296875q-0.359375 0.28125 -0.453125 0.765625l2.625 0zm3.1381836 0.15625l1.3125 1.265625q0.140625 0 0.171875 0.015625q0.03125 0 0.046875 0.046875q0.03125 0.03125 0.03125 0.078125q0 0.0625 -0.046875 0.109375q-0.03125 0.03125 -0.140625 0.03125l-0.921875 0q-0.109375 0 -0.15625 -0.03125q-0.046875 -0.046875 -0.046875 -0.109375q0 -0.0625 0.046875 -0.09375q0.046875 -0.046875 0.15625 -0.046875l0.46875 0l-1.109375 -1.078125l-1.125 1.078125l0.484375 0q0.109375 0 0.140625 0.046875q0.046875 0.03125 0.046875 0.09375q0 0.0625 -0.046875 0.109375q-0.03125 0.03125 -0.140625 0.03125l-0.9375 0q-0.09375 0 -0.140625 -0.03125q-0.046875 -0.046875 -0.046875 -0.109375q0 -0.046875 0.015625 -0.078125q0.03125 -0.046875 0.0625 -0.046875q0.046875 -0.015625 0.171875 -0.015625l1.3125 -1.265625l-1.171875 -1.125q-0.125 0 -0.15625 -0.015625q-0.03125 -0.015625 -0.0625 -0.046875q-0.015625 -0.03125 -0.015625 -0.078125q0 -0.0625 0.046875 -0.09375q0.046875 -0.046875 0.140625 -0.046875l0.796875 0q0.09375 0 0.140625 0.046875q0.046875 0.03125 0.046875 0.09375q0 0.0625 -0.046875 0.109375q-0.046875 0.03125 -0.140625 0.03125l-0.34375 0l0.96875 0.9375l0.96875 -0.9375l-0.34375 0q-0.109375 0 -0.15625 -0.03125q-0.03125 -0.046875 -0.03125 -0.109375q0 -0.0625 0.03125 -0.09375q0.046875 -0.046875 0.15625 -0.046875l0.78125 0q0.109375 0 0.140625 0.046875q0.046875 0.03125 0.046875 0.09375q0 0.046875 -0.03125 0.078125q-0.015625 0.03125 -0.046875 0.046875q-0.03125 0.015625 -0.15625 0.015625l-1.171875 1.125zm2.9194336 -1.40625l0 0.515625q0.265625 -0.3125 0.546875 -0.46875q0.296875 -0.15625 0.703125 -0.15625q0.421875 0 0.78125 0.203125q0.359375 0.1875 0.546875 0.546875q0.203125 0.359375 0.203125 0.75q0 0.609375 -0.453125 1.046875q-0.4375 0.4375 -1.078125 0.4375q-0.765625 0 -1.25 -0.625l0 1.734375l0.703125 0q0.09375 0 0.140625 0.03125q0.046875 0.046875 0.046875 0.109375q0 0.0625 -0.046875 0.09375q-0.046875 0.046875 -0.140625 0.046875l-1.375 0q-0.09375 0 -0.140625 -0.046875q-0.046875 -0.03125 -0.046875 -0.09375q0 -0.0625 0.046875 -0.109375q0.046875 -0.03125 0.140625 -0.03125l0.390625 0l0 -3.703125l-0.390625 0q-0.09375 0 -0.140625 -0.03125q-0.046875 -0.046875 -0.046875 -0.109375q0 -0.0625 0.046875 -0.09375q0.046875 -0.046875 0.140625 -0.046875l0.671875 0zm2.484375 1.390625q0 -0.5 -0.359375 -0.84375q-0.359375 -0.359375 -0.875 -0.359375q-0.515625 0 -0.890625 0.359375q-0.359375 0.34375 -0.359375 0.84375q0 0.484375 0.359375 0.84375q0.375 0.359375 0.890625 0.359375q0.515625 0 0.875 -0.34375q0.359375 -0.359375 0.359375 -0.859375zm4.4038086 0.09375q0 0.65625 -0.46875 1.125q-0.46875 0.453125 -1.125 0.453125q-0.671875 0 -1.140625 -0.46875q-0.46875 -0.46875 -0.46875 -1.109375q0 -0.65625 0.46875 -1.125q0.46875 -0.46875 1.140625 -0.46875q0.65625 0 1.125 0.46875q0.46875 0.453125 0.46875 1.125zm-0.28125 0q0 -0.546875 -0.390625 -0.921875q-0.390625 -0.375 -0.9375 -0.375q-0.546875 0 -0.9375 0.375q-0.375 0.375 -0.375 0.921875q0 0.53125 0.375 0.921875q0.390625 0.375 0.9375 0.375q0.546875 0 0.9375 -0.375q0.390625 -0.390625 0.390625 -0.921875zm2.5288086 -1.484375l0 0.71875q0.5625 -0.5 0.84375 -0.640625q0.28125 -0.15625 0.515625 -0.15625q0.25 0 0.46875 0.171875q0.234375 0.171875 0.234375 0.265625q0 0.0625 -0.046875 0.109375q-0.046875 0.03125 -0.109375 0.03125q-0.03125 0 -0.0625 0q-0.015625 -0.015625 -0.078125 -0.078125q-0.125 -0.125 -0.21875 -0.171875q-0.078125 -0.046875 -0.171875 -0.046875q-0.1875 0 -0.453125 0.15625q-0.265625 0.15625 -0.921875 0.734375l0 1.578125l1.28125 0q0.109375 0 0.140625 0.046875q0.046875 0.03125 0.046875 0.09375q0 0.0625 -0.046875 0.109375q-0.03125 0.03125 -0.140625 0.03125l-2.25 0q-0.109375 0 -0.15625 -0.03125q-0.046875 -0.046875 -0.046875 -0.109375q0 -0.0625 0.046875 -0.09375q0.046875 -0.046875 0.15625 -0.046875l0.6875 0l0 -2.390625l-0.53125 0q-0.09375 0 -0.140625 -0.03125q-0.046875 -0.046875 -0.046875 -0.109375q0 -0.0625 0.03125 -0.09375q0.046875 -0.046875 0.15625 -0.046875l0.8125 0zm3.9663086 0l1.546875 0q0.109375 0 0.15625 0.046875q0.046875 0.03125 0.046875 0.09375q0 0.0625 -0.046875 0.109375q-0.046875 0.03125 -0.15625 0.03125l-1.546875 0l0 1.90625q0 0.25 0.1875 0.421875q0.203125 0.171875 0.59375 0.171875q0.296875 0 0.625 -0.078125q0.34375 -0.09375 0.53125 -0.203125q0.0625 -0.046875 0.109375 -0.046875q0.0625 0 0.09375 0.046875q0.046875 0.03125 0.046875 0.09375q0 0.046875 -0.046875 0.09375q-0.109375 0.109375 -0.53125 0.25q-0.421875 0.125 -0.8125 0.125q-0.5 0 -0.796875 -0.234375q-0.296875 -0.234375 -0.296875 -0.640625l0 -1.90625l-0.53125 0q-0.09375 0 -0.140625 -0.03125q-0.046875 -0.046875 -0.046875 -0.109375q0 -0.0625 0.046875 -0.09375q0.046875 -0.046875 0.140625 -0.046875l0.53125 0l0 -0.859375q0 -0.09375 0.03125 -0.140625q0.046875 -0.046875 0.109375 -0.046875q0.0625 0 0.109375 0.046875q0.046875 0.046875 0.046875 0.140625l0 0.859375zm6.0756836 -1.546875l-2.3125 4.953125q-0.0625 0.125 -0.140625 0.125q-0.0625 0 -0.109375 -0.046875q-0.046875 -0.03125 -0.046875 -0.09375q0 -0.03125 0.046875 -0.109375l2.296875 -4.953125q0.046875 -0.078125 0.078125 -0.09375q0.03125 -0.03125 0.078125 -0.03125q0.0625 0 0.09375 0.046875q0.046875 0.046875 0.046875 0.09375q0 0.03125 -0.03125 0.109375zm3.8569336 1.734375q0 -0.109375 0.03125 -0.140625q0.046875 -0.046875 0.109375 -0.046875q0.0625 0 0.109375 0.046875q0.046875 0.03125 0.046875 0.140625l0 0.5q0 0.09375 -0.046875 0.140625q-0.046875 0.046875 -0.109375 0.046875q-0.046875 0 -0.09375 -0.03125q-0.03125 -0.046875 -0.046875 -0.140625q-0.015625 -0.203125 -0.203125 -0.328125q-0.28125 -0.1875 -0.75 -0.1875q-0.484375 0 -0.75 0.1875q-0.203125 0.140625 -0.203125 0.328125q0 0.203125 0.25 0.34375q0.15625 0.09375 0.609375 0.140625q0.609375 0.0625 0.84375 0.15625q0.328125 0.109375 0.484375 0.328125q0.171875 0.21875 0.171875 0.453125q0 0.375 -0.359375 0.65625q-0.34375 0.28125 -1.03125 0.28125q-0.6875 0 -1.109375 -0.34375q0 0.125 -0.015625 0.15625q-0.015625 0.03125 -0.0625 0.0625q-0.03125 0.015625 -0.078125 0.015625q-0.046875 0 -0.09375 -0.046875q-0.046875 -0.046875 -0.046875 -0.140625l0 -0.59375q0 -0.109375 0.03125 -0.140625q0.046875 -0.046875 0.109375 -0.046875q0.0625 0 0.109375 0.046875q0.046875 0.03125 0.046875 0.109375q0 0.15625 0.078125 0.265625q0.125 0.15625 0.375 0.265625q0.265625 0.109375 0.640625 0.109375q0.5625 0 0.828125 -0.203125q0.28125 -0.21875 0.28125 -0.453125q0 -0.265625 -0.28125 -0.421875q-0.265625 -0.15625 -0.8125 -0.203125q-0.53125 -0.0625 -0.765625 -0.15625q-0.234375 -0.09375 -0.359375 -0.265625q-0.125 -0.171875 -0.125 -0.390625q0 -0.359375 0.359375 -0.578125q0.359375 -0.21875 0.859375 -0.21875q0.59375 0 0.96875 0.296875z" fill-rule="nonzero"/><path fill="#fdfaf6" d="m13.984252 143.73964l8.401366 0l0 8.799988l-8.401366 0l0 -8.799988z" fill-rule="nonzero"/><path fill="#000000" fill-opacity="0.0" d="m13.984252 144.952l8.401366 0l0 7.9296875l-8.401366 0l0 -7.9296875z" fill-rule="nonzero"/><path fill="#866c5b" d="m16.343626 150.77963l-0.49999905 0l-1.171875 -2.671875l-0.296875 0q-0.09375 0 -0.140625 -0.03125q-0.046875 -0.046875 -0.046875 -0.109375q0 -0.0625 0.046875 -0.09375q0.046875 -0.046875 0.140625 -0.046875l1.078125 0q0.109375 0 0.140625 0.046875q0.046875 0.03125 0.046875 0.09375q0 0.0625 -0.046875 0.109375q-0.03125 0.03125 -0.140625 0.03125l-0.46875 0l1.046874 2.390625l0.125 0l1.03125 -2.390625l-0.46875 0q-0.109375 0 -0.15625 -0.03125q-0.046875 -0.046875 -0.046875 -0.109375q0 -0.0625 0.046875 -0.09375q0.046875 -0.046875 0.15625 -0.046875l1.078125 0q0.09375 0 0.140625 0.046875q0.046875 0.03125 0.046875 0.09375q0 0.0625 -0.046875 0.109375q-0.046875 0.03125 -0.140625 0.03125l-0.296875 0l-1.15625 2.671875zm4.9038086 -2.4375l0 -0.515625l0.671875 0q0.109375 0 0.15625 0.046875q0.046875 0.03125 0.046875 0.09375q0 0.0625 -0.046875 0.109375q-0.046875 0.03125 -0.15625 0.03125l-0.375 0l0 2.875q0 0.28125 -0.125 0.515625q-0.09375 0.140625 -0.28125 0.296875q-0.1875 0.171875 -0.34375 0.234375q-0.15625 0.0625 -0.421875 0.0625l-0.8125 0q-0.109375 0 -0.15625 -0.046875q-0.03125 -0.03125 -0.03125 -0.09375q0 -0.0625 0.03125 -0.109375q0.046875 -0.03125 0.15625 -0.03125l0.828125 0q0.25 0 0.453125 -0.140625q0.203125 -0.125 0.328125 -0.375q0.078125 -0.140625 0.078125 -0.359375l0 -0.859375q-0.453125 0.625 -1.1875 0.625q-0.59375 0 -1.03125 -0.4375q-0.421875 -0.4375 -0.421875 -1.046875q0 -0.625 0.421875 -1.0625q0.4375 -0.4375 1.03125 -0.4375q0.734375 0 1.1875 0.625zm0 0.875q0 -0.515625 -0.34375 -0.859375q-0.34375 -0.34375 -0.828125 -0.34375q-0.484375 0 -0.828125 0.34375q-0.34375 0.34375 -0.34375 0.859375q0 0.5 0.34375 0.859375q0.34375 0.34375 0.828125 0.34375q0.484375 0 0.828125 -0.34375q0.34375 -0.359375 0.34375 -0.859375z" fill-rule="nonzero"/><path fill="#ffffff" d="m50.004253 30.589071c4.5220947 0 8.202747 3.4257488 8.202747 7.6349316l0 6.2427406l-16.405499 0l0 -6.2427406c0 -4.2091827 3.6806526 -7.6349316 8.202751 -7.6349316zm0 22.208918c2.0568008 0 3.729805 1.552639 3.729805 3.4671211c0 1.1312599 -0.59051514 2.1390648 -1.490982 2.7756195l0 2.7756233c0 1.1496506 -1.0037079 2.0839043 -2.238823 2.0839043c-1.2351189 0 -2.2388268 -0.9342537 -2.2388268 -2.0839043l0 -2.7756233c-0.9004669 -0.6365547 -1.490982 -1.6443596 -1.490982 -2.7756195c0 -1.9144821 1.6730042 -3.4671211 3.7298088 -3.4671211zm0 -26.37235c-6.987156 0 -12.675461 5.2901 -12.675461 11.798365l0 6.2427406l-2.2338867 0c-1.235115 0 -2.2390594 0.93447495 -2.2390594 2.083908l0 23.592346c0 1.1496506 1.0039444 2.083908 2.2390594 2.083908l29.818928 0c1.2348785 0 2.238823 -0.9342575 2.238823 -2.083908l0 -23.592346c0 -1.1494331 -1.0039444 -2.083908 -2.238823 -2.083908l-2.2341194 0l0 -6.2427406c0 -6.5082645 -5.688072 -11.798365 -12.675461 -11.798365z" fill-rule="evenodd"/></g></svg>