<svg version="1.1" viewBox="0.0 0.0 419.5800524934383 125.93963254593176" fill="none" stroke="none" stroke-linecap="square" stroke-miterlimit="10" xmlns:xlink="http://www.w3.org/1999/xlink" xmlns="http://www.w3.org/2000/svg"><clipPath id="p.0"><path d="m0 0l419.58005 0l0 125.93964l-419.58005 0l0 -125.93964z" clip-rule="nonzero"/></clipPath><g clip-path="url(#p.0)"><path fill="#000000" fill-opacity="0.0" d="m0 0l419.58005 0l0 125.93964l-419.58005 0z" fill-rule="evenodd"/><path fill="#000000" fill-opacity="0.0" d="m5.800525E-5 0.88472676l425.48032 0l0 127.149605l-425.48032 0z" fill-rule="evenodd"/><path fill="#efefef" d="m7.2831383 11.356134l0 105.91999l160.81311 0l0 -105.91999z" fill-rule="evenodd"/><path stroke="#ffffff" stroke-width="0.963254593175853" stroke-miterlimit="91.6747" stroke-linecap="butt" d="m7.2831383 11.356134l0 105.91999l160.81311 0l0 -105.91999z" fill-rule="evenodd"/><path fill="#000000" d="m89.669 18.577448l-1.3770676 4.629719l-4.470787 0l3.6115265 2.7774277l-1.3770752 4.443884l3.6134033 -2.7774277l3.6115189 2.7774277l-1.3770676 -4.443884l3.6134033 -2.7774277l-4.472664 0l-1.3751907 -4.629719z" fill-rule="evenodd"/><path fill="#000000" d="m89.669 96.72316l-1.3770676 4.443878l-4.470787 0l3.6115265 2.7774277l-1.3770752 4.6297226l3.6134033 -2.9632645l3.6115189 2.9632645l-1.3770676 -4.6297226l3.6134033 -2.7774277l-4.472664 0l-1.3751907 -4.443878z" fill-rule="evenodd"/><path fill="#000000" d="m71.436905 23.948488l-1.3751907 4.443884l-4.4726562 0l3.6115189 2.7774277l-1.3751907 4.443886l3.6115189 -2.7774277l3.6115265 2.7774277l0 0l-1.3751907 -4.443886l3.6115189 -2.7774277l-4.470787 0l-1.3770676 -4.443884z" fill-rule="evenodd"/><path fill="#000000" d="m58.022682 38.2073l-1.3770676 4.443882l-4.470783 0l3.6115189 2.7774277l-1.3770676 4.443886l3.6133995 -2.7774277l3.6115227 2.7774277l-1.5477943 -4.443886l3.6115189 -2.7774277l-4.3000565 0l-1.3751907 -4.443882z" fill-rule="evenodd"/><path fill="#000000" d="m53.034092 57.649292l-1.3751945 4.445904l-4.47266 0l3.6115227 2.7774315l-1.3751907 4.627693l0 0l3.6115227 -2.9612427l3.6115227 2.9612427l-1.3751945 -4.627693l3.6115227 -2.7774315l-4.47266 0l-1.3751907 -4.445904z" fill-rule="evenodd"/><path fill="#000000" d="m57.85008 77.09331l-1.3770676 4.629715l-4.2981796 0l3.438919 2.5915985l-1.3751945 4.629715l3.6115227 -2.7774277l3.6115227 2.7774277l-1.3751907 -4.629715l3.6115189 -2.5915985l-4.4726562 0l-1.3751945 -4.629715z" fill-rule="evenodd"/><path fill="#000000" d="m71.436905 91.53795l-1.3751907 4.443886l-4.4726562 0l3.6115189 2.7774277l-1.3751907 4.443886l3.6115189 -2.7774277l3.6115265 2.7774277l-1.3751907 -4.443886l3.6115189 -2.7774277l-4.470787 0l-1.3770676 -4.443886z" fill-rule="evenodd"/><path fill="#000000" d="m107.89921 23.948488l-1.3751907 4.443884l-4.4726562 0l3.6115189 2.7774277l-1.3751907 4.443886l0 0l3.6115189 -2.7774277l3.6115265 2.7774277l0 0l-1.3751907 -4.443886l3.6115189 -2.7774277l-4.4707794 0l-1.3770752 -4.443884z" fill-rule="evenodd"/><path fill="#000000" d="m121.315315 38.2073l-1.3770676 4.443882l-4.2981796 0l3.6115189 2.7774277l-1.5477982 4.443886l3.6115265 -2.7774277l3.6115189 2.7774277l-1.3751907 -4.443886l3.6115189 -2.7774277l-4.4726562 0l-1.3751907 -4.443882z" fill-rule="evenodd"/><path fill="#000000" d="m126.302025 57.649292l-1.3751907 4.445904l-4.4726562 0l3.6133957 2.7774315l-1.3770676 4.627693l0 0l3.6115189 -2.9612427l3.6133957 2.9612427l-1.3770599 -4.627693l3.6115265 -2.7774315l-4.470787 0l-1.3770752 -4.445904z" fill-rule="evenodd"/><path fill="#000000" d="m121.48604 77.09331l-1.3751907 4.629715l-4.4707794 0l3.6115189 2.5915985l-1.3770676 4.629715l3.6115189 -2.7774277l3.440796 2.7774277l-1.3751907 -4.629715l3.6115189 -2.5915985l-4.4726562 0l-1.2044678 -4.629715z" fill-rule="evenodd"/><path fill="#000000" d="m107.89921 91.53795l-1.3751907 4.443886l-4.4726562 0l3.6115189 2.7774277l-1.3751907 4.443886l0 0l3.6115189 -2.7774277l3.6115265 2.7774277l-1.3751907 -4.443886l3.6115189 -2.7774277l-4.4707794 0l-1.3770752 -4.443886z" fill-rule="evenodd"/><path fill="#000000" fill-opacity="0.0" d="m174.89905 -1.023622E-5l249.79529 0l0 128.72441l-249.79529 0z" fill-rule="evenodd"/><path fill="#efefef" d="m186.0553 54.682198l0 -21.0l14.390625 0l0 3.5625l-10.140625 0l0 4.96875l8.765625 0l0 3.546875l-8.765625 0l0 8.921875l-4.25 0zm27.86792 0l0 -2.28125q-0.828125 1.21875 -2.1875 1.921875q-1.34375 0.703125 -2.84375 0.703125q-1.53125 0 -2.75 -0.671875q-1.21875 -0.671875 -1.765625 -1.890625q-0.546875 -1.21875 -0.546875 -3.359375l0 -9.625l4.03125 0l0 6.984375q0 3.203125 0.21875 3.9375q0.21875 0.71875 0.796875 1.140625q0.59375 0.421875 1.5 0.421875q1.03125 0 1.84375 -0.5625q0.828125 -0.578125 1.125 -1.40625q0.296875 -0.84375 0.296875 -4.109375l0 -6.40625l4.03125 0l0 15.203125l-3.75 0zm21.74292 0l-4.015625 0l0 -7.765625q0 -2.453125 -0.265625 -3.171875q-0.25 -0.734375 -0.84375 -1.125q-0.578125 -0.40625 -1.390625 -0.40625q-1.046875 0 -1.875 0.578125q-0.828125 0.5625 -1.140625 1.515625q-0.3125 0.9375 -0.3125 3.484375l0 6.890625l-4.015625 0l0 -15.203125l3.734375 0l0 2.234375q1.984375 -2.578125 5.015625 -2.578125q1.328125 0 2.421875 0.484375q1.109375 0.46875 1.671875 1.21875q0.578125 0.734375 0.796875 1.6875q0.21875 0.9375 0.21875 2.703125l0 9.453125zm18.02417 0l-3.734375 0l0 -2.234375q-0.921875 1.296875 -2.203125 1.9375q-1.265625 0.640625 -2.546875 0.640625q-2.625 0 -4.5 -2.109375q-1.859375 -2.109375 -1.859375 -5.890625q0 -3.875 1.8125 -5.875q1.828125 -2.015625 4.609375 -2.015625q2.546875 0 4.40625 2.109375l0 -7.5625l4.015625 0l0 21.0zm-10.734375 -7.9375q0 2.4375 0.671875 3.53125q0.96875 1.578125 2.71875 1.578125q1.390625 0 2.359375 -1.1875q0.984375 -1.1875 0.984375 -3.53125q0 -2.625 -0.953125 -3.765625q-0.9375 -1.15625 -2.421875 -1.15625q-1.421875 0 -2.390625 1.140625q-0.96875 1.125 -0.96875 3.390625zm23.508545 3.09375l4.015625 0.671875q-0.765625 2.203125 -2.4375 3.359375q-1.671875 1.15625 -4.171875 1.15625q-3.96875 0 -5.875 -2.59375q-1.5 -2.078125 -1.5 -5.234375q0 -3.78125 1.96875 -5.921875q1.984375 -2.140625 5.0 -2.140625q3.390625 0 5.34375 2.25q1.96875 2.234375 1.890625 6.859375l-10.078125 0q0.03125 1.78125 0.953125 2.78125q0.9375 1.0 2.328125 1.0q0.953125 0 1.59375 -0.515625q0.640625 -0.515625 0.96875 -1.671875zm0.234375 -4.0625q-0.046875 -1.75 -0.90625 -2.65625q-0.859375 -0.90625 -2.09375 -0.90625q-1.3125 0 -2.171875 0.953125q-0.859375 0.96875 -0.84375 2.609375l6.015625 0zm21.217163 8.90625l-3.734375 0l0 -2.234375q-0.921875 1.296875 -2.203125 1.9375q-1.265625 0.640625 -2.546875 0.640625q-2.625 0 -4.5 -2.109375q-1.859375 -2.109375 -1.859375 -5.890625q0 -3.875 1.8125 -5.875q1.828125 -2.015625 4.609375 -2.015625q2.546875 0 4.40625 2.109375l0 -7.5625l4.015625 0l0 21.0zm-10.734375 -7.9375q0 2.4375 0.671875 3.53125q0.96875 1.578125 2.71875 1.578125q1.390625 0 2.359375 -1.1875q0.984375 -1.1875 0.984375 -3.53125q0 -2.625 -0.953125 -3.765625q-0.9375 -1.15625 -2.421875 -1.15625q-1.421875 0 -2.390625 1.140625q-0.96875 1.125 -0.96875 3.390625zm22.68811 7.9375l0 -21.0l4.015625 0l0 7.5625q1.859375 -2.109375 4.421875 -2.109375q2.765625 0 4.578125 2.015625q1.828125 2.0 1.828125 5.765625q0 3.90625 -1.859375 6.015625q-1.84375 2.09375 -4.5 2.09375q-1.296875 0 -2.5625 -0.640625q-1.265625 -0.65625 -2.1875 -1.9375l0 2.234375l-3.734375 0zm3.984375 -7.9375q0 2.359375 0.75 3.5q1.046875 1.609375 2.78125 1.609375q1.328125 0 2.265625 -1.140625q0.9375 -1.140625 0.9375 -3.59375q0 -2.609375 -0.953125 -3.75q-0.9375 -1.15625 -2.40625 -1.15625q-1.453125 0 -2.421875 1.125q-0.953125 1.125 -0.953125 3.40625zm12.196045 -7.265625l4.28125 0l3.640625 10.796875l3.546875 -10.796875l4.171875 0l-5.375 14.625l-0.953125 2.65625q-0.53125 1.328125 -1.015625 2.03125q-0.484375 0.703125 -1.109375 1.140625q-0.609375 0.4375 -1.53125 0.671875q-0.90625 0.25 -2.046875 0.25q-1.15625 0 -2.28125 -0.25l-0.359375 -3.140625q0.953125 0.1875 1.703125 0.1875q1.40625 0 2.078125 -0.828125q0.671875 -0.828125 1.03125 -2.09375l-5.78125 -15.25zm33.334198 0l0 3.203125l-2.75 0l0 6.125q0 1.859375 0.078125 2.171875q0.078125 0.3125 0.359375 0.515625q0.28125 0.1875 0.6875 0.1875q0.546875 0 1.609375 -0.375l0.34375 3.125q-1.40625 0.59375 -3.171875 0.59375q-1.09375 0 -1.96875 -0.359375q-0.875 -0.375 -1.28125 -0.953125q-0.40625 -0.578125 -0.5625 -1.5625q-0.125 -0.703125 -0.125 -2.84375l0 -6.625l-1.859375 0l0 -3.203125l1.859375 0l0 -3.03125l4.03125 -2.34375l0 5.375l2.75 0zm6.79776 -5.796875l0 7.71875q1.953125 -2.265625 4.65625 -2.265625q1.390625 0 2.5 0.515625q1.125 0.515625 1.6875 1.3125q0.5625 0.796875 0.765625 1.78125q0.21875 0.96875 0.21875 3.015625l0 8.921875l-4.015625 0l0 -8.03125q0 -2.390625 -0.234375 -3.03125q-0.234375 -0.65625 -0.8125 -1.03125q-0.578125 -0.375 -1.453125 -0.375q-1.0 0 -1.796875 0.484375q-0.78125 0.484375 -1.15625 1.46875q-0.359375 0.984375 -0.359375 2.890625l0 7.625l-4.015625 0l0 -21.0l4.015625 0zm22.71167 16.15625l4.015625 0.671875q-0.765625 2.203125 -2.4375 3.359375q-1.671875 1.15625 -4.171875 1.15625q-3.96875 0 -5.875 -2.59375q-1.5 -2.078125 -1.5 -5.234375q0 -3.78125 1.96875 -5.921875q1.984375 -2.140625 5.0 -2.140625q3.390625 0 5.34375 2.25q1.96875 2.234375 1.890625 6.859375l-10.078125 0q0.03125 1.78125 0.953125 2.78125q0.9375 1.0 2.328125 1.0q0.953125 0 1.59375 -0.515625q0.640625 -0.515625 0.96875 -1.671875zm0.234375 -4.0625q-0.046875 -1.75 -0.90625 -2.65625q-0.859375 -0.90625 -2.09375 -0.90625q-1.3125 0 -2.171875 0.953125q-0.859375 0.96875 -0.84375 2.609375l6.015625 0z" fill-rule="nonzero"/><path fill="#efefef" d="m186.03967 95.16219l0 -21.0l15.5625 0l0 3.5625l-11.328125 0l0 4.65625l10.53125 0l0 3.53125l-10.53125 0l0 5.71875l11.71875 0l0 3.53125l-15.953125 0zm29.53038 0l0 -2.28125q-0.828125 1.21875 -2.1875 1.921875q-1.34375 0.703125 -2.84375 0.703125q-1.53125 0 -2.75 -0.671875q-1.21875 -0.671875 -1.765625 -1.890625q-0.546875 -1.21875 -0.546875 -3.359375l0 -9.625l4.03125 0l0 6.984375q0 3.203125 0.21875 3.9375q0.21875 0.71875 0.796875 1.140625q0.59375 0.421875 1.5 0.421875q1.03125 0 1.84375 -0.5625q0.828125 -0.578125 1.125 -1.40625q0.296875 -0.84375 0.296875 -4.109375l0 -6.40625l4.03125 0l0 15.203125l-3.75 0zm11.758545 0l-4.015625 0l0 -15.203125l3.734375 0l0 2.15625q0.953125 -1.53125 1.71875 -2.015625q0.765625 -0.484375 1.75 -0.484375q1.375 0 2.640625 0.75l-1.234375 3.515625q-1.03125 -0.65625 -1.890625 -0.65625q-0.859375 0 -1.453125 0.46875q-0.578125 0.453125 -0.921875 1.671875q-0.328125 1.21875 -0.328125 5.09375l0 4.703125zm6.6320953 -7.8125q0 -2.015625 0.984375 -3.890625q1.0 -1.875 2.8125 -2.859375q1.8125 -0.984375 4.03125 -0.984375q3.453125 0 5.65625 2.25q2.21875 2.234375 2.21875 5.65625q0 3.4375 -2.234375 5.71875q-2.21875 2.265625 -5.609375 2.265625q-2.078125 0 -3.984375 -0.9375q-1.890625 -0.953125 -2.890625 -2.78125q-0.984375 -1.828125 -0.984375 -4.4375zm4.125 0.203125q0 2.265625 1.078125 3.46875q1.078125 1.203125 2.640625 1.203125q1.578125 0 2.640625 -1.203125q1.078125 -1.203125 1.078125 -3.484375q0 -2.234375 -1.078125 -3.4375q-1.0625 -1.203125 -2.640625 -1.203125q-1.5625 0 -2.640625 1.203125q-1.078125 1.203125 -1.078125 3.453125zm14.602295 -7.59375l3.765625 0l0 2.234375q0.71875 -1.15625 1.96875 -1.859375q1.25 -0.71875 2.765625 -0.71875q2.640625 0 4.484375 2.078125q1.859375 2.0625 1.859375 5.78125q0 3.8125 -1.859375 5.921875q-1.859375 2.109375 -4.515625 2.109375q-1.265625 0 -2.296875 -0.5q-1.015625 -0.5 -2.140625 -1.71875l0 7.65625l-4.03125 0l0 -20.984375zm3.984375 7.34375q0 2.5625 1.015625 3.796875q1.015625 1.21875 2.484375 1.21875q1.40625 0 2.328125 -1.125q0.9375 -1.125 0.9375 -3.6875q0 -2.390625 -0.96875 -3.546875q-0.953125 -1.171875 -2.375 -1.171875q-1.46875 0 -2.453125 1.140625q-0.96875 1.140625 -0.96875 3.375zm22.852295 3.015625l4.015625 0.671875q-0.765625 2.203125 -2.4375 3.359375q-1.671875 1.15625 -4.171875 1.15625q-3.96875 0 -5.875 -2.59375q-1.5 -2.078125 -1.5 -5.234375q0 -3.78125 1.96875 -5.921875q1.984375 -2.140625 5.0 -2.140625q3.390625 0 5.34375 2.25q1.96875 2.234375 1.890625 6.859375l-10.078125 0q0.03125 1.78125 0.953125 2.78125q0.9375 1.0 2.328125 1.0q0.953125 0 1.59375 -0.515625q0.640625 -0.515625 0.96875 -1.671875zm0.234375 -4.0625q-0.046875 -1.75 -0.90625 -2.65625q-0.859375 -0.90625 -2.09375 -0.90625q-1.3125 0 -2.171875 0.953125q-0.859375 0.96875 -0.84375 2.609375l6.015625 0zm10.279663 -1.65625l-3.65625 -0.671875q0.625 -2.203125 2.125 -3.25q1.5 -1.0625 4.46875 -1.0625q2.6875 0 4.0 0.640625q1.328125 0.625 1.859375 1.609375q0.546875 0.984375 0.546875 3.609375l-0.046875 4.6875q0 2.0 0.1875 2.953125q0.203125 0.953125 0.734375 2.046875l-3.984375 0q-0.15625 -0.40625 -0.390625 -1.1875q-0.09375 -0.359375 -0.140625 -0.46875q-1.03125 1.0 -2.203125 1.5q-1.171875 0.5 -2.515625 0.5q-2.34375 0 -3.703125 -1.265625q-1.34375 -1.28125 -1.34375 -3.234375q0 -1.28125 0.609375 -2.28125q0.625 -1.015625 1.734375 -1.546875q1.109375 -0.546875 3.203125 -0.953125q2.8125 -0.53125 3.90625 -0.984375l0 -0.40625q0 -1.15625 -0.578125 -1.640625q-0.578125 -0.5 -2.15625 -0.5q-1.078125 0 -1.6875 0.421875q-0.59375 0.421875 -0.96875 1.484375zm5.390625 3.265625q-0.78125 0.25 -2.453125 0.609375q-1.671875 0.359375 -2.1875 0.703125q-0.796875 0.5625 -0.796875 1.421875q0 0.84375 0.625 1.46875q0.640625 0.609375 1.609375 0.609375q1.09375 0 2.078125 -0.71875q0.734375 -0.546875 0.96875 -1.34375q0.15625 -0.515625 0.15625 -1.953125l0 -0.796875zm21.748413 7.296875l-4.015625 0l0 -7.765625q0 -2.453125 -0.265625 -3.171875q-0.25 -0.734375 -0.84375 -1.125q-0.578125 -0.40625 -1.390625 -0.40625q-1.046875 0 -1.875 0.578125q-0.828125 0.5625 -1.140625 1.515625q-0.3125 0.9375 -0.3125 3.484375l0 6.890625l-4.015625 0l0 -15.203125l3.734375 0l0 2.234375q1.984375 -2.578125 5.015625 -2.578125q1.328125 0 2.421875 0.484375q1.109375 0.46875 1.671875 1.21875q0.578125 0.734375 0.796875 1.6875q0.21875 0.9375 0.21875 2.703125l0 9.453125zm12.234985 -21.0l4.234375 0l0 11.375q0 2.703125 0.15625 3.515625q0.28125 1.28125 1.296875 2.0625q1.03125 0.78125 2.796875 0.78125q1.8125 0 2.71875 -0.734375q0.921875 -0.734375 1.109375 -1.8125q0.1875 -1.078125 0.1875 -3.5625l0 -11.625l4.234375 0l0 11.03125q0 3.78125 -0.34375 5.34375q-0.34375 1.5625 -1.265625 2.640625q-0.921875 1.0625 -2.46875 1.703125q-1.546875 0.640625 -4.046875 0.640625q-3.0 0 -4.5625 -0.6875q-1.546875 -0.703125 -2.453125 -1.8125q-0.890625 -1.109375 -1.1875 -2.328125q-0.40625 -1.796875 -0.40625 -5.328125l0 -11.203125zm35.007965 21.0l-4.015625 0l0 -7.765625q0 -2.453125 -0.265625 -3.171875q-0.25 -0.734375 -0.84375 -1.125q-0.578125 -0.40625 -1.390625 -0.40625q-1.046875 0 -1.875 0.578125q-0.828125 0.5625 -1.140625 1.515625q-0.3125 0.9375 -0.3125 3.484375l0 6.890625l-4.015625 0l0 -15.203125l3.734375 0l0 2.234375q1.984375 -2.578125 5.015625 -2.578125q1.328125 0 2.421875 0.484375q1.109375 0.46875 1.671875 1.21875q0.578125 0.734375 0.796875 1.6875q0.21875 0.9375 0.21875 2.703125l0 9.453125zm4.08667 -17.265625l0 -3.734375l4.015625 0l0 3.734375l-4.015625 0zm0 17.265625l0 -15.203125l4.015625 0l0 15.203125l-4.015625 0zm7.210785 -7.8125q0 -2.015625 0.984375 -3.890625q1.0 -1.875 2.8125 -2.859375q1.8125 -0.984375 4.03125 -0.984375q3.453125 0 5.65625 2.25q2.21875 2.234375 2.21875 5.65625q0 3.4375 -2.234375 5.71875q-2.21875 2.265625 -5.609375 2.265625q-2.078125 0 -3.984375 -0.9375q-1.890625 -0.953125 -2.890625 -2.78125q-0.984375 -1.828125 -0.984375 -4.4375zm4.125 0.203125q0 2.265625 1.078125 3.46875q1.078125 1.203125 2.640625 1.203125q1.578125 0 2.640625 -1.203125q1.078125 -1.203125 1.078125 -3.484375q0 -2.234375 -1.078125 -3.4375q-1.0625 -1.203125 -2.640625 -1.203125q-1.5625 0 -2.640625 1.203125q-1.078125 1.203125 -1.078125 3.453125zm28.55542 7.609375l-4.015625 0l0 -7.765625q0 -2.453125 -0.265625 -3.171875q-0.25 -0.734375 -0.84375 -1.125q-0.578125 -0.40625 -1.390625 -0.40625q-1.046875 0 -1.875 0.578125q-0.828125 0.5625 -1.140625 1.515625q-0.3125 0.9375 -0.3125 3.484375l0 6.890625l-4.015625 0l0 -15.203125l3.734375 0l0 2.234375q1.984375 -2.578125 5.015625 -2.578125q1.328125 0 2.421875 0.484375q1.109375 0.46875 1.671875 1.21875q0.578125 0.734375 0.796875 1.6875q0.21875 0.9375 0.21875 2.703125l0 9.453125z" fill-rule="nonzero"/><path fill="#000000" fill-opacity="0.0" d="m4.984252 125.93964l391.0551 0l0 28.283463l-391.0551 0z" fill-rule="evenodd"/><path fill="#fdfaf6" d="m13.984252 134.93964l222.63623 0l0 8.800003l-222.63623 0l0 -8.800003z" fill-rule="nonzero"/><path fill="#000000" fill-opacity="0.0" d="m13.984252 136.152l222.63623 0l0 7.9296875l-222.63623 0l0 -7.9296875z" fill-rule="nonzero"/><path fill="#866c5b" d="m15.140502 137.68275l0 1.78125q0.265625 -0.296875 0.515625 -0.421875q0.265625 -0.125 0.57812405 -0.125q0.328125 0 0.5625 0.125q0.234375 0.109375 0.390625 0.359375q0.15625 0.234375 0.15625 0.515625l0 1.78125l0.328125 0q0.09375 0 0.140625 0.046875q0.046875 0.03125 0.046875 0.09375q0 0.0625 -0.046875 0.109375q-0.046875 0.03125 -0.140625 0.03125l-0.9375 0q-0.109375 0 -0.15625 -0.03125q-0.046875 -0.046875 -0.046875 -0.109375q0 -0.0625 0.046875 -0.09375q0.046875 -0.046875 0.15625 -0.046875l0.3125 0l0 -1.765625q0 -0.3125 -0.21875 -0.515625q-0.21875 -0.21875 -0.625 -0.21875q-0.31249905 0 -0.53124905 0.15625q-0.15625 0.109375 -0.53125 0.515625l0 1.828125l0.328125 0q0.09375 0 0.140625 0.046875q0.046875 0.03125 0.046875 0.09375q0 0.0625 -0.046875 0.109375q-0.046875 0.03125 -0.140625 0.03125l-0.9375 0q-0.109375 0 -0.15625 -0.03125q-0.03125 -0.046875 -0.03125 -0.109375q0 -0.0625 0.03125 -0.09375q0.046875 -0.046875 0.15625 -0.046875l0.328125 0l0 -3.71875l-0.390625 0q-0.109375 0 -0.15625 -0.03125q-0.03125 -0.046875 -0.03125 -0.109375q0 -0.0625 0.03125 -0.109375q0.046875 -0.046875 0.15625 -0.046875l0.671875 0zm4.5600576 1.34375l1.546875 0q0.109375 0 0.15625 0.046875q0.046875 0.03125 0.046875 0.09375q0 0.0625 -0.046875 0.109375q-0.046875 0.03125 -0.15625 0.03125l-1.546875 0l0 1.90625q0 0.25 0.1875 0.421875q0.203125 0.171875 0.59375 0.171875q0.296875 0 0.625 -0.078125q0.34375 -0.09375 0.53125 -0.203125q0.0625 -0.046875 0.109375 -0.046875q0.0625 0 0.09375 0.046875q0.046875 0.03125 0.046875 0.09375q0 0.046875 -0.046875 0.09375q-0.109375 0.109375 -0.53125 0.25q-0.421875 0.125 -0.8125 0.125q-0.5 0 -0.796875 -0.234375q-0.296875 -0.234375 -0.296875 -0.640625l0 -1.90625l-0.53125 0q-0.09375 0 -0.140625 -0.03125q-0.046875 -0.046875 -0.046875 -0.109375q0 -0.0625 0.046875 -0.09375q0.046875 -0.046875 0.140625 -0.046875l0.53125 0l0 -0.859375q0 -0.09375 0.03125 -0.140625q0.046875 -0.046875 0.109375 -0.046875q0.0625 0 0.109375 0.046875q0.046875 0.046875 0.046875 0.140625l0 0.859375zm4.2006836 0l1.546875 0q0.109375 0 0.15625 0.046875q0.046875 0.03125 0.046875 0.09375q0 0.0625 -0.046875 0.109375q-0.046875 0.03125 -0.15625 0.03125l-1.546875 0l0 1.90625q0 0.25 0.1875 0.421875q0.203125 0.171875 0.59375 0.171875q0.296875 0 0.625 -0.078125q0.34375 -0.09375 0.53125 -0.203125q0.0625 -0.046875 0.109375 -0.046875q0.0625 0 0.09375 0.046875q0.046875 0.03125 0.046875 0.09375q0 0.046875 -0.046875 0.09375q-0.109375 0.109375 -0.53125 0.25q-0.421875 0.125 -0.8125 0.125q-0.5 0 -0.796875 -0.234375q-0.296875 -0.234375 -0.296875 -0.640625l0 -1.90625l-0.53125 0q-0.09375 0 -0.140625 -0.03125q-0.046875 -0.046875 -0.046875 -0.109375q0 -0.0625 0.046875 -0.09375q0.046875 -0.046875 0.140625 -0.046875l0.53125 0l0 -0.859375q0 -0.09375 0.03125 -0.140625q0.046875 -0.046875 0.109375 -0.046875q0.0625 0 0.109375 0.046875q0.046875 0.046875 0.046875 0.140625l0 0.859375zm3.7006836 0l0 0.515625q0.265625 -0.3125 0.546875 -0.46875q0.296875 -0.15625 0.703125 -0.15625q0.421875 0 0.78125 0.203125q0.359375 0.1875 0.546875 0.546875q0.203125 0.359375 0.203125 0.75q0 0.609375 -0.453125 1.046875q-0.4375 0.4375 -1.078125 0.4375q-0.765625 0 -1.25 -0.625l0 1.734375l0.703125 0q0.09375 0 0.140625 0.03125q0.046875 0.046875 0.046875 0.109375q0 0.0625 -0.046875 0.09375q-0.046875 0.046875 -0.140625 0.046875l-1.375 0q-0.09375 0 -0.140625 -0.046875q-0.046875 -0.03125 -0.046875 -0.09375q0 -0.0625 0.046875 -0.109375q0.046875 -0.03125 0.140625 -0.03125l0.390625 0l0 -3.703125l-0.390625 0q-0.09375 0 -0.140625 -0.03125q-0.046875 -0.046875 -0.046875 -0.109375q0 -0.0625 0.046875 -0.09375q0.046875 -0.046875 0.140625 -0.046875l0.671875 0zm2.484375 1.390625q0 -0.5 -0.359375 -0.84375q-0.359375 -0.359375 -0.875 -0.359375q-0.515625 0 -0.890625 0.359375q-0.359375 0.34375 -0.359375 0.84375q0 0.484375 0.359375 0.84375q0.375 0.359375 0.890625 0.359375q0.515625 0 0.875 -0.34375q0.359375 -0.359375 0.359375 -0.859375zm3.7475605 -1.203125q0 -0.109375 0.03125 -0.140625q0.046875 -0.046875 0.109375 -0.046875q0.0625 0 0.109375 0.046875q0.046875 0.03125 0.046875 0.140625l0 0.5q0 0.09375 -0.046875 0.140625q-0.046875 0.046875 -0.109375 0.046875q-0.046875 0 -0.09375 -0.03125q-0.03125 -0.046875 -0.046875 -0.140625q-0.015625 -0.203125 -0.203125 -0.328125q-0.28125 -0.1875 -0.75 -0.1875q-0.484375 0 -0.75 0.1875q-0.2031269 0.140625 -0.2031269 0.328125q0 0.203125 0.2500019 0.34375q0.15625 0.09375 0.609375 0.140625q0.609375 0.0625 0.84375 0.15625q0.328125 0.109375 0.484375 0.328125q0.171875 0.21875 0.171875 0.453125q0 0.375 -0.359375 0.65625q-0.34375 0.28125 -1.03125 0.28125q-0.6875 0 -1.1093769 -0.34375q0 0.125 -0.015625 0.15625q-0.015625 0.03125 -0.0625 0.0625q-0.03125 0.015625 -0.078125 0.015625q-0.046875 0 -0.09375 -0.046875q-0.046875 -0.046875 -0.046875 -0.140625l0 -0.59375q0 -0.109375 0.03125 -0.140625q0.046875 -0.046875 0.109375 -0.046875q0.0625 0 0.109375 0.046875q0.046875 0.03125 0.046875 0.109375q0 0.15625 0.078125 0.265625q0.125 0.15625 0.3750019 0.265625q0.265625 0.109375 0.640625 0.109375q0.5625 0 0.828125 -0.203125q0.28125 -0.21875 0.28125 -0.453125q0 -0.265625 -0.28125 -0.421875q-0.265625 -0.15625 -0.8125 -0.203125q-0.53125 -0.0625 -0.765625 -0.15625q-0.2343769 -0.09375 -0.3593769 -0.265625q-0.125 -0.171875 -0.125 -0.390625q0 -0.359375 0.3593769 -0.578125q0.359375 -0.21875 0.859375 -0.21875q0.59375 0 0.96875 0.296875zm3.2006836 -0.1875l0.109375 0q0.203125 0 0.328125 0.140625q0.140625 0.125 0.140625 0.3125q0 0.203125 -0.140625 0.34375q-0.125 0.125 -0.328125 0.125l-0.109375 0q-0.203125 0 -0.34375 -0.125q-0.125 -0.140625 -0.125 -0.328125q0 -0.203125 0.140625 -0.328125q0.140625 -0.140625 0.328125 -0.140625zm0 2.125l0.109375 0q0.203125 0 0.328125 0.140625q0.140625 0.140625 0.140625 0.328125q0 0.1875 -0.140625 0.328125q-0.125 0.140625 -0.328125 0.140625l-0.109375 0q-0.203125 0 -0.34375 -0.140625q-0.125 -0.140625 -0.125 -0.328125q0 -0.203125 0.140625 -0.328125q0.140625 -0.140625 0.328125 -0.140625zm5.5444336 -3.671875l-2.3125 4.953125q-0.0625 0.125 -0.140625 0.125q-0.0625 0 -0.109375 -0.046875q-0.046875 -0.03125 -0.046875 -0.09375q0 -0.03125 0.046875 -0.109375l2.296875 -4.953125q0.046875 -0.078125 0.078125 -0.09375q0.03125 -0.03125 0.078125 -0.03125q0.0625 0 0.09375 0.046875q0.046875 0.046875 0.046875 0.09375q0 0.03125 -0.03125 0.109375zm4.2006836 0l-2.3125 4.953125q-0.0625 0.125 -0.140625 0.125q-0.0625 0 -0.109375 -0.046875q-0.046875 -0.03125 -0.046875 -0.09375q0 -0.03125 0.046875 -0.109375l2.296875 -4.953125q0.046875 -0.078125 0.078125 -0.09375q0.03125 -0.03125 0.078125 -0.03125q0.0625 0 0.09375 0.046875q0.046875 0.046875 0.046875 0.09375q0 0.03125 -0.03125 0.109375zm4.3100586 0.203125l0 4.015625l0.390625 0q0.109375 0 0.140625 0.046875q0.046875 0.03125 0.046875 0.09375q0 0.0625 -0.046875 0.109375q-0.03125 0.03125 -0.140625 0.03125l-0.671875 0l0 -0.578125q-0.5 0.6875 -1.265625 0.6875q-0.390625 0 -0.75 -0.203125q-0.359375 -0.203125 -0.5625 -0.578125q-0.203125 -0.390625 -0.203125 -0.796875q0 -0.421875 0.203125 -0.796875q0.203125 -0.375 0.5625 -0.578125q0.359375 -0.21875 0.75 -0.21875q0.75 0 1.265625 0.6875l0 -1.625l-0.390625 0q-0.09375 0 -0.140625 -0.03125q-0.046875 -0.046875 -0.046875 -0.109375q0 -0.0625 0.046875 -0.109375q0.046875 -0.046875 0.140625 -0.046875l0.671875 0zm-0.28125 2.828125q0 -0.546875 -0.375 -0.921875q-0.359375 -0.375 -0.875 -0.375q-0.515625 0 -0.890625 0.375q-0.359375 0.375 -0.359375 0.921875q0 0.53125 0.359375 0.921875q0.375 0.375 0.890625 0.375q0.515625 0 0.875 -0.375q0.375 -0.390625 0.375 -0.921875zm4.6850586 0q0 0.65625 -0.46875 1.125q-0.46875 0.453125 -1.125 0.453125q-0.671875 0 -1.140625 -0.46875q-0.46875 -0.46875 -0.46875 -1.109375q0 -0.65625 0.46875 -1.125q0.46875 -0.46875 1.140625 -0.46875q0.65625 0 1.125 0.46875q0.46875 0.453125 0.46875 1.125zm-0.28125 0q0 -0.546875 -0.390625 -0.921875q-0.390625 -0.375 -0.9375 -0.375q-0.546875 0 -0.9375 0.375q-0.375 0.375 -0.375 0.921875q0 0.53125 0.375 0.921875q0.390625 0.375 0.9375 0.375q0.546875 0 0.9375 -0.375q0.390625 -0.390625 0.390625 -0.921875zm4.0756836 -1.203125l0 -0.09375q0 -0.109375 0.03125 -0.140625q0.046875 -0.046875 0.109375 -0.046875q0.0625 0 0.109375 0.046875q0.046875 0.03125 0.046875 0.140625l0 0.65625q-0.015625 0.09375 -0.0625 0.140625q-0.03125 0.046875 -0.09375 0.046875q-0.046875 0 -0.09375 -0.03125q-0.03125 -0.046875 -0.046875 -0.140625q-0.015625 -0.234375 -0.3125 -0.453125q-0.296875 -0.21875 -0.8125 -0.21875q-0.640625 0 -0.96875 0.40625q-0.328125 0.390625 -0.328125 0.90625q0 0.546875 0.359375 0.921875q0.375 0.359375 0.953125 0.359375q0.328125 0 0.671875 -0.125q0.359375 -0.125 0.640625 -0.390625q0.0625 -0.078125 0.125 -0.078125q0.046875 0 0.078125 0.046875q0.046875 0.03125 0.046875 0.09375q0 0.140625 -0.34375 0.375q-0.546875 0.359375 -1.234375 0.359375q-0.6875 0 -1.140625 -0.4375q-0.453125 -0.4375 -0.453125 -1.125q0 -0.6875 0.453125 -1.140625q0.46875 -0.46875 1.15625 -0.46875q0.65625 0 1.109375 0.390625zm3.9506836 -0.09375q0 -0.109375 0.03125 -0.140625q0.046875 -0.046875 0.109375 -0.046875q0.0625 0 0.109375 0.046875q0.046875 0.03125 0.046875 0.140625l0 0.5q0 0.09375 -0.046875 0.140625q-0.046875 0.046875 -0.109375 0.046875q-0.046875 0 -0.09375 -0.03125q-0.03125 -0.046875 -0.046875 -0.140625q-0.015625 -0.203125 -0.203125 -0.328125q-0.28125 -0.1875 -0.75 -0.1875q-0.484375 0 -0.75 0.1875q-0.203125 0.140625 -0.203125 0.328125q0 0.203125 0.25 0.34375q0.15625 0.09375 0.609375 0.140625q0.609375 0.0625 0.84375 0.15625q0.328125 0.109375 0.484375 0.328125q0.171875 0.21875 0.171875 0.453125q0 0.375 -0.359375 0.65625q-0.34375 0.28125 -1.03125 0.28125q-0.6875 0 -1.109375 -0.34375q0 0.125 -0.015625 0.15625q-0.015625 0.03125 -0.0625 0.0625q-0.03125 0.015625 -0.078125 0.015625q-0.046875 0 -0.09375 -0.046875q-0.046875 -0.046875 -0.046875 -0.140625l0 -0.59375q0 -0.109375 0.03125 -0.140625q0.046875 -0.046875 0.109375 -0.046875q0.0625 0 0.109375 0.046875q0.046875 0.03125 0.046875 0.109375q0 0.15625 0.078125 0.265625q0.125 0.15625 0.375 0.265625q0.265625 0.109375 0.640625 0.109375q0.5625 0 0.828125 -0.203125q0.28125 -0.21875 0.28125 -0.453125q0 -0.265625 -0.28125 -0.421875q-0.265625 -0.15625 -0.8125 -0.203125q-0.53125 -0.0625 -0.765625 -0.15625q-0.234375 -0.09375 -0.359375 -0.265625q-0.125 -0.171875 -0.125 -0.390625q0 -0.359375 0.359375 -0.578125q0.359375 -0.21875 0.859375 -0.21875q0.59375 0 0.96875 0.296875zm3.2006836 1.9375l0.109375 0q0.203125 0 0.328125 0.140625q0.140625 0.140625 0.140625 0.328125q0 0.1875 -0.140625 0.328125q-0.125 0.140625 -0.328125 0.140625l-0.109375 0q-0.203125 0 -0.34375 -0.140625q-0.125 -0.140625 -0.125 -0.328125q0 -0.203125 0.140625 -0.328125q0.140625 -0.140625 0.328125 -0.140625zm5.2163086 -1.609375l0 -0.515625l0.671875 0q0.109375 0 0.15625 0.046875q0.046875 0.03125 0.046875 0.09375q0 0.0625 -0.046875 0.109375q-0.046875 0.03125 -0.15625 0.03125l-0.375 0l0 2.875q0 0.28125 -0.125 0.515625q-0.09375 0.140625 -0.28125 0.296875q-0.1875 0.171875 -0.34375 0.234375q-0.15625 0.0625 -0.421875 0.0625l-0.8125 0q-0.109375 0 -0.15625 -0.046875q-0.03125 -0.03125 -0.03125 -0.09375q0 -0.0625 0.03125 -0.109375q0.046875 -0.03125 0.15625 -0.03125l0.828125 0q0.25 0 0.453125 -0.140625q0.203125 -0.125 0.328125 -0.375q0.078125 -0.140625 0.078125 -0.359375l0 -0.859375q-0.453125 0.625 -1.1875 0.625q-0.59375 0 -1.03125 -0.4375q-0.421875 -0.4375 -0.421875 -1.046875q0 -0.625 0.421875 -1.0625q0.4375 -0.4375 1.03125 -0.4375q0.734375 0 1.1875 0.625zm0 0.875q0 -0.515625 -0.34375 -0.859375q-0.34375 -0.34375 -0.828125 -0.34375q-0.484375 0 -0.828125 0.34375q-0.34375 0.34375 -0.34375 0.859375q0 0.5 0.34375 0.859375q0.34375 0.34375 0.828125 0.34375q0.484375 0 0.828125 -0.34375q0.34375 -0.359375 0.34375 -0.859375zm4.8413086 0.09375q0 0.65625 -0.46875 1.125q-0.46875 0.453125 -1.125 0.453125q-0.671875 0 -1.140625 -0.46875q-0.46875 -0.46875 -0.46875 -1.109375q0 -0.65625 0.46875 -1.125q0.46875 -0.46875 1.140625 -0.46875q0.65625 0 1.125 0.46875q0.46875 0.453125 0.46875 1.125zm-0.28125 0q0 -0.546875 -0.390625 -0.921875q-0.390625 -0.375 -0.9375 -0.375q-0.546875 0 -0.9375 0.375q-0.375 0.375 -0.375 0.921875q0 0.53125 0.375 0.921875q0.390625 0.375 0.9375 0.375q0.546875 0 0.9375 -0.375q0.390625 -0.390625 0.390625 -0.921875zm4.4819336 0q0 0.65625 -0.46875 1.125q-0.46875 0.453125 -1.125 0.453125q-0.671875 0 -1.140625 -0.46875q-0.46875 -0.46875 -0.46875 -1.109375q0 -0.65625 0.46875 -1.125q0.46875 -0.46875 1.140625 -0.46875q0.65625 0 1.125 0.46875q0.46875 0.453125 0.46875 1.125zm-0.28125 0q0 -0.546875 -0.390625 -0.921875q-0.390625 -0.375 -0.9375 -0.375q-0.546875 0 -0.9375 0.375q-0.375 0.375 -0.375 0.921875q0 0.53125 0.375 0.921875q0.390625 0.375 0.9375 0.375q0.546875 0 0.9375 -0.375q0.390625 -0.390625 0.390625 -0.921875zm3.8413086 -0.96875l0 -0.515625l0.671875 0q0.109375 0 0.15625 0.046875q0.046875 0.03125 0.046875 0.09375q0 0.0625 -0.046875 0.109375q-0.046875 0.03125 -0.15625 0.03125l-0.375 0l0 2.875q0 0.28125 -0.125 0.515625q-0.09375 0.140625 -0.28125 0.296875q-0.1875 0.171875 -0.34375 0.234375q-0.15625 0.0625 -0.421875 0.0625l-0.8125 0q-0.109375 0 -0.15625 -0.046875q-0.03125 -0.03125 -0.03125 -0.09375q0 -0.0625 0.03125 -0.109375q0.046875 -0.03125 0.15625 -0.03125l0.828125 0q0.25 0 0.453125 -0.140625q0.203125 -0.125 0.328125 -0.375q0.078125 -0.140625 0.078125 -0.359375l0 -0.859375q-0.453125 0.625 -1.1875 0.625q-0.59375 0 -1.03125 -0.4375q-0.421875 -0.4375 -0.421875 -1.046875q0 -0.625 0.421875 -1.0625q0.4375 -0.4375 1.03125 -0.4375q0.734375 0 1.1875 0.625zm0 0.875q0 -0.515625 -0.34375 -0.859375q-0.34375 -0.34375 -0.828125 -0.34375q-0.484375 0 -0.828125 0.34375q-0.34375 0.34375 -0.34375 0.859375q0 0.5 0.34375 0.859375q0.34375 0.34375 0.828125 0.34375q0.484375 0 0.828125 -0.34375q0.34375 -0.359375 0.34375 -0.859375zm3.3881836 -2.734375l0 4.015625l1.125 0q0.109375 0 0.140625 0.046875q0.046875 0.03125 0.046875 0.09375q0 0.0625 -0.046875 0.109375q-0.03125 0.03125 -0.140625 0.03125l-2.546875 0q-0.09375 0 -0.140625 -0.03125q-0.046875 -0.046875 -0.046875 -0.109375q0 -0.0625 0.046875 -0.09375q0.046875 -0.046875 0.140625 -0.046875l1.125 0l0 -3.71875l-0.828125 0q-0.09375 0 -0.140625 -0.03125q-0.046875 -0.046875 -0.046875 -0.109375q0 -0.0625 0.046875 -0.109375q0.046875 -0.046875 0.140625 -0.046875l1.125 0zm5.6069336 2.890625l-2.921875 0q0.0625 0.546875 0.453125 0.890625q0.40625 0.34375 0.96875 0.34375q0.328125 0 0.671875 -0.109375q0.359375 -0.109375 0.578125 -0.28125q0.0625 -0.046875 0.125 -0.046875q0.046875 0 0.078125 0.046875q0.046875 0.03125 0.046875 0.09375q0 0.0625 -0.046875 0.109375q-0.171875 0.171875 -0.59375 0.328125q-0.40625 0.140625 -0.859375 0.140625q-0.734375 0 -1.234375 -0.484375q-0.484375 -0.484375 -0.484375 -1.171875q0 -0.625 0.453125 -1.0625q0.46875 -0.453125 1.15625 -0.453125q0.703125 0 1.15625 0.46875q0.453125 0.453125 0.453125 1.1875zm-0.296875 -0.296875q-0.078125 -0.46875 -0.453125 -0.765625q-0.359375 -0.296875 -0.859375 -0.296875q-0.5 0 -0.859375 0.296875q-0.359375 0.28125 -0.453125 0.765625l2.625 0zm2.8881836 0.875l0.109375 0q0.203125 0 0.328125 0.140625q0.140625 0.140625 0.140625 0.328125q0 0.1875 -0.140625 0.328125q-0.125 0.140625 -0.328125 0.140625l-0.109375 0q-0.203125 0 -0.34375 -0.140625q-0.125 -0.140625 -0.125 -0.328125q0 -0.203125 0.140625 -0.328125q0.140625 -0.140625 0.328125 -0.140625zm5.4506836 -1.84375l0 -0.09375q0 -0.109375 0.03125 -0.140625q0.046875 -0.046875 0.109375 -0.046875q0.0625 0 0.109375 0.046875q0.046875 0.03125 0.046875 0.140625l0 0.65625q-0.015625 0.09375 -0.0625 0.140625q-0.03125 0.046875 -0.09375 0.046875q-0.046875 0 -0.09375 -0.03125q-0.03125 -0.046875 -0.046875 -0.140625q-0.015625 -0.234375 -0.3125 -0.453125q-0.296875 -0.21875 -0.8125 -0.21875q-0.640625 0 -0.96875 0.40625q-0.328125 0.390625 -0.328125 0.90625q0 0.546875 0.359375 0.921875q0.375 0.359375 0.953125 0.359375q0.328125 0 0.671875 -0.125q0.359375 -0.125 0.640625 -0.390625q0.0625 -0.078125 0.125 -0.078125q0.046875 0 0.078125 0.046875q0.046875 0.03125 0.046875 0.09375q0 0.140625 -0.34375 0.375q-0.546875 0.359375 -1.234375 0.359375q-0.6875 0 -1.140625 -0.4375q-0.453125 -0.4375 -0.453125 -1.125q0 -0.6875 0.453125 -1.140625q0.46875 -0.46875 1.15625 -0.46875q0.65625 0 1.109375 0.390625zm4.6069336 1.203125q0 0.65625 -0.46875 1.125q-0.46875 0.453125 -1.125 0.453125q-0.671875 0 -1.140625 -0.46875q-0.46875 -0.46875 -0.46875 -1.109375q0 -0.65625 0.46875 -1.125q0.46875 -0.46875 1.140625 -0.46875q0.65625 0 1.125 0.46875q0.46875 0.453125 0.46875 1.125zm-0.28125 0q0 -0.546875 -0.390625 -0.921875q-0.390625 -0.375 -0.9375 -0.375q-0.546875 0 -0.9375 0.375q-0.375 0.375 -0.375 0.921875q0 0.53125 0.375 0.921875q0.390625 0.375 0.9375 0.375q0.546875 0 0.9375 -0.375q0.390625 -0.390625 0.390625 -0.921875zm1.5756836 -1.484375l0 0.28125q0.359375 -0.390625 0.734375 -0.390625q0.21875 0 0.375 0.125q0.171875 0.109375 0.296875 0.34375q0.1875 -0.234375 0.375 -0.34375q0.203125 -0.125 0.40625 -0.125q0.3125 0 0.484375 0.203125q0.25 0.265625 0.25 0.5625l0 2.015625l0.25 0q0.09375 0 0.140625 0.046875q0.046875 0.03125 0.046875 0.09375q0 0.0625 -0.046875 0.109375q-0.046875 0.03125 -0.140625 0.03125l-0.53125 0l0 -2.265625q0 -0.21875 -0.140625 -0.359375q-0.125 -0.140625 -0.3125 -0.140625q-0.15625 0 -0.328125 0.125q-0.171875 0.109375 -0.390625 0.453125l0 1.90625l0.234375 0q0.109375 0 0.140625 0.046875q0.046875 0.03125 0.046875 0.09375q0 0.0625 -0.046875 0.109375q-0.03125 0.03125 -0.140625 0.03125l-0.53125 0l0 -2.25q0 -0.21875 -0.140625 -0.359375q-0.125 -0.15625 -0.296875 -0.15625q-0.15625 0 -0.296875 0.09375q-0.21875 0.140625 -0.4375 0.484375l0 1.90625l0.234375 0q0.109375 0 0.15625 0.046875q0.046875 0.03125 0.046875 0.09375q0 0.0625 -0.046875 0.109375q-0.046875 0.03125 -0.15625 0.03125l-0.765625 0q-0.109375 0 -0.15625 -0.03125q-0.03125 -0.046875 -0.03125 -0.109375q0 -0.0625 0.03125 -0.09375q0.046875 -0.046875 0.15625 -0.046875l0.234375 0l0 -2.390625l-0.234375 0q-0.109375 0 -0.15625 -0.03125q-0.03125 -0.046875 -0.03125 -0.109375q0 -0.0625 0.03125 -0.09375q0.046875 -0.046875 0.15625 -0.046875l0.53125 0zm6.7944336 -1.546875l-2.3125 4.953125q-0.0625 0.125 -0.140625 0.125q-0.0625 0 -0.109375 -0.046875q-0.046875 -0.03125 -0.046875 -0.09375q0 -0.03125 0.046875 -0.109375l2.296875 -4.953125q0.046875 -0.078125 0.078125 -0.09375q0.03125 -0.03125 0.078125 -0.03125q0.0625 0 0.09375 0.046875q0.046875 0.046875 0.046875 0.09375q0 0.03125 -0.03125 0.109375zm4.3100586 0.203125l0 4.015625l0.390625 0q0.109375 0 0.140625 0.046875q0.046875 0.03125 0.046875 0.09375q0 0.0625 -0.046875 0.109375q-0.03125 0.03125 -0.140625 0.03125l-0.671875 0l0 -0.578125q-0.5 0.6875 -1.265625 0.6875q-0.390625 0 -0.75 -0.203125q-0.359375 -0.203125 -0.5625 -0.578125q-0.203125 -0.390625 -0.203125 -0.796875q0 -0.421875 0.203125 -0.796875q0.203125 -0.375 0.5625 -0.578125q0.359375 -0.21875 0.75 -0.21875q0.75 0 1.265625 0.6875l0 -1.625l-0.390625 0q-0.09375 0 -0.140625 -0.03125q-0.046875 -0.046875 -0.046875 -0.109375q0 -0.0625 0.046875 -0.109375q0.046875 -0.046875 0.140625 -0.046875l0.671875 0zm-0.28125 2.828125q0 -0.546875 -0.375 -0.921875q-0.359375 -0.375 -0.875 -0.375q-0.515625 0 -0.890625 0.375q-0.359375 0.375 -0.359375 0.921875q0 0.53125 0.359375 0.921875q0.375 0.375 0.890625 0.375q0.515625 0 0.875 -0.375q0.375 -0.390625 0.375 -0.921875zm2.7319336 -1.484375l0 0.71875q0.5625 -0.5 0.84375 -0.640625q0.28125 -0.15625 0.515625 -0.15625q0.25 0 0.46875 0.171875q0.234375 0.171875 0.234375 0.265625q0 0.0625 -0.046875 0.109375q-0.046875 0.03125 -0.109375 0.03125q-0.03125 0 -0.0625 0q-0.015625 -0.015625 -0.078125 -0.078125q-0.125 -0.125 -0.21875 -0.171875q-0.078125 -0.046875 -0.171875 -0.046875q-0.1875 0 -0.453125 0.15625q-0.265625 0.15625 -0.921875 0.734375l0 1.578125l1.28125 0q0.109375 0 0.140625 0.046875q0.046875 0.03125 0.046875 0.09375q0 0.0625 -0.046875 0.109375q-0.03125 0.03125 -0.140625 0.03125l-2.25 0q-0.109375 0 -0.15625 -0.03125q-0.046875 -0.046875 -0.046875 -0.109375q0 -0.0625 0.046875 -0.09375q0.046875 -0.046875 0.15625 -0.046875l0.6875 0l0 -2.390625l-0.53125 0q-0.09375 0 -0.140625 -0.03125q-0.046875 -0.046875 -0.046875 -0.109375q0 -0.0625 0.03125 -0.09375q0.046875 -0.046875 0.15625 -0.046875l0.8125 0zm5.3725586 2.953125l0 -0.40625q-0.625 0.515625 -1.328125 0.515625q-0.515625 0 -0.8125 -0.25q-0.28125 -0.265625 -0.28125 -0.65625q0 -0.40625 0.375 -0.71875q0.390625 -0.3125 1.125 -0.3125q0.1875 0 0.421875 0.03125q0.234375 0.015625 0.5 0.078125l0 -0.46875q0 -0.234375 -0.21875 -0.40625q-0.21875 -0.171875 -0.65625 -0.171875q-0.328125 0 -0.9375 0.1875q-0.109375 0.03125 -0.140625 0.03125q-0.046875 0 -0.09375 -0.03125q-0.03125 -0.046875 -0.03125 -0.109375q0 -0.0625 0.03125 -0.09375q0.046875 -0.046875 0.390625 -0.140625q0.53125 -0.140625 0.796875 -0.140625q0.546875 0 0.84375 0.265625q0.3125 0.265625 0.3125 0.609375l0 1.90625l0.375 0q0.109375 0 0.15625 0.046875q0.046875 0.03125 0.046875 0.09375q0 0.0625 -0.046875 0.109375q-0.046875 0.03125 -0.15625 0.03125l-0.671875 0zm0 -1.421875q-0.203125 -0.0625 -0.4375 -0.09375q-0.21875 -0.03125 -0.453125 -0.03125q-0.640625 0 -0.984375 0.28125q-0.265625 0.203125 -0.265625 0.46875q0 0.265625 0.203125 0.453125q0.203125 0.171875 0.59375 0.171875q0.375 0 0.6875 -0.140625q0.328125 -0.15625 0.65625 -0.484375l0 -0.625zm4.3725586 1.421875l-0.359375 0l-0.625 -1.84375l-0.640625 1.84375l-0.34375 0l-0.609375 -2.671875l-0.125 0q-0.109375 0 -0.15625 -0.03125q-0.046875 -0.046875 -0.046875 -0.109375q0 -0.0625 0.046875 -0.09375q0.046875 -0.046875 0.15625 -0.046875l0.78125 0q0.109375 0 0.140625 0.046875q0.046875 0.03125 0.046875 0.09375q0 0.0625 -0.046875 0.109375q-0.03125 0.03125 -0.140625 0.03125l-0.359375 0l0.5 2.28125l0.609375 -1.828125l0.34375 0l0.640625 1.828125l0.484375 -2.28125l-0.359375 0q-0.109375 0 -0.15625 -0.03125q-0.046875 -0.046875 -0.046875 -0.109375q0 -0.0625 0.046875 -0.09375q0.046875 -0.046875 0.15625 -0.046875l0.78125 0q0.109375 0 0.140625 0.046875q0.046875 0.03125 0.046875 0.09375q0 0.0625 -0.046875 0.109375q-0.03125 0.03125 -0.140625 0.03125l-0.140625 0l-0.578125 2.671875zm3.3569336 -4.4375l0 0.75l-0.4375 0l0 -0.75l0.4375 0zm0 1.484375l0 2.671875l1.125 0q0.109375 0 0.15625 0.046875q0.046875 0.03125 0.046875 0.09375q0 0.0625 -0.046875 0.109375q-0.046875 0.03125 -0.15625 0.03125l-2.53125 0q-0.109375 0 -0.15625 -0.03125q-0.046875 -0.046875 -0.046875 -0.109375q0 -0.0625 0.046875 -0.09375q0.046875 -0.046875 0.15625 -0.046875l1.125 0l0 -2.390625l-0.84375 0q-0.09375 0 -0.140625 -0.03125q-0.046875 -0.046875 -0.046875 -0.109375q0 -0.0625 0.03125 -0.09375q0.046875 -0.046875 0.15625 -0.046875l1.125 0zm3.1225586 0l0 0.421875q0.296875 -0.296875 0.53125 -0.40625q0.25 -0.125 0.5625 -0.125q0.328125 0 0.59375 0.140625q0.1875 0.109375 0.34375 0.34375q0.15625 0.234375 0.15625 0.484375l0 1.8125l0.25 0q0.09375 0 0.140625 0.046875q0.046875 0.03125 0.046875 0.09375q0 0.0625 -0.046875 0.109375q-0.046875 0.03125 -0.140625 0.03125l-0.765625 0q-0.109375 0 -0.15625 -0.03125q-0.046875 -0.046875 -0.046875 -0.109375q0 -0.0625 0.046875 -0.09375q0.046875 -0.046875 0.15625 -0.046875l0.234375 0l0 -1.765625q0 -0.3125 -0.234375 -0.515625q-0.21875 -0.203125 -0.578125 -0.203125q-0.296875 0 -0.5 0.109375q-0.203125 0.109375 -0.59375 0.5625l0 1.8125l0.328125 0q0.09375 0 0.140625 0.046875q0.046875 0.03125 0.046875 0.09375q0 0.0625 -0.046875 0.109375q-0.046875 0.03125 -0.140625 0.03125l-0.9375 0q-0.109375 0 -0.15625 -0.03125q-0.03125 -0.046875 -0.03125 -0.109375q0 -0.0625 0.03125 -0.09375q0.046875 -0.046875 0.15625 -0.046875l0.328125 0l0 -2.390625l-0.25 0q-0.09375 0 -0.140625 -0.03125q-0.046875 -0.046875 -0.046875 -0.109375q0 -0.0625 0.046875 -0.09375q0.046875 -0.046875 0.140625 -0.046875l0.53125 0zm6.0913086 0.515625l0 -0.515625l0.671875 0q0.109375 0 0.15625 0.046875q0.046875 0.03125 0.046875 0.09375q0 0.0625 -0.046875 0.109375q-0.046875 0.03125 -0.15625 0.03125l-0.375 0l0 2.875q0 0.28125 -0.125 0.515625q-0.09375 0.140625 -0.28125 0.296875q-0.1875 0.171875 -0.34375 0.234375q-0.15625 0.0625 -0.421875 0.0625l-0.8125 0q-0.109375 0 -0.15625 -0.046875q-0.03125 -0.03125 -0.03125 -0.09375q0 -0.0625 0.03125 -0.109375q0.046875 -0.03125 0.15625 -0.03125l0.828125 0q0.25 0 0.453125 -0.140625q0.203125 -0.125 0.328125 -0.375q0.078125 -0.140625 0.078125 -0.359375l0 -0.859375q-0.453125 0.625 -1.1875 0.625q-0.59375 0 -1.03125 -0.4375q-0.421875 -0.4375 -0.421875 -1.046875q0 -0.625 0.421875 -1.0625q0.4375 -0.4375 1.03125 -0.4375q0.734375 0 1.1875 0.625zm0 0.875q0 -0.515625 -0.34375 -0.859375q-0.34375 -0.34375 -0.828125 -0.34375q-0.484375 0 -0.828125 0.34375q-0.34375 0.34375 -0.34375 0.859375q0 0.5 0.34375 0.859375q0.34375 0.34375 0.828125 0.34375q0.484375 0 0.828125 -0.34375q0.34375 -0.359375 0.34375 -0.859375zm4.1850586 -1.203125q0 -0.109375 0.03125 -0.140625q0.046875 -0.046875 0.109375 -0.046875q0.0625 0 0.109375 0.046875q0.046875 0.03125 0.046875 0.140625l0 0.5q0 0.09375 -0.046875 0.140625q-0.046875 0.046875 -0.109375 0.046875q-0.046875 0 -0.09375 -0.03125q-0.03125 -0.046875 -0.046875 -0.140625q-0.015625 -0.203125 -0.203125 -0.328125q-0.28125 -0.1875 -0.75 -0.1875q-0.484375 0 -0.75 0.1875q-0.203125 0.140625 -0.203125 0.328125q0 0.203125 0.25 0.34375q0.15625 0.09375 0.609375 0.140625q0.609375 0.0625 0.84375 0.15625q0.328125 0.109375 0.484375 0.328125q0.171875 0.21875 0.171875 0.453125q0 0.375 -0.359375 0.65625q-0.34375 0.28125 -1.03125 0.28125q-0.6875 0 -1.109375 -0.34375q0 0.125 -0.015625 0.15625q-0.015625 0.03125 -0.0625 0.0625q-0.03125 0.015625 -0.078125 0.015625q-0.046875 0 -0.09375 -0.046875q-0.046875 -0.046875 -0.046875 -0.140625l0 -0.59375q0 -0.109375 0.03125 -0.140625q0.046875 -0.046875 0.109375 -0.046875q0.0625 0 0.109375 0.046875q0.046875 0.03125 0.046875 0.109375q0 0.15625 0.078125 0.265625q0.125 0.15625 0.375 0.265625q0.265625 0.109375 0.640625 0.109375q0.5625 0 0.828125 -0.203125q0.28125 -0.21875 0.28125 -0.453125q0 -0.265625 -0.28125 -0.421875q-0.265625 -0.15625 -0.8125 -0.203125q-0.53125 -0.0625 -0.765625 -0.15625q-0.234375 -0.09375 -0.359375 -0.265625q-0.125 -0.171875 -0.125 -0.390625q0 -0.359375 0.359375 -0.578125q0.359375 -0.21875 0.859375 -0.21875q0.59375 0 0.96875 0.296875zm4.5444336 -1.734375l-2.3125 4.953125q-0.0625 0.125 -0.140625 0.125q-0.0625 0 -0.109375 -0.046875q-0.046875 -0.03125 -0.046875 -0.09375q0 -0.03125 0.046875 -0.109375l2.296875 -4.953125q0.046875 -0.078125 0.078125 -0.09375q0.03125 -0.03125 0.078125 -0.03125q0.0625 0 0.09375 0.046875q0.046875 0.046875 0.046875 0.09375q0 0.03125 -0.03125 0.109375zm4.3100586 0.203125l0 4.015625l0.390625 0q0.109375 0 0.140625 0.046875q0.046875 0.03125 0.046875 0.09375q0 0.0625 -0.046875 0.109375q-0.03125 0.03125 -0.140625 0.03125l-0.671875 0l0 -0.578125q-0.5 0.6875 -1.265625 0.6875q-0.390625 0 -0.75 -0.203125q-0.359375 -0.203125 -0.5625 -0.578125q-0.203125 -0.390625 -0.203125 -0.796875q0 -0.421875 0.203125 -0.796875q0.203125 -0.375 0.5625 -0.578125q0.359375 -0.21875 0.75 -0.21875q0.75 0 1.265625 0.6875l0 -1.625l-0.390625 0q-0.09375 0 -0.140625 -0.03125q-0.046875 -0.046875 -0.046875 -0.109375q0 -0.0625 0.046875 -0.109375q0.046875 -0.046875 0.140625 -0.046875l0.671875 0zm-0.28125 2.828125q0 -0.546875 -0.375 -0.921875q-0.359375 -0.375 -0.875 -0.375q-0.515625 0 -0.890625 0.375q-0.359375 0.375 -0.359375 0.921875q0 0.53125 0.359375 0.921875q0.375 0.375 0.890625 0.375q0.515625 0 0.875 -0.375q0.375 -0.390625 0.375 -0.921875zm4.3725586 -3.03125l-2.3125 4.953125q-0.0625 0.125 -0.140625 0.125q-0.0625 0 -0.109375 -0.046875q-0.046875 -0.03125 -0.046875 -0.09375q0 -0.03125 0.046875 -0.109375l2.296875 -4.953125q0.046875 -0.078125 0.078125 -0.09375q0.03125 -0.03125 0.078125 -0.03125q0.0625 0 0.09375 0.046875q0.046875 0.046875 0.046875 0.09375q0 0.03125 -0.03125 0.109375zm2.2163086 2.5625l0 1.65625l0.984375 0q0.109375 0 0.140625 0.046875q0.046875 0.03125 0.046875 0.09375q0 0.0625 -0.046875 0.109375q-0.03125 0.03125 -0.140625 0.03125l-1.65625 0q-0.109375 0 -0.15625 -0.03125q-0.03125 -0.046875 -0.03125 -0.109375q0 -0.0625 0.03125 -0.09375q0.046875 -0.046875 0.15625 -0.046875l0.390625 0l0 -3.4375l-0.390625 0q-0.109375 0 -0.15625 -0.03125q-0.03125 -0.046875 -0.03125 -0.109375q0 -0.0625 0.046875 -0.109375q0.03125 -0.03125 0.140625 -0.03125l3.15625 0l0 0.984375q0 0.109375 -0.046875 0.15625q-0.03125 0.046875 -0.09375 0.046875q-0.0625 0 -0.109375 -0.046875q-0.03125 -0.046875 -0.03125 -0.15625l0 -0.703125l-2.203125 0l0 1.5l1.03125 0l0 -0.328125q0 -0.09375 0.03125 -0.140625q0.046875 -0.046875 0.109375 -0.046875q0.0625 0 0.109375 0.046875q0.046875 0.046875 0.046875 0.140625l0 0.9375q0 0.109375 -0.046875 0.15625q-0.046875 0.03125 -0.109375 0.03125q-0.0625 0 -0.109375 -0.03125q-0.03125 -0.046875 -0.03125 -0.15625l0 -0.328125l-1.03125 0zm5.0444336 -1.78125l0 3.4375l0.984375 0q0.09375 0 0.140625 0.046875q0.046875 0.03125 0.046875 0.09375q0 0.0625 -0.046875 0.109375q-0.046875 0.03125 -0.140625 0.03125l-2.265625 0q-0.09375 0 -0.140625 -0.03125q-0.046875 -0.046875 -0.046875 -0.109375q0 -0.0625 0.046875 -0.09375q0.046875 -0.046875 0.140625 -0.046875l0.984375 0l0 -3.4375l-0.984375 0q-0.09375 0 -0.140625 -0.03125q-0.046875 -0.046875 -0.046875 -0.109375q0 -0.0625 0.046875 -0.09375q0.046875 -0.046875 0.140625 -0.046875l2.265625 0q0.09375 0 0.140625 0.046875q0.046875 0.03125 0.046875 0.09375q0 0.0625 -0.046875 0.109375q-0.046875 0.03125 -0.140625 0.03125l-0.984375 0zm3.5600586 0l0 3.4375l1.90625 0l0 -1.140625q0 -0.109375 0.03125 -0.15625q0.046875 -0.046875 0.109375 -0.046875q0.0625 0 0.09375 0.046875q0.046875 0.046875 0.046875 0.15625l0 1.421875l-3.171875 0q-0.09375 0 -0.140625 -0.03125q-0.046875 -0.046875 -0.046875 -0.109375q0 -0.0625 0.046875 -0.09375q0.046875 -0.046875 0.140625 -0.046875l0.6875 0l0 -3.4375l-0.6875 0q-0.09375 0 -0.140625 -0.03125q-0.046875 -0.046875 -0.046875 -0.109375q0 -0.0625 0.046875 -0.09375q0.046875 -0.046875 0.140625 -0.046875l1.65625 0q0.109375 0 0.15625 0.046875q0.046875 0.03125 0.046875 0.09375q0 0.0625 -0.046875 0.109375q-0.046875 0.03125 -0.15625 0.03125l-0.671875 0zm3.7631836 1.78125l0 1.65625l2.203125 0l0 -0.859375q0 -0.09375 0.03125 -0.140625q0.046875 -0.046875 0.109375 -0.046875q0.0625 0 0.09375 0.046875q0.046875 0.046875 0.046875 0.140625l0 1.140625l-3.15625 0q-0.109375 0 -0.15625 -0.03125q-0.046875 -0.046875 -0.046875 -0.109375q0 -0.0625 0.046875 -0.09375q0.046875 -0.046875 0.15625 -0.046875l0.375 0l0 -3.4375l-0.375 0q-0.109375 0 -0.15625 -0.03125q-0.046875 -0.046875 -0.046875 -0.109375q0 -0.0625 0.046875 -0.09375q0.046875 -0.046875 0.15625 -0.046875l3.015625 0l0 0.984375q0 0.109375 -0.046875 0.15625q-0.03125 0.046875 -0.109375 0.046875q-0.0625 0 -0.109375 -0.046875q-0.03125 -0.046875 -0.03125 -0.15625l0 -0.703125l-2.046875 0l0 1.5l1.015625 0l0 -0.328125q0 -0.09375 0.046875 -0.140625q0.046875 -0.046875 0.109375 -0.046875q0.0625 0 0.09375 0.046875q0.046875 0.046875 0.046875 0.140625l0 0.9375q0 0.109375 -0.046875 0.15625q-0.03125 0.03125 -0.09375 0.03125q-0.0625 0 -0.109375 -0.03125q-0.046875 -0.046875 -0.046875 -0.15625l0 -0.328125l-1.015625 0zm7.0444336 3.859375l-3.828125 0q-0.09375 0 -0.140625 -0.046875q-0.046875 -0.03125 -0.046875 -0.09375q0 -0.078125 0.046875 -0.125q0.046875 -0.03125 0.140625 -0.03125l3.828125 0q0.09375 0 0.140625 0.03125q0.046875 0.046875 0.046875 0.125q0 0.0625 -0.046875 0.09375q-0.046875 0.046875 -0.140625 0.046875zm2.4350586 -5.640625l0 3.4375l0.984375 0q0.09375 0 0.140625 0.046875q0.046875 0.03125 0.046875 0.09375q0 0.0625 -0.046875 0.109375q-0.046875 0.03125 -0.140625 0.03125l-2.265625 0q-0.09375 0 -0.140625 -0.03125q-0.046875 -0.046875 -0.046875 -0.109375q0 -0.0625 0.046875 -0.09375q0.046875 -0.046875 0.140625 -0.046875l0.984375 0l0 -3.4375l-0.984375 0q-0.09375 0 -0.140625 -0.03125q-0.046875 -0.046875 -0.046875 -0.109375q0 -0.0625 0.046875 -0.09375q0.046875 -0.046875 0.140625 -0.046875l2.265625 0q0.09375 0 0.140625 0.046875q0.046875 0.03125 0.046875 0.09375q0 0.0625 -0.046875 0.109375q-0.046875 0.03125 -0.140625 0.03125l-0.984375 0zm2.9194336 3.4375l0 -3.4375l-0.234375 0q-0.109375 0 -0.15625 -0.03125q-0.03125 -0.046875 -0.03125 -0.109375q0 -0.0625 0.03125 -0.09375q0.046875 -0.046875 0.15625 -0.046875l1.546875 0q0.359375 0 0.65625 0.15625q0.296875 0.140625 0.453125 0.34375q0.28125 0.3125 0.40625 0.6875q0.109375 0.25 0.109375 0.609375l0 0.40625q0 0.4375 -0.203125 0.859375q-0.1875 0.40625 -0.640625 0.71875q-0.34375 0.21875 -0.78125 0.21875l-1.546875 0q-0.109375 0 -0.15625 -0.03125q-0.03125 -0.046875 -0.03125 -0.109375q0 -0.0625 0.03125 -0.09375q0.046875 -0.046875 0.15625 -0.046875l0.234375 0zm0.296875 0l1.03125 0q0.375 0 0.6875 -0.234375q0.3125 -0.25 0.46875 -0.578125q0.15625 -0.328125 0.15625 -0.640625l0 -0.53125q0 -0.265625 -0.078125 -0.46875q-0.125 -0.296875 -0.34375 -0.578125q-0.125 -0.15625 -0.375 -0.28125q-0.234375 -0.125 -0.515625 -0.125l-1.03125 0l0 3.4375zm6.3256836 -4.21875l-2.3125 4.953125q-0.0625 0.125 -0.140625 0.125q-0.0625 0 -0.109375 -0.046875q-0.046875 -0.03125 -0.046875 -0.09375q0 -0.03125 0.046875 -0.109375l2.296875 -4.953125q0.046875 -0.078125 0.078125 -0.09375q0.03125 -0.03125 0.078125 -0.03125q0.0625 0 0.09375 0.046875q0.046875 0.046875 0.046875 0.09375q0 0.03125 -0.03125 0.109375zm4.4663086 3.09375l-2.921875 0q0.0625 0.546875 0.453125 0.890625q0.40625 0.34375 0.96875 0.34375q0.328125 0 0.671875 -0.109375q0.359375 -0.109375 0.578125 -0.28125q0.0625 -0.046875 0.125 -0.046875q0.046875 0 0.078125 0.046875q0.046875 0.03125 0.046875 0.09375q0 0.0625 -0.046875 0.109375q-0.171875 0.171875 -0.59375 0.328125q-0.40625 0.140625 -0.859375 0.140625q-0.734375 0 -1.234375 -0.484375q-0.484375 -0.484375 -0.484375 -1.171875q0 -0.625 0.453125 -1.0625q0.46875 -0.453125 1.15625 -0.453125q0.703125 0 1.15625 0.46875q0.453125 0.453125 0.453125 1.1875zm-0.296875 -0.296875q-0.078125 -0.46875 -0.453125 -0.765625q-0.359375 -0.296875 -0.859375 -0.296875q-0.5 0 -0.859375 0.296875q-0.359375 0.28125 -0.453125 0.765625l2.625 0zm3.1381836 0.15625l1.3125 1.265625q0.140625 0 0.171875 0.015625q0.03125 0 0.046875 0.046875q0.03125 0.03125 0.03125 0.078125q0 0.0625 -0.046875 0.109375q-0.03125 0.03125 -0.140625 0.03125l-0.921875 0q-0.109375 0 -0.15625 -0.03125q-0.046875 -0.046875 -0.046875 -0.109375q0 -0.0625 0.046875 -0.09375q0.046875 -0.046875 0.15625 -0.046875l0.46875 0l-1.109375 -1.078125l-1.125 1.078125l0.484375 0q0.109375 0 0.140625 0.046875q0.046875 0.03125 0.046875 0.09375q0 0.0625 -0.046875 0.109375q-0.03125 0.03125 -0.140625 0.03125l-0.9375 0q-0.09375 0 -0.140625 -0.03125q-0.046875 -0.046875 -0.046875 -0.109375q0 -0.046875 0.015625 -0.078125q0.03125 -0.046875 0.0625 -0.046875q0.046875 -0.015625 0.171875 -0.015625l1.3125 -1.265625l-1.171875 -1.125q-0.125 0 -0.15625 -0.015625q-0.03125 -0.015625 -0.0625 -0.046875q-0.015625 -0.03125 -0.015625 -0.078125q0 -0.0625 0.046875 -0.09375q0.046875 -0.046875 0.140625 -0.046875l0.796875 0q0.09375 0 0.140625 0.046875q0.046875 0.03125 0.046875 0.09375q0 0.0625 -0.046875 0.109375q-0.046875 0.03125 -0.140625 0.03125l-0.34375 0l0.96875 0.9375l0.96875 -0.9375l-0.34375 0q-0.109375 0 -0.15625 -0.03125q-0.03125 -0.046875 -0.03125 -0.109375q0 -0.0625 0.03125 -0.09375q0.046875 -0.046875 0.15625 -0.046875l0.78125 0q0.109375 0 0.140625 0.046875q0.046875 0.03125 0.046875 0.09375q0 0.046875 -0.03125 0.078125q-0.015625 0.03125 -0.046875 0.046875q-0.03125 0.015625 -0.15625 0.015625l-1.171875 1.125zm2.9194336 -1.40625l0 0.515625q0.265625 -0.3125 0.546875 -0.46875q0.296875 -0.15625 0.703125 -0.15625q0.421875 0 0.78125 0.203125q0.359375 0.1875 0.546875 0.546875q0.203125 0.359375 0.203125 0.75q0 0.609375 -0.453125 1.046875q-0.4375 0.4375 -1.078125 0.4375q-0.765625 0 -1.25 -0.625l0 1.734375l0.703125 0q0.09375 0 0.140625 0.03125q0.046875 0.046875 0.046875 0.109375q0 0.0625 -0.046875 0.09375q-0.046875 0.046875 -0.140625 0.046875l-1.375 0q-0.09375 0 -0.140625 -0.046875q-0.046875 -0.03125 -0.046875 -0.09375q0 -0.0625 0.046875 -0.109375q0.046875 -0.03125 0.140625 -0.03125l0.390625 0l0 -3.703125l-0.390625 0q-0.09375 0 -0.140625 -0.03125q-0.046875 -0.046875 -0.046875 -0.109375q0 -0.0625 0.046875 -0.09375q0.046875 -0.046875 0.140625 -0.046875l0.671875 0zm2.484375 1.390625q0 -0.5 -0.359375 -0.84375q-0.359375 -0.359375 -0.875 -0.359375q-0.515625 0 -0.890625 0.359375q-0.359375 0.34375 -0.359375 0.84375q0 0.484375 0.359375 0.84375q0.375 0.359375 0.890625 0.359375q0.515625 0 0.875 -0.34375q0.359375 -0.359375 0.359375 -0.859375zm4.4038086 0.09375q0 0.65625 -0.46875 1.125q-0.46875 0.453125 -1.125 0.453125q-0.671875 0 -1.140625 -0.46875q-0.46875 -0.46875 -0.46875 -1.109375q0 -0.65625 0.46875 -1.125q0.46875 -0.46875 1.140625 -0.46875q0.65625 0 1.125 0.46875q0.46875 0.453125 0.46875 1.125zm-0.28125 0q0 -0.546875 -0.390625 -0.921875q-0.390625 -0.375 -0.9375 -0.375q-0.546875 0 -0.9375 0.375q-0.375 0.375 -0.375 0.921875q0 0.53125 0.375 0.921875q0.390625 0.375 0.9375 0.375q0.546875 0 0.9375 -0.375q0.390625 -0.390625 0.390625 -0.921875zm2.5288086 -1.484375l0 0.71875q0.5625 -0.5 0.84375 -0.640625q0.28125 -0.15625 0.515625 -0.15625q0.25 0 0.46875 0.171875q0.234375 0.171875 0.234375 0.265625q0 0.0625 -0.046875 0.109375q-0.046875 0.03125 -0.109375 0.03125q-0.03125 0 -0.0625 0q-0.015625 -0.015625 -0.078125 -0.078125q-0.125 -0.125 -0.21875 -0.171875q-0.078125 -0.046875 -0.171875 -0.046875q-0.1875 0 -0.453125 0.15625q-0.265625 0.15625 -0.921875 0.734375l0 1.578125l1.28125 0q0.109375 0 0.140625 0.046875q0.046875 0.03125 0.046875 0.09375q0 0.0625 -0.046875 0.109375q-0.03125 0.03125 -0.140625 0.03125l-2.25 0q-0.109375 0 -0.15625 -0.03125q-0.046875 -0.046875 -0.046875 -0.109375q0 -0.0625 0.046875 -0.09375q0.046875 -0.046875 0.15625 -0.046875l0.6875 0l0 -2.390625l-0.53125 0q-0.09375 0 -0.140625 -0.03125q-0.046875 -0.046875 -0.046875 -0.109375q0 -0.0625 0.03125 -0.09375q0.046875 -0.046875 0.15625 -0.046875l0.8125 0zm3.9663086 0l1.546875 0q0.109375 0 0.15625 0.046875q0.046875 0.03125 0.046875 0.09375q0 0.0625 -0.046875 0.109375q-0.046875 0.03125 -0.15625 0.03125l-1.546875 0l0 1.90625q0 0.25 0.1875 0.421875q0.203125 0.171875 0.59375 0.171875q0.296875 0 0.625 -0.078125q0.34375 -0.09375 0.53125 -0.203125q0.0625 -0.046875 0.109375 -0.046875q0.0625 0 0.09375 0.046875q0.046875 0.03125 0.046875 0.09375q0 0.046875 -0.046875 0.09375q-0.109375 0.109375 -0.53125 0.25q-0.421875 0.125 -0.8125 0.125q-0.5 0 -0.796875 -0.234375q-0.296875 -0.234375 -0.296875 -0.640625l0 -1.90625l-0.53125 0q-0.09375 0 -0.140625 -0.03125q-0.046875 -0.046875 -0.046875 -0.109375q0 -0.0625 0.046875 -0.09375q0.046875 -0.046875 0.140625 -0.046875l0.53125 0l0 -0.859375q0 -0.09375 0.03125 -0.140625q0.046875 -0.046875 0.109375 -0.046875q0.0625 0 0.109375 0.046875q0.046875 0.046875 0.046875 0.140625l0 0.859375zm6.0756836 -1.546875l-2.3125 4.953125q-0.0625 0.125 -0.140625 0.125q-0.0625 0 -0.109375 -0.046875q-0.046875 -0.03125 -0.046875 -0.09375q0 -0.03125 0.046875 -0.109375l2.296875 -4.953125q0.046875 -0.078125 0.078125 -0.09375q0.03125 -0.03125 0.078125 -0.03125q0.0625 0 0.09375 0.046875q0.046875 0.046875 0.046875 0.09375q0 0.03125 -0.03125 0.109375zm3.8569336 1.734375q0 -0.109375 0.03125 -0.140625q0.046875 -0.046875 0.109375 -0.046875q0.0625 0 0.109375 0.046875q0.046875 0.03125 0.046875 0.140625l0 0.5q0 0.09375 -0.046875 0.140625q-0.046875 0.046875 -0.109375 0.046875q-0.046875 0 -0.09375 -0.03125q-0.03125 -0.046875 -0.046875 -0.140625q-0.015625 -0.203125 -0.203125 -0.328125q-0.28125 -0.1875 -0.75 -0.1875q-0.484375 0 -0.75 0.1875q-0.203125 0.140625 -0.203125 0.328125q0 0.203125 0.25 0.34375q0.15625 0.09375 0.609375 0.140625q0.609375 0.0625 0.84375 0.15625q0.328125 0.109375 0.484375 0.328125q0.171875 0.21875 0.171875 0.453125q0 0.375 -0.359375 0.65625q-0.34375 0.28125 -1.03125 0.28125q-0.6875 0 -1.109375 -0.34375q0 0.125 -0.015625 0.15625q-0.015625 0.03125 -0.0625 0.0625q-0.03125 0.015625 -0.078125 0.015625q-0.046875 0 -0.09375 -0.046875q-0.046875 -0.046875 -0.046875 -0.140625l0 -0.59375q0 -0.109375 0.03125 -0.140625q0.046875 -0.046875 0.109375 -0.046875q0.0625 0 0.109375 0.046875q0.046875 0.03125 0.046875 0.109375q0 0.15625 0.078125 0.265625q0.125 0.15625 0.375 0.265625q0.265625 0.109375 0.640625 0.109375q0.5625 0 0.828125 -0.203125q0.28125 -0.21875 0.28125 -0.453125q0 -0.265625 -0.28125 -0.421875q-0.265625 -0.15625 -0.8125 -0.203125q-0.53125 -0.0625 -0.765625 -0.15625q-0.234375 -0.09375 -0.359375 -0.265625q-0.125 -0.171875 -0.125 -0.390625q0 -0.359375 0.359375 -0.578125q0.359375 -0.21875 0.859375 -0.21875q0.59375 0 0.96875 0.296875zm3.5131836 2.765625l-0.5 0l-1.171875 -2.671875l-0.296875 0q-0.09375 0 -0.140625 -0.03125q-0.046875 -0.046875 -0.046875 -0.109375q0 -0.0625 0.046875 -0.09375q0.046875 -0.046875 0.140625 -0.046875l1.078125 0q0.109375 0 0.140625 0.046875q0.046875 0.03125 0.046875 0.09375q0 0.0625 -0.046875 0.109375q-0.03125 0.03125 -0.140625 0.03125l-0.46875 0l1.046875 2.390625l0.125 0l1.03125 -2.390625l-0.46875 0q-0.109375 0 -0.15625 -0.03125q-0.046875 -0.046875 -0.046875 -0.109375q0 -0.0625 0.046875 -0.09375q0.046875 -0.046875 0.15625 -0.046875l1.078125 0q0.09375 0 0.140625 0.046875q0.046875 0.03125 0.046875 0.09375q0 0.0625 -0.046875 0.109375q-0.046875 0.03125 -0.140625 0.03125l-0.296875 0l-1.15625 2.671875zm4.9038086 -2.4375l0 -0.515625l0.671875 0q0.109375 0 0.15625 0.046875q0.046875 0.03125 0.046875 0.09375q0 0.0625 -0.046875 0.109375q-0.046875 0.03125 -0.15625 0.03125l-0.375 0l0 2.875q0 0.28125 -0.125 0.515625q-0.09375 0.140625 -0.28125 0.296875q-0.1875 0.171875 -0.34375 0.234375q-0.15625 0.0625 -0.421875 0.0625l-0.8125 0q-0.109375 0 -0.15625 -0.046875q-0.03125 -0.03125 -0.03125 -0.09375q0 -0.0625 0.03125 -0.109375q0.046875 -0.03125 0.15625 -0.03125l0.828125 0q0.25 0 0.453125 -0.140625q0.203125 -0.125 0.328125 -0.375q0.078125 -0.140625 0.078125 -0.359375l0 -0.859375q-0.453125 0.625 -1.1875 0.625q-0.59375 0 -1.03125 -0.4375q-0.421875 -0.4375 -0.421875 -1.046875q0 -0.625 0.421875 -1.0625q0.4375 -0.4375 1.03125 -0.4375q0.734375 0 1.1875 0.625zm0 0.875q0 -0.515625 -0.34375 -0.859375q-0.34375 -0.34375 -0.828125 -0.34375q-0.484375 0 -0.828125 0.34375q-0.34375 0.34375 -0.34375 0.859375q0 0.5 0.34375 0.859375q0.34375 0.34375 0.828125 0.34375q0.484375 0 0.828125 -0.34375q0.34375 -0.359375 0.34375 -0.859375z" fill-rule="nonzero"/></g></svg>