<svg version="1.1" viewBox="0.0 0.0 633.2204724409448 538.7532808398951" fill="none" stroke="none" stroke-linecap="square" stroke-miterlimit="10" xmlns:xlink="http://www.w3.org/1999/xlink" xmlns="http://www.w3.org/2000/svg"><clipPath id="p.0"><path d="m0 0l633.22046 0l0 538.7533l-633.22046 0l0 -538.7533z" clip-rule="nonzero"/></clipPath><g clip-path="url(#p.0)"><path fill="#000000" fill-opacity="0.0" d="m0 0l633.22046 0l0 538.7533l-633.22046 0z" fill-rule="evenodd"/><path fill="#002e6e" d="m580.4908 136.94489l0 261.02887c25.72705 -39.69815 39.36487 -84.38583 39.69818 -129.84778c0 -45.908127 -13.750671 -91.03937 -39.69818 -131.18109zm-270.45142 -136.94489c-5.0997314 0.22047244 -10.312347 0.55380577 -15.412079 0.9973753l0 402.29922l61.874023 0l0 -399.97113c-15.301849 -2.1049867 -30.826782 -3.215223 -46.461945 -3.3254592zm82.83203 10.312336l0 392.98425l47.23883 0l0 -378.126c-15.301819 -5.9868755 -31.049866 -10.9763775 -47.23883 -14.858267zm91.1496 36.593174l0 356.39108l47.236206 0l0.2230835 -322.68243c-15.08136 -13.304466 -29.496033 -23.396328 -47.45929 -33.708664zm-387.6614 28.8294c-60.986877 50.120735 -95.80578 119.6483 -96.35958 192.39107c0.33333334 73.07349 35.15223 142.93176 96.35958 193.2756l0 -385.6667zm87.15748 -51.338585c-27.055115 10.422571 -52.338577 24.173227 -74.84777 40.916008l-0.22309113 405.73492l-0.11023712 0.22311401c23.619423 18.29657 46.241463 30.160095 75.1811 41.472443l0 -488.34647zm91.03937 509.19162l0 0.27557373l0 0c-0.034118652 -0.112854004 -0.049865723 -0.22570801 0 -0.27557373zm0.11022949 -531.3701l0 0c-24.396317 2.5511808 -48.236206 7.540683 -71.29921 14.968504l0 501.98688l0.11024475 0.11022949c28.055115 9.648315 41.1391 12.643066 71.188965 14.860901c0 0 -0.068237305 -0.13909912 -0.11022949 -0.28082275l0 0l0.11022949 -531.6457z" fill-rule="evenodd"/><path fill="#ffffff" d="m514.1811 160.7874c37.370117 0 55.997375 14.748032 55.997375 44.13124c0 14.860886 -4.876648 26.391068 -14.635132 34.708664c-9.868774 8.204712 -23.619446 12.307083 -41.362244 12.307083c-7.6509094 0 -15.412048 -0.5538025 -23.396301 -1.7742767l0 -87.15486c7.43042 -1.443573 15.191589 -2.2178497 23.396301 -2.2178497zm-450.64304 -44.133858l0 270.67456l69.30446 0l0 -270.67456zm446.98425 -3.7716522c-28.719147 0 -55.887146 1.8871384 -81.61154 5.656166l0 268.79004l61.874023 0l0 -90.48294c10.866119 0.9973755 20.847748 1.4409485 29.716553 1.4409485c35.595764 0 62.54065 -8.204742 80.94745 -24.616821c18.40686 -16.412048 27.611572 -40.585297 27.611572 -72.40944c0 -58.88188 -39.475037 -88.37795 -118.538055 -88.37795zm-223.10498 0c-31.934387 0 -56.661423 6.9868774 -74.404205 20.84777c-17.629913 13.860886 -26.391083 32.490814 -26.391083 55.997375c0 20.958008 7.3175964 38.590546 22.178482 52.78215c14.858276 14.194214 39.14174 26.280853 73.0735 36.149597c13.307068 3.9921265 22.62204 8.427826 27.94226 13.417328c5.322815 4.8792725 7.984253 11.309723 7.984253 19.183746c0 9.648285 -3.32547 17.188965 -9.868774 22.509186c-6.54068 5.2125854 -16.188995 7.873993 -29.05249 7.873993c-27.16536 0 -53.446198 -8.648285 -78.616806 -25.94751l-14.860886 49.34384c11.422562 7.6509094 25.503937 13.973755 42.359573 18.740173c16.745407 4.7690125 32.934372 7.2073364 48.45668 7.2073364c34.92914 0 61.20999 -6.8740234 78.95276 -20.734894c17.853027 -13.860901 26.724426 -33.821533 26.724426 -60.099762c0 -22.178467 -7.4304504 -40.364807 -22.398956 -54.446182c-14.97113 -14.084 -40.91864 -26.170609 -77.62204 -36.370087c-20.847778 -5.879257 -31.16011 -15.858261 -31.16011 -29.608917c0 -8.427826 3.3280792 -15.078735 9.981613 -20.070862c6.6535645 -4.876648 16.409454 -7.3175964 29.27298 -7.3175964c25.94751 0 50.67453 5.766403 74.183716 17.299225l11.419952 -48.902893c-24.94751 -11.863518 -54.333344 -17.85302 -88.15485 -17.85302z" fill-rule="evenodd"/><path stroke="#002e6e" stroke-width="8.0" stroke-miterlimit="42.2479" d="m514.1811 160.7874c37.370117 0 55.997375 14.748032 55.997375 44.13124c0 14.860886 -4.876648 26.391068 -14.635132 34.708664c-9.868774 8.204712 -23.619446 12.307083 -41.362244 12.307083c-7.6509094 0 -15.412048 -0.5538025 -23.396301 -1.7742767l0 -87.15486c7.43042 -1.443573 15.191589 -2.2178497 23.396301 -2.2178497zm-450.64304 -44.133858l0 270.67456l69.30446 0l0 -270.67456zm446.98425 -3.7716522c-28.719147 0 -55.887146 1.8871384 -81.61154 5.656166l0 268.79004l61.874023 0l0 -90.48294c10.866119 0.9973755 20.847748 1.4409485 29.716553 1.4409485c35.595764 0 62.54065 -8.204742 80.94745 -24.616821c18.40686 -16.412048 27.611572 -40.585297 27.611572 -72.40944c0 -58.88188 -39.475037 -88.37795 -118.538055 -88.37795zm-223.10498 0c-31.934387 0 -56.661423 6.9868774 -74.404205 20.84777c-17.629913 13.860886 -26.391083 32.490814 -26.391083 55.997375c0 20.958008 7.3175964 38.590546 22.178482 52.78215c14.858276 14.194214 39.14174 26.280853 73.0735 36.149597c13.307068 3.9921265 22.62204 8.427826 27.94226 13.417328c5.322815 4.8792725 7.984253 11.309723 7.984253 19.183746c0 9.648285 -3.32547 17.188965 -9.868774 22.509186c-6.54068 5.2125854 -16.188995 7.873993 -29.05249 7.873993c-27.16536 0 -53.446198 -8.648285 -78.616806 -25.94751l-14.860886 49.34384c11.422562 7.6509094 25.503937 13.973755 42.359573 18.740173c16.745407 4.7690125 32.934372 7.2073364 48.45668 7.2073364c34.92914 0 61.20999 -6.8740234 78.95276 -20.734894c17.853027 -13.860901 26.724426 -33.821533 26.724426 -60.099762c0 -22.178467 -7.4304504 -40.364807 -22.398956 -54.446182c-14.97113 -14.084 -40.91864 -26.170609 -77.62204 -36.370087c-20.847778 -5.879257 -31.16011 -15.858261 -31.16011 -29.608917c0 -8.427826 3.3280792 -15.078735 9.981613 -20.070862c6.6535645 -4.876648 16.409454 -7.3175964 29.27298 -7.3175964c25.94751 0 50.67453 5.766403 74.183716 17.299225l11.419952 -48.902893c-24.94751 -11.863518 -54.333344 -17.85302 -88.15485 -17.85302z" fill-rule="evenodd"/><path fill="#002e6e" d="m337.98163 437.44882c5.4356995 0 9.648285 1.330719 12.419952 4.102356c2.771637 2.774292 4.21521 6.9868774 4.21521 12.643036c0 5.5433044 -1.443573 9.758545 -4.21521 12.530182c-2.7716675 2.7716675 -6.984253 4.1023865 -12.419952 4.1023865l-15.965881 0l0 -33.37796zm89.81891 -0.330719l12.419922 48.90027l-24.72702 0l12.307098 -48.90027zm-131.95538 -23.288696l0 120.979004l26.170593 0l0 -40.362213l20.070862 0c8.204742 0 15.19162 -1.5538025 21.068237 -4.769043c5.7664185 -3.1049805 10.202118 -7.761139 13.194244 -13.750641c3.1049805 -5.9868774 4.658783 -13.194244 4.658783 -21.7323c0 -8.650909 -1.5538025 -15.858246 -4.658783 -21.845123c-2.9921265 -5.9868774 -7.427826 -10.645691 -13.194244 -13.750671c-5.8766174 -3.21521 -12.863495 -4.7690125 -21.068237 -4.7690125zm116.543304 0l-35.37271 120.979004l26.391083 0l7.2073364 -27.278229l34.485565 0l6.984253 27.278229l27.05774 0l-35.26245 -120.979004zm78.50656 0l0 120.979004l23.175842 0l0 -61.099762l-0.553772 -22.286072l0.11022949 0l7.650879 17.963257l31.270386 65.42258l29.16272 0l0 -120.979004l-23.175842 0l0 60.989502l0.5563965 22.398926l-0.112854004 0l-7.65094 -17.963226l-31.270325 -65.4252z" fill-rule="evenodd"/><path fill="#000000" fill-opacity="0.0" d="m3.9396327 -40.0l720.0945 0l0 33.133858l-720.0945 0z" fill-rule="evenodd"/><path fill="#fdfaf6" d="m12.939632 -31.0l594.0967 0l0 13.599998l-594.0967 0l0 -13.599998z" fill-rule="nonzero"/><path fill="#000000" fill-opacity="0.0" d="m12.939632 -29.277716l231.0376 0l0 12.4609375l-231.0376 0l0 -12.4609375z" fill-rule="nonzero"/><path fill="#866c5b" d="m14.752132 -26.854376l0 2.765625q0.4375 -0.46875 0.828125 -0.65625q0.390625 -0.1875 0.890625 -0.1875q0.515625 0 0.875 0.1875q0.375 0.1875 0.625 0.578125q0.25 0.375 0.25 0.796875l0 2.796875l0.5 0q0.171875 0 0.234375 0.0625q0.0625 0.0625 0.0625 0.171875q0 0.09375 -0.0625 0.15625q-0.0625 0.0625 -0.234375 0.0625l-1.46875 0q-0.15625 0 -0.234375 -0.0625q-0.0625 -0.0625 -0.0625 -0.15625q0 -0.109375 0.0625 -0.171875q0.078125 -0.0625 0.234375 -0.0625l0.515625 0l0 -2.765625q0 -0.484375 -0.359375 -0.8125q-0.34375 -0.328125 -0.984375 -0.328125q-0.484375 0 -0.84375 0.234375q-0.25 0.171875 -0.828125 0.8125l0 2.859375l0.515625 0q0.15625 0 0.21875 0.0625q0.078125 0.0625 0.078125 0.171875q0 0.09375 -0.078125 0.15625q-0.0625 0.0625 -0.21875 0.0625l-1.46875 0q-0.171875 0 -0.25 -0.0625q-0.0625 -0.0625 -0.0625 -0.15625q0 -0.109375 0.0625 -0.171875q0.078125 -0.0625 0.25 -0.0625l0.5 0l0 -5.828125l-0.609375 0q-0.15625 0 -0.234375 -0.0625q-0.0625 -0.0625 -0.0625 -0.171875q0 -0.09375 0.0625 -0.15625q0.078125 -0.0625 0.234375 -0.0625l1.0625 0zm7.163574 2.078125l2.453125 0q0.15625 0 0.21875 0.078125q0.078125 0.0625 0.078125 0.15625q0 0.09375 -0.078125 0.171875q-0.0625 0.0625 -0.21875 0.0625l-2.453125 0l0 3.0q0 0.390625 0.3125 0.65625q0.3125 0.25 0.921875 0.25q0.453125 0 0.984375 -0.125q0.53125 -0.140625 0.828125 -0.3125q0.109375 -0.078125 0.1875 -0.078125q0.078125 0 0.140625 0.078125q0.0625 0.0625 0.0625 0.15625q0 0.078125 -0.0625 0.15625q-0.171875 0.171875 -0.84375 0.375q-0.65625 0.203125 -1.265625 0.203125q-0.78125 0 -1.25 -0.359375q-0.46875 -0.375 -0.46875 -1.0l0 -3.0l-0.84375 0q-0.15625 0 -0.234375 -0.0625q-0.0625 -0.078125 -0.0625 -0.171875q0 -0.09375 0.0625 -0.15625q0.078125 -0.078125 0.234375 -0.078125l0.84375 0l0 -1.328125q0 -0.15625 0.0625 -0.21875q0.0625 -0.078125 0.15625 -0.078125q0.109375 0 0.171875 0.078125q0.0625 0.0625 0.0625 0.21875l0 1.328125zm6.601074 0l2.453125 0q0.15625 0 0.21875 0.078125q0.078125 0.0625 0.078125 0.15625q0 0.09375 -0.078125 0.171875q-0.0625 0.0625 -0.21875 0.0625l-2.453125 0l0 3.0q0 0.390625 0.3125 0.65625q0.3125 0.25 0.921875 0.25q0.453125 0 0.984375 -0.125q0.53125 -0.140625 0.828125 -0.3125q0.109375 -0.078125 0.1875 -0.078125q0.078125 0 0.140625 0.078125q0.0625 0.0625 0.0625 0.15625q0 0.078125 -0.0625 0.15625q-0.171875 0.171875 -0.84375 0.375q-0.65625 0.203125 -1.265625 0.203125q-0.78125 0 -1.25 -0.359375q-0.46875 -0.375 -0.46875 -1.0l0 -3.0l-0.84375 0q-0.15625 0 -0.234375 -0.0625q-0.0625 -0.078125 -0.0625 -0.171875q0 -0.09375 0.0625 -0.15625q0.078125 -0.078125 0.234375 -0.078125l0.84375 0l0 -1.328125q0 -0.15625 0.0625 -0.21875q0.0625 -0.078125 0.15625 -0.078125q0.109375 0 0.171875 0.078125q0.0625 0.0625 0.0625 0.21875l0 1.328125zm5.819824 0l0 0.828125q0.40625 -0.484375 0.859375 -0.734375q0.46875 -0.25 1.109375 -0.25q0.65625 0 1.21875 0.3125q0.5625 0.3125 0.875 0.875q0.3125 0.546875 0.3125 1.15625q0 0.96875 -0.703125 1.671875q-0.6875 0.6875 -1.703125 0.6875q-1.203125 0 -1.96875 -0.984375l0 2.71875l1.109375 0q0.15625 0 0.21875 0.0625q0.078125 0.0625 0.078125 0.15625q0 0.09375 -0.078125 0.15625q-0.0625 0.078125 -0.21875 0.078125l-2.15625 0q-0.171875 0 -0.25 -0.0625q-0.0625 -0.0625 -0.0625 -0.171875q0 -0.09375 0.0625 -0.15625q0.078125 -0.0625 0.25 -0.0625l0.609375 0l0 -5.8125l-0.609375 0q-0.171875 0 -0.25 -0.0625q-0.0625 -0.078125 -0.0625 -0.171875q0 -0.09375 0.0625 -0.15625q0.078125 -0.078125 0.25 -0.078125l1.046875 0zm3.921875 2.1875q0 -0.78125 -0.578125 -1.328125q-0.5625 -0.5625 -1.375 -0.5625q-0.828125 0 -1.40625 0.5625q-0.5625 0.5625 -0.5625 1.328125q0 0.78125 0.5625 1.34375q0.578125 0.5625 1.40625 0.5625q0.8125 0 1.375 -0.5625q0.578125 -0.5625 0.578125 -1.34375zm5.882324 -1.890625q0 -0.15625 0.0625 -0.21875q0.0625 -0.078125 0.15625 -0.078125q0.109375 0 0.171875 0.078125q0.0625 0.0625 0.0625 0.234375l0 0.765625q0 0.171875 -0.0625 0.25q-0.0625 0.0625 -0.171875 0.0625q-0.09375 0 -0.15625 -0.0625q-0.0625 -0.0625 -0.0625 -0.203125q-0.03125 -0.3125 -0.34375 -0.53125q-0.4375 -0.296875 -1.15625 -0.296875q-0.765625 0 -1.1875 0.3125q-0.3125 0.234375 -0.3125 0.515625q0 0.3125 0.375 0.53125q0.265625 0.15625 0.984375 0.234375q0.9375 0.09375 1.296875 0.234375q0.53125 0.1875 0.78125 0.515625q0.25 0.328125 0.25 0.71875q0 0.578125 -0.546875 1.03125q-0.546875 0.4375 -1.625 0.4375q-1.0625 0 -1.75 -0.53125q0 0.171875 -0.03125 0.234375q-0.015625 0.046875 -0.078125 0.09375q-0.046875 0.03125 -0.109375 0.03125q-0.109375 0 -0.171875 -0.0625q-0.0625 -0.078125 -0.0625 -0.234375l0 -0.9375q0 -0.15625 0.0625 -0.21875q0.0625 -0.078125 0.171875 -0.078125q0.09375 0 0.15625 0.078125q0.0625 0.0625 0.0625 0.171875q0 0.25 0.125 0.40625q0.1875 0.265625 0.59375 0.4375q0.421875 0.15625 1.015625 0.15625q0.875 0 1.296875 -0.3125q0.4375 -0.328125 0.4375 -0.703125q0 -0.421875 -0.421875 -0.671875q-0.453125 -0.25 -1.296875 -0.328125q-0.828125 -0.09375 -1.203125 -0.234375q-0.359375 -0.140625 -0.5625 -0.421875q-0.203125 -0.28125 -0.203125 -0.59375q0 -0.578125 0.5625 -0.921875q0.578125 -0.34375 1.359375 -0.34375q0.9375 0 1.53125 0.453125zm5.007324 -0.296875l0.203125 0q0.296875 0 0.5 0.21875q0.21875 0.21875 0.21875 0.515625q0 0.3125 -0.21875 0.53125q-0.203125 0.203125 -0.5 0.203125l-0.203125 0q-0.296875 0 -0.515625 -0.21875q-0.21875 -0.21875 -0.21875 -0.515625q0 -0.3125 0.21875 -0.515625q0.21875 -0.21875 0.515625 -0.21875zm0 3.359375l0.203125 0q0.296875 0 0.5 0.21875q0.21875 0.203125 0.21875 0.515625q0 0.296875 -0.21875 0.515625q-0.203125 0.203125 -0.5 0.203125l-0.203125 0q-0.296875 0 -0.515625 -0.203125q-0.21875 -0.21875 -0.21875 -0.515625q0 -0.3125 0.21875 -0.515625q0.21875 -0.21875 0.515625 -0.21875zm8.726074 -5.765625l-3.625 7.765625q-0.09375 0.203125 -0.234375 0.203125q-0.09375 0 -0.171875 -0.0625q-0.0625 -0.0625 -0.0625 -0.15625q0 -0.0625 0.0625 -0.171875l3.625 -7.78125q0.046875 -0.125 0.09375 -0.15625q0.0625 -0.03125 0.140625 -0.03125q0.09375 0 0.15625 0.0625q0.0625 0.0625 0.0625 0.140625q0 0.0625 -0.046875 0.1875zm6.601078 0l-3.6250038 7.765625q-0.09375 0.203125 -0.234375 0.203125q-0.09375 0 -0.171875 -0.0625q-0.0625 -0.0625 -0.0625 -0.15625q0 -0.0625 0.0625 -0.171875l3.6250038 -7.78125q0.046875 -0.125 0.09375 -0.15625q0.0625 -0.03125 0.140625 -0.03125q0.09375 0 0.15625 0.0625q0.0625 0.0625 0.0625 0.140625q0 0.0625 -0.046875 0.1875zm6.788574 0.328125l0 6.28125l0.59375 0q0.171875 0 0.234375 0.0625q0.078125 0.0625 0.078125 0.171875q0 0.09375 -0.078125 0.15625q-0.0625 0.0625 -0.234375 0.0625l-1.0625 0l0 -0.890625q-0.78125 1.0625 -1.984375 1.0625q-0.609375 0 -1.171875 -0.3125q-0.5625 -0.328125 -0.890625 -0.921875q-0.328125 -0.609375 -0.328125 -1.25q0 -0.640625 0.328125 -1.234375q0.328125 -0.609375 0.890625 -0.9375q0.5625 -0.328125 1.171875 -0.328125q1.1875 0 1.984375 1.078125l0 -2.546875l-0.59375 0q-0.171875 0 -0.25 -0.0625q-0.0625 -0.0625 -0.0625 -0.171875q0 -0.09375 0.0625 -0.15625q0.078125 -0.0625 0.25 -0.0625l1.0625 0zm-0.46875 4.421875q0 -0.859375 -0.578125 -1.453125q-0.578125 -0.59375 -1.375 -0.59375q-0.8125 0 -1.390625 0.59375q-0.578125 0.59375 -0.578125 1.453125q0 0.84375 0.578125 1.4375q0.578125 0.59375 1.390625 0.59375q0.796875 0 1.375 -0.59375q0.578125 -0.59375 0.578125 -1.4375zm7.382324 0q0 1.03125 -0.75 1.765625q-0.734375 0.71875 -1.78125 0.71875q-1.046875 0 -1.78125 -0.734375q-0.734375 -0.734375 -0.734375 -1.75q0 -1.03125 0.734375 -1.765625q0.734375 -0.734375 1.78125 -0.734375q1.046875 0 1.78125 0.734375q0.75 0.71875 0.75 1.765625zm-0.46875 0q0 -0.84375 -0.609375 -1.4375q-0.59375 -0.609375 -1.453125 -0.609375q-0.859375 0 -1.46875 0.609375q-0.59375 0.59375 -0.59375 1.4375q0 0.828125 0.59375 1.4375q0.609375 0.59375 1.46875 0.59375q0.859375 0 1.453125 -0.59375q0.609375 -0.59375 0.609375 -1.4375zm6.429199 -1.875l0 -0.15625q0 -0.171875 0.0625 -0.234375q0.0625 -0.078125 0.15625 -0.078125q0.109375 0 0.171875 0.078125q0.0625 0.0625 0.0625 0.234375l0 1.015625q0 0.171875 -0.0625 0.25q-0.0625 0.0625 -0.171875 0.0625q-0.09375 0 -0.15625 -0.0625q-0.0625 -0.0625 -0.0625 -0.203125q-0.03125 -0.390625 -0.5 -0.734375q-0.46875 -0.34375 -1.265625 -0.34375q-1.015625 0 -1.53125 0.640625q-0.515625 0.625 -0.515625 1.4375q0 0.875 0.5625 1.4375q0.578125 0.5625 1.5 0.5625q0.515625 0 1.0625 -0.1875q0.546875 -0.1875 0.984375 -0.625q0.125 -0.109375 0.203125 -0.109375q0.09375 0 0.15625 0.0625q0.0625 0.0625 0.0625 0.15625q0 0.234375 -0.546875 0.59375q-0.875 0.5625 -1.953125 0.5625q-1.078125 0 -1.78125 -0.6875q-0.703125 -0.703125 -0.703125 -1.765625q0 -1.09375 0.71875 -1.8125q0.71875 -0.71875 1.796875 -0.71875q1.046875 0 1.75 0.625zm6.210449 -0.171875q0 -0.15625 0.0625 -0.21875q0.0625 -0.078125 0.15625 -0.078125q0.109375 0 0.171875 0.078125q0.0625 0.0625 0.0625 0.234375l0 0.765625q0 0.171875 -0.0625 0.25q-0.0625 0.0625 -0.171875 0.0625q-0.09375 0 -0.15625 -0.0625q-0.0625 -0.0625 -0.0625 -0.203125q-0.03125 -0.3125 -0.34375 -0.53125q-0.4375 -0.296875 -1.15625 -0.296875q-0.765625 0 -1.1875 0.3125q-0.3125 0.234375 -0.3125 0.515625q0 0.3125 0.375 0.53125q0.265625 0.15625 0.984375 0.234375q0.9375 0.09375 1.296875 0.234375q0.53125 0.1875 0.78125 0.515625q0.25 0.328125 0.25 0.71875q0 0.578125 -0.546875 1.03125q-0.546875 0.4375 -1.625 0.4375q-1.0625 0 -1.75 -0.53125q0 0.171875 -0.03125 0.234375q-0.015625 0.046875 -0.078125 0.09375q-0.046875 0.03125 -0.109375 0.03125q-0.109375 0 -0.171875 -0.0625q-0.0625 -0.078125 -0.0625 -0.234375l0 -0.9375q0 -0.15625 0.0625 -0.21875q0.0625 -0.078125 0.171875 -0.078125q0.09375 0 0.15625 0.078125q0.0625 0.0625 0.0625 0.171875q0 0.25 0.125 0.40625q0.1875 0.265625 0.59375 0.4375q0.421875 0.15625 1.015625 0.15625q0.875 0 1.296875 -0.3125q0.4375 -0.328125 0.4375 -0.703125q0 -0.421875 -0.421875 -0.671875q-0.453125 -0.25 -1.296875 -0.328125q-0.828125 -0.09375 -1.203125 -0.234375q-0.359375 -0.140625 -0.5625 -0.421875q-0.203125 -0.28125 -0.203125 -0.59375q0 -0.578125 0.5625 -0.921875q0.578125 -0.34375 1.359375 -0.34375q0.9375 0 1.53125 0.453125zm5.007324 3.0625l0.203125 0q0.296875 0 0.5 0.21875q0.21875 0.203125 0.21875 0.515625q0 0.296875 -0.21875 0.515625q-0.203125 0.203125 -0.5 0.203125l-0.203125 0q-0.296875 0 -0.515625 -0.203125q-0.21875 -0.21875 -0.21875 -0.515625q0 -0.3125 0.21875 -0.515625q0.21875 -0.21875 0.515625 -0.21875zm8.210449 -2.53125l0 -0.828125l1.0625 0q0.15625 0 0.21875 0.078125q0.078125 0.0625 0.078125 0.15625q0 0.09375 -0.078125 0.171875q-0.0625 0.0625 -0.21875 0.0625l-0.609375 0l0 4.5q0 0.453125 -0.1875 0.8125q-0.125 0.234375 -0.4375 0.484375q-0.296875 0.25 -0.546875 0.359375q-0.25 0.109375 -0.65625 0.109375l-1.28125 0q-0.15625 0 -0.234375 -0.0625q-0.0625 -0.0625 -0.0625 -0.171875q0 -0.09375 0.0625 -0.171875q0.078125 -0.0625 0.234375 -0.0625l1.296875 0.015625q0.390625 0 0.703125 -0.203125q0.328125 -0.203125 0.546875 -0.59375q0.109375 -0.234375 0.109375 -0.578125l0 -1.359375q-0.71875 1.0 -1.859375 1.0q-0.9375 0 -1.609375 -0.6875q-0.671875 -0.703125 -0.671875 -1.671875q0 -0.96875 0.671875 -1.65625q0.671875 -0.6875 1.609375 -0.6875q1.140625 0 1.859375 0.984375zm0 1.359375q0 -0.796875 -0.546875 -1.34375q-0.53125 -0.546875 -1.296875 -0.546875q-0.75 0 -1.296875 0.5625q-0.546875 0.546875 -0.546875 1.328125q0 0.796875 0.546875 1.359375q0.546875 0.546875 1.296875 0.546875q0.765625 0 1.296875 -0.546875q0.546875 -0.5625 0.546875 -1.359375zm7.616699 0.15625q0 1.03125 -0.75 1.765625q-0.734375 0.71875 -1.78125 0.71875q-1.046875 0 -1.78125 -0.734375q-0.734375 -0.734375 -0.734375 -1.75q0 -1.03125 0.734375 -1.765625q0.734375 -0.734375 1.78125 -0.734375q1.046875 0 1.78125 0.734375q0.75 0.71875 0.75 1.765625zm-0.46875 0q0 -0.84375 -0.609375 -1.4375q-0.59375 -0.609375 -1.453125 -0.609375q-0.859375 0 -1.46875 0.609375q-0.59375 0.59375 -0.59375 1.4375q0 0.828125 0.59375 1.4375q0.609375 0.59375 1.46875 0.59375q0.859375 0 1.453125 -0.59375q0.609375 -0.59375 0.609375 -1.4375zm7.069824 0q0 1.03125 -0.75 1.765625q-0.734375 0.71875 -1.78125 0.71875q-1.046875 0 -1.78125 -0.734375q-0.734375 -0.734375 -0.734375 -1.75q0 -1.03125 0.734375 -1.765625q0.734375 -0.734375 1.78125 -0.734375q1.046875 0 1.78125 0.734375q0.75 0.71875 0.75 1.765625zm-0.46875 0q0 -0.84375 -0.609375 -1.4375q-0.59375 -0.609375 -1.453125 -0.609375q-0.859375 0 -1.46875 0.609375q-0.59375 0.59375 -0.59375 1.4375q0 0.828125 0.59375 1.4375q0.609375 0.59375 1.46875 0.59375q0.859375 0 1.453125 -0.59375q0.609375 -0.59375 0.609375 -1.4375zm6.054199 -1.515625l0 -0.828125l1.0625 0q0.15625 0 0.21875 0.078125q0.078125 0.0625 0.078125 0.15625q0 0.09375 -0.078125 0.171875q-0.0625 0.0625 -0.21875 0.0625l-0.609375 0l0 4.5q0 0.453125 -0.1875 0.8125q-0.125 0.234375 -0.4375 0.484375q-0.296875 0.25 -0.546875 0.359375q-0.25 0.109375 -0.65625 0.109375l-1.28125 0q-0.15625 0 -0.234375 -0.0625q-0.0625 -0.0625 -0.0625 -0.171875q0 -0.09375 0.0625 -0.171875q0.078125 -0.0625 0.234375 -0.0625l1.296875 0.015625q0.390625 0 0.703125 -0.203125q0.328125 -0.203125 0.546875 -0.59375q0.109375 -0.234375 0.109375 -0.578125l0 -1.359375q-0.71875 1.0 -1.859375 1.0q-0.9375 0 -1.609375 -0.6875q-0.671875 -0.703125 -0.671875 -1.671875q0 -0.96875 0.671875 -1.65625q0.671875 -0.6875 1.609375 -0.6875q1.140625 0 1.859375 0.984375zm0 1.359375q0 -0.796875 -0.546875 -1.34375q-0.53125 -0.546875 -1.296875 -0.546875q-0.75 0 -1.296875 0.5625q-0.546875 0.546875 -0.546875 1.328125q0 0.796875 0.546875 1.359375q0.546875 0.546875 1.296875 0.546875q0.765625 0 1.296875 -0.546875q0.546875 -0.5625 0.546875 -1.359375zm5.319824 -4.265625l0 6.28125l1.765625 0q0.171875 0 0.234375 0.0625q0.078125 0.0625 0.078125 0.171875q0 0.09375 -0.078125 0.15625q-0.0625 0.0625 -0.234375 0.0625l-3.984375 0q-0.171875 0 -0.25 -0.0625q-0.0625 -0.0625 -0.0625 -0.15625q0 -0.109375 0.0625 -0.171875q0.078125 -0.0625 0.25 -0.0625l1.765625 0l0 -5.828125l-1.296875 0q-0.171875 0 -0.25 -0.0625q-0.0625 -0.0625 -0.0625 -0.171875q0 -0.09375 0.0625 -0.15625q0.078125 -0.0625 0.25 -0.0625l1.75 0zm8.804199 4.515625l-4.59375 0q0.125 0.875 0.734375 1.40625q0.625 0.53125 1.53125 0.53125q0.5 0 1.046875 -0.15625q0.5625 -0.171875 0.90625 -0.4375q0.109375 -0.09375 0.171875 -0.09375q0.09375 0 0.15625 0.078125q0.0625 0.0625 0.0625 0.15625q0 0.09375 -0.078125 0.171875q-0.265625 0.265625 -0.921875 0.5q-0.65625 0.234375 -1.34375 0.234375q-1.171875 0 -1.953125 -0.75q-0.765625 -0.765625 -0.765625 -1.84375q0 -0.984375 0.71875 -1.6875q0.734375 -0.703125 1.8125 -0.703125q1.109375 0 1.8125 0.71875q0.71875 0.71875 0.703125 1.875zm-0.453125 -0.453125q-0.125 -0.75 -0.703125 -1.21875q-0.578125 -0.46875 -1.359375 -0.46875q-0.796875 0 -1.359375 0.46875q-0.5625 0.453125 -0.703125 1.21875l4.125 0zm4.522949 1.375l0.203125 0q0.296875 0 0.5 0.21875q0.21875 0.203125 0.21875 0.515625q0 0.296875 -0.21875 0.515625q-0.203125 0.203125 -0.5 0.203125l-0.203125 0q-0.296875 0 -0.515625 -0.203125q-0.21875 -0.21875 -0.21875 -0.515625q0 -0.3125 0.21875 -0.515625q0.21875 -0.21875 0.515625 -0.21875zm8.585449 -2.890625l0 -0.15625q0 -0.171875 0.0625 -0.234375q0.0625 -0.078125 0.15625 -0.078125q0.109375 0 0.171875 0.078125q0.0625 0.0625 0.0625 0.234375l0 1.015625q0 0.171875 -0.0625 0.25q-0.0625 0.0625 -0.171875 0.0625q-0.09375 0 -0.15625 -0.0625q-0.0625 -0.0625 -0.0625 -0.203125q-0.03125 -0.390625 -0.5 -0.734375q-0.46875 -0.34375 -1.265625 -0.34375q-1.015625 0 -1.53125 0.640625q-0.515625 0.625 -0.515625 1.4375q0 0.875 0.5625 1.4375q0.578125 0.5625 1.5 0.5625q0.515625 0 1.0625 -0.1875q0.546875 -0.1875 0.984375 -0.625q0.125 -0.109375 0.203125 -0.109375q0.09375 0 0.15625 0.0625q0.0625 0.0625 0.0625 0.15625q0 0.234375 -0.546875 0.59375q-0.875 0.5625 -1.953125 0.5625q-1.078125 0 -1.78125 -0.6875q-0.703125 -0.703125 -0.703125 -1.765625q0 -1.09375 0.71875 -1.8125q0.71875 -0.71875 1.796875 -0.71875q1.046875 0 1.75 0.625zm7.241699 1.875q0 1.03125 -0.75 1.765625q-0.734375 0.71875 -1.78125 0.71875q-1.046875 0 -1.78125 -0.734375q-0.734375 -0.734375 -0.734375 -1.75q0 -1.03125 0.734375 -1.765625q0.734375 -0.734375 1.78125 -0.734375q1.046875 0 1.78125 0.734375q0.75 0.71875 0.75 1.765625zm-0.46875 0q0 -0.84375 -0.609375 -1.4375q-0.59375 -0.609375 -1.453125 -0.609375q-0.859375 0 -1.46875 0.609375q-0.59375 0.59375 -0.59375 1.4375q0 0.828125 0.59375 1.4375q0.609375 0.59375 1.46875 0.59375q0.859375 0 1.453125 -0.59375q0.609375 -0.59375 0.609375 -1.4375zm2.4916992 -2.34375l0 0.46875q0.578125 -0.625 1.15625 -0.625q0.34375 0 0.609375 0.1875q0.265625 0.1875 0.4375 0.5625q0.296875 -0.375 0.609375 -0.5625q0.3125 -0.1875 0.625 -0.1875q0.484375 0 0.78125 0.3125q0.375 0.40625 0.375 0.890625l0 3.15625l0.375 0q0.171875 0 0.234375 0.0625q0.078125 0.0625 0.078125 0.171875q0 0.09375 -0.078125 0.15625q-0.0625 0.0625 -0.234375 0.0625l-0.828125 0l0 -3.5625q0 -0.34375 -0.21875 -0.5625q-0.203125 -0.234375 -0.46875 -0.234375q-0.25 0 -0.53125 0.1875q-0.265625 0.1875 -0.609375 0.734375l0 2.984375l0.375 0q0.15625 0 0.21875 0.0625q0.078125 0.0625 0.078125 0.171875q0 0.09375 -0.078125 0.15625q-0.0625 0.0625 -0.21875 0.0625l-0.84375 0l0 -3.53125q0 -0.359375 -0.21875 -0.59375q-0.203125 -0.234375 -0.46875 -0.234375q-0.234375 0 -0.46875 0.15625q-0.328125 0.21875 -0.6875 0.765625l0 2.984375l0.375 0q0.15625 0 0.21875 0.0625q0.078125 0.0625 0.078125 0.171875q0 0.09375 -0.078125 0.15625q-0.0625 0.0625 -0.21875 0.0625l-1.21875 0q-0.15625 0 -0.234375 -0.0625q-0.0625 -0.0625 -0.0625 -0.15625q0 -0.109375 0.0625 -0.171875q0.078125 -0.0625 0.234375 -0.0625l0.390625 0l0 -3.734375l-0.390625 0q-0.15625 0 -0.234375 -0.0625q-0.0625 -0.078125 -0.0625 -0.171875q0 -0.09375 0.0625 -0.15625q0.078125 -0.078125 0.234375 -0.078125l0.84375 0zm10.679199 -2.40625l-3.625 7.765625q-0.09375 0.203125 -0.234375 0.203125q-0.09375 0 -0.171875 -0.0625q-0.0625 -0.0625 -0.0625 -0.15625q0 -0.0625 0.0625 -0.171875l3.625 -7.78125q0.046875 -0.125 0.09375 -0.15625q0.0625 -0.03125 0.140625 -0.03125q0.09375 0 0.15625 0.0625q0.0625 0.0625 0.0625 0.140625q0 0.0625 -0.046875 0.1875zm6.788574 0.328125l0 6.28125l0.59375 0q0.171875 0 0.234375 0.0625q0.078125 0.0625 0.078125 0.171875q0 0.09375 -0.078125 0.15625q-0.0625 0.0625 -0.234375 0.0625l-1.0625 0l0 -0.890625q-0.78125 1.0625 -1.984375 1.0625q-0.609375 0 -1.171875 -0.3125q-0.5625 -0.328125 -0.890625 -0.921875q-0.328125 -0.609375 -0.328125 -1.25q0 -0.640625 0.328125 -1.234375q0.328125 -0.609375 0.890625 -0.9375q0.5625 -0.328125 1.171875 -0.328125q1.1875 0 1.984375 1.078125l0 -2.546875l-0.59375 0q-0.171875 0 -0.25 -0.0625q-0.0625 -0.0625 -0.0625 -0.171875q0 -0.09375 0.0625 -0.15625q0.078125 -0.0625 0.25 -0.0625l1.0625 0zm-0.46875 4.421875q0 -0.859375 -0.578125 -1.453125q-0.578125 -0.59375 -1.375 -0.59375q-0.8125 0 -1.390625 0.59375q-0.578125 0.59375 -0.578125 1.453125q0 0.84375 0.578125 1.4375q0.578125 0.59375 1.390625 0.59375q0.796875 0 1.375 -0.59375q0.578125 -0.59375 0.578125 -1.4375zm4.319824 -2.34375l0 1.140625q0.875 -0.796875 1.3125 -1.015625q0.4375 -0.234375 0.8125 -0.234375q0.40625 0 0.75 0.28125q0.34375 0.265625 0.34375 0.40625q0 0.09375 -0.078125 0.171875q-0.0625 0.0625 -0.15625 0.0625q-0.0625 0 -0.09375 -0.015625q-0.03125 -0.03125 -0.140625 -0.125q-0.1875 -0.1875 -0.328125 -0.25q-0.140625 -0.078125 -0.265625 -0.078125q-0.296875 0 -0.71875 0.234375q-0.421875 0.234375 -1.4375 1.15625l0 2.46875l2.0 0q0.15625 0 0.21875 0.0625q0.078125 0.0625 0.078125 0.171875q0 0.09375 -0.078125 0.15625q-0.0625 0.0625 -0.21875 0.0625l-3.546875 0q-0.15625 0 -0.234375 -0.0625q-0.0625 -0.0625 -0.0625 -0.15625q0 -0.09375 0.0625 -0.15625q0.0625 -0.0625 0.234375 -0.0625l1.09375 0l0 -3.75l-0.828125 0q-0.171875 0 -0.25 -0.0625q-0.0625 -0.078125 -0.0625 -0.171875q0 -0.09375 0.0625 -0.15625q0.078125 -0.078125 0.25 -0.078125l1.28125 0zm8.429199 4.65625l0 -0.65625q-0.984375 0.828125 -2.09375 0.828125q-0.8125 0 -1.265625 -0.40625q-0.453125 -0.40625 -0.453125 -1.0q0 -0.65625 0.59375 -1.140625q0.609375 -0.5 1.75 -0.5q0.3125 0 0.671875 0.046875q0.375 0.03125 0.796875 0.125l0 -0.734375q0 -0.375 -0.34375 -0.640625q-0.34375 -0.28125 -1.03125 -0.28125q-0.515625 0 -1.46875 0.3125q-0.171875 0.046875 -0.21875 0.046875q-0.09375 0 -0.15625 -0.0625q-0.0625 -0.0625 -0.0625 -0.15625q0 -0.09375 0.0625 -0.140625q0.0625 -0.09375 0.609375 -0.234375q0.828125 -0.21875 1.265625 -0.21875q0.84375 0 1.3125 0.421875q0.484375 0.421875 0.484375 0.953125l0 2.984375l0.609375 0q0.171875 0 0.234375 0.0625q0.078125 0.0625 0.078125 0.171875q0 0.09375 -0.078125 0.15625q-0.0625 0.0625 -0.234375 0.0625l-1.0625 0zm0 -2.25q-0.3125 -0.09375 -0.671875 -0.125q-0.34375 -0.046875 -0.734375 -0.046875q-0.984375 0 -1.546875 0.421875q-0.421875 0.3125 -0.421875 0.765625q0 0.40625 0.3125 0.6875q0.328125 0.265625 0.9375 0.265625q0.59375 0 1.09375 -0.21875q0.5 -0.234375 1.03125 -0.75l0 -1.0zm6.866699 2.25l-0.5625 0l-1.0 -2.890625l-0.984375 2.890625l-0.5625 0l-0.921875 -4.1875l-0.21875 0q-0.171875 0 -0.25 -0.0625q-0.0625 -0.078125 -0.0625 -0.171875q0 -0.09375 0.0625 -0.15625q0.078125 -0.078125 0.25 -0.078125l1.234375 0q0.15625 0 0.21875 0.078125q0.078125 0.0625 0.078125 0.15625q0 0.09375 -0.078125 0.171875q-0.0625 0.0625 -0.21875 0.0625l-0.578125 0l0.796875 3.5625l0.96875 -2.84375l0.53125 0l1.0 2.84375l0.765625 -3.5625l-0.578125 0q-0.15625 0 -0.234375 -0.0625q-0.0625 -0.078125 -0.0625 -0.171875q0 -0.09375 0.0625 -0.15625q0.078125 -0.078125 0.234375 -0.078125l1.234375 0q0.171875 0 0.234375 0.078125q0.078125 0.0625 0.078125 0.15625q0 0.09375 -0.078125 0.171875q-0.0625 0.0625 -0.234375 0.0625l-0.203125 0l-0.921875 4.1875zm5.272949 -6.96875l0 1.171875l-0.671875 0l0 -1.171875l0.671875 0zm0.015625 2.3125l0 4.203125l1.765625 0q0.171875 0 0.234375 0.0625q0.078125 0.0625 0.078125 0.171875q0 0.09375 -0.078125 0.15625q-0.0625 0.0625 -0.234375 0.0625l-4.0 0q-0.15625 0 -0.234375 -0.0625q-0.0625 -0.0625 -0.0625 -0.15625q0 -0.109375 0.0625 -0.171875q0.078125 -0.0625 0.234375 -0.0625l1.78125 0l0 -3.734375l-1.328125 0q-0.15625 0 -0.234375 -0.0625q-0.0625 -0.078125 -0.0625 -0.171875q0 -0.09375 0.0625 -0.15625q0.078125 -0.078125 0.234375 -0.078125l1.78125 0zm4.897949 0l0 0.6875q0.46875 -0.484375 0.84375 -0.65625q0.390625 -0.1875 0.875 -0.1875q0.515625 0 0.9375 0.21875q0.296875 0.15625 0.53125 0.53125q0.25 0.375 0.25 0.765625l0 2.84375l0.390625 0q0.15625 0 0.21875 0.0625q0.078125 0.0625 0.078125 0.171875q0 0.09375 -0.078125 0.15625q-0.0625 0.0625 -0.21875 0.0625l-1.21875 0q-0.15625 0 -0.234375 -0.0625q-0.0625 -0.0625 -0.0625 -0.15625q0 -0.109375 0.0625 -0.171875q0.078125 -0.0625 0.234375 -0.0625l0.375 0l0 -2.765625q0 -0.484375 -0.34375 -0.8125q-0.34375 -0.328125 -0.9375 -0.328125q-0.4375 0 -0.765625 0.1875q-0.328125 0.171875 -0.9375 0.890625l0 2.828125l0.515625 0q0.15625 0 0.21875 0.0625q0.078125 0.0625 0.078125 0.171875q0 0.09375 -0.078125 0.15625q-0.0625 0.0625 -0.21875 0.0625l-1.484375 0q-0.15625 0 -0.234375 -0.0625q-0.0625 -0.0625 -0.0625 -0.15625q0 -0.109375 0.0625 -0.171875q0.078125 -0.0625 0.234375 -0.0625l0.515625 0l0 -3.734375l-0.375 0q-0.171875 0 -0.25 -0.0625q-0.0625 -0.078125 -0.0625 -0.171875q0 -0.09375 0.0625 -0.15625q0.078125 -0.078125 0.25 -0.078125l0.828125 0zm9.569824 0.828125l0 -0.828125l1.0625 0q0.15625 0 0.21875 0.078125q0.078125 0.0625 0.078125 0.15625q0 0.09375 -0.078125 0.171875q-0.0625 0.0625 -0.21875 0.0625l-0.609375 0l0 4.5q0 0.453125 -0.1875 0.8125q-0.125 0.234375 -0.4375 0.484375q-0.296875 0.25 -0.546875 0.359375q-0.25 0.109375 -0.65625 0.109375l-1.28125 0q-0.15625 0 -0.234375 -0.0625q-0.0625 -0.0625 -0.0625 -0.171875q0 -0.09375 0.0625 -0.171875q0.078125 -0.0625 0.234375 -0.0625l1.296875 0.015625q0.390625 0 0.703125 -0.203125q0.328125 -0.203125 0.546875 -0.59375q0.109375 -0.234375 0.109375 -0.578125l0 -1.359375q-0.71875 1.0 -1.859375 1.0q-0.9375 0 -1.609375 -0.6875q-0.671875 -0.703125 -0.671875 -1.671875q0 -0.96875 0.671875 -1.65625q0.671875 -0.6875 1.609375 -0.6875q1.140625 0 1.859375 0.984375zm0 1.359375q0 -0.796875 -0.546875 -1.34375q-0.53125 -0.546875 -1.296875 -0.546875q-0.75 0 -1.296875 0.5625q-0.546875 0.546875 -0.546875 1.328125q0 0.796875 0.546875 1.359375q0.546875 0.546875 1.296875 0.546875q0.765625 0 1.296875 -0.546875q0.546875 -0.5625 0.546875 -1.359375zm6.585449 -1.890625q0 -0.15625 0.0625 -0.21875q0.0625 -0.078125 0.15625 -0.078125q0.109375 0 0.171875 0.078125q0.0625 0.0625 0.0625 0.234375l0 0.765625q0 0.171875 -0.0625 0.25q-0.0625 0.0625 -0.171875 0.0625q-0.09375 0 -0.15625 -0.0625q-0.0625 -0.0625 -0.0625 -0.203125q-0.03125 -0.3125 -0.34375 -0.53125q-0.4375 -0.296875 -1.15625 -0.296875q-0.765625 0 -1.1875 0.3125q-0.3125 0.234375 -0.3125 0.515625q0 0.3125 0.375 0.53125q0.265625 0.15625 0.984375 0.234375q0.9375 0.09375 1.296875 0.234375q0.53125 0.1875 0.78125 0.515625q0.25 0.328125 0.25 0.71875q0 0.578125 -0.546875 1.03125q-0.546875 0.4375 -1.625 0.4375q-1.0625 0 -1.75 -0.53125q0 0.171875 -0.03125 0.234375q-0.015625 0.046875 -0.078125 0.09375q-0.046875 0.03125 -0.109375 0.03125q-0.109375 0 -0.171875 -0.0625q-0.0625 -0.078125 -0.0625 -0.234375l0 -0.9375q0 -0.15625 0.0625 -0.21875q0.0625 -0.078125 0.171875 -0.078125q0.09375 0 0.15625 0.078125q0.0625 0.0625 0.0625 0.171875q0 0.25 0.125 0.40625q0.1875 0.265625 0.59375 0.4375q0.421875 0.15625 1.015625 0.15625q0.875 0 1.296875 -0.3125q0.4375 -0.328125 0.4375 -0.703125q0 -0.421875 -0.421875 -0.671875q-0.453125 -0.25 -1.296875 -0.328125q-0.828125 -0.09375 -1.203125 -0.234375q-0.359375 -0.140625 -0.5625 -0.421875q-0.203125 -0.28125 -0.203125 -0.59375q0 -0.578125 0.5625 -0.921875q0.578125 -0.34375 1.359375 -0.34375q0.9375 0 1.53125 0.453125zm7.132324 -2.703125l-3.625 7.765625q-0.09375 0.203125 -0.234375 0.203125q-0.09375 0 -0.171875 -0.0625q-0.0625 -0.0625 -0.0625 -0.15625q0 -0.0625 0.0625 -0.171875l3.625 -7.78125q0.046875 -0.125 0.09375 -0.15625q0.0625 -0.03125 0.140625 -0.03125q0.09375 0 0.15625 0.0625q0.0625 0.0625 0.0625 0.140625q0 0.0625 -0.046875 0.1875zm6.788574 0.328125l0 6.28125l0.59375 0q0.171875 0 0.234375 0.0625q0.078125 0.0625 0.078125 0.171875q0 0.09375 -0.078125 0.15625q-0.0625 0.0625 -0.234375 0.0625l-1.0625 0l0 -0.890625q-0.78125 1.0625 -1.984375 1.0625q-0.609375 0 -1.171875 -0.3125q-0.5625 -0.328125 -0.890625 -0.921875q-0.328125 -0.609375 -0.328125 -1.25q0 -0.640625 0.328125 -1.234375q0.328125 -0.609375 0.890625 -0.9375q0.5625 -0.328125 1.171875 -0.328125q1.1875 0 1.984375 1.078125l0 -2.546875l-0.59375 0q-0.171875 0 -0.25 -0.0625q-0.0625 -0.0625 -0.0625 -0.171875q0 -0.09375 0.0625 -0.15625q0.078125 -0.0625 0.25 -0.0625l1.0625 0zm-0.46875 4.421875q0 -0.859375 -0.578125 -1.453125q-0.578125 -0.59375 -1.375 -0.59375q-0.8125 0 -1.390625 0.59375q-0.578125 0.59375 -0.578125 1.453125q0 0.84375 0.578125 1.4375q0.578125 0.59375 1.390625 0.59375q0.796875 0 1.375 -0.59375q0.578125 -0.59375 0.578125 -1.4375zm6.882324 -4.75l-3.625 7.765625q-0.09375 0.203125 -0.234375 0.203125q-0.09375 0 -0.171875 -0.0625q-0.0625 -0.0625 -0.0625 -0.15625q0 -0.0625 0.0625 -0.171875l3.625 -7.78125q0.046875 -0.125 0.09375 -0.15625q0.0625 -0.03125 0.140625 -0.03125q0.09375 0 0.15625 0.0625q0.0625 0.0625 0.0625 0.140625q0 0.0625 -0.046875 0.1875z" fill-rule="nonzero"/><path fill="#010000" fill-opacity="0.0" d="m243.97723 -29.277716l290.44727 0l0 12.4609375l-290.44727 0l0 -12.4609375z" fill-rule="nonzero"/><path fill="#866c5b" d="m247.50848 -26.948126l0 6.375l1.546875 0q0.15625 0 0.21875 0.0625q0.078125 0.0625 0.078125 0.171875q0 0.09375 -0.078125 0.15625q-0.0625 0.0625 -0.21875 0.0625l-3.546875 0q-0.171875 0 -0.25 -0.0625q-0.0625 -0.0625 -0.0625 -0.15625q0 -0.109375 0.0625 -0.171875q0.078125 -0.0625 0.25 -0.0625l1.546875 0l0 -5.75l-1.484375 0.453125q-0.09375 0.03125 -0.15625 0.03125q-0.078125 0 -0.140625 -0.0625q-0.0625 -0.0625 -0.0625 -0.15625q0 -0.078125 0.046875 -0.15625q0.046875 -0.046875 0.1875 -0.09375l2.0625 -0.640625zm8.116699 3.0l0 -0.828125l1.0625 0q0.171875 0 0.234375 0.078125q0.0625 0.0625 0.0625 0.15625q0 0.09375 -0.0625 0.171875q-0.0625 0.0625 -0.234375 0.0625l-0.609375 0l0 5.8125l0.609375 0q0.171875 0 0.234375 0.0625q0.0625 0.0625 0.0625 0.15625q0 0.09375 -0.0625 0.15625q-0.0625 0.078125 -0.234375 0.078125l-2.15625 0q-0.15625 0 -0.234375 -0.0625q-0.0625 -0.0625 -0.0625 -0.171875q0 -0.09375 0.0625 -0.15625q0.078125 -0.0625 0.234375 -0.0625l1.09375 0l0 -2.71875q-0.75 0.984375 -1.953125 0.984375q-1.015625 0 -1.71875 -0.6875q-0.6875 -0.703125 -0.6875 -1.671875q0 -0.96875 0.6875 -1.65625q0.703125 -0.6875 1.71875 -0.6875q1.203125 0 1.953125 0.984375zm0 1.359375q0 -0.78125 -0.578125 -1.328125q-0.5625 -0.5625 -1.375 -0.5625q-0.8125 0 -1.390625 0.5625q-0.5625 0.546875 -0.5625 1.328125q0 0.78125 0.5625 1.34375q0.578125 0.5625 1.390625 0.5625q0.8125 0 1.375 -0.5625q0.578125 -0.5625 0.578125 -1.34375zm6.929199 -1.453125l0 1.109375q0 1.453125 -0.703125 2.3125q-0.53125 0.65625 -1.359375 0.65625q-0.40625 0 -0.765625 -0.15625q-0.34375 -0.15625 -0.59375 -0.4375q-0.140625 -0.1875 -0.328125 -0.578125q-0.1875 -0.390625 -0.265625 -0.71875q-0.125 -0.453125 -0.125 -1.078125l0 -1.109375q0 -1.46875 0.6875 -2.3125q0.546875 -0.671875 1.375 -0.671875q0.40625 0 0.75 0.171875q0.34375 0.15625 0.59375 0.4375q0.15625 0.171875 0.34375 0.578125q0.1875 0.390625 0.265625 0.703125q0.125 0.46875 0.125 1.09375zm-0.453125 0.046875q0 -0.625 -0.1875 -1.171875q-0.171875 -0.5625 -0.40625 -0.890625q-0.125 -0.1875 -0.34375 -0.3125q-0.3125 -0.203125 -0.6875 -0.203125q-0.75 0 -1.1875 0.78125q-0.421875 0.765625 -0.421875 1.796875l0 1.0q0 0.640625 0.171875 1.203125q0.1875 0.546875 0.40625 0.875q0.140625 0.171875 0.34375 0.3125q0.3125 0.1875 0.703125 0.1875q0.75 0 1.171875 -0.765625q0.4375 -0.78125 0.4375 -1.8125l0 -1.0zm5.210449 -2.859375l0 6.28125l1.765625 0q0.171875 0 0.234375 0.0625q0.078125 0.0625 0.078125 0.171875q0 0.09375 -0.078125 0.15625q-0.0625 0.0625 -0.234375 0.0625l-3.984375 0q-0.171875 0 -0.25 -0.0625q-0.0625 -0.0625 -0.0625 -0.15625q0 -0.109375 0.0625 -0.171875q0.078125 -0.0625 0.25 -0.0625l1.765625 0l0 -5.828125l-1.296875 0q-0.171875 0 -0.25 -0.0625q-0.0625 -0.0625 -0.0625 -0.171875q0 -0.09375 0.0625 -0.15625q0.078125 -0.0625 0.25 -0.0625l1.75 0zm7.851074 4.640625l-2.953125 0l-0.609375 1.640625l0.859375 0q0.15625 0 0.21875 0.0625q0.078125 0.0625 0.078125 0.171875q0 0.09375 -0.078125 0.15625q-0.0625 0.0625 -0.21875 0.0625l-1.6875 0q-0.15625 0 -0.234375 -0.0625q-0.0625 -0.0625 -0.0625 -0.15625q0 -0.109375 0.0625 -0.171875q0.078125 -0.0625 0.234375 -0.0625l0.34375 0l2.0 -5.375l-1.328125 0q-0.171875 0 -0.25 -0.0625q-0.0625 -0.0625 -0.0625 -0.171875q0 -0.09375 0.0625 -0.15625q0.078125 -0.0625 0.25 -0.0625l2.265625 0l2.203125 5.828125l0.34375 0q0.171875 0 0.234375 0.0625q0.078125 0.0625 0.078125 0.171875q0 0.09375 -0.078125 0.15625q-0.0625 0.0625 -0.234375 0.0625l-1.671875 0q-0.171875 0 -0.25 -0.0625q-0.0625 -0.0625 -0.0625 -0.15625q0 -0.109375 0.0625 -0.171875q0.078125 -0.0625 0.25 -0.0625l0.859375 0l-0.625 -1.640625zm-0.171875 -0.453125l-1.234375 -3.28125l-0.171875 0l-1.203125 3.28125l2.609375 0zm6.851074 2.546875l-0.5625 0l-1.0 -2.890625l-0.984375 2.890625l-0.5625 0l-0.921875 -4.1875l-0.21875 0q-0.171875 0 -0.25 -0.0625q-0.0625 -0.078125 -0.0625 -0.171875q0 -0.09375 0.0625 -0.15625q0.078125 -0.078125 0.25 -0.078125l1.234375 0q0.15625 0 0.21875 0.078125q0.078125 0.0625 0.078125 0.15625q0 0.09375 -0.078125 0.171875q-0.0625 0.0625 -0.21875 0.0625l-0.578125 0l0.796875 3.5625l0.96875 -2.84375l0.53125 0l1.0 2.84375l0.765625 -3.5625l-0.578125 0q-0.15625 0 -0.234375 -0.0625q-0.0625 -0.078125 -0.0625 -0.171875q0 -0.09375 0.0625 -0.15625q0.078125 -0.078125 0.234375 -0.078125l1.234375 0q0.171875 0 0.234375 0.078125q0.078125 0.0625 0.078125 0.15625q0 0.09375 -0.078125 0.171875q-0.0625 0.0625 -0.234375 0.0625l-0.203125 0l-0.921875 4.1875zm5.976074 -3.5q0.5625 0.28125 0.84375 0.734375q0.28125 0.4375 0.28125 0.953125q0 0.796875 -0.609375 1.390625q-0.59375 0.578125 -1.453125 0.578125q-0.859375 0 -1.46875 -0.578125q-0.59375 -0.59375 -0.59375 -1.390625q0 -0.515625 0.28125 -0.953125q0.296875 -0.453125 0.875 -0.734375q-0.5 -0.28125 -0.71875 -0.59375q-0.3125 -0.421875 -0.3125 -0.953125q0 -0.75 0.5625 -1.296875q0.578125 -0.5625 1.375 -0.5625q0.8125 0 1.375 0.5625q0.578125 0.546875 0.578125 1.296875q0 0.53125 -0.3125 0.953125q-0.21875 0.3125 -0.703125 0.59375zm0.5625 -1.53125q0 -0.578125 -0.4375 -1.0q-0.4375 -0.421875 -1.0625 -0.421875q-0.625 0 -1.0625 0.421875q-0.421875 0.421875 -0.421875 1.0q0 0.515625 0.421875 0.921875q0.4375 0.390625 1.0625 0.390625q0.640625 0 1.0625 -0.390625q0.4375 -0.40625 0.4375 -0.921875zm0.125 3.234375q0 -0.59375 -0.46875 -1.03125q-0.46875 -0.453125 -1.15625 -0.453125q-0.6875 0 -1.15625 0.453125q-0.453125 0.4375 -0.453125 1.015625q0 0.625 0.46875 1.078125q0.46875 0.4375 1.140625 0.4375q0.6875 0 1.15625 -0.4375q0.46875 -0.453125 0.46875 -1.0625zm3.2104492 1.34375l0 -5.375l-0.375 0q-0.171875 0 -0.25 -0.0625q-0.0625 -0.0625 -0.0625 -0.171875q0 -0.09375 0.0625 -0.15625q0.078125 -0.0625 0.25 -0.0625l2.421875 0q0.5625 0 1.03125 0.234375q0.484375 0.234375 0.71875 0.53125q0.4375 0.515625 0.65625 1.078125q0.15625 0.421875 0.15625 0.984375l0 0.625q0 0.6875 -0.3125 1.34375q-0.3125 0.640625 -1.015625 1.125q-0.53125 0.359375 -1.234375 0.359375l-2.421875 0q-0.171875 0 -0.25 -0.0625q-0.0625 -0.0625 -0.0625 -0.15625q0 -0.109375 0.0625 -0.171875q0.078125 -0.0625 0.25 -0.0625l0.375 0zm0.453125 0l1.640625 0q0.5625 0 1.0625 -0.359375q0.5 -0.375 0.75 -0.890625q0.25 -0.53125 0.25 -1.03125l0 -0.8125q0 -0.421875 -0.140625 -0.75q-0.1875 -0.484375 -0.546875 -0.90625q-0.1875 -0.234375 -0.5625 -0.421875q-0.375 -0.203125 -0.8125 -0.203125l-1.640625 0l0 5.375zm9.538574 -5.375l0 -0.15625q0 -0.15625 0.046875 -0.21875q0.0625 -0.078125 0.171875 -0.078125q0.109375 0 0.15625 0.078125q0.0625 0.0625 0.0625 0.21875l0 1.15625q0 0.15625 -0.0625 0.234375q-0.046875 0.0625 -0.15625 0.0625q-0.09375 0 -0.15625 -0.0625q-0.0625 -0.0625 -0.0625 -0.21875q-0.03125 -0.453125 -0.46875 -0.8125q-0.4375 -0.359375 -1.15625 -0.359375q-0.734375 0 -1.1875 0.390625q-0.4375 0.390625 -0.4375 0.90625q0 0.265625 0.125 0.484375q0.125 0.21875 0.328125 0.359375q0.203125 0.140625 0.453125 0.21875q0.265625 0.078125 0.8125 0.171875q0.921875 0.15625 1.265625 0.3125q0.46875 0.203125 0.703125 0.578125q0.25 0.375 0.25 0.875q0 0.78125 -0.625 1.328125q-0.609375 0.53125 -1.65625 0.53125q-1.171875 0 -1.890625 -0.734375l0 0.265625q0 0.15625 -0.0625 0.234375q-0.046875 0.0625 -0.15625 0.0625q-0.09375 0 -0.15625 -0.0625q-0.0625 -0.078125 -0.0625 -0.234375l0 -1.25q0 -0.171875 0.0625 -0.234375q0.0625 -0.078125 0.15625 -0.078125q0.09375 0 0.15625 0.078125q0.0625 0.0625 0.0625 0.203125q0.03125 0.5 0.53125 0.90625q0.5 0.390625 1.359375 0.390625q0.84375 0 1.328125 -0.421875q0.5 -0.421875 0.5 -1.0q0 -0.359375 -0.1875 -0.625q-0.1875 -0.28125 -0.5625 -0.4375q-0.25 -0.125 -1.078125 -0.265625q-1.109375 -0.1875 -1.609375 -0.5625q-0.5 -0.390625 -0.5 -1.109375q0 -0.703125 0.5625 -1.203125q0.578125 -0.515625 1.5 -0.515625q0.953125 0 1.640625 0.59375zm5.210449 -1.0l0 6.375l1.546875 0q0.15625 0 0.21875 0.0625q0.078125 0.0625 0.078125 0.171875q0 0.09375 -0.078125 0.15625q-0.0625 0.0625 -0.21875 0.0625l-3.546875 0q-0.171875 0 -0.25 -0.0625q-0.0625 -0.0625 -0.0625 -0.15625q0 -0.109375 0.0625 -0.171875q0.078125 -0.0625 0.25 -0.0625l1.546875 0l0 -5.75l-1.484375 0.453125q-0.09375 0.03125 -0.15625 0.03125q-0.078125 0 -0.140625 -0.0625q-0.0625 -0.0625 -0.0625 -0.15625q0 -0.078125 0.046875 -0.15625q0.046875 -0.046875 0.1875 -0.09375l2.0625 -0.640625zm8.554199 6.828125l-4.34375 0l0 -0.65625l3.671875 -5.140625l0 -0.03125l-3.0 0l0 1.328125q0 0.15625 -0.078125 0.234375q-0.0625 0.0625 -0.15625 0.0625q-0.09375 0 -0.171875 -0.0625q-0.0625 -0.078125 -0.0625 -0.234375l0 -1.78125l3.90625 0l0 0.640625l-3.671875 5.140625l0 0.046875l3.453125 0l0 -1.578125q0 -0.15625 0.0625 -0.21875q0.0625 -0.078125 0.171875 -0.078125q0.09375 0 0.15625 0.078125q0.0625 0.0625 0.0625 0.21875l0 2.03125zm5.351074 -3.671875q0.609375 0.28125 0.9375 0.765625q0.328125 0.484375 0.328125 1.015625q0 0.8125 -0.65625 1.4375q-0.65625 0.609375 -1.640625 0.609375q-0.578125 0 -1.203125 -0.234375q-0.625 -0.25 -0.875 -0.515625q-0.078125 -0.078125 -0.078125 -0.1875q0 -0.078125 0.0625 -0.140625q0.0625 -0.0625 0.140625 -0.0625q0.09375 0 0.203125 0.078125q0.828125 0.609375 1.765625 0.609375q0.78125 0 1.296875 -0.484375q0.53125 -0.484375 0.53125 -1.09375q0 -0.40625 -0.265625 -0.78125q-0.25 -0.390625 -0.734375 -0.609375q-0.484375 -0.234375 -0.984375 -0.234375q-0.171875 0 -0.25 -0.0625q-0.0625 -0.0625 -0.0625 -0.15625q0 -0.09375 0.0625 -0.15625q0.078125 -0.078125 0.21875 -0.078125l0.375 0.015625q0.609375 0 1.0 -0.375q0.40625 -0.375 0.40625 -0.859375q0 -0.5 -0.421875 -0.890625q-0.40625 -0.390625 -1.078125 -0.390625q-0.46875 0 -0.859375 0.171875q-0.390625 0.15625 -0.625 0.4375q-0.09375 0.109375 -0.140625 0.140625q-0.03125 0.015625 -0.09375 0.015625q-0.09375 0 -0.15625 -0.0625q-0.0625 -0.0625 -0.0625 -0.15625q0 -0.21875 0.46875 -0.546875q0.640625 -0.453125 1.46875 -0.453125q0.859375 0 1.40625 0.515625q0.546875 0.515625 0.546875 1.21875q0 0.453125 -0.265625 0.859375q-0.265625 0.40625 -0.765625 0.640625zm7.882324 3.671875l-0.578125 0l-3.328125 -5.625l0 5.171875l0.828125 0q0.171875 0 0.234375 0.0625q0.078125 0.0625 0.078125 0.171875q0 0.09375 -0.078125 0.15625q-0.0625 0.0625 -0.234375 0.0625l-1.65625 0q-0.171875 0 -0.25 -0.0625q-0.0625 -0.0625 -0.0625 -0.15625q0 -0.109375 0.0625 -0.171875q0.078125 -0.0625 0.25 -0.0625l0.375 0l0 -5.375l-0.609375 0q-0.15625 0 -0.234375 -0.0625q-0.0625 -0.0625 -0.0625 -0.171875q0 -0.09375 0.0625 -0.15625q0.078125 -0.0625 0.234375 -0.0625l1.1875 0l3.328125 5.625l0 -5.171875l-0.828125 0q-0.171875 0 -0.25 -0.0625q-0.0625 -0.0625 -0.0625 -0.171875q0 -0.09375 0.0625 -0.15625q0.078125 -0.0625 0.25 -0.0625l1.65625 0q0.15625 0 0.21875 0.0625q0.078125 0.0625 0.078125 0.15625q0 0.109375 -0.078125 0.171875q-0.0625 0.0625 -0.21875 0.0625l-0.375 0l0 5.828125zm4.663574 -3.21875l2.140625 2.765625l0.171875 0q0.15625 0 0.21875 0.0625q0.078125 0.0625 0.078125 0.171875q0 0.09375 -0.078125 0.15625q-0.0625 0.0625 -0.21875 0.0625l-1.453125 0q-0.15625 0 -0.234375 -0.0625q-0.0625 -0.0625 -0.0625 -0.15625q0 -0.109375 0.0625 -0.171875q0.078125 -0.0625 0.234375 -0.0625l0.71875 0l-1.859375 -2.390625l-1.84375 2.390625l0.71875 0q0.15625 0 0.21875 0.0625q0.078125 0.0625 0.078125 0.171875q0 0.09375 -0.078125 0.15625q-0.0625 0.0625 -0.21875 0.0625l-1.4375 0q-0.171875 0 -0.234375 -0.0625q-0.0625 -0.0625 -0.0625 -0.15625q0 -0.078125 0.03125 -0.140625q0.046875 -0.0625 0.09375 -0.078125q0.0625 -0.015625 0.328125 -0.015625l2.125 -2.765625l-2.015625 -2.609375l-0.171875 0q-0.15625 0 -0.234375 -0.0625q-0.0625 -0.0625 -0.0625 -0.171875q0 -0.09375 0.0625 -0.15625q0.078125 -0.0625 0.234375 -0.0625l1.234375 0q0.15625 0 0.21875 0.0625q0.078125 0.0625 0.078125 0.15625q0 0.109375 -0.078125 0.171875q-0.0625 0.0625 -0.21875 0.0625l-0.515625 0l1.75 2.25l1.71875 -2.25l-0.5 0q-0.171875 0 -0.234375 -0.0625q-0.0625 -0.0625 -0.0625 -0.171875q0 -0.09375 0.0625 -0.15625q0.0625 -0.0625 0.234375 -0.0625l1.234375 0q0.15625 0 0.21875 0.0625q0.078125 0.0625 0.078125 0.15625q0 0.109375 -0.078125 0.171875q-0.0625 0.0625 -0.21875 0.0625l-0.171875 0l-2.0 2.609375zm8.538574 -3.515625l0 6.28125l0.59375 0q0.171875 0 0.234375 0.0625q0.078125 0.0625 0.078125 0.171875q0 0.09375 -0.078125 0.15625q-0.0625 0.0625 -0.234375 0.0625l-1.0625 0l0 -0.890625q-0.78125 1.0625 -1.984375 1.0625q-0.609375 0 -1.171875 -0.3125q-0.5625 -0.328125 -0.890625 -0.921875q-0.328125 -0.609375 -0.328125 -1.25q0 -0.640625 0.328125 -1.234375q0.328125 -0.609375 0.890625 -0.9375q0.5625 -0.328125 1.171875 -0.328125q1.1875 0 1.984375 1.078125l0 -2.546875l-0.59375 0q-0.171875 0 -0.25 -0.0625q-0.0625 -0.0625 -0.0625 -0.171875q0 -0.09375 0.0625 -0.15625q0.078125 -0.0625 0.25 -0.0625l1.0625 0zm-0.46875 4.421875q0 -0.859375 -0.578125 -1.453125q-0.578125 -0.59375 -1.375 -0.59375q-0.8125 0 -1.390625 0.59375q-0.578125 0.59375 -0.578125 1.453125q0 0.84375 0.578125 1.4375q0.578125 0.59375 1.390625 0.59375q0.796875 0 1.375 -0.59375q0.578125 -0.59375 0.578125 -1.4375zm6.601074 -1.515625l0 -0.828125l1.0625 0q0.171875 0 0.234375 0.078125q0.0625 0.0625 0.0625 0.15625q0 0.09375 -0.0625 0.171875q-0.0625 0.0625 -0.234375 0.0625l-0.609375 0l0 5.8125l0.609375 0q0.171875 0 0.234375 0.0625q0.0625 0.0625 0.0625 0.15625q0 0.09375 -0.0625 0.15625q-0.0625 0.078125 -0.234375 0.078125l-2.15625 0q-0.15625 0 -0.234375 -0.0625q-0.0625 -0.0625 -0.0625 -0.171875q0 -0.09375 0.0625 -0.15625q0.078125 -0.0625 0.234375 -0.0625l1.09375 0l0 -2.71875q-0.75 0.984375 -1.953125 0.984375q-1.015625 0 -1.71875 -0.6875q-0.6875 -0.703125 -0.6875 -1.671875q0 -0.96875 0.6875 -1.65625q0.703125 -0.6875 1.71875 -0.6875q1.203125 0 1.953125 0.984375zm0 1.359375q0 -0.78125 -0.578125 -1.328125q-0.5625 -0.5625 -1.375 -0.5625q-0.8125 0 -1.390625 0.5625q-0.5625 0.546875 -0.5625 1.328125q0 0.78125 0.5625 1.34375q0.578125 0.5625 1.390625 0.5625q0.8125 0 1.375 -0.5625q0.578125 -0.5625 0.578125 -1.34375zm5.147949 0.578125l-0.515625 0l-1.734375 -3.9375l-0.078125 0l0 5.375l0.828125 0q0.15625 0 0.21875 0.0625q0.078125 0.0625 0.078125 0.171875q0 0.09375 -0.078125 0.15625q-0.0625 0.0625 -0.21875 0.0625l-1.65625 0q-0.171875 0 -0.25 -0.0625q-0.0625 -0.0625 -0.0625 -0.15625q0 -0.109375 0.0625 -0.171875q0.078125 -0.0625 0.25 -0.0625l0.375 0l0 -5.375l-0.28125 0q-0.171875 0 -0.25 -0.0625q-0.0625 -0.0625 -0.0625 -0.171875q0 -0.09375 0.0625 -0.15625q0.078125 -0.0625 0.25 -0.0625l1.109375 0l1.703125 3.890625l1.671875 -3.890625l1.109375 0q0.171875 0 0.234375 0.0625q0.078125 0.0625 0.078125 0.15625q0 0.109375 -0.078125 0.171875q-0.0625 0.0625 -0.234375 0.0625l-0.28125 0l0 5.375l0.375 0q0.171875 0 0.234375 0.0625q0.078125 0.0625 0.078125 0.171875q0 0.09375 -0.078125 0.15625q-0.0625 0.0625 -0.234375 0.0625l-1.65625 0q-0.15625 0 -0.234375 -0.0625q-0.0625 -0.0625 -0.0625 -0.15625q0 -0.109375 0.0625 -0.171875q0.078125 -0.0625 0.234375 -0.0625l0.828125 0l0 -5.375l-0.09375 0l-1.703125 3.9375zm8.491699 -3.9375l0 3.765625q0 0.953125 -0.640625 1.59375q-0.625 0.640625 -1.53125 0.640625q-0.59375 0 -1.0625 -0.25q-0.46875 -0.265625 -0.796875 -0.796875q-0.328125 -0.546875 -0.328125 -1.1875l0 -3.765625l-0.375 0q-0.171875 0 -0.234375 -0.0625q-0.0625 -0.0625 -0.0625 -0.171875q0 -0.09375 0.0625 -0.171875q0.0625 -0.046875 0.234375 -0.046875l1.65625 0q0.171875 0 0.234375 0.0625q0.078125 0.0625 0.078125 0.15625q0 0.109375 -0.078125 0.171875q-0.0625 0.0625 -0.234375 0.0625l-0.828125 0l0 3.765625q0 0.75 0.5 1.265625q0.515625 0.515625 1.21875 0.515625q0.453125 0 0.8125 -0.203125q0.375 -0.203125 0.640625 -0.625q0.28125 -0.421875 0.28125 -0.953125l0 -3.765625l-0.828125 0q-0.15625 0 -0.234375 -0.0625q-0.0625 -0.0625 -0.0625 -0.171875q0 -0.09375 0.0625 -0.15625q0.078125 -0.0625 0.234375 -0.0625l1.65625 0q0.171875 0 0.234375 0.0625q0.078125 0.0625 0.078125 0.15625q0 0.109375 -0.078125 0.171875q-0.0625 0.0625 -0.234375 0.0625l-0.375 0zm2.7104492 1.171875l0 0.828125q0.40625 -0.484375 0.859375 -0.734375q0.46875 -0.25 1.109375 -0.25q0.65625 0 1.21875 0.3125q0.5625 0.3125 0.875 0.875q0.3125 0.546875 0.3125 1.15625q0 0.96875 -0.703125 1.671875q-0.6875 0.6875 -1.703125 0.6875q-1.203125 0 -1.96875 -0.984375l0 2.71875l1.109375 0q0.15625 0 0.21875 0.0625q0.078125 0.0625 0.078125 0.15625q0 0.09375 -0.078125 0.15625q-0.0625 0.078125 -0.21875 0.078125l-2.15625 0q-0.171875 0 -0.25 -0.0625q-0.0625 -0.0625 -0.0625 -0.171875q0 -0.09375 0.0625 -0.15625q0.078125 -0.0625 0.25 -0.0625l0.609375 0l0 -5.8125l-0.609375 0q-0.171875 0 -0.25 -0.0625q-0.0625 -0.078125 -0.0625 -0.171875q0 -0.09375 0.0625 -0.15625q0.078125 -0.078125 0.25 -0.078125l1.046875 0zm3.921875 2.1875q0 -0.78125 -0.578125 -1.328125q-0.5625 -0.5625 -1.375 -0.5625q-0.828125 0 -1.40625 0.5625q-0.5625 0.5625 -0.5625 1.328125q0 0.78125 0.5625 1.34375q0.578125 0.5625 1.40625 0.5625q0.8125 0 1.375 -0.5625q0.578125 -0.5625 0.578125 -1.34375zm4.679199 0.578125l-0.515625 0l-1.734375 -3.9375l-0.078125 0l0 5.375l0.828125 0q0.15625 0 0.21875 0.0625q0.078125 0.0625 0.078125 0.171875q0 0.09375 -0.078125 0.15625q-0.0625 0.0625 -0.21875 0.0625l-1.65625 0q-0.171875 0 -0.25 -0.0625q-0.0625 -0.0625 -0.0625 -0.15625q0 -0.109375 0.0625 -0.171875q0.078125 -0.0625 0.25 -0.0625l0.375 0l0 -5.375l-0.28125 0q-0.171875 0 -0.25 -0.0625q-0.0625 -0.0625 -0.0625 -0.171875q0 -0.09375 0.0625 -0.15625q0.078125 -0.0625 0.25 -0.0625l1.109375 0l1.703125 3.890625l1.671875 -3.890625l1.109375 0q0.171875 0 0.234375 0.0625q0.078125 0.0625 0.078125 0.15625q0 0.109375 -0.078125 0.171875q-0.0625 0.0625 -0.234375 0.0625l-0.28125 0l0 5.375l0.375 0q0.171875 0 0.234375 0.0625q0.078125 0.0625 0.078125 0.171875q0 0.09375 -0.078125 0.15625q-0.0625 0.0625 -0.234375 0.0625l-1.65625 0q-0.15625 0 -0.234375 -0.0625q-0.0625 -0.0625 -0.0625 -0.15625q0 -0.109375 0.0625 -0.171875q0.078125 -0.0625 0.234375 -0.0625l0.828125 0l0 -5.375l-0.09375 0l-1.703125 3.9375zm4.601074 -2.765625l0 0.828125q0.40625 -0.484375 0.859375 -0.734375q0.46875 -0.25 1.109375 -0.25q0.65625 0 1.21875 0.3125q0.5625 0.3125 0.875 0.875q0.3125 0.546875 0.3125 1.15625q0 0.96875 -0.703125 1.671875q-0.6875 0.6875 -1.703125 0.6875q-1.203125 0 -1.96875 -0.984375l0 2.71875l1.109375 0q0.15625 0 0.21875 0.0625q0.078125 0.0625 0.078125 0.15625q0 0.09375 -0.078125 0.15625q-0.0625 0.078125 -0.21875 0.078125l-2.15625 0q-0.171875 0 -0.25 -0.0625q-0.0625 -0.0625 -0.0625 -0.171875q0 -0.09375 0.0625 -0.15625q0.078125 -0.0625 0.25 -0.0625l0.609375 0l0 -5.8125l-0.609375 0q-0.171875 0 -0.25 -0.0625q-0.0625 -0.078125 -0.0625 -0.171875q0 -0.09375 0.0625 -0.15625q0.078125 -0.078125 0.25 -0.078125l1.046875 0zm3.921875 2.1875q0 -0.78125 -0.578125 -1.328125q-0.5625 -0.5625 -1.375 -0.5625q-0.828125 0 -1.40625 0.5625q-0.5625 0.5625 -0.5625 1.328125q0 0.78125 0.5625 1.34375q0.578125 0.5625 1.40625 0.5625q0.8125 0 1.375 -0.5625q0.578125 -0.5625 0.578125 -1.34375zm6.460449 -1.453125l0 1.109375q0 1.453125 -0.703125 2.3125q-0.53125 0.65625 -1.359375 0.65625q-0.40625 0 -0.765625 -0.15625q-0.34375 -0.15625 -0.59375 -0.4375q-0.140625 -0.1875 -0.328125 -0.578125q-0.1875 -0.390625 -0.265625 -0.71875q-0.125 -0.453125 -0.125 -1.078125l0 -1.109375q0 -1.46875 0.6875 -2.3125q0.546875 -0.671875 1.375 -0.671875q0.40625 0 0.75 0.171875q0.34375 0.15625 0.59375 0.4375q0.15625 0.171875 0.34375 0.578125q0.1875 0.390625 0.265625 0.703125q0.125 0.46875 0.125 1.09375zm-0.453125 0.046875q0 -0.625 -0.1875 -1.171875q-0.171875 -0.5625 -0.40625 -0.890625q-0.125 -0.1875 -0.34375 -0.3125q-0.3125 -0.203125 -0.6875 -0.203125q-0.75 0 -1.1875 0.78125q-0.421875 0.765625 -0.421875 1.796875l0 1.0q0 0.640625 0.171875 1.203125q0.1875 0.546875 0.40625 0.875q0.140625 0.171875 0.34375 0.3125q0.3125 0.1875 0.703125 0.1875q0.75 0 1.171875 -0.765625q0.4375 -0.78125 0.4375 -1.8125l0 -1.0zm5.210449 -1.953125l0 5.375l1.546875 0q0.15625 0 0.21875 0.0625q0.078125 0.0625 0.078125 0.171875q0 0.09375 -0.078125 0.15625q-0.0625 0.0625 -0.21875 0.0625l-3.546875 0q-0.15625 0 -0.234375 -0.0625q-0.0625 -0.0625 -0.0625 -0.15625q0 -0.109375 0.0625 -0.171875q0.078125 -0.0625 0.234375 -0.0625l1.546875 0l0 -5.375l-1.546875 0q-0.15625 0 -0.234375 -0.0625q-0.0625 -0.0625 -0.0625 -0.171875q0 -0.09375 0.0625 -0.15625q0.078125 -0.0625 0.234375 -0.0625l3.546875 0q0.15625 0 0.21875 0.0625q0.078125 0.0625 0.078125 0.15625q0 0.109375 -0.078125 0.171875q-0.0625 0.0625 -0.21875 0.0625l-1.546875 0zm8.351074 5.828125l-0.703125 0l-1.28125 -4.46875l-1.25 4.46875l-0.71875 0l-0.65625 -5.828125l-0.171875 0q-0.15625 0 -0.234375 -0.0625q-0.0625 -0.0625 -0.0625 -0.171875q0 -0.09375 0.0625 -0.15625q0.078125 -0.0625 0.234375 -0.0625l1.671875 0q0.171875 0 0.234375 0.0625q0.078125 0.0625 0.078125 0.15625q0 0.109375 -0.078125 0.171875q-0.0625 0.0625 -0.234375 0.0625l-1.046875 0l0.59375 5.3125l1.21875 -4.375l0.6875 0l1.25 4.375l0.59375 -5.3125l-1.0625 0q-0.15625 0 -0.234375 -0.0625q-0.0625 -0.0625 -0.0625 -0.171875q0 -0.09375 0.0625 -0.15625q0.078125 -0.0625 0.234375 -0.0625l1.671875 0q0.15625 0 0.21875 0.0625q0.078125 0.0625 0.078125 0.15625q0 0.109375 -0.078125 0.171875q-0.0625 0.0625 -0.21875 0.0625l-0.171875 0l-0.625 5.828125zm2.8510742 -0.453125l0 -5.375l-0.375 0q-0.171875 0 -0.25 -0.0625q-0.0625 -0.0625 -0.0625 -0.171875q0 -0.09375 0.0625 -0.15625q0.078125 -0.0625 0.25 -0.0625l2.421875 0q0.5625 0 1.03125 0.234375q0.484375 0.234375 0.71875 0.53125q0.4375 0.515625 0.65625 1.078125q0.15625 0.421875 0.15625 0.984375l0 0.625q0 0.6875 -0.3125 1.34375q-0.3125 0.640625 -1.015625 1.125q-0.53125 0.359375 -1.234375 0.359375l-2.421875 0q-0.171875 0 -0.25 -0.0625q-0.0625 -0.0625 -0.0625 -0.15625q0 -0.109375 0.0625 -0.171875q0.078125 -0.0625 0.25 -0.0625l0.375 0zm0.453125 0l1.640625 0q0.5625 0 1.0625 -0.359375q0.5 -0.375 0.75 -0.890625q0.25 -0.53125 0.25 -1.03125l0 -0.8125q0 -0.421875 -0.140625 -0.75q-0.1875 -0.484375 -0.546875 -0.90625q-0.1875 -0.234375 -0.5625 -0.421875q-0.375 -0.203125 -0.8125 -0.203125l-1.640625 0l0 5.375zm8.147949 -5.375l0 5.375l1.15625 0q0.171875 0 0.234375 0.0625q0.078125 0.0625 0.078125 0.171875q0 0.09375 -0.078125 0.15625q-0.0625 0.0625 -0.234375 0.0625l-2.796875 0q-0.15625 0 -0.234375 -0.0625q-0.0625 -0.0625 -0.0625 -0.15625q0 -0.109375 0.0625 -0.171875q0.078125 -0.0625 0.234375 -0.0625l1.171875 0l0 -5.375l-1.84375 0l0 1.5625q0 0.15625 -0.0625 0.234375q-0.0625 0.0625 -0.15625 0.0625q-0.109375 0 -0.171875 -0.0625q-0.0625 -0.078125 -0.0625 -0.234375l0 -2.015625l5.0625 0l0 2.015625q0 0.15625 -0.0625 0.234375q-0.0625 0.0625 -0.171875 0.0625q-0.09375 0 -0.15625 -0.0625q-0.0625 -0.078125 -0.0625 -0.234375l0 -1.5625l-1.84375 0zm7.022949 -1.140625l0 1.171875l-0.671875 0l0 -1.171875l0.671875 0zm0.015625 2.78125l-2.671875 0q-0.15625 0 -0.234375 -0.0625q-0.0625 -0.078125 -0.0625 -0.171875q0 -0.09375 0.0625 -0.15625q0.0625 -0.078125 0.234375 -0.078125l3.125 0l0 4.96875q0 0.578125 -0.234375 0.96875q-0.234375 0.390625 -0.703125 0.625q-0.328125 0.171875 -0.78125 0.171875l-1.4375 0q-0.15625 0 -0.234375 -0.0625q-0.0625 -0.0625 -0.0625 -0.171875q0 -0.09375 0.0625 -0.171875q0.078125 -0.0625 0.234375 -0.0625l1.421875 0.015625q0.578125 0 0.921875 -0.375q0.359375 -0.375 0.359375 -0.9375l0 -4.5zm7.444824 -1.890625l0 -0.203125l-3.234375 0l0 0.390625q0 0.171875 -0.0625 0.234375q-0.046875 0.0625 -0.15625 0.0625q-0.09375 0 -0.15625 -0.0625q-0.0625 -0.0625 -0.0625 -0.234375l0 -0.84375l4.140625 0l0 0.71875l-1.828125 5.796875q-0.03125 0.140625 -0.09375 0.1875q-0.0625 0.046875 -0.140625 0.046875q-0.09375 0 -0.15625 -0.0625q-0.0625 -0.078125 -0.0625 -0.15625q0 -0.0625 0.03125 -0.15625l1.78125 -5.71875zm7.304199 6.078125l-0.578125 0l-3.328125 -5.625l0 5.171875l0.828125 0q0.171875 0 0.234375 0.0625q0.078125 0.0625 0.078125 0.171875q0 0.09375 -0.078125 0.15625q-0.0625 0.0625 -0.234375 0.0625l-1.65625 0q-0.171875 0 -0.25 -0.0625q-0.0625 -0.0625 -0.0625 -0.15625q0 -0.109375 0.0625 -0.171875q0.078125 -0.0625 0.25 -0.0625l0.375 0l0 -5.375l-0.609375 0q-0.15625 0 -0.234375 -0.0625q-0.0625 -0.0625 -0.0625 -0.171875q0 -0.09375 0.0625 -0.15625q0.078125 -0.0625 0.234375 -0.0625l1.1875 0l3.328125 5.625l0 -5.171875l-0.828125 0q-0.171875 0 -0.25 -0.0625q-0.0625 -0.0625 -0.0625 -0.171875q0 -0.09375 0.0625 -0.15625q0.078125 -0.0625 0.25 -0.0625l1.65625 0q0.15625 0 0.21875 0.0625q0.078125 0.0625 0.078125 0.15625q0 0.109375 -0.078125 0.171875q-0.0625 0.0625 -0.21875 0.0625l-0.375 0l0 5.828125zm5.038574 -6.96875l0 1.171875l-0.671875 0l0 -1.171875l0.671875 0zm0.015625 2.78125l-2.671875 0q-0.15625 0 -0.234375 -0.0625q-0.0625 -0.078125 -0.0625 -0.171875q0 -0.09375 0.0625 -0.15625q0.0625 -0.078125 0.234375 -0.078125l3.125 0l0 4.96875q0 0.578125 -0.234375 0.96875q-0.234375 0.390625 -0.703125 0.625q-0.328125 0.171875 -0.78125 0.171875l-1.4375 0q-0.15625 0 -0.234375 -0.0625q-0.0625 -0.0625 -0.0625 -0.171875q0 -0.09375 0.0625 -0.171875q0.078125 -0.0625 0.234375 -0.0625l1.421875 0.015625q0.578125 0 0.921875 -0.375q0.359375 -0.375 0.359375 -0.9375l0 -4.5zm5.147949 -1.640625l0 5.375l3.0 0l0 -1.796875q0 -0.15625 0.0625 -0.21875q0.0625 -0.078125 0.171875 -0.078125q0.09375 0 0.15625 0.078125q0.0625 0.0625 0.0625 0.21875l0 2.25l-4.984375 0q-0.15625 0 -0.234375 -0.0625q-0.0625 -0.0625 -0.0625 -0.15625q0 -0.109375 0.0625 -0.171875q0.078125 -0.0625 0.234375 -0.0625l1.078125 0l0 -5.375l-1.078125 0q-0.15625 0 -0.234375 -0.0625q-0.0625 -0.0625 -0.0625 -0.171875q0 -0.09375 0.0625 -0.15625q0.078125 -0.0625 0.234375 -0.0625l2.609375 0q0.15625 0 0.21875 0.0625q0.078125 0.0625 0.078125 0.15625q0 0.109375 -0.078125 0.171875q-0.0625 0.0625 -0.21875 0.0625l-1.078125 0zm7.444824 6.0l-0.59375 0.453125q0.4375 -0.09375 0.734375 -0.09375q0.46875 0 0.921875 0.171875q0.328125 0.125 0.5 0.125q0.3125 0 0.703125 -0.25q0.140625 -0.09375 0.203125 -0.09375q0.109375 0 0.15625 0.0625q0.0625 0.0625 0.0625 0.15625q0 0.09375 -0.046875 0.140625q-0.109375 0.140625 -0.515625 0.3125q-0.296875 0.125 -0.578125 0.125q-0.234375 0 -0.640625 -0.140625q-0.390625 -0.140625 -0.765625 -0.140625q-0.25 0 -0.640625 0.0625q-0.546875 0.09375 -0.875 0.171875q-0.109375 0.03125 -0.15625 0.03125q-0.09375 0 -0.15625 -0.0625q-0.0625 -0.0625 -0.0625 -0.171875q0 -0.109375 0.125 -0.1875l1.0 -0.734375q-0.890625 -0.21875 -1.53125 -1.09375q-0.640625 -0.890625 -0.640625 -2.140625q0 -1.453125 0.828125 -2.375q0.828125 -0.921875 1.921875 -0.921875q1.09375 0 1.921875 0.921875q0.828125 0.921875 0.828125 2.375q0 1.4375 -0.828125 2.359375q-0.8125 0.921875 -1.875 0.9375zm2.25 -3.296875q0 -1.109375 -0.640625 -1.984375q-0.640625 -0.875 -1.65625 -0.875q-0.953125 0 -1.625 0.84375q-0.671875 0.828125 -0.671875 2.015625q0 1.25 0.703125 2.046875q0.703125 0.796875 1.59375 0.796875q1.015625 0 1.65625 -0.859375q0.640625 -0.875 0.640625 -1.984375zm6.272949 -2.546875l0 -0.3125q0 -0.15625 0.0625 -0.21875q0.0625 -0.078125 0.171875 -0.078125q0.09375 0 0.15625 0.078125q0.0625 0.0625 0.0625 0.21875l0 1.25q0 0.171875 -0.0625 0.25q-0.0625 0.0625 -0.15625 0.0625q-0.09375 0 -0.15625 -0.0625q-0.0625 -0.078125 -0.078125 -0.21875q-0.015625 -0.453125 -0.484375 -0.796875q-0.625 -0.484375 -1.421875 -0.484375q-0.515625 0 -0.984375 0.234375q-0.34375 0.171875 -0.546875 0.40625q-0.34375 0.421875 -0.5625 0.9375q-0.140625 0.375 -0.140625 0.84375l0 0.796875q0 1.0 0.71875 1.75q0.734375 0.734375 1.703125 0.734375q0.578125 0 1.03125 -0.25q0.46875 -0.25 0.890625 -0.765625q0.09375 -0.109375 0.203125 -0.109375q0.109375 0 0.15625 0.0625q0.0625 0.0625 0.0625 0.15625q0 0.125 -0.234375 0.375q-0.4375 0.484375 -0.984375 0.734375q-0.546875 0.25 -1.109375 0.25q-0.5 0 -1.0 -0.1875q-0.390625 -0.140625 -0.640625 -0.328125q-0.25 -0.203125 -0.625 -0.65625q-0.359375 -0.46875 -0.5 -0.84375q-0.125 -0.390625 -0.125 -0.859375l0 -0.921875q0 -0.671875 0.34375 -1.359375q0.359375 -0.703125 0.984375 -1.0625q0.625 -0.375 1.34375 -0.375q1.125 0 1.921875 0.75zm2.6791992 5.21875l3.46875 0l0 -0.171875q0 -0.171875 0.0625 -0.234375q0.0625 -0.0625 0.15625 -0.0625q0.109375 0 0.171875 0.0625q0.0625 0.0625 0.0625 0.234375l0 0.625l-4.359375 0l0 -0.671875q1.375 -1.234375 2.671875 -2.515625q0.609375 -0.59375 0.828125 -0.859375q0.234375 -0.28125 0.3125 -0.5q0.078125 -0.21875 0.078125 -0.421875q0 -0.578125 -0.46875 -1.03125q-0.453125 -0.453125 -1.125 -0.453125q-0.59375 0 -1.046875 0.34375q-0.453125 0.34375 -0.59375 0.84375q-0.03125 0.125 -0.078125 0.15625q-0.0625 0.0625 -0.140625 0.0625q-0.09375 0 -0.15625 -0.0625q-0.0625 -0.0625 -0.0625 -0.15625q0 -0.25 0.28125 -0.6875q0.28125 -0.4375 0.78125 -0.6875q0.5 -0.265625 1.015625 -0.265625q0.84375 0 1.453125 0.59375q0.609375 0.578125 0.609375 1.328125q0 0.3125 -0.109375 0.578125q-0.09375 0.25 -0.34375 0.5625q-0.25 0.296875 -0.875 0.921875q-1.59375 1.578125 -2.59375 2.4375l0 0.03125zm6.601074 0l3.46875 0l0 -0.171875q0 -0.171875 0.0625 -0.234375q0.0625 -0.0625 0.15625 -0.0625q0.109375 0 0.171875 0.0625q0.0625 0.0625 0.0625 0.234375l0 0.625l-4.359375 0l0 -0.671875q1.375 -1.234375 2.671875 -2.515625q0.609375 -0.59375 0.828125 -0.859375q0.234375 -0.28125 0.3125 -0.5q0.078125 -0.21875 0.078125 -0.421875q0 -0.578125 -0.46875 -1.03125q-0.453125 -0.453125 -1.125 -0.453125q-0.59375 0 -1.046875 0.34375q-0.453125 0.34375 -0.59375 0.84375q-0.03125 0.125 -0.078125 0.15625q-0.0625 0.0625 -0.140625 0.0625q-0.09375 0 -0.15625 -0.0625q-0.0625 -0.0625 -0.0625 -0.15625q0 -0.25 0.28125 -0.6875q0.28125 -0.4375 0.78125 -0.6875q0.5 -0.265625 1.015625 -0.265625q0.84375 0 1.453125 0.59375q0.609375 0.578125 0.609375 1.328125q0 0.3125 -0.109375 0.578125q-0.09375 0.25 -0.34375 0.5625q-0.25 0.296875 -0.875 0.921875q-1.59375 1.578125 -2.59375 2.4375l0 0.03125zm6.601074 0l3.46875 0l0 -0.171875q0 -0.171875 0.0625 -0.234375q0.0625 -0.0625 0.15625 -0.0625q0.109375 0 0.171875 0.0625q0.0625 0.0625 0.0625 0.234375l0 0.625l-4.359375 0l0 -0.671875q1.375 -1.234375 2.671875 -2.515625q0.609375 -0.59375 0.828125 -0.859375q0.234375 -0.28125 0.3125 -0.5q0.078125 -0.21875 0.078125 -0.421875q0 -0.578125 -0.46875 -1.03125q-0.453125 -0.453125 -1.125 -0.453125q-0.59375 0 -1.046875 0.34375q-0.453125 0.34375 -0.59375 0.84375q-0.03125 0.125 -0.078125 0.15625q-0.0625 0.0625 -0.140625 0.0625q-0.09375 0 -0.15625 -0.0625q-0.0625 -0.0625 -0.0625 -0.15625q0 -0.25 0.28125 -0.6875q0.28125 -0.4375 0.78125 -0.6875q0.5 -0.265625 1.015625 -0.265625q0.84375 0 1.453125 0.59375q0.609375 0.578125 0.609375 1.328125q0 0.3125 -0.109375 0.578125q-0.09375 0.25 -0.34375 0.5625q-0.25 0.296875 -0.875 0.921875q-1.59375 1.578125 -2.59375 2.4375l0 0.03125zm8.788574 -2.390625l0 2.390625l1.15625 0q0.171875 0 0.234375 0.0625q0.078125 0.0625 0.078125 0.171875q0 0.09375 -0.078125 0.15625q-0.0625 0.0625 -0.234375 0.0625l-2.796875 0q-0.15625 0 -0.234375 -0.0625q-0.0625 -0.0625 -0.0625 -0.15625q0 -0.109375 0.0625 -0.171875q0.078125 -0.0625 0.234375 -0.0625l1.171875 0l0 -2.390625l-1.984375 -2.984375l-0.265625 0q-0.15625 0 -0.234375 -0.0625q-0.0625 -0.0625 -0.0625 -0.171875q0 -0.09375 0.0625 -0.15625q0.078125 -0.0625 0.234375 -0.0625l1.25 0q0.15625 0 0.21875 0.0625q0.078125 0.0625 0.078125 0.15625q0 0.109375 -0.078125 0.171875q-0.0625 0.0625 -0.21875 0.0625l-0.453125 0l1.6875 2.53125l1.65625 -2.53125l-0.453125 0q-0.15625 0 -0.234375 -0.0625q-0.0625 -0.0625 -0.0625 -0.171875q0 -0.09375 0.0625 -0.15625q0.078125 -0.0625 0.234375 -0.0625l1.25 0q0.15625 0 0.21875 0.0625q0.078125 0.0625 0.078125 0.15625q0 0.109375 -0.078125 0.171875q-0.0625 0.0625 -0.21875 0.0625l-0.28125 0l-1.9375 2.984375zm8.116699 -2.984375l0 3.984375q0 0.8125 -0.609375 1.421875q-0.609375 0.59375 -1.46875 0.59375q-0.5 0 -1.0 -0.234375q-0.484375 -0.234375 -1.0625 -0.765625l0 -1.65625q0 -0.15625 0.0625 -0.21875q0.0625 -0.078125 0.15625 -0.078125q0.109375 0 0.171875 0.078125q0.0625 0.0625 0.0625 0.21875l0 1.453125q0.40625 0.375 0.8125 0.5625q0.40625 0.1875 0.796875 0.1875q0.453125 0 0.84375 -0.203125q0.296875 -0.171875 0.53125 -0.546875q0.25 -0.375 0.25 -0.8125l0 -3.984375l-1.765625 0q-0.171875 0 -0.25 -0.0625q-0.0625 -0.0625 -0.0625 -0.171875q0 -0.09375 0.0625 -0.15625q0.078125 -0.0625 0.25 -0.0625l3.296875 0q0.15625 0 0.21875 0.0625q0.078125 0.0625 0.078125 0.15625q0 0.109375 -0.078125 0.171875q-0.0625 0.0625 -0.21875 0.0625l-1.078125 0zm5.069824 -0.90625l0 6.28125l1.765625 0q0.171875 0 0.234375 0.0625q0.078125 0.0625 0.078125 0.171875q0 0.09375 -0.078125 0.15625q-0.0625 0.0625 -0.234375 0.0625l-3.984375 0q-0.171875 0 -0.25 -0.0625q-0.0625 -0.0625 -0.0625 -0.15625q0 -0.109375 0.0625 -0.171875q0.078125 -0.0625 0.25 -0.0625l1.765625 0l0 -5.828125l-1.296875 0q-0.171875 0 -0.25 -0.0625q-0.0625 -0.0625 -0.0625 -0.171875q0 -0.09375 0.0625 -0.15625q0.078125 -0.0625 0.25 -0.0625l1.75 0zm7.866699 2.375q0 -0.15625 0.0625 -0.21875q0.0625 -0.078125 0.15625 -0.078125q0.109375 0 0.171875 0.078125q0.0625 0.0625 0.0625 0.234375l0 0.765625q0 0.171875 -0.0625 0.25q-0.0625 0.0625 -0.171875 0.0625q-0.09375 0 -0.15625 -0.0625q-0.0625 -0.0625 -0.0625 -0.203125q-0.03125 -0.3125 -0.34375 -0.53125q-0.4375 -0.296875 -1.15625 -0.296875q-0.765625 0 -1.1875 0.3125q-0.3125 0.234375 -0.3125 0.515625q0 0.3125 0.375 0.53125q0.265625 0.15625 0.984375 0.234375q0.9375 0.09375 1.296875 0.234375q0.53125 0.1875 0.78125 0.515625q0.25 0.328125 0.25 0.71875q0 0.578125 -0.546875 1.03125q-0.546875 0.4375 -1.625 0.4375q-1.0625 0 -1.75 -0.53125q0 0.171875 -0.03125 0.234375q-0.015625 0.046875 -0.078125 0.09375q-0.046875 0.03125 -0.109375 0.03125q-0.109375 0 -0.171875 -0.0625q-0.0625 -0.078125 -0.0625 -0.234375l0 -0.9375q0 -0.15625 0.0625 -0.21875q0.0625 -0.078125 0.171875 -0.078125q0.09375 0 0.15625 0.078125q0.0625 0.0625 0.0625 0.171875q0 0.25 0.125 0.40625q0.1875 0.265625 0.59375 0.4375q0.421875 0.15625 1.015625 0.15625q0.875 0 1.296875 -0.3125q0.4375 -0.328125 0.4375 -0.703125q0 -0.421875 -0.421875 -0.671875q-0.453125 -0.25 -1.296875 -0.328125q-0.828125 -0.09375 -1.203125 -0.234375q-0.359375 -0.140625 -0.5625 -0.421875q-0.203125 -0.28125 -0.203125 -0.59375q0 -0.578125 0.5625 -0.921875q0.578125 -0.34375 1.359375 -0.34375q0.9375 0 1.53125 0.453125zm3.7573242 1.5q0.421875 -0.609375 0.859375 -0.90625q0.453125 -0.296875 0.984375 -0.296875q0.71875 0 1.28125 0.609375q0.5625 0.59375 0.5625 1.46875q0 0.8125 -0.515625 1.484375q-0.5 0.65625 -1.40625 0.65625q-0.578125 0 -1.09375 -0.359375q-0.5 -0.359375 -0.796875 -1.109375q-0.359375 -0.921875 -0.359375 -2.046875q0 -0.859375 0.34375 -1.578125q0.25 -0.5625 0.671875 -0.984375q0.4375 -0.4375 1.015625 -0.703125q0.578125 -0.28125 1.234375 -0.28125q0.453125 0 0.75 0.1875q0.140625 0.078125 0.140625 0.21875q0 0.09375 -0.0625 0.15625q-0.0625 0.0625 -0.15625 0.0625q-0.0625 0 -0.15625 -0.0625q-0.234375 -0.109375 -0.5625 -0.109375q-1.046875 0 -1.90625 0.90625q-0.859375 0.90625 -0.859375 2.140625q0 0.171875 0.03125 0.546875zm0.109375 0.75q0.203125 0.984375 0.640625 1.40625q0.4375 0.40625 1.03125 0.40625q0.59375 0 1.015625 -0.46875q0.4375 -0.46875 0.4375 -1.21875q0 -0.703125 -0.4375 -1.15625q-0.421875 -0.46875 -0.96875 -0.46875q-0.515625 0 -1.0 0.453125q-0.328125 0.28125 -0.71875 1.046875zm10.054199 2.109375l-0.578125 0l-3.328125 -5.625l0 5.171875l0.828125 0q0.171875 0 0.234375 0.0625q0.078125 0.0625 0.078125 0.171875q0 0.09375 -0.078125 0.15625q-0.0625 0.0625 -0.234375 0.0625l-1.65625 0q-0.171875 0 -0.25 -0.0625q-0.0625 -0.0625 -0.0625 -0.15625q0 -0.109375 0.0625 -0.171875q0.078125 -0.0625 0.25 -0.0625l0.375 0l0 -5.375l-0.609375 0q-0.15625 0 -0.234375 -0.0625q-0.0625 -0.0625 -0.0625 -0.171875q0 -0.09375 0.0625 -0.15625q0.078125 -0.0625 0.234375 -0.0625l1.1875 0l3.328125 5.625l0 -5.171875l-0.828125 0q-0.171875 0 -0.25 -0.0625q-0.0625 -0.0625 -0.0625 -0.171875q0 -0.09375 0.0625 -0.15625q0.078125 -0.0625 0.25 -0.0625l1.65625 0q0.15625 0 0.21875 0.0625q0.078125 0.0625 0.078125 0.15625q0 0.109375 -0.078125 0.171875q-0.0625 0.0625 -0.21875 0.0625l-0.375 0l0 5.828125zm6.147949 -5.828125l0 3.984375q0 0.8125 -0.609375 1.421875q-0.609375 0.59375 -1.46875 0.59375q-0.5 0 -1.0 -0.234375q-0.484375 -0.234375 -1.0625 -0.765625l0 -1.65625q0 -0.15625 0.0625 -0.21875q0.0625 -0.078125 0.15625 -0.078125q0.109375 0 0.171875 0.078125q0.0625 0.0625 0.0625 0.21875l0 1.453125q0.40625 0.375 0.8125 0.5625q0.40625 0.1875 0.796875 0.1875q0.453125 0 0.84375 -0.203125q0.296875 -0.171875 0.53125 -0.546875q0.25 -0.375 0.25 -0.8125l0 -3.984375l-1.765625 0q-0.171875 0 -0.25 -0.0625q-0.0625 -0.0625 -0.0625 -0.171875q0 -0.09375 0.0625 -0.15625q0.078125 -0.0625 0.25 -0.0625l3.296875 0q0.15625 0 0.21875 0.0625q0.078125 0.0625 0.078125 0.15625q0 0.109375 -0.078125 0.171875q-0.0625 0.0625 -0.21875 0.0625l-1.078125 0zm6.335449 1.46875q0 -0.15625 0.0625 -0.21875q0.0625 -0.078125 0.15625 -0.078125q0.109375 0 0.171875 0.078125q0.0625 0.0625 0.0625 0.234375l0 0.765625q0 0.171875 -0.0625 0.25q-0.0625 0.0625 -0.171875 0.0625q-0.09375 0 -0.15625 -0.0625q-0.0625 -0.0625 -0.0625 -0.203125q-0.03125 -0.3125 -0.34375 -0.53125q-0.4375 -0.296875 -1.15625 -0.296875q-0.765625 0 -1.1875 0.3125q-0.3125 0.234375 -0.3125 0.515625q0 0.3125 0.375 0.53125q0.265625 0.15625 0.984375 0.234375q0.9375 0.09375 1.296875 0.234375q0.53125 0.1875 0.78125 0.515625q0.25 0.328125 0.25 0.71875q0 0.578125 -0.546875 1.03125q-0.546875 0.4375 -1.625 0.4375q-1.0625 0 -1.75 -0.53125q0 0.171875 -0.03125 0.234375q-0.015625 0.046875 -0.078125 0.09375q-0.046875 0.03125 -0.109375 0.03125q-0.109375 0 -0.171875 -0.0625q-0.0625 -0.078125 -0.0625 -0.234375l0 -0.9375q0 -0.15625 0.0625 -0.21875q0.0625 -0.078125 0.171875 -0.078125q0.09375 0 0.15625 0.078125q0.0625 0.0625 0.0625 0.171875q0 0.25 0.125 0.40625q0.1875 0.265625 0.59375 0.4375q0.421875 0.15625 1.015625 0.15625q0.875 0 1.296875 -0.3125q0.4375 -0.328125 0.4375 -0.703125q0 -0.421875 -0.421875 -0.671875q-0.453125 -0.25 -1.296875 -0.328125q-0.828125 -0.09375 -1.203125 -0.234375q-0.359375 -0.140625 -0.5625 -0.421875q-0.203125 -0.28125 -0.203125 -0.59375q0 -0.578125 0.5625 -0.921875q0.578125 -0.34375 1.359375 -0.34375q0.9375 0 1.53125 0.453125z" fill-rule="nonzero"/><path fill="#000000" fill-opacity="0.0" d="m534.4245 -29.277716l72.61182 0l0 12.4609375l-72.61182 0l0 -12.4609375z" fill-rule="nonzero"/><path fill="#866c5b" d="m539.7526 -27.1825l-3.625 7.765625q-0.09375 0.203125 -0.234375 0.203125q-0.09375 0 -0.171875 -0.0625q-0.0625 -0.0625 -0.0625 -0.15625q0 -0.0625 0.0625 -0.171875l3.625 -7.78125q0.046875 -0.125 0.09375 -0.15625q0.0625 -0.03125 0.140625 -0.03125q0.09375 0 0.15625 0.0625q0.0625 0.0625 0.0625 0.140625q0 0.0625 -0.046875 0.1875zm7.007324 4.84375l-4.59375 0q0.125 0.875 0.734375 1.40625q0.625 0.53125 1.53125 0.53125q0.5 0 1.046875 -0.15625q0.5625 -0.171875 0.90625 -0.4375q0.109375 -0.09375 0.171875 -0.09375q0.09375 0 0.15625 0.078125q0.0625 0.0625 0.0625 0.15625q0 0.09375 -0.078125 0.171875q-0.265625 0.265625 -0.921875 0.5q-0.65625 0.234375 -1.34375 0.234375q-1.171875 0 -1.953125 -0.75q-0.765625 -0.765625 -0.765625 -1.84375q0 -0.984375 0.71875 -1.6875q0.734375 -0.703125 1.8125 -0.703125q1.109375 0 1.8125 0.71875q0.71875 0.71875 0.703125 1.875zm-0.453125 -0.453125q-0.125 -0.75 -0.703125 -1.21875q-0.578125 -0.46875 -1.359375 -0.46875q-0.796875 0 -1.359375 0.46875q-0.5625 0.453125 -0.703125 1.21875l4.125 0zm4.929199 0.234375l2.0625 1.984375q0.203125 0 0.25 0.03125q0.0625 0.015625 0.09375 0.078125q0.046875 0.046875 0.046875 0.125q0 0.09375 -0.0625 0.15625q-0.0625 0.0625 -0.234375 0.0625l-1.453125 0q-0.171875 0 -0.25 -0.0625q-0.0625 -0.0625 -0.0625 -0.15625q0 -0.109375 0.0625 -0.171875q0.078125 -0.0625 0.25 -0.0625l0.75 0l-1.765625 -1.671875l-1.734375 1.671875l0.75 0q0.15625 0 0.21875 0.0625q0.078125 0.0625 0.078125 0.171875q0 0.09375 -0.078125 0.15625q-0.0625 0.0625 -0.21875 0.0625l-1.46875 0q-0.15625 0 -0.234375 -0.0625q-0.0625 -0.0625 -0.0625 -0.15625q0 -0.078125 0.03125 -0.125q0.046875 -0.0625 0.09375 -0.078125q0.046875 -0.03125 0.25 -0.03125l2.078125 -1.984375l-1.84375 -1.75q-0.1875 0 -0.25 -0.015625q-0.046875 -0.03125 -0.09375 -0.09375q-0.03125 -0.0625 -0.03125 -0.125q0 -0.09375 0.0625 -0.15625q0.078125 -0.078125 0.25 -0.078125l1.234375 0q0.15625 0 0.21875 0.078125q0.078125 0.0625 0.078125 0.15625q0 0.09375 -0.078125 0.171875q-0.0625 0.0625 -0.21875 0.0625l-0.546875 0l1.515625 1.453125l1.53125 -1.453125l-0.53125 0q-0.15625 0 -0.234375 -0.0625q-0.078125 -0.078125 -0.078125 -0.171875q0 -0.09375 0.0625 -0.15625q0.078125 -0.078125 0.25 -0.078125l1.234375 0q0.15625 0 0.21875 0.078125q0.078125 0.0625 0.078125 0.15625q0 0.0625 -0.046875 0.125q-0.03125 0.0625 -0.09375 0.09375q-0.046875 0.015625 -0.234375 0.015625l-1.84375 1.75zm4.585449 -2.21875l0 0.828125q0.40625 -0.484375 0.859375 -0.734375q0.46875 -0.25 1.109375 -0.25q0.65625 0 1.21875 0.3125q0.5625 0.3125 0.875 0.875q0.3125 0.546875 0.3125 1.15625q0 0.96875 -0.703125 1.671875q-0.6875 0.6875 -1.703125 0.6875q-1.203125 0 -1.96875 -0.984375l0 2.71875l1.109375 0q0.15625 0 0.21875 0.0625q0.078125 0.0625 0.078125 0.15625q0 0.09375 -0.078125 0.15625q-0.0625 0.078125 -0.21875 0.078125l-2.15625 0q-0.171875 0 -0.25 -0.0625q-0.0625 -0.0625 -0.0625 -0.171875q0 -0.09375 0.0625 -0.15625q0.078125 -0.0625 0.25 -0.0625l0.609375 0l0 -5.8125l-0.609375 0q-0.171875 0 -0.25 -0.0625q-0.0625 -0.078125 -0.0625 -0.171875q0 -0.09375 0.0625 -0.15625q0.078125 -0.078125 0.25 -0.078125l1.046875 0zm3.921875 2.1875q0 -0.78125 -0.578125 -1.328125q-0.5625 -0.5625 -1.375 -0.5625q-0.828125 0 -1.40625 0.5625q-0.5625 0.5625 -0.5625 1.328125q0 0.78125 0.5625 1.34375q0.578125 0.5625 1.40625 0.5625q0.8125 0 1.375 -0.5625q0.578125 -0.5625 0.578125 -1.34375zm6.913574 0.15625q0 1.03125 -0.75 1.765625q-0.734375 0.71875 -1.78125 0.71875q-1.046875 0 -1.78125 -0.734375q-0.734375 -0.734375 -0.734375 -1.75q0 -1.03125 0.734375 -1.765625q0.734375 -0.734375 1.78125 -0.734375q1.046875 0 1.78125 0.734375q0.75 0.71875 0.75 1.765625zm-0.46875 0q0 -0.84375 -0.609375 -1.4375q-0.59375 -0.609375 -1.453125 -0.609375q-0.859375 0 -1.46875 0.609375q-0.59375 0.59375 -0.59375 1.4375q0 0.828125 0.59375 1.4375q0.609375 0.59375 1.46875 0.59375q0.859375 0 1.453125 -0.59375q0.609375 -0.59375 0.609375 -1.4375zm4.007324 -2.34375l0 1.140625q0.875 -0.796875 1.3125 -1.015625q0.4375 -0.234375 0.8125 -0.234375q0.40625 0 0.75 0.28125q0.34375 0.265625 0.34375 0.40625q0 0.09375 -0.078125 0.171875q-0.0625 0.0625 -0.15625 0.0625q-0.0625 0 -0.09375 -0.015625q-0.03125 -0.03125 -0.140625 -0.125q-0.1875 -0.1875 -0.328125 -0.25q-0.140625 -0.078125 -0.265625 -0.078125q-0.296875 0 -0.71875 0.234375q-0.421875 0.234375 -1.4375 1.15625l0 2.46875l2.0 0q0.15625 0 0.21875 0.0625q0.078125 0.0625 0.078125 0.171875q0 0.09375 -0.078125 0.15625q-0.0625 0.0625 -0.21875 0.0625l-3.546875 0q-0.15625 0 -0.234375 -0.0625q-0.0625 -0.0625 -0.0625 -0.15625q0 -0.09375 0.0625 -0.15625q0.0625 -0.0625 0.234375 -0.0625l1.09375 0l0 -3.75l-0.828125 0q-0.171875 0 -0.25 -0.0625q-0.0625 -0.078125 -0.0625 -0.171875q0 -0.09375 0.0625 -0.15625q0.078125 -0.078125 0.25 -0.078125l1.28125 0zm6.210449 0l2.453125 0q0.15625 0 0.21875 0.078125q0.078125 0.0625 0.078125 0.15625q0 0.09375 -0.078125 0.171875q-0.0625 0.0625 -0.21875 0.0625l-2.453125 0l0 3.0q0 0.390625 0.3125 0.65625q0.3125 0.25 0.921875 0.25q0.453125 0 0.984375 -0.125q0.53125 -0.140625 0.828125 -0.3125q0.109375 -0.078125 0.1875 -0.078125q0.078125 0 0.140625 0.078125q0.0625 0.0625 0.0625 0.15625q0 0.078125 -0.0625 0.15625q-0.171875 0.171875 -0.84375 0.375q-0.65625 0.203125 -1.265625 0.203125q-0.78125 0 -1.25 -0.359375q-0.46875 -0.375 -0.46875 -1.0l0 -3.0l-0.84375 0q-0.15625 0 -0.234375 -0.0625q-0.0625 -0.078125 -0.0625 -0.171875q0 -0.09375 0.0625 -0.15625q0.078125 -0.078125 0.234375 -0.078125l0.84375 0l0 -1.328125q0 -0.15625 0.0625 -0.21875q0.0625 -0.078125 0.15625 -0.078125q0.109375 0 0.171875 0.078125q0.0625 0.0625 0.0625 0.21875l0 1.328125zm9.554199 -2.40625l-3.625 7.765625q-0.09375 0.203125 -0.234375 0.203125q-0.09375 0 -0.171875 -0.0625q-0.0625 -0.0625 -0.0625 -0.15625q0 -0.0625 0.0625 -0.171875l3.625 -7.78125q0.046875 -0.125 0.09375 -0.15625q0.0625 -0.03125 0.140625 -0.03125q0.09375 0 0.15625 0.0625q0.0625 0.0625 0.0625 0.140625q0 0.0625 -0.046875 0.1875zm6.069824 2.703125q0 -0.15625 0.0625 -0.21875q0.0625 -0.078125 0.15625 -0.078125q0.109375 0 0.171875 0.078125q0.0625 0.0625 0.0625 0.234375l0 0.765625q0 0.171875 -0.0625 0.25q-0.0625 0.0625 -0.171875 0.0625q-0.09375 0 -0.15625 -0.0625q-0.0625 -0.0625 -0.0625 -0.203125q-0.03125 -0.3125 -0.34375 -0.53125q-0.4375 -0.296875 -1.15625 -0.296875q-0.765625 0 -1.1875 0.3125q-0.3125 0.234375 -0.3125 0.515625q0 0.3125 0.375 0.53125q0.265625 0.15625 0.984375 0.234375q0.9375 0.09375 1.296875 0.234375q0.53125 0.1875 0.78125 0.515625q0.25 0.328125 0.25 0.71875q0 0.578125 -0.546875 1.03125q-0.546875 0.4375 -1.625 0.4375q-1.0625 0 -1.75 -0.53125q0 0.171875 -0.03125 0.234375q-0.015625 0.046875 -0.078125 0.09375q-0.046875 0.03125 -0.109375 0.03125q-0.109375 0 -0.171875 -0.0625q-0.0625 -0.078125 -0.0625 -0.234375l0 -0.9375q0 -0.15625 0.0625 -0.21875q0.0625 -0.078125 0.171875 -0.078125q0.09375 0 0.15625 0.078125q0.0625 0.0625 0.0625 0.171875q0 0.25 0.125 0.40625q0.1875 0.265625 0.59375 0.4375q0.421875 0.15625 1.015625 0.15625q0.875 0 1.296875 -0.3125q0.4375 -0.328125 0.4375 -0.703125q0 -0.421875 -0.421875 -0.671875q-0.453125 -0.25 -1.296875 -0.328125q-0.828125 -0.09375 -1.203125 -0.234375q-0.359375 -0.140625 -0.5625 -0.421875q-0.203125 -0.28125 -0.203125 -0.59375q0 -0.578125 0.5625 -0.921875q0.578125 -0.34375 1.359375 -0.34375q0.9375 0 1.53125 0.453125zm5.507324 4.359375l-0.765625 0l-1.859375 -4.1875l-0.453125 0q-0.171875 0 -0.25 -0.0625q-0.0625 -0.078125 -0.0625 -0.171875q0 -0.09375 0.0625 -0.15625q0.078125 -0.078125 0.25 -0.078125l1.6875 0q0.15625 0 0.21875 0.078125q0.078125 0.0625 0.078125 0.15625q0 0.09375 -0.078125 0.171875q-0.0625 0.0625 -0.21875 0.0625l-0.75 0l1.65625 3.734375l0.203125 0l1.609375 -3.734375l-0.75 0q-0.15625 0 -0.234375 -0.0625q-0.0625 -0.078125 -0.0625 -0.171875q0 -0.09375 0.0625 -0.15625q0.078125 -0.078125 0.234375 -0.078125l1.703125 0q0.171875 0 0.234375 0.078125q0.0625 0.0625 0.0625 0.15625q0 0.09375 -0.0625 0.171875q-0.0625 0.0625 -0.234375 0.0625l-0.453125 0l-1.828125 4.1875zm7.710449 -3.828125l0 -0.828125l1.0625 0q0.15625 0 0.21875 0.078125q0.078125 0.0625 0.078125 0.15625q0 0.09375 -0.078125 0.171875q-0.0625 0.0625 -0.21875 0.0625l-0.609375 0l0 4.5q0 0.453125 -0.1875 0.8125q-0.125 0.234375 -0.4375 0.484375q-0.296875 0.25 -0.546875 0.359375q-0.25 0.109375 -0.65625 0.109375l-1.28125 0q-0.15625 0 -0.234375 -0.0625q-0.0625 -0.0625 -0.0625 -0.171875q0 -0.09375 0.0625 -0.171875q0.078125 -0.0625 0.234375 -0.0625l1.296875 0.015625q0.390625 0 0.703125 -0.203125q0.328125 -0.203125 0.546875 -0.59375q0.109375 -0.234375 0.109375 -0.578125l0 -1.359375q-0.71875 1.0 -1.859375 1.0q-0.9375 0 -1.609375 -0.6875q-0.671875 -0.703125 -0.671875 -1.671875q0 -0.96875 0.671875 -1.65625q0.671875 -0.6875 1.609375 -0.6875q1.140625 0 1.859375 0.984375zm0 1.359375q0 -0.796875 -0.546875 -1.34375q-0.53125 -0.546875 -1.296875 -0.546875q-0.75 0 -1.296875 0.5625q-0.546875 0.546875 -0.546875 1.328125q0 0.796875 0.546875 1.359375q0.546875 0.546875 1.296875 0.546875q0.765625 0 1.296875 -0.546875q0.546875 -0.5625 0.546875 -1.359375z" fill-rule="nonzero"/></g></svg>