<svg width="175" height="40" viewBox="0 0 175 40" fill="none" xmlns="http://www.w3.org/2000/svg">
<g clip-path="url(#clip0_2103_101881)">
<path d="M170.044 33.517H171.505C173.169 33.517 174.09 34.6875 174.09 36.1388C174.09 37.59 173.142 38.75 171.505 38.75H170.044V33.5117V33.517ZM171.505 32.7701H169.207V39.4968H171.505C173.592 39.4968 174.953 38.0561 174.953 36.1388C174.953 34.2214 173.592 32.7701 171.505 32.7701ZM164.895 32.7701H164.058V39.4968H168.02V38.75H164.89V32.7648L164.895 32.7701ZM160.526 33.517C161.325 33.517 161.871 34.0413 161.871 34.7987C161.871 35.5561 161.325 36.0911 160.526 36.0911H158.762V33.517H160.526ZM160.626 32.7701H157.925V39.4968H158.762V36.822H160.102L161.818 39.4968H162.803L160.986 36.7532C161.903 36.6737 162.729 36.0064 162.729 34.7987C162.729 33.5911 161.85 32.7701 160.621 32.7701M150.796 36.1388C150.796 34.5657 151.754 33.4057 153.269 33.4057C154.784 33.4057 155.743 34.5657 155.743 36.1388C155.743 37.7119 154.773 38.8718 153.269 38.8718C151.765 38.8718 150.796 37.7013 150.796 36.1388ZM149.927 36.1388C149.927 38.125 151.267 39.6186 153.264 39.6186C155.261 39.6186 156.601 38.125 156.601 36.1388C156.601 34.1525 155.25 32.6589 153.264 32.6589C151.278 32.6589 149.927 34.1525 149.927 36.1388ZM141.776 32.7701H140.849L142.766 39.4968H143.677L145.16 34.0678L146.643 39.4968H147.549L149.466 32.7701H148.539L147.056 38.3792L145.515 32.7701H144.816L143.274 38.3792L141.781 32.7701H141.776ZM126.802 32.7701H125.965V39.4968H126.802V36.4089H130.737V39.4968H131.574V32.7701H130.737V35.6674H126.802V32.7701ZM124.853 32.7701H119.747V33.517H121.876V39.5021H122.713V33.517H124.853V32.7701ZM110.144 36.1388C110.144 38.2256 111.685 39.6292 113.603 39.6292C114.705 39.6292 115.621 39.1631 116.246 38.4693V36.0381H113.1V36.785H115.409V38.1568C115.075 38.4905 114.408 38.8824 113.603 38.8824C112.13 38.8824 111.013 37.7331 111.013 36.1388C111.013 34.5445 112.13 33.4057 113.603 33.4057C114.413 33.4057 115.128 33.7871 115.552 34.3379L116.219 33.9248C115.626 33.1886 114.8 32.6642 113.608 32.6642C111.691 32.6642 110.149 34.0572 110.149 36.1441M104.138 32.7754H103.28V39.5021H104.117V34.0731L108.041 39.5021H108.846V32.7754H108.01V38.0932L104.132 32.7754H104.138ZM101.707 32.7754H100.87V39.5021H101.707V32.7754ZM89.3761 37.267L90.838 33.5222L92.2893 37.267H89.3708H89.3761ZM90.3136 32.7754L87.6124 39.5021H88.5393L89.1325 38.0085H92.5435L93.1367 39.5021H94.0636L91.3518 32.7754H90.3136ZM81.9609 32.7754H81.124V39.5021H81.9609V36.4142H85.8963V39.5021H86.7331V32.7754H85.8963V35.6727H81.9609V32.7754ZM75.303 37.9237L74.8104 38.5593C75.3666 39.1843 76.2246 39.6292 77.3952 39.6292C79.2119 39.6292 79.874 38.6335 79.874 37.6536C79.874 36.2394 78.624 35.8951 77.5223 35.6038C76.6643 35.3708 75.8857 35.1695 75.8857 34.4915C75.8857 33.8559 76.463 33.4216 77.2681 33.4216C78.0043 33.4216 78.7141 33.6758 79.2172 34.232L79.7204 33.6176C79.1537 33.0244 78.3592 32.6801 77.3316 32.6801C76.0128 32.6801 75.0223 33.4375 75.0223 34.5445C75.0223 35.8686 76.2247 36.1706 77.2999 36.4513C78.1897 36.6949 79.0054 36.9174 79.0054 37.7225C79.0054 38.2362 78.624 38.8824 77.4217 38.8824C76.4736 38.8824 75.748 38.4163 75.303 37.9237M66.7861 37.9237L66.2935 38.5593C66.8496 39.1843 67.7077 39.6292 68.8782 39.6292C70.695 39.6292 71.3624 38.6335 71.3624 37.6536C71.3624 36.2394 70.1124 35.8951 69.0107 35.6038C68.1526 35.3708 67.374 35.1695 67.374 34.4915C67.374 33.8559 67.9513 33.4216 68.7564 33.4216C69.4927 33.4216 70.1971 33.6758 70.7056 34.232L71.2088 33.6176C70.642 33.0244 69.8475 32.6801 68.82 32.6801C67.4958 32.6801 66.5107 33.4375 66.5107 34.5445C66.5107 35.8686 67.713 36.1706 68.7882 36.4513C69.678 36.6949 70.4937 36.9174 70.4937 37.7225C70.4937 38.2362 70.1124 38.8824 68.91 38.8824C67.9619 38.8824 67.2363 38.4163 66.7914 37.9237M58.8677 32.7754H54.4609V39.5021H58.8677V38.7553H55.2977V36.4301H58.7988V35.6886H55.2977V33.517H58.8677V32.7701V32.7754ZM48.2321 33.5222H49.6939C51.3571 33.5222 52.2787 34.6928 52.2787 36.1441C52.2787 37.5953 51.3306 38.7553 49.6939 38.7553H48.2321V33.517V33.5222ZM49.6939 32.7754H47.3952V39.5021H49.6939C51.7808 39.5021 53.142 38.0614 53.142 36.1441C53.142 34.2267 51.7808 32.7754 49.6939 32.7754ZM45.8168 32.7754H44.9799V39.5021H45.8168V32.7754ZM16.8602 3.49047V0C7.82422 0.439619 0.636719 7.89725 0.636719 17.0392C0.636719 26.1811 7.82422 33.6441 16.8602 34.0784V30.5879C9.75748 30.1483 4.13248 24.2479 4.13248 17.0392C4.13248 9.83051 9.75748 3.93009 16.8602 3.49047ZM13.2321 10.5773V10.7203H13.338V10.9746H12.6071L12.3369 10.9004L12.4058 10.7256L12.7554 10.5826H13.2321V10.5773ZM12.2893 11.6843L12.3369 11.3824L12.6177 11.0752H13.0255L12.5064 11.8008L12.2946 11.6843H12.2893ZM12.2469 9.72458L12.1463 10.1112L11.8338 10.2119L11.6378 9.80932L11.9556 9.65572L12.2469 9.72458ZM13.0149 11.9703L13.0785 11.7055L13.2638 11.6896L13.3009 11.5996L13.5816 11.5572V11.7956L13.4068 11.9703H13.0202H13.0149ZM13.6664 11.3189L13.4863 11.4354L13.2585 11.4778V11.0752H13.6717V11.3189H13.6664ZM13.7141 10.9163L13.4598 10.9799V10.6886L13.7141 10.9163ZM13.767 11.3453H13.7988L14.2596 11.4831V11.7214H13.8729L13.767 11.5678V11.3506V11.3453ZM14.2013 11.1547L14.053 11.2765L13.8994 11.1547L14.0107 11.0381L14.196 11.1547H14.2013ZM11.2299 7.89195L11.1028 8.05614H10.499V7.79131H10.7638L10.785 7.70127H11.2246V7.89195H11.2299ZM10.5043 8.53284L10.9333 8.41102C10.9333 8.41102 11.1982 8.36335 11.2246 8.36335C11.2511 8.36335 11.2246 8.63347 11.2246 8.63347L10.6208 8.67055L10.5043 8.53284ZM18.1261 8.04026L18.3115 7.69598L17.946 7.60064V7.16631L16.802 6.65784L16.0128 6.74788L15.5679 6.98623L15.5996 7.55297L15.1282 7.48411L15.0541 7.16631L15.5043 6.75848L14.6939 6.7161L14.4609 6.79025L14.3602 7.06568L14.6674 7.11864L14.6039 7.42585L14.0848 7.45763L14.0054 7.6589L13.2532 7.68009C13.2532 7.68009 13.2321 7.25636 13.2003 7.25636C13.1738 7.25636 13.7882 7.24576 13.7882 7.24576L14.2384 6.80614L13.9948 6.68432L13.6717 7.00212L13.1314 6.97034L12.8083 6.52542H12.1198L11.3994 7.06038H12.0615L12.1251 7.25636L11.9556 7.41525L12.6865 7.43644L12.7977 7.70127L11.9715 7.66949L11.9344 7.46822L11.4153 7.35699L11.1399 7.20339H10.7691C8.84117 8.56462 7.33163 10.4661 6.45769 12.696V13.0085L6.96617 13.2521V14.2214L7.45346 15.053L7.8507 15.1165L7.90367 14.8358L7.43757 14.1102L7.34752 13.411H7.62295L7.73418 14.1314L8.41214 15.1165L8.23736 15.4343L8.66638 16.0911L9.7363 16.3506V16.1811L10.16 16.2447L10.1177 16.5519L10.4566 16.6102L10.9704 16.7532L11.7013 17.59L12.6388 17.6589L12.7289 18.4216L12.088 18.8665L12.0562 19.5498L11.9609 19.9629L12.8878 21.1229L12.9566 21.5201C12.9566 21.5201 13.2903 21.6102 13.3327 21.6102C13.3751 21.6102 14.0848 22.1451 14.0848 22.1451V24.2426L14.3391 24.3114L14.1643 25.2754L14.5933 25.8475L14.5138 26.8008L15.0753 27.7966L15.8009 28.4269L16.5266 28.4428L16.5954 28.2097L16.0604 27.7595L16.0922 27.5371L16.1876 27.2617L16.2088 26.9862L15.8486 26.9756L15.6685 26.7479L15.9704 26.4566L16.0075 26.2394L15.6738 26.1441L15.695 25.9428L16.1717 25.8686L16.8973 25.5244L17.141 25.0795L17.9037 24.0996L17.7289 23.3369L17.9619 22.929L18.6664 22.9502L19.1378 22.5795L19.2914 21.107L19.8157 20.4396L19.9111 20.0159L19.4291 19.8623L19.1166 19.3485L18.0414 19.3379L17.1886 19.0148L17.1516 18.4057L16.8655 17.9078L16.0975 17.8972L15.6526 17.1981L15.2554 17.0021L15.2342 17.214L14.5138 17.2564L14.249 16.8909L13.4969 16.7373L12.8772 17.4523L11.9026 17.2881L11.8285 16.1917L11.1134 16.0699L11.3994 15.5297L11.3147 15.2172L10.3825 15.8422L9.79456 15.768L9.58269 15.3072L9.70981 14.8358L10.0329 14.2373L10.7797 13.8612H12.2204V14.3008L12.7342 14.5445L12.6971 13.7924L13.0679 13.4163L13.82 12.9237L13.8729 12.5742L14.6251 11.7903L15.4249 11.3506L15.356 11.2924L15.8963 10.7839L16.0922 10.8369L16.1823 10.9534L16.3888 10.7256L16.4418 10.6992L16.2141 10.6674L15.9863 10.5932V10.3761L16.1081 10.2754H16.3729L16.4948 10.3284L16.606 10.5456L16.7331 10.5244V10.5032L16.7702 10.5138L17.1463 10.4555L17.1992 10.2701L17.4164 10.3231V10.5244L17.2151 10.6621L17.2416 10.8792L17.9196 11.0911L18.0732 11.0858L18.0838 10.7945L17.5488 10.5508L17.5223 10.4078L17.9672 10.2542L17.9831 9.82521L17.517 9.5392L17.4852 8.81886L16.8443 9.13136H16.6113L16.6696 8.58051L15.8009 8.37394L15.4407 8.64937V9.48093L14.7946 9.6822L14.535 10.2278L14.249 10.2701V9.57627L13.6399 9.49153L13.3327 9.29026L13.2109 8.84004L14.302 8.20445L14.8369 8.04026L14.8899 8.40042L15.1865 8.38453L15.2077 8.20445L15.5202 8.16208V8.09852L15.3931 8.04555L15.3666 7.85487L15.7479 7.82309L15.981 7.58475L15.9916 7.56886L16.0657 7.4947L16.8655 7.39407L17.2204 7.69598L16.2882 8.19386L17.4693 8.47458L17.6229 8.07733H18.142L18.1261 8.04026ZM34.7416 23.7341V3.72352L18.6187 0V3.49047C25.695 3.95657 31.2935 9.8411 31.2935 17.0339C31.2935 24.2267 25.695 30.1165 18.6187 30.5826V40C18.6187 40 34.7575 33.1303 34.7575 23.7288M21.1611 15.3231H21.4365L21.3624 15.7203L21.1717 15.7945L21.1611 16.8273L22.3263 18.1621H22.8401L22.8719 18.0773H23.7882L24.0477 17.8337H24.5668L24.8528 18.1197L25.6261 18.1992L25.5255 19.2214L26.3835 20.7362L25.9333 21.5996L25.9598 22.0074L26.32 22.3623V23.3422L26.7861 23.9672V24.7775H27.0138C28.7458 22.6854 29.7893 20 29.7893 17.071C29.7893 15.8951 29.6145 14.7617 29.302 13.6917H28.391L27.7977 13.2521L27.1727 13.3104V13.6917H26.9768L26.7596 13.5381L25.6791 13.2627V12.5636L24.3073 12.6695L23.8835 12.8972H23.338L23.0679 12.8708L22.4058 13.2415V13.9301L21.0552 14.9047L21.1664 15.3231H21.1611ZM26.1134 9.72987L26.0604 9.55509L26.5848 9.28496V8.89831C26.3041 8.5911 26.0128 8.30509 25.7003 8.02966L25.6261 8.16208L25.0594 8.38453L24.821 8.64407L24.874 8.94597L25.1653 8.98835L25.3401 9.42797L25.8433 9.2267L25.928 9.81462H25.7797L25.3666 9.75106L24.9058 9.82521L24.4662 10.4502L23.8306 10.5508L23.7352 11.0911L24.0054 11.1547L23.9259 11.5042L23.2956 11.3771L22.7183 11.5042L22.5965 11.822L22.6971 12.4947L23.0361 12.6536H23.6028L23.9842 12.6165L24.1007 12.3146L24.6992 11.536L25.0912 11.6155L25.4831 11.2659L25.552 11.536L26.5054 12.1822L26.3888 12.3358L25.9598 12.3146L26.124 12.5477L26.3888 12.6059L26.7013 12.4788V12.1028L26.8338 12.0339L26.7225 11.9174L26.0869 11.5625L25.9174 11.0911H26.4471L26.6166 11.2606L27.0774 11.6525L27.0986 12.1239L27.57 12.6271L27.7448 11.9386L28.0732 11.7585L28.1367 12.3252L28.4545 12.6748L28.9365 12.6642C28.8624 12.4841 28.7882 12.304 28.7088 12.1239L28.5022 12.1504V11.6896C28.1102 10.9057 27.6441 10.1695 27.1039 9.49682L26.945 9.73517H26.1081L26.1134 9.72987ZM61.2088 21.3242V13.5593H51.6272V17.8178H56.1823V19.4809C55.3772 20.1377 53.9789 20.6727 52.4323 20.6727C49.1855 20.6727 46.8973 18.1727 46.8973 14.9311C46.8973 11.6896 49.1907 9.18432 52.4323 9.18432C54.3073 9.18432 55.8221 10.2278 56.6272 11.536L60.9121 9.27437C59.4556 6.80614 56.7755 4.66102 52.4323 4.66102C46.5107 4.66102 41.6907 8.61759 41.6907 14.9311C41.6907 21.2447 46.5107 25.196 52.4323 25.196C56.1823 25.196 59.0689 23.6811 61.2141 21.3295M64.196 37.2564H61.2829L62.7448 33.5117L64.196 37.2564ZM65.9704 39.4968L63.2585 32.7701H62.2204L59.5191 39.4968H60.446L61.0393 38.0032H64.4503L65.0435 39.4968H65.9704V39.4968ZM76.6802 20.3761H69.9693V4.9947H64.8528V24.8464H76.6855V20.3814L76.6802 20.3761ZM92.3475 14.9311C92.3475 18.1462 90.2342 20.678 86.9609 20.678C83.6876 20.678 81.5477 18.1462 81.5477 14.9311C81.5477 11.7161 83.6611 9.18432 86.9609 9.18432C90.2607 9.18432 92.3475 11.6843 92.3475 14.9311ZM97.5541 14.9311C97.5541 8.88771 93.0308 4.66102 86.9609 4.66102C80.891 4.66102 76.3359 8.88771 76.3359 14.9311C76.3359 20.9746 80.891 25.2013 86.9609 25.2013C93.0308 25.2013 97.5541 20.9746 97.5541 14.9311ZM98.8994 34.7934C98.8994 35.5509 98.3539 36.0752 97.5594 36.0752H95.7903V33.5117H97.5594C98.3592 33.5117 98.8994 34.036 98.8994 34.7934ZM99.7681 34.7934C99.7681 33.6917 99.0107 32.7648 97.66 32.7648H94.9535V39.4915H95.7903V36.8167H97.66C98.9895 36.8167 99.7681 35.8898 99.7681 34.7881M111.744 18.7659C111.744 19.8358 110.997 20.5826 109.779 20.5826H104.63V16.8909H109.779C111.029 16.8909 111.744 17.7542 111.744 18.7659ZM111.357 10.9375C111.357 11.9227 110.642 12.6642 109.599 12.6642H104.63V9.24259H109.599C110.642 9.24259 111.357 9.95763 111.357 10.9375M113.174 14.5975C115.049 14.179 116.569 12.5159 116.569 10.0424C116.569 7.56886 114.694 4.98411 110.769 4.98411H99.5191V24.8464H111.124C115.022 24.8464 116.956 22.3464 116.956 19.4597C116.956 16.9597 115.287 14.9364 113.174 14.6081M124.816 10.6197C124.816 9.75636 125.473 9.07309 127.167 9.07309C128.862 9.07309 131.098 9.75636 132.761 11.1282L135.557 7.46822C133.444 5.65148 130.674 4.69809 127.491 4.69809C122.4 4.69809 119.572 7.58475 119.572 10.9163C119.572 15.6197 124.154 16.4513 127.427 17.1081C129.54 17.553 130.822 18.0032 130.822 19.1314C130.822 20.0847 129.752 20.8263 127.994 20.8263C125.287 20.8263 123.084 19.6345 121.654 18.2045L118.947 22.0445C120.939 23.9513 123.741 25.2013 127.755 25.2013C133.084 25.2013 136.029 22.553 136.029 18.5646C136.029 14.0678 131.505 13.1197 128.232 12.4311C126.029 12.0127 124.81 11.6578 124.81 10.6144M133.163 39.4968H137.57V38.75H134V36.4248H137.501V35.6833H134V33.5117H137.57V32.7648H133.163V39.4915V39.4968ZM139.042 24.8411H153.598V20.5244H144.164V16.9544H153.391V12.6112H144.164V9.30614H153.598V4.9947H139.042V24.8464V24.8411ZM160.769 14.9311C160.769 11.6843 163.063 9.18432 166.156 9.18432C168.211 9.18432 169.906 10.4926 170.563 12.071L174.969 9.98941C173.661 7.37288 171.103 4.66102 166.161 4.66102C160.208 4.66102 155.563 8.79767 155.563 14.9311C155.563 21.0646 160.208 25.196 166.161 25.196C171.103 25.196 173.693 22.4311 174.969 19.8676L170.563 17.786C169.906 19.3644 168.211 20.6727 166.156 20.6727C163.057 20.6727 160.769 18.1727 160.769 14.9311" fill="#425563"/>
</g>
<defs>
<clipPath id="clip0_2103_101881">
<rect width="174.322" height="40" fill="white" transform="translate(0.636719)"/>
</clipPath>
</defs>
</svg>
