<svg width="70" height="45" xmlns="http://www.w3.org/2000/svg" xmlns:xlink="http://www.w3.org/1999/xlink"><defs><linearGradient x1="100%" y1="50%" x2="9.669%" y2="50%" id="b"><stop stop-color="#0180CD" offset="0%"/><stop stop-color="#005BEA" offset="100%"/></linearGradient><path d="M47.296 0l-6.148 6.093L35 0l-2.743 2.718L52.034 22.5 41.148 33.288l-3.313-3.283 7.573-7.505L22.704 0 0 22.5 22.704 45l6.148-6.093L35 45l2.815-2.79L17.966 22.5l10.886-10.788 3.313 3.283-7.573 7.505L47.296 45 70 22.5 47.296 0zm-3.313 36.098L57.704 22.5 43.984 8.902l3.312-3.283L64.33 22.5 47.296 39.38l-3.313-3.282zM5.67 22.5L22.704 5.62l3.313 3.282L12.296 22.5l13.72 13.598-3.312 3.282L5.67 22.5zm24.592 0L35 17.805l4.738 4.695L35 27.195 30.262 22.5z" id="a"/></defs><g fill="none" fill-rule="evenodd"><mask id="c" fill="#fff"><use xlink:href="#a"/></mask><path d="M47.296 0l-6.148 6.093L35 0l-2.743 2.718L52.034 22.5 41.148 33.288l-3.313-3.283 7.573-7.505L22.704 0 0 22.5 22.704 45l6.148-6.093L35 45l2.815-2.79L17.966 22.5l10.886-10.788 3.313 3.283-7.573 7.505L47.296 45 70 22.5 47.296 0zm-3.313 36.098L57.704 22.5 43.984 8.902l3.312-3.283L64.33 22.5 47.296 39.38l-3.313-3.282zM5.67 22.5L22.704 5.62l3.313 3.282L12.296 22.5l13.72 13.598-3.312 3.282L5.67 22.5zm24.592 0L35 17.805l4.738 4.695L35 27.195 30.262 22.5z" fill="url(#b)" mask="url(#c)"/></g></svg>