<svg version="1.1" viewBox="0.0 0.0 330.0 427.0" fill="none" stroke="none" stroke-linecap="square" stroke-miterlimit="10" xmlns:xlink="http://www.w3.org/1999/xlink" xmlns="http://www.w3.org/2000/svg"><clipPath id="p.0"><path d="m0 0l330.0 0l0 427.0l-330.0 0l0 -427.0z" clip-rule="nonzero"/></clipPath><g clip-path="url(#p.0)"><path fill="#000000" fill-opacity="0.0" d="m0 0l330.0 0l0 427.0l-330.0 0z" fill-rule="evenodd"/><path fill="#400671" d="m0.44356954 0.22047244l329.52704 0l0 427.02612l-329.52704 0l0 -427.02612z" fill-rule="evenodd"/><g filter="url(#shadowFilter-p.1)"><use xlink:href="#p.1" transform="matrix(1.0 0.0 0.0 1.0 0.0 2.0)"/></g><defs><filter id="shadowFilter-p.1" filterUnits="userSpaceOnUse"><feGaussianBlur in="SourceAlpha" stdDeviation="7.0" result="blur"/><feComponentTransfer in="blur" color-interpolation-filters="sRGB"><feFuncR type="linear" slope="0" intercept="0.0"/><feFuncG type="linear" slope="0" intercept="0.0"/><feFuncB type="linear" slope="0" intercept="0.0"/><feFuncA type="linear" slope="0.5" intercept="0"/></feComponentTransfer></filter></defs><g id="p.1"><path fill="#ffffff" fill-opacity="0.1453" d="m113.80099 105.783325l0 -44.420773l0.13204193 -4.8760834l2.1095123 -9.359188l3.8213272 -8.56694l5.6683273 -7.6457996l6.8535614 -6.589472l8.304428 -5.141737l9.227142 -3.5588188l10.017822 -1.9758978l5.2722015 -0.13204098l5.272217 0.13204098l10.017822 1.9758978l9.227142 3.5588188l8.302856 5.141737l6.855133 6.589472l5.6683197 7.6457996l3.8213348 8.56694l2.1095123 9.359188l0.1320343 4.8760834l0 44.420773l0 -4.8760834l0.26408386 -9.0951l1.3172607 -8.172394l2.6361084 -7.2496796l3.426773 -4.613571l3.1642761 -2.9001846l3.690857 -2.5040588l4.613571 -2.2415543l8.302856 -2.7681465l14.763428 -2.6361008l9.227173 -0.7906761l5.2721863 -0.13203812l10.017822 1.4508781l9.225586 3.558815l8.304413 5.272209l6.855133 6.5910416l5.666748 7.90831l3.8229065 8.831024l2.1095276 9.491226l0.13201904 4.8760834l0 63.269623l-0.13201904 4.8760834l-2.1095276 9.359192l-3.8229065 8.56694l-5.5362854 7.6457977l-6.9855957 6.591049l-8.304413 5.140167l-9.225586 3.5588074l-10.017822 1.977478l-5.2721863 0.1320343l-5.272217 -0.1320343l-10.017822 -1.977478l-9.227142 -3.5588074l-8.172394 -5.140167l-6.9855957 -6.591049l-5.5362854 -7.6457977l-3.9549408 -8.56694l-2.1079407 -9.359192l-0.13204956 -4.8760834l0 15.422073l-0.1320343 4.8760834l-2.1095123 9.359177l-3.8213348 8.566956l-5.6683197 7.6457977l-6.855133 6.4589996l-8.302856 5.2722015l-9.227142 3.5588226l-10.017822 1.9774628l-5.272217 0.13204956l-5.2722015 -0.13204956l-10.017822 -1.9774628l-9.227142 -3.5588226l-8.304428 -5.2722015l-6.8535614 -6.4589996l-5.6683273 -7.6457977l-3.8213272 -8.566956l-2.1095123 -9.359177l-0.13204193 -4.8760834l0 -15.422073l-0.13204193 4.8760834l-2.107933 9.359192l-3.9549408 8.56694l-5.536293 7.6457977l-6.9855957 6.591049l-8.172386 5.140167l-9.22715 3.5588074l-10.017822 1.977478l-5.2722054 0.1320343l-5.2722054 -0.1320343l-10.017822 -1.977478l-9.227146 -3.5588074l-8.30286 -5.140167l-6.9871655 -6.591049l-5.5347176 -7.6457977l-3.8228989 -8.56694l-2.1095114 -9.359192l-0.13204098 -4.8760834l0 -63.269623l0.13204098 -4.8760834l2.1095114 -9.491226l3.8228989 -8.831024l5.6667576 -7.90831l6.8551254 -6.5910416l8.30286 -5.272209l9.227146 -3.558815l10.017822 -1.4508781l5.2722054 0.13203812l9.227146 0.7906761l14.763435 2.6361008l8.302864 2.7681465l4.613571 2.2415543l3.690857 2.5040588l3.1642685 2.9001846l3.4267807 4.613571l2.6361008 7.2496796l1.3172684 8.172394l0.26407623 9.0951l0 4.8760834z" fill-rule="evenodd"/></g><path fill="#ffffff" fill-opacity="0.3184" d="m113.80099 138.34207l0 -29.130745l0.13204193 -4.8760834l2.1095123 -9.359192l3.8213272 -8.56694l5.6683273 -7.6457977l6.8535614 -6.591049l8.304428 -5.1401596l9.227142 -3.5588188l10.017822 -1.9774704l5.2722015 -0.13204193l5.272217 0.13204193l10.017822 1.9774704l9.227142 3.5588188l8.302856 5.1401596l6.855133 6.591049l5.6683197 7.6457977l3.8213348 8.56694l2.1095123 9.359192l0.1320343 4.8760834l0 29.130745l0 -4.877655l0.26408386 -8.172394l1.3172607 -6.721512l2.6361084 -5.8003693l4.877655 -5.0081253l7.512192 -4.745613l10.808487 -4.745613l14.763428 -5.0081253l9.227173 -2.9001846l2.5040588 -0.6586304l5.0081177 -0.658638l4.877655 0.13204193l4.7456055 0.92271423l4.6135864 1.4493103l4.3494873 2.239975l6.062866 4.0869827l7.1176453 7.2496796l5.8003845 8.698982l3.9533691 9.491226l2.2415466 10.01783l0.13201904 5.0081177l0 63.137573l-0.13201904 5.008133l-2.1095276 9.359192l-3.8229065 8.56694l-5.5362854 7.6457977l-6.9855957 6.4589996l-8.304413 5.140167l-9.225586 3.690857l-10.017822 1.8454285l-5.2721863 0.2625122l-5.272217 -0.2625122l-10.017822 -1.8454285l-9.227142 -3.690857l-8.172394 -5.140167l-6.9855957 -6.4589996l-5.5362854 -7.6457977l-3.9549408 -8.56694l-2.1079407 -9.359192l-0.13204956 -5.008133l0 30.844147l-0.1320343 4.8760834l-2.1095123 9.359177l-3.8213348 8.566956l-5.6683197 7.6457825l-6.855133 6.5894775l-8.302856 5.141754l-9.227142 3.5588074l-10.017822 1.977478l-5.272217 0.13046265l-5.2722015 -0.13046265l-10.017822 -1.977478l-9.227142 -3.5588074l-8.304428 -5.141754l-6.8535614 -6.5894775l-5.6683273 -7.6457825l-3.8213272 -8.566956l-2.1095123 -9.359177l-0.13204193 -4.8760834l0 -30.844147l-0.13204193 5.008133l-2.107933 9.359192l-3.9549408 8.56694l-5.536293 7.6457977l-6.9855957 6.4589996l-8.172386 5.140167l-9.22715 3.690857l-10.017822 1.8454285l-5.2722054 0.2625122l-5.2722054 -0.2625122l-10.017822 -1.8454285l-9.227146 -3.690857l-8.30286 -5.140167l-6.9871655 -6.4589996l-5.5347176 -7.6457977l-3.8228989 -8.56694l-2.1095114 -9.359192l-0.13204098 -5.008133l0 -63.137573l0.13204098 -5.0081177l2.2415524 -10.01783l3.9533682 -9.491226l5.800371 -8.698982l7.1176357 -7.2496796l6.0628777 -4.0869827l4.349495 -2.239975l4.613571 -1.4493103l4.745617 -0.92271423l4.877655 -0.13204193l5.0081215 0.658638l2.5040627 0.6586304l9.227146 2.9001846l14.763435 5.0081253l10.808495 4.745613l7.512192 4.745613l4.877655 5.0081253l2.6361008 5.8003693l1.3172684 6.721512l0.26407623 8.172394l0 4.877655z" fill-rule="evenodd"/><path fill="#ffffff" fill-opacity="0.4413" d="m113.80099 170.76877l0 -13.708679l0.13204193 -4.8760834l2.1095123 -9.359177l3.8213272 -8.568527l5.6683273 -7.6442184l6.8535614 -6.4590073l8.304428 -5.2722015l9.227142 -3.5588226l10.017822 -1.9774704l5.2722015 -0.13204193l5.272217 0.13204193l10.017822 1.9774704l9.227142 3.5588226l8.302856 5.2722015l6.855133 6.4590073l5.6683197 7.6442184l3.8213348 8.568527l2.1095123 9.359177l0.1320343 4.8760834l0 13.708679l0 -4.7456055l0.26408386 -8.172394l1.3172607 -6.8535614l2.6361084 -5.8003693l4.877655 -5.0081177l7.512192 -4.7456207l10.808487 -4.613571l14.763428 -5.1401596l9.227173 -2.7681503l2.5040588 -0.6586304l5.0081177 -0.6586304l4.877655 0.13047028l4.7456055 0.79224396l4.6135864 1.5813446l4.3494873 2.1079407l6.062866 4.2190247l7.1176453 7.2496796l5.8003845 8.56694l3.9533691 9.621689l2.2415466 9.885788l0.13201904 5.0096893l0 63.269623l-0.13201904 4.8760834l-2.1095276 9.491226l-3.8229065 8.698975l-5.5362854 7.7762756l-6.9855957 6.5910645l-8.304413 5.1401367l-9.225586 3.558838l-10.017822 1.7133789l-5.2721863 0l-9.227173 -0.39456177l-14.763428 -2.3720093l-8.302856 -2.6376648l-4.613571 -2.2399902l-3.690857 -2.6361084l-3.1642761 -2.7681274l-3.426773 -4.877655l-2.6361084 -7.3801575l-1.3172607 -8.436478l-0.26408386 -9.227142l0 -4.8760834l0 46.1326l-0.1320343 4.877655l-2.1095123 9.359192l-3.8213348 8.566925l-5.6683197 7.645813l-6.855133 6.5894775l-8.302856 5.1417236l-9.227142 3.5588074l-10.017822 1.9759216l-5.272217 0.13201904l-5.2722015 -0.13201904l-10.017822 -1.9759216l-9.227142 -3.5588074l-8.304428 -5.1417236l-6.8535614 -6.5894775l-5.6683273 -7.645813l-3.8213272 -8.566925l-2.1095123 -9.359192l-0.13204193 -4.877655l0 -46.1326l0 4.8760834l-0.26407623 9.227142l-1.3172684 8.436478l-2.6361008 7.3801575l-3.4267807 4.877655l-3.1642685 2.7681274l-3.690857 2.6361084l-4.613571 2.2399902l-8.302864 2.6376648l-14.763435 2.3720093l-9.227146 0.39456177l-5.2722054 0l-10.017822 -1.7133789l-9.227146 -3.558838l-8.30286 -5.1401367l-6.9871655 -6.5910645l-5.5347176 -7.7762756l-3.8228989 -8.698975l-2.1095114 -9.491226l-0.13204098 -4.8760834l0 -63.269623l0.13204098 -5.0096893l2.2415524 -9.885788l3.9533682 -9.621689l5.800371 -8.56694l7.1176357 -7.2496796l6.0628777 -4.2190247l4.349495 -2.1079407l4.613571 -1.5813446l4.745617 -0.79224396l4.877655 -0.13047028l5.0081215 0.6586304l2.5040627 0.6586304l9.227146 2.7681503l14.763435 5.1401596l10.808495 4.613571l7.512192 4.7456207l4.877655 5.0081177l2.6361008 5.8003693l1.3172684 6.8535614l0.26407623 8.172394l0 4.7456055z" fill-rule="evenodd"/><path fill="#ffffff" fill-opacity="0.4413" d="m243.70529 370.44c3.0382233 0 5.0643005 0.8015442 6.582535 2.6736145c1.519989 1.6049194 2.2791138 3.4751282 2.5321503 5.3471985l-19.907516 3.3972168l0 0c0.363739 -3.4769897 1.3671112 -6.2786255 3.1963806 -8.2100525c2.0243073 -2.1374207 4.5564575 -3.2079773 7.596451 -3.2079773zm-147.1178 19.249573l0 10.160065c-0.7608719 0.5343628 -1.7730331 0.8015442 -3.2930222 1.0705566c-1.5182343 0.2671814 -3.038231 0.5343628 -4.556465 0.5343628c-2.7869492 0 -5.0643005 -0.5343628 -6.3312607 -1.6049194c-1.2651901 -1.0686951 -1.7730331 -2.4064026 -1.7730331 -4.0094604c0 -1.6049194 0.507843 -2.940796 2.0260773 -3.7441711c1.2669525 -1.0686951 3.038231 -1.6030273 5.317337 -1.6030273l8.610367 -0.80340576zm105.8425 -50.52942c-4.0503845 0 -7.596451 0.8015137 -10.887711 2.1373901c-3.291275 1.337738 -5.8234253 3.4769897 -7.596451 6.417755c-2.0260773 2.940796 -2.785202 6.6831055 -2.785202 11.495941l0 14.972931l0 30.745514c0 2.9407654 0.50608826 4.812866 1.7730408 5.8815613c1.5182343 1.0705566 3.5443115 1.6048889 6.3294983 1.6048889c1.519989 0 2.7851868 -0.2671814 4.0521393 -0.2671814c1.2651978 -0.26715088 2.0260773 -0.5343323 2.7851868 -0.5343323l0 -35.29306l12.913803 0c1.7730255 0 3.0382233 -0.5343323 3.797348 -1.6030273c1.013916 -0.80340576 1.519989 -2.406433 1.519989 -4.812866c0 -1.0686951 -0.2530365 -2.406433 -0.506073 -3.4751282c-0.50608826 -1.0705566 -0.75912476 -1.8720703 -1.013916 -2.406433l-17.47026 0l0 -4.2785034c0 -2.940796 0.7591095 -4.812866 2.5321503 -6.1487427c1.5182343 -1.0686951 4.0503845 -1.8720703 7.088623 -1.8720703c1.7730255 0 3.546051 0.2671814 5.0643005 0.5343628c1.519989 0.26901245 2.7851868 0.80337524 4.0521393 1.0705261c0.506073 -0.5343323 1.2651978 -1.3377075 1.7730255 -2.4064026c0.50608826 -0.8015442 0.75912476 -2.1392517 0.75912476 -3.4751282c0 -2.940796 -1.2669525 -4.812866 -3.5443115 -6.1506042c-2.2791138 -1.3358765 -5.82518 -2.1373901 -10.636444 -2.1373901zm78.49667 20.318268c-2.024292 0 -3.7973328 0.8015137 -5.0643005 2.406433c-1.518219 1.337738 -2.532135 3.4751282 -3.038208 5.61438c2.7851868 3.4751282 5.5703735 6.952118 8.35556 10.427246c1.7976379 2.4657898 3.7200317 4.9315796 5.772461 7.3974l0 0c-0.84347534 0.99261475 -1.6781311 1.9945374 -2.4794312 3.0298462c-2.2791138 2.9407654 -4.5582275 5.881531 -6.8373413 8.555145c-1.7730408 2.1392517 -3.0382385 3.7423096 -3.5443115 4.812866c-0.76086426 1.3358765 -1.013916 2.406433 -1.013916 4.0094604c0 1.8721008 0.7608948 3.4769897 2.5321655 4.812866c1.519989 1.337738 3.7991028 1.8720703 6.5842896 1.8720703l2.026062 0c2.2773743 -3.4751282 4.556488 -6.952118 7.088623 -10.427246c1.3952332 -2.1262512 2.7886963 -4.2506714 4.18219 -6.438141l0 0c0.54296875 0.7940979 1.0929871 1.5974731 1.6429749 2.4268188c1.7713013 2.6736145 3.5443115 5.3471985 5.064331 7.7536316c1.518219 2.1392517 2.7851868 3.7441711 4.0503845 5.0800476c1.519989 1.0705566 3.2929993 1.8720703 5.317322 1.8720703c2.2791138 0 3.7991028 -0.8015137 5.3173523 -2.1392517c1.519989 -1.3358765 2.2791138 -3.2079468 2.532135 -5.61438c-2.532135 -3.7423096 -5.0643005 -7.2192993 -7.8494873 -10.961578c-1.8995361 -2.8090515 -3.9414368 -5.467804 -5.913025 -8.200806l0 0c0.87332153 -1.120636 1.7484131 -2.2413025 2.6217651 -3.2951355c2.026062 -2.1392517 3.7991028 -4.545685 5.5703735 -6.6849365c1.7730408 -2.406433 3.0382385 -4.009491 3.7991028 -5.347229c0.75912476 -1.0686951 1.2651978 -2.673584 1.2651978 -4.0094604c0 -2.1392517 -1.012146 -3.7441711 -2.532135 -5.0800476c-1.5182495 -1.0705566 -3.7973633 -1.8720703 -6.58255 -1.8720703l-0.76086426 0c-0.25305176 0 -0.506073 0 -0.75912476 0.2671814c-2.2791138 3.2079468 -4.8112793 6.6849365 -7.0903625 9.892883c-1.4901428 2.0984497 -2.9802551 4.1950073 -4.5406494 6.3695374l0 0c-0.69940186 -0.9555359 -1.3882141 -1.9073486 -2.0419006 -2.8944092c-2.026062 -2.6736145 -3.7991028 -5.3471985 -5.5721436 -7.7536316c-1.2651978 -1.8702393 -2.532135 -3.2079468 -3.5443115 -4.276642c-1.012146 -1.0705566 -2.532135 -1.6049194 -4.5582275 -1.6049194zm-151.4212 0c-1.5199966 0 -2.7869492 0.2671814 -4.052147 0.5343628c-1.2669525 0 -2.0260696 0.26715088 -2.7851944 0.53619385l0 28.33908l0 2.6736145c0 5.080017 1.0121613 9.3585205 3.038231 12.566498c2.0260773 2.9407654 4.8112717 5.3471985 8.355568 6.9502563c3.7991028 1.3377075 7.8495026 2.1392517 12.660767 2.1392517c3.7991028 0 7.343399 -0.2671814 10.381638 -1.3358765c3.2930298 -0.80337524 5.82518 -1.8721008 8.104294 -3.2098083c1.2651978 -1.0686951 2.5321503 -2.1374207 3.0382233 -3.2079773c0.75912476 -1.335846 1.0121613 -2.673584 1.0121613 -4.5438232l0 -12.032135l0 -21.923187c0 -2.9407654 -0.75912476 -4.8128357 -2.0260773 -5.881531c-1.2651978 -1.0705566 -3.291275 -1.6049194 -6.3294983 -1.6049194c-1.519989 0 -2.7851868 0.2671814 -4.0521393 0.5343628c-1.0121613 0 -2.0243225 0.26715088 -2.785202 0.53619385l0 28.33908l0 10.160065c-0.506073 0.5343628 -1.5182343 0.8015137 -2.7851868 1.0686951c-1.0121613 0.5343628 -2.5321503 0.5343628 -4.5582123 0.5343628c-2.785202 0 -5.064316 -0.5343628 -6.58255 -2.1373901c-1.519989 -1.337738 -2.5321503 -3.7441711 -2.5321503 -6.952118l0 -2.6736145l0 -21.923187c0 -2.9407654 -0.506073 -4.8128357 -1.7730255 -5.881531c-1.519989 -1.0705566 -3.5443115 -1.6049194 -6.3294983 -1.6049194zm114.19983 -0.8015137c-3.2930298 0 -6.331253 0.5343323 -9.116455 1.6030273c-3.0382233 1.0705566 -5.5703735 2.6736145 -8.102524 4.812866c-2.2791138 2.406433 -4.0521393 5.0800476 -5.317337 8.287994c-1.5200043 3.4769897 -2.2791138 7.48645 -2.2791138 12.032135c0 6.1487427 1.2651978 11.22876 3.5443115 15.507263c2.5321503 4.009491 5.5703735 7.2174377 9.875565 9.356689c4.0521393 1.8720703 8.863403 2.940796 13.927704 2.940796c3.5443115 0 6.8355713 -0.2671814 9.620773 -1.0687256c2.7869263 -0.80337524 5.0643005 -1.8720703 6.5842896 -3.2079468c1.519989 -1.3377075 2.2791138 -3.2098083 2.2791138 -5.3471985c0 -1.337738 -0.25305176 -2.406433 -0.75912476 -3.4769897c-0.76086426 -1.3358765 -1.519989 -2.1392517 -2.532135 -2.673584c-1.5200195 0.80337524 -3.5460815 1.6048889 -6.078232 2.673584c-2.5321503 0.80337524 -5.317337 1.0705566 -8.102524 1.0705566c-3.5443115 0 -6.584305 -0.80337524 -9.116455 -2.406433c-2.019043 -1.2802124 -3.3949432 -3.4101868 -4.125946 -6.2563477l0 0l26.40924 -4.170868c2.026062 -0.2671814 3.7991028 -0.8015442 4.811249 -2.1392822c1.013916 -1.0686951 1.7730408 -2.673584 1.7730408 -5.080017c0 -4.276642 -1.013916 -8.287994 -3.0382385 -11.495941c-1.7730408 -3.4751282 -4.5582275 -6.1487427 -8.104279 -8.020813c-3.5443115 -1.8720703 -7.596466 -2.9407654 -12.152924 -2.9407654zm-208.14246 -13.902374c-7.5964527 0 -13.674669 1.8702087 -17.979853 5.3471985c-4.0503874 3.4751282 -6.3294983 8.287994 -6.3294983 14.169556c0 3.7423096 0.7591181 6.9502563 2.279111 9.356689c1.5182362 2.673584 3.797347 4.545685 6.5825377 6.1505737c2.7869473 1.6030579 6.0782166 3.2079468 9.622526 4.276642l5.317341 1.8721008c2.5321503 0.8015137 4.3051834 1.8720703 5.572136 2.9407654c1.2651978 1.0686951 1.7712784 2.406433 1.7712784 4.2785034c0 1.8702393 -0.75912094 3.4751282 -2.2791138 4.8110046c-1.5182343 1.6049194 -4.303425 2.1392517 -7.849491 2.1392517c-3.5443077 0 -6.5825386 -0.5343323 -9.114689 -1.8702087c-2.7851906 -1.0705566 -5.0643024 -2.6736145 -7.090374 -4.2785034c-1.2669544 0.8015137 -2.2791119 1.8720703 -3.2912693 3.2079468c-1.0139141 1.0705566 -1.7730331 2.673584 -1.7730331 4.545685c0 2.406433 1.0121584 4.545685 3.03823 6.4158936c1.7730331 1.6049194 4.558223 2.940796 7.5964537 4.011322c3.2912674 0.8015442 7.090374 1.3358765 11.140762 1.3358765c8.3573265 0 14.686825 -1.8702087 18.992008 -5.61438c4.5582237 -3.742279 6.584297 -8.555145 6.584297 -14.703888c0 -5.61438 -1.5199966 -9.892883 -4.811264 -13.10083c-3.293026 -3.4769897 -8.10429 -6.1506042 -14.180748 -8.020813l-5.570381 -1.8720703c-2.2791119 -0.8015442 -3.7991047 -1.6049194 -5.0643005 -2.406433c-1.013916 -0.8015442 -1.5199947 -2.1392517 -1.5199947 -3.4751282c0 -1.8720703 0.7608757 -3.2079468 2.5321522 -4.2785034c1.5199928 -1.0686951 4.052143 -1.8702393 7.090374 -1.8702393c3.2912674 0 6.076458 0.5343628 8.608608 1.3358765c2.532154 0.8015137 4.5582237 1.8720703 6.0782166 2.940796c1.2651978 -0.8015442 2.0260735 -1.8702393 2.7851906 -2.940796c0.75912094 -1.3358765 1.0121574 -2.6736145 1.0121574 -4.276642c0 -2.1392517 -0.7591171 -4.0113525 -2.5321503 -5.6162415c-1.7712746 -1.6030579 -4.0503883 -2.6736145 -7.0886154 -3.4751282c-3.0399895 -0.8015137 -6.331257 -1.3358765 -10.128605 -1.3358765zm52.41429 13.902374c-2.2791061 0 -4.8112564 0.2671814 -7.3434143 0.5343323c-2.7851868 0.5343628 -5.0643005 1.0686951 -6.8355713 1.8721008c-3.2930298 1.3358765 -4.811264 3.4751282 -4.811264 6.683075c0 1.0705566 0.2530365 2.406433 1.0121536 3.4751282c0.5060806 1.3377075 1.2669601 2.1392517 2.0260773 2.673584c2.0260696 -0.8015137 4.0521393 -1.6030273 6.5842896 -2.1373901c2.532158 -0.53619385 5.064308 -1.0705566 7.5964584 -1.0705566c3.2912674 0 5.8234177 0.5343628 7.596451 1.6049194c1.7712784 1.0686951 2.7851868 2.9407654 2.7851868 5.3471985l0 1.3358765l-13.421623 1.337738c-5.8234253 0.5343323 -9.875565 2.1392517 -12.660759 4.8128357c-3.038231 2.6736145 -4.3034286 6.415924 -4.3034286 11.22876c0 5.61438 2.0243149 9.892914 6.076462 12.833679c4.052147 2.6736145 9.622528 4.276642 16.459862 4.276642c3.797348 0 7.341652 -0.5343323 10.128601 -1.3358765c3.038231 -0.80337524 5.570381 -1.6048889 7.596451 -2.9407654c1.5182419 -0.80337524 2.5303955 -1.8720703 3.291275 -2.9407654c1.0121536 -1.0705566 1.5182343 -2.406433 1.5182343 -4.278534l0 -24.32959c0 -6.417755 -2.2791138 -11.22876 -6.3294983 -14.436707c-4.3051834 -2.9426575 -9.875565 -4.545685 -16.965942 -4.545685z" fill-rule="evenodd"/></g></svg>