<svg version="1.1" viewBox="0.0 0.0 683.0 325.0" fill="none" stroke="none" stroke-linecap="square" stroke-miterlimit="10" xmlns:xlink="http://www.w3.org/1999/xlink" xmlns="http://www.w3.org/2000/svg"><clipPath id="p.0"><path d="m0 0l683.0 0l0 325.0l-683.0 0l0 -325.0z" clip-rule="nonzero"/></clipPath><g clip-path="url(#p.0)"><path fill="#000000" fill-opacity="0.0" d="m0 0l683.0 0l0 325.0l-683.0 0z" fill-rule="evenodd"/><path fill="#400671" d="m0.44356954 0.22047244l683.53894 0l0 326.77594l-683.53894 0l0 -326.77594z" fill-rule="evenodd"/><g filter="url(#shadowFilter-p.1)"><use xlink:href="#p.1" transform="matrix(1.0 0.0 0.0 1.0 0.0 2.0)"/></g><defs><filter id="shadowFilter-p.1" filterUnits="userSpaceOnUse"><feGaussianBlur in="SourceAlpha" stdDeviation="7.0" result="blur"/><feComponentTransfer in="blur" color-interpolation-filters="sRGB"><feFuncR type="linear" slope="0" intercept="0.0"/><feFuncG type="linear" slope="0" intercept="0.0"/><feFuncB type="linear" slope="0" intercept="0.0"/><feFuncA type="linear" slope="0.5" intercept="0"/></feComponentTransfer></filter></defs><g id="p.1"><path fill="#ffffff" fill-opacity="0.1453" d="m119.816734 98.624535l0 -44.420773l0.13204193 -4.8760834l2.1095123 -9.359188l3.8213272 -8.566942l5.6683273 -7.6457996l6.8535614 -6.589472l8.304428 -5.141738l9.227142 -3.5588179l10.017822 -1.9758983l5.272217 -0.13204098l5.2722015 0.13204098l10.017822 1.9758983l9.227142 3.5588179l8.302856 5.141738l6.855133 6.589472l5.6683197 7.6457996l3.8213348 8.566942l2.1095123 9.359188l0.1320343 4.8760834l0 44.420773l0 -4.8760834l0.26408386 -9.095108l1.317276 -8.172386l2.6360931 -7.2496796l3.426773 -4.613571l3.1642761 -2.9001846l3.690857 -2.5040627l4.613571 -2.2415543l8.302856 -2.7681427l14.763428 -2.6361046l9.227173 -0.7906723l5.2721863 -0.13204193l10.017822 1.4508781l9.225586 3.5588188l8.304413 5.2722054l6.855133 6.5910454l5.6667786 7.90831l3.822876 8.831024l2.1095276 9.491226l0.13201904 4.8760834l0 63.269615l-0.13201904 4.8760834l-2.1095276 9.359192l-3.822876 8.56694l-5.536316 7.6457977l-6.9855957 6.591049l-8.304413 5.140167l-9.225586 3.5588226l-10.017822 1.9774628l-5.2721863 0.1320343l-5.272217 -0.1320343l-10.017822 -1.9774628l-9.227142 -3.5588226l-8.172394 -5.140167l-6.9855957 -6.591049l-5.5362854 -7.6457977l-3.9549408 -8.56694l-2.1079407 -9.359192l-0.13204956 -4.8760834l0 15.422073l-0.1320343 4.8760834l-2.1095123 9.359192l-3.8213348 8.56694l-5.6683197 7.6457977l-6.855133 6.4589996l-8.302856 5.272217l-9.227142 3.5588074l-10.017822 1.977478l-5.2722015 0.1320343l-5.272217 -0.1320343l-10.017822 -1.977478l-9.227142 -3.5588074l-8.304428 -5.272217l-6.8535614 -6.4589996l-5.6683273 -7.6457977l-3.8213272 -8.56694l-2.1095123 -9.359192l-0.13204193 -4.8760834l0 -15.422073l-0.1320343 4.8760834l-2.1079407 9.359192l-3.9549408 8.56694l-5.536293 7.6457977l-6.9855957 6.591049l-8.172386 5.140167l-9.22715 3.5588226l-10.017822 1.9774628l-5.2722015 0.1320343l-5.272209 -0.1320343l-10.017818 -1.9774628l-9.22715 -3.5588226l-8.30286 -5.140167l-6.9871655 -6.591049l-5.5347157 -7.6457977l-3.8229008 -8.56694l-2.1095104 -9.359192l-0.13204193 -4.8760834l0 -63.269615l0.13204193 -4.8760834l2.1095104 -9.491226l3.8229008 -8.831024l5.6667576 -7.90831l6.8551235 -6.5910454l8.30286 -5.2722054l9.22715 -3.5588188l10.017818 -1.4508781l5.272209 0.13204193l9.227142 0.7906723l14.763435 2.6361046l8.302864 2.7681427l4.613571 2.2415543l3.690857 2.5040627l3.1642685 2.9001846l3.4267807 4.613571l2.6361008 7.2496796l1.3172684 8.172386l0.26407623 9.095108l0 4.8760834z" fill-rule="evenodd"/></g><path fill="#ffffff" fill-opacity="0.3184" d="m119.816734 131.18327l0 -29.130745l0.13204193 -4.8760834l2.1095123 -9.359184l3.8213272 -8.56694l5.6683273 -7.6458054l6.8535614 -6.5910416l8.304428 -5.1401634l9.227142 -3.5588188l10.017822 -1.9774704l5.272217 -0.13204193l5.2722015 0.13204193l10.017822 1.9774704l9.227142 3.5588188l8.302856 5.1401634l6.855133 6.5910416l5.6683197 7.6458054l3.8213348 8.56694l2.1095123 9.359184l0.1320343 4.8760834l0 29.130745l0 -4.8776474l0.26408386 -8.172394l1.317276 -6.721512l2.6360931 -5.8003693l4.877655 -5.0081253l7.512192 -4.745613l10.808487 -4.745613l14.763428 -5.0081253l9.227173 -2.9001846l2.5040588 -0.658638l5.0081177 -0.6586304l4.877655 0.13204193l4.7456055 0.92271423l4.6135864 1.4493027l4.3494873 2.2399826l6.062866 4.0869827l7.1176453 7.2496796l5.8003845 8.698982l3.9533691 9.491226l2.2415466 10.017822l0.13201904 5.0081177l0 63.13759l-0.13201904 5.0081177l-2.1095276 9.359192l-3.822876 8.56694l-5.536316 7.6457977l-6.9855957 6.4589996l-8.304413 5.140167l-9.225586 3.690857l-10.017822 1.8454285l-5.2721863 0.2625122l-5.272217 -0.2625122l-10.017822 -1.8454285l-9.227142 -3.690857l-8.172394 -5.140167l-6.9855957 -6.4589996l-5.5362854 -7.6457977l-3.9549408 -8.56694l-2.1079407 -9.359192l-0.13204956 -5.0081177l0 30.844131l-0.1320343 4.8760834l-2.1095123 9.359192l-3.8213348 8.56694l-5.6683197 7.6457977l-6.855133 6.5894775l-8.302856 5.1417236l-9.227142 3.558838l-10.017822 1.9774475l-5.2722015 0.13049316l-5.272217 -0.13049316l-10.017822 -1.9774475l-9.227142 -3.558838l-8.304428 -5.1417236l-6.8535614 -6.5894775l-5.6683273 -7.6457977l-3.8213272 -8.56694l-2.1095123 -9.359192l-0.13204193 -4.8760834l0 -30.844131l-0.1320343 5.0081177l-2.1079407 9.359192l-3.9549408 8.56694l-5.536293 7.6457977l-6.9855957 6.4589996l-8.172386 5.140167l-9.22715 3.690857l-10.017822 1.8454285l-5.2722015 0.2625122l-5.272209 -0.2625122l-10.017818 -1.8454285l-9.22715 -3.690857l-8.30286 -5.140167l-6.9871655 -6.4589996l-5.5347157 -7.6457977l-3.8229008 -8.56694l-2.1095104 -9.359192l-0.13204193 -5.0081177l0 -63.13759l0.13204193 -5.0081177l2.2415524 -10.017822l3.9533691 -9.491226l5.8003693 -8.698982l7.1176357 -7.2496796l6.0628815 -4.0869827l4.349491 -2.2399826l4.613571 -1.4493027l4.745617 -0.92271423l4.877655 -0.13204193l5.0081215 0.6586304l2.5040665 0.658638l9.227142 2.9001846l14.763435 5.0081253l10.808495 4.745613l7.512192 4.745613l4.877655 5.0081253l2.6361008 5.8003693l1.3172684 6.721512l0.26407623 8.172394l0 4.8776474z" fill-rule="evenodd"/><path fill="#ffffff" fill-opacity="0.4413" d="m119.816734 163.60999l0 -13.708679l0.13204193 -4.8760834l2.1095123 -9.359192l3.8213272 -8.568512l5.6683273 -7.6442337l6.8535614 -6.4589996l8.304428 -5.272209l9.227142 -3.558815l10.017822 -1.9774704l5.272217 -0.13204193l5.2722015 0.13204193l10.017822 1.9774704l9.227142 3.558815l8.302856 5.272209l6.855133 6.4589996l5.6683197 7.6442337l3.8213348 8.568512l2.1095123 9.359192l0.1320343 4.8760834l0 13.708679l0 -4.7456207l0.26408386 -8.172394l1.317276 -6.853546l2.6360931 -5.8003693l4.877655 -5.008133l7.512192 -4.7456055l10.808487 -4.613579l14.763428 -5.140167l9.227173 -2.7681427l2.5040588 -0.6586304l5.0081177 -0.6586304l4.877655 0.13046265l4.7456055 0.7922516l4.6135864 1.5813446l4.3494873 2.1079407l6.062866 4.2190247l7.1176453 7.249672l5.8003845 8.56694l3.9533691 9.621704l2.2415466 9.885773l0.13201904 5.0097046l0 63.269608l-0.13201904 4.8760834l-2.1095276 9.491241l-3.822876 8.698975l-5.536316 7.7762756l-6.9855957 6.591034l-8.304413 5.140167l-9.225586 3.5588074l-10.017822 1.7134094l-5.2721863 0l-9.227173 -0.39456177l-14.763428 -2.3720093l-8.302856 -2.6376953l-4.613571 -2.2399597l-3.690857 -2.6361084l-3.1642761 -2.768158l-3.426773 -4.877655l-2.6360931 -7.380127l-1.317276 -8.436478l-0.26408386 -9.227158l0 -4.8760834l0 46.132584l-0.1320343 4.877655l-2.1095123 9.359192l-3.8213348 8.566956l-5.6683197 7.6457825l-6.855133 6.5894775l-8.302856 5.141754l-9.227142 3.5588074l-10.017822 1.9758911l-5.2722015 0.13204956l-5.272217 -0.13204956l-10.017822 -1.9758911l-9.227142 -3.5588074l-8.304428 -5.141754l-6.8535614 -6.5894775l-5.6683273 -7.6457825l-3.8213272 -8.566956l-2.1095123 -9.359192l-0.13204193 -4.877655l0 -46.132584l0 4.8760834l-0.26407623 9.227158l-1.3172684 8.436478l-2.6361008 7.380127l-3.4267807 4.877655l-3.1642685 2.768158l-3.690857 2.6361084l-4.613571 2.2399597l-8.302864 2.6376953l-14.763435 2.3720093l-9.227142 0.39456177l-5.272209 0l-10.017818 -1.7134094l-9.22715 -3.5588074l-8.30286 -5.140167l-6.9871655 -6.591034l-5.5347157 -7.7762756l-3.8229008 -8.698975l-2.1095104 -9.491241l-0.13204193 -4.8760834l0 -63.269608l0.13204193 -5.0097046l2.2415524 -9.885773l3.9533691 -9.621704l5.8003693 -8.56694l7.1176357 -7.249672l6.0628815 -4.2190247l4.349491 -2.1079407l4.613571 -1.5813446l4.745617 -0.7922516l4.877655 -0.13046265l5.0081215 0.6586304l2.5040665 0.6586304l9.227142 2.7681427l14.763435 5.140167l10.808495 4.613579l7.512192 4.7456055l4.877655 5.008133l2.6361008 5.8003693l1.3172684 6.853546l0.26407623 8.172394l0 4.7456207z" fill-rule="evenodd"/><path fill="#ffffff" fill-opacity="0.4413" d="m591.7105 157.72742c3.038269 0 5.064331 0.80152893 6.5825806 2.6735992c1.5199585 1.6049042 2.2791138 3.4751282 2.5321655 5.3472137l-19.907532 3.3972015l0 0c0.3637085 -3.4769897 1.3671265 -6.27861 3.19635 -8.210068c2.024353 -2.1373901 4.5564575 -3.2079468 7.5964355 -3.2079468zm-147.11777 19.249573l0 10.160065c-0.76086426 0.53434753 -1.7730408 0.80152893 -3.2930298 1.0705566c-1.518219 0.26716614 -3.038208 0.53434753 -4.5564575 0.53434753c-2.7869568 0 -5.0643005 -0.53434753 -6.3312683 -1.6049042c-1.2651978 -1.0686951 -1.7730103 -2.406433 -1.7730103 -4.0094757c0 -1.6049042 0.5078125 -2.9407806 2.026062 -3.744156c1.2669678 -1.0687103 3.0382385 -1.6030579 5.3173523 -1.6030579l8.610352 -0.80337524zm105.8425 -50.529434c-4.050354 0 -7.5964355 0.8015213 -10.887695 2.1374054c-3.2912598 1.3377228 -5.8234253 3.4769745 -7.5964966 6.417755c-2.026062 2.9407806 -2.7851562 6.683075 -2.7851562 11.495941l0 14.972916l0 30.745514c0 2.9407806 0.5060425 4.812851 1.7730103 5.8815613c1.5182495 1.0705566 3.5443115 1.6049042 6.329529 1.6049042c1.5199585 0 2.7851562 -0.2671814 4.052124 -0.2671814c1.2651978 -0.26716614 2.026062 -0.53434753 2.7852173 -0.53434753l0 -35.293045l12.913757 0c1.7730713 0 3.038269 -0.53434753 3.7973633 -1.6030579c1.013916 -0.80337524 1.5200195 -2.4064178 1.5200195 -4.812851c0 -1.0686951 -0.25305176 -2.406433 -0.5061035 -3.4751282c-0.5061035 -1.0705566 -0.75909424 -1.8720856 -1.013916 -2.406433l-17.470276 0l0 -4.2785034c0 -2.9407806 0.7591553 -4.812851 2.5321655 -6.1487274c1.5182495 -1.0687103 4.050415 -1.8720856 7.088623 -1.8720856c1.7730103 0 3.5460815 0.2671814 5.06427 0.53434753c1.5200195 0.2690277 2.7852173 0.8033905 4.052185 1.0705566c0.5060425 -0.53434753 1.2651978 -1.3377228 1.7730103 -2.406433c0.5061035 -0.8015137 0.7591553 -2.1392517 0.7591553 -3.4751282c0 -2.9407654 -1.2669678 -4.812851 -3.5443115 -6.1505737c-2.2791138 -1.3358841 -5.8251953 -2.1374054 -10.636475 -2.1374054zm78.496704 20.318268c-2.024353 0 -3.7973633 0.80152893 -5.064331 2.406433c-1.5182495 1.3377228 -2.5321655 3.4751282 -3.038208 5.61438c2.7851562 3.4751282 5.5703735 6.952118 8.355591 10.427246c1.7976074 2.4657898 3.7199707 4.931595 5.7724 7.3974l0 0c-0.8434448 0.99263 -1.6781006 1.9945374 -2.4794312 3.029831c-2.2791138 2.9407806 -4.5581665 5.8815613 -6.8372803 8.5551605c-1.7730713 2.1392517 -3.038269 3.7423096 -3.5443115 4.812866c-0.7609253 1.3358612 -1.013916 2.4064178 -1.013916 4.0094757c0 1.8720703 0.76086426 3.4769745 2.5321045 4.812851c1.5200195 1.337738 3.7991333 1.8720856 6.5842896 1.8720856l2.026123 0c2.2773438 -3.4751282 4.5564575 -6.952118 7.088623 -10.427246c1.3952026 -2.1262665 2.7886963 -4.2506714 4.182129 -6.4381714l0 0c0.5430298 0.79411316 1.0930176 1.5974884 1.6430054 2.426834c1.7713013 2.6736145 3.5443115 5.3472137 5.064331 7.753647c1.5182495 2.1392517 2.7851562 3.744156 4.050354 5.0800323c1.5200195 1.0705566 3.2930298 1.8720703 5.317383 1.8720703c2.2791138 0 3.7990723 -0.8015137 5.317322 -2.1392517c1.5200195 -1.3358765 2.2791138 -3.2079468 2.5321655 -5.61438c-2.5321655 -3.7423096 -5.064331 -7.219284 -7.8494873 -10.961594c-1.8995972 -2.8090363 -3.9414673 -5.467804 -5.913086 -8.200775l0 0c0.87335205 -1.1206512 1.7484741 -2.2413025 2.6217651 -3.2951508c2.026123 -2.139267 3.7991333 -4.545685 5.5704346 -6.6849365c1.7730103 -2.406433 3.038208 -4.009491 3.7990723 -5.3472137c0.7591553 -1.0686951 1.2651978 -2.6735992 1.2651978 -4.0094757c0 -2.1392517 -1.012146 -3.744156 -2.5321655 -5.0800323c-1.5181885 -1.0705566 -3.7973022 -1.8720856 -6.5825195 -1.8720856l-0.76086426 0c-0.25305176 0 -0.5061035 0 -0.7591553 0.2671814c-2.2790527 3.2079468 -4.8112183 6.6849365 -7.090332 9.892883c-1.4901123 2.0984344 -2.9802246 4.1950226 -4.5406494 6.369522l0 0c-0.69940186 -0.95552063 -1.3882446 -1.9073334 -2.0419312 -2.894394c-2.026062 -2.6735992 -3.7990723 -5.3471985 -5.5720825 -7.7536316c-1.2651978 -1.870224 -2.5321655 -3.2079468 -3.5443115 -4.276657c-1.012207 -1.0705566 -2.5321655 -1.6049042 -4.5582275 -1.6049042zm-151.42123 0c-1.519989 0 -2.7869568 0.2671814 -4.0521545 0.53434753c-1.2669373 0 -2.026062 0.2671814 -2.7851868 0.5362091l0 28.33908l0 2.6736145c0 5.0800323 1.012146 9.358536 3.0382385 12.566483c2.026062 2.9407806 4.811249 5.3472137 8.35556 6.9502563c3.7991028 1.337738 7.8494873 2.1392517 12.660767 2.1392517c3.7991028 0 7.3434143 -0.26716614 10.381622 -1.3358612c3.2930298 -0.8033905 5.8251953 -1.8720856 8.104309 -3.2098083c1.2651978 -1.0687103 2.5321655 -2.1374054 3.038208 -3.207962c0.7591553 -1.3358765 1.012146 -2.6735992 1.012146 -4.5438232l0 -12.03215l0 -21.923172c0 -2.9407806 -0.75909424 -4.812851 -2.026062 -5.8815613c-1.2651978 -1.0705566 -3.2912598 -1.6049042 -6.329468 -1.6049042c-1.5200195 0 -2.7852173 0.2671814 -4.0521545 0.53434753c-1.0121765 0 -2.0243225 0.2671814 -2.7851868 0.5362091l0 28.33908l0 10.160065c-0.506073 0.53434753 -1.5182495 0.80152893 -2.7851868 1.0687103c-1.0121765 0.53434753 -2.5321655 0.53434753 -4.5582275 0.53434753c-2.7851868 0 -5.0643005 -0.53434753 -6.58255 -2.1374054c-1.519989 -1.3377228 -2.532135 -3.744156 -2.532135 -6.9521027l0 -2.6736145l0 -21.923172c0 -2.9407806 -0.5061035 -4.812851 -1.7730408 -5.8815613c-1.519989 -1.0705566 -3.5443115 -1.6049042 -6.3294983 -1.6049042zm114.1998 -0.8015137c-3.2929688 0 -6.331238 0.53434753 -9.116394 1.6030426c-3.038269 1.0705566 -5.5703735 2.6735992 -8.102539 4.812851c-2.2791138 2.406433 -4.052185 5.0800323 -5.317383 8.287994c-1.5199585 3.4769745 -2.2791138 7.4864655 -2.2791138 12.032135c0 6.1487427 1.2651978 11.228775 3.5443115 15.507278c2.5321655 4.0094757 5.5704346 7.2174225 9.87561 9.356689c4.052124 1.8720703 8.863403 2.9407654 13.927673 2.9407654c3.5443115 0 6.8355713 -0.26716614 9.620789 -1.0686951c2.7869263 -0.80337524 5.06427 -1.8720703 6.5842896 -3.2079468c1.5200195 -1.337738 2.2791138 -3.2098083 2.2791138 -5.3472137c0 -1.3377228 -0.25305176 -2.406433 -0.75909424 -3.4769745c-0.7609253 -1.3358765 -1.5200195 -2.139267 -2.5321655 -2.6736145c-1.5200195 0.8033905 -3.5460815 1.6049042 -6.078247 2.6736145c-2.5321045 0.80337524 -5.317322 1.0705414 -8.102539 1.0705414c-3.5443115 0 -6.5842896 -0.80337524 -9.116394 -2.4064178c-2.019043 -1.2802124 -3.3949585 -3.4101868 -4.1259766 -6.2563477l0 0l26.40924 -4.1708984c2.026062 -0.26716614 3.7990723 -0.8015137 4.8112793 -2.1392517c1.013916 -1.0686951 1.7730103 -2.6735992 1.7730103 -5.0800323c0 -4.276657 -1.013916 -8.287979 -3.038208 -11.495941c-1.7730713 -3.4751282 -4.5582275 -6.1487274 -8.104309 -8.020813c-3.5443115 -1.8720703 -7.5964355 -2.9407654 -12.152954 -2.9407654zm-208.14243 -13.902374c-7.596466 0 -13.674683 1.870224 -17.979858 5.3472137c-4.0503845 3.4751282 -6.3294983 8.287979 -6.3294983 14.16954c0 3.7422943 0.75912476 6.9502563 2.2791138 9.356674c1.5182495 2.6736145 3.7973633 4.545685 6.58255 6.150589c2.7869263 1.6030579 6.0782166 3.207962 9.622528 4.276657l5.317322 1.8720856c2.5321655 0.8015137 4.3052063 1.8720703 5.5721436 2.9407654c1.2651978 1.0687103 1.7712708 2.406433 1.7712708 4.2785187c0 1.870224 -0.75912476 3.4751282 -2.2791138 4.8109894c-1.518219 1.6049042 -4.303406 2.139267 -7.8494873 2.139267c-3.5443115 0 -6.5825195 -0.5343628 -9.114685 -1.870224c-2.7851868 -1.0705566 -5.0643005 -2.6736145 -7.0903625 -4.2785187c-1.2669678 0.80152893 -2.2791138 1.8720856 -3.2912903 3.207962c-1.013916 1.0705566 -1.7730103 2.6735992 -1.7730103 4.545685c0 2.4064178 1.012146 4.5456696 3.038208 6.4158936c1.7730408 1.6049042 4.5582275 2.9407806 7.596466 4.0113373c3.2912598 0.80152893 7.0903625 1.3358765 11.140747 1.3358765c8.35733 0 14.686829 -1.870224 18.992035 -5.61438c4.558197 -3.7423096 6.5842896 -8.5551605 6.5842896 -14.703888c0 -5.61438 -1.519989 -9.892899 -4.8112793 -13.100845c-3.2930298 -3.4769897 -8.104279 -6.150589 -14.180725 -8.020813l-5.570404 -1.8720856c-2.2791138 -0.8015137 -3.7991028 -1.6049042 -5.0643005 -2.4064178c-1.013916 -0.80152893 -1.519989 -2.1392517 -1.519989 -3.4751282c0 -1.8720856 0.76086426 -3.207962 2.5321655 -4.2785187c1.519989 -1.0686951 4.052124 -1.8702087 7.0903625 -1.8702087c3.2912598 0 6.0764465 0.53434753 8.608612 1.3358612c2.532135 0.80152893 4.5582275 1.8720856 6.0782166 2.9407806c1.2651978 -0.80152893 2.026062 -1.870224 2.7851868 -2.9407806c0.75912476 -1.3358612 1.012146 -2.6735992 1.012146 -4.276642c0 -2.1392517 -0.75909424 -4.0113373 -2.532135 -5.6162415c-1.7712708 -1.6030426 -4.0503845 -2.6735992 -7.088623 -3.4751282c-3.039978 -0.80152893 -6.331238 -1.3358765 -10.128601 -1.3358765zm52.414307 13.902374c-2.2791138 0 -4.8112793 0.26716614 -7.3434143 0.53434753c-2.7851868 0.53434753 -5.0643005 1.0686951 -6.835602 1.8720703c-3.2929993 1.3358765 -4.811249 3.4751282 -4.811249 6.68309c0 1.0705566 0.25305176 2.4064178 1.012146 3.4751282c0.5061035 1.3377228 1.2669678 2.1392517 2.0260925 2.6735992c2.026062 -0.80152893 4.052124 -1.6030426 6.5842896 -2.1374054c2.532135 -0.53619385 5.0643005 -1.0705414 7.5964355 -1.0705414c3.2912903 0 5.8234253 0.53434753 7.596466 1.6049042c1.7712708 1.0686951 2.7851868 2.9407654 2.7851868 5.3471985l0 1.3358765l-13.421631 1.3377228c-5.8234253 0.5343628 -9.875549 2.139267 -12.660736 4.812866c-3.0382385 2.6735992 -4.3034363 6.415909 -4.3034363 11.22876c0 5.61438 2.0243225 9.892883 6.0764465 12.833664c4.0521545 2.6736145 9.622528 4.276657 16.45987 4.276657c3.7973328 0 7.3416443 -0.53434753 10.128601 -1.3358765c3.0382385 -0.80337524 5.5703735 -1.6049042 7.596466 -2.9407806c1.518219 -0.80337524 2.5303955 -1.8720703 3.2912598 -2.9407806c1.012146 -1.0705414 1.518219 -2.4064178 1.518219 -4.2785034l0 -24.329605c0 -6.417755 -2.2790833 -11.22876 -6.3294983 -14.436722c-4.305176 -2.942627 -9.875549 -4.5456696 -16.965912 -4.5456696z" fill-rule="evenodd"/></g></svg>